<?xml version="1.0" encoding="UTF-8"?>
<svg data-bbox="0 0 2551.519 2418.125" viewBox="0 0 2551 2418" height="501.373" width="529.047" xmlns="http://www.w3.org/2000/svg" shape-rendering="geometricPrecision" text-rendering="geometricPrecision" image-rendering="optimizeQuality" fill-rule="evenodd" clip-rule="evenodd" data-type="color">
    <g>
        <path d="M787 328c1-2 5-5 11-8v-2c-5 2-10 4-10 5-3 3-8 7-14 8-10 4-17 7-20 9h-1l-23 11h-2v-2c-2-1 0-5 0-6 2-2 2-2 2-3-2-15-2-25-2-31-2-12-2-22-2-30-1-8-1-18-1-28 0-13-5-27-5-39 0-19-2-39-3-55v-22c0-8-2-16-4-22-1-2 0-4 0-5 2-2 2-4 0-5v-2c0-5 0-11-3-18v-1l3-7v-3c-1-5 0-10 0-16 2-2 0-2 0-5v-2c2-3 2-7 2-11h2l1 1c2 0 4 0 4-1v-2c-7-12-5-25-4-36h2c16 31 31 60 42 88 4 10 9 18 13 28 7 16 10 26 12 29 0 2 0 2 1 4 2 1 2 3 4 4 0 5 1 12 5 15 3 5 5 8 6 13 2 5 3 10 7 13v2c0 2 1 5 5 10 13 27 24 57 36 86 1 3 3 7 4 10h2c0 2 0 2-2 3l-6 4h-5c-10 1-18 6-26 9-2 2-3 2-5 4-3 1-8 3-13 6 0 0-2 0-2-2h2l2-4v-2h-2c-2 5-7 6-13 10zM227 1495s-2 0-2-1v-2c5-3 8-8 13-13 13-16 26-33 43-49 6-6 13-15 19-23 10-11 20-21 30-32 8-9 13-15 16-20 8-8 15-15 18-20 15-16 31-34 49-55 5-3 10-10 16-18 10-12 18-18 28-29 7-9 18-18 29-30v-1c2 0 2 0 4 1 24 44 54 87 88 127h2c0 2-2 2-2 2-8 5-18 10-26 13-13 7-23 12-26 13-22 12-44 23-69 35-11 4-24 11-36 17-10 5-21 10-36 15-13 7-27 12-41 20-4 1-9 3-14 5-5 3-17 6-23 9-16 9-31 15-44 22-5 1-10 5-16 6-9 5-15 8-20 8m240-325 2 2c0 2-2 3-4 5-10 0-19 2-31 3-10 2-16 4-23 4-9 1-18 3-22 3-9 1-15 1-22 3-3 2-9 2-18 3-9 2-16 4-19 4-4 0-17 3-39 8h-13c-2 0-4 0-4 1-3 2-6 2-11 2-13 2-28 3-48 10h-3c-10 1-18 1-26 3-21 3-41 7-59 8-8 0-13 2-18 2-5 2-11 2-16 2h-3c-10 3-18 3-28 3 0 0-2-2-2-3 0 0 0-2 2-2 8-5 15-10 21-13 15-7 25-13 38-21 5-2 10-5 16-9 13-8 25-14 34-21 2-1 4-1 4-1 0-2 1-2 1-2 33-20 57-34 74-46 11-6 21-13 29-16 30-18 62-34 96-51 4-1 7-3 9-5h1l30-14c1 0 3 0 5 1 11 48 29 93 47 137m503-197v452l1 2h92c27-2 68-2 121-3 18 0 37-2 60-4 20-1 39-5 59-11 29-8 55-20 80-33h6l48 25v1c-38 23-77 41-116 56-41 14-82 24-124 31-33 3-66 6-97 6-32 0-63-1-96-6-75-12-147-33-214-67-44-23-85-49-122-80-79-67-146-154-182-250-11-26-17-52-24-78-11-51-15-101-13-152 0-28 3-57 10-90 6-29 14-59 26-85 19-49 46-93 75-134 31-40 67-76 109-107 66-49 137-85 216-105 26-6 47-11 63-13 2 0 4 2 4 3l-4 4c-9 6-22 14-35 26-14 8-23 16-31 23-14 9-23 18-33 24-7 7-18 15-33 26-6 5-11 10-16 15-3 2-5 6-5 13v215c0 2 0 2 2 2h1c7-3 15-6 23-10 15-6 33-14 51-21 32-11 63-23 96-33l2 2zm-560 24c-17-1-33-4-51-8-10-1-18-1-28-3-19-3-34-5-47-8-5 0-16-2-23-3h-13c-1 0-3 0-3-2-7-2-13 0-20-3-1 0-8-2-16-2-7 0-20-3-42-6-4 0-5-2-7-2-3 2-5 0-7 0 0-2-1-2-1-2h-10c-16-3-23-5-24-5-5 0-12-1-22-5-8-1-19-1-29-3-7-1-13-3-20-3-1 0-1 0-3-2-8-1-18-3-28-5-5 0-11 0-14-3-2 0-2 0-2-1 0 0 0-2 2-2 5-2 8-3 11-3s8-4 13-4h3l5-3h4c11-2 21-3 31-6h6c7-4 13-5 20-4l9-5c9 0 14 0 18-1 9-4 13-5 18-5h2c7-3 13-5 18-5 2 0 2 0 2-2h5c1 2 1 2 3 2l23-7h1c4-1 8-1 13-3 7-1 12-3 15-3h3c4-2 7-2 10-2 2 0 2 0 3-1 4-4 10-2 13-4 2 0 4-1 9-1 9-2 22-5 37-8 5-2 12-4 20-5 9-2 16-4 21-4 20-6 36-9 51-13q1.5 0 9-3h2c2 0 5 2 5 3h-2c0 36 2 72 3 108 2 7 4 12 4 18-2 8 3 20 1 28 0 1 0 1-1 1m558-352v-2l2-16-2 16zM39 614c10 1 23 1 38 5 1 0 3 0 5-2 3 0 5 2 8 2 5 0 13 1 24 1 12 2 23 5 35 5 3 0 8 0 14 2h39c2 0 2 2 4 0 8 0 13 2 19 2 8 1 15 0 23 3l43 5h1c2 1 2 1 3 1 12 0 18 0 20 2 11 2 21 3 33 3 1 0 3 2 3 2 7 1 13 0 20 1 11 4 22 5 31 7 14 2 31 5 42 8 2 0 2 2 2 2v1c-2 5-7 13-7 18 0 2-3 9-6 20-2 5-4 11-7 21-2 7-3 15-6 25-2 5-4 9-4 13-5 14-8 27-11 39 0 0 0 2-2 2-14-7-29-14-44-22-6-3-16-8-31-13-10-5-19-10-29-14-2 0-5-2-7-4-32-14-52-24-60-27-5-2-10-2-13-5 0-2-2-2-4-2-9-5-19-8-29-15-21-9-33-16-37-19-10-5-17-10-20-12-3-1-8-5-16-8-2 0-4-1-5-3-5-2-10-5-13-7-2 0-2-1-4-1-4-5-8-7-11-8-5-2-13-5-15-10-1-2-1-2-3-2s-2 0-3-1c0-2-2-2-2 0h-1l-17-10c-1 0-1-2-1-2 0-2 0-3 1-3m137-279c4 0 7 1 10 1 15 7 33 15 56 25 16 8 34 14 49 23h4c2 0 4 1 4 1 6 4 14 5 21 8 2 0 6 4 15 10h1l30 13c3 4 8 4 11 5q19.5 10.5 36 15c2 0 5 3 7 3 9 5 19 8 27 13 2 0 2 0 4 2 9 0 14 8 22 10h2c11 6 23 11 34 14l31 15v3l-8 10c-5 10-10 16-13 21-11 18-18 28-31 51-3 8-11 21-21 42l-2 2h-1l-10-7c-13-11-25-21-34-29-2-2-4-5-7-6-18-15-34-31-51-48-4-5-14-8-18-14-3-5-8-7-11-12s-10-6-13-11c-13-10-23-22-33-33 0-2-1-2-1-2-7-5-8-6-10-8-28-28-43-44-47-49-10-13-18-21-22-26-13-13-21-24-34-39 0-2 0-3 2-3zm608-4v2s-2 2-4 2v-2s2-2 4-2m9 0c0-1 0-1 2-3h2v2zh-1zM402 121v-2l1-1h2c5 1 10 4 13 8 11 9 20 19 28 27 1 0 3 2 5 2 8 2 6 8 13 13 3 2 11 8 26 23 32 33 50 51 57 56 0 0 2 1 5 6 1 2 5 3 10 7 0 0 1 1 3 1 5 8 13 15 21 23l3 3c5 5 8 10 12 12 6 6 13 11 18 18 8 5 13 11 16 14 11 12 25 23 34 35l12 6 1 2c0 1 0 1-1 1-12 10-21 17-26 20-10 7-17 11-23 16 0 2-8 7-20 17-13 8-24 18-36 27 0 2 0 2-1 2 0 0-2 0-2-2q-24-39-24-42c-2-2-7-11-17-26-5-10-10-18-15-28-6-11-9-21-13-24-8-15-13-23-13-25-5-8-8-19-13-29-9-15-14-30-23-43-4-6-8-13-13-23-8-17-14-34-21-48-1-5-5-10-8-17zm622-106 1 1c0 2 2 2 2 2 3 0 5 0 5 2 1 9 3 14 3 21 0 5 2 10 3 16v5c0 8 0 18 2 28 0 10 2 18 2 28v73c-2 10-2 21-2 36-2 5-2 16-2 34 0 3-1 5-5 5-9 3-19 5-29 5-11 2-21 3-29 5-12 3-25 5-41 8h-2c-1 0-1-2-3-3 0-3 3-8 5-13 1-13 6-26 11-39v-2l-1-2c4-14 9-31 14-47 2-5 4-11 7-18 1-7 5-18 8-25 2-3 3-4 2-6 0-2 0-3 1-3 3-4 3-10 5-15 7-21 16-46 30-75 3-5 6-12 11-20 0-1 2-1 2-1M803 317l3 1c2 0 2 0 2-1-2-2-3-2-5 0" fill="#ffffff" data-color="1"/>
        <path d="M1765 282c62 2 124 12 181 38 67 33 119 82 157 149 37 63 57 135 68 207 3 28 7 60 8 90 5 65 5 129 2 191-7 111-28 225-88 321-57 90-139 144-243 163-30 5-59 9-87 9-29 0-57-4-86-9-107-19-188-75-244-164-60-95-81-209-88-320-3-64-1-128 2-193 1-28 5-62 10-88 11-72 31-144 68-207 38-67 90-116 157-149 57-26 119-38 183-38m-113 320c-8 25-13 48-16 72-4 26-7 51-7 72 0 18-1 36-1 57v128c0 21 0 39 1 55 2 25 3 42 5 56 5 37 12 73 26 109 18 41 51 72 100 72 32 0 60-12 81-38 10-11 18-23 25-37 6-17 11-33 16-49 2-9 5-28 10-61 2-8 0-14 2-24 0-3 1-10 1-18 5-83 5-168 0-256-1-18-3-38-6-63-8-60-30-146-98-164-41-10-87 1-111 36-12 14-21 32-28 53" fill="#ffffff" data-color="1"/>
        <path d="M1002 1393V560l-173 72v1c-1 0-1-1-1-3V472c60-48 120-95 184-142 8-5 15-8 21-8 71 0 149 0 237 1 2 0 2 2 2 2l1 1061v5l-1 2z" fill="#ffffff" data-color="1"/>
        <path d="M297 1584h2c-10 24-20 47-28 65-2 3-2 6-3 8h-4c-31-25-76-39-117-29-12 1-21 6-28 14-1 4-3 10-5 18-3 26 21 39 43 48 10 3 27 8 52 16 49 15 91 44 96 98 4 18 2 36-3 52-5 21-16 41-38 57-1 2-6 5-14 10-5 3-12 5-17 8-52 20-112 17-164-1-18-7-36-15-51-27-2-1-3-4-2-6l31-62c0-2 2-2 4 0 11 8 22 15 34 19 28 12 55 18 85 17 6 0 14-3 24-7 17-6 25-23 23-41-2-19-16-27-34-35-5-2-10-4-12-5-8-2-22-7-44-13-26-9-60-23-80-46-8-12-13-25-18-39-1-8-3-17-3-25s0-16 2-23c3-32 18-58 44-78 28-21 63-29 96-29 44 0 92 11 129 36M23 1913c-2 2 0 7 1 8 12 9 23 15 36 20 43 16 87 21 133 15 42-5 89-31 104-75 8-25 8-51 2-75-8-31-28-48-56-64-6-3-14-7-21-10-5-2-11-5-16-6q-27-7.5-39-12c-20-5-48-16-54-36-5-10-5-19 0-29 3-10 9-17 19-21 39-18 87-5 123 18h1c2 1 4 3 7 4h1c2 0 2 0 4-1l24-61v-1c0-2-1-3-5-5-34-20-70-30-109-30-5 0-15 0-28 2-8 0-21 3-37 7-18 5-31 14-44 24-20 15-31 34-35 59-1 11-3 19-3 28 0 18 3 39 13 57 5 6 7 11 8 13 12 10 21 18 33 24 6 4 16 9 29 13 10 4 18 7 23 9 21 4 46 11 65 24 17 10 23 25 18 44-5 21-24 33-45 36-31 3-62-2-90-15-5-1-13-6-28-14-5-4-8-5-11 3-15 26-22 42-23 47" fill="#ffffff" data-color="1"/>
        <path d="M23 1913c1-5 8-21 23-47 3-8 6-7 11-3 15 8 23 13 28 14 28 13 59 18 90 15 21-3 40-15 45-36 5-19-1-34-18-44-19-13-44-20-65-24-5-2-13-5-23-9-13-4-23-9-29-13-12-6-21-14-33-24-1-2-3-7-8-13-10-18-13-39-13-57 0-9 2-17 3-28 4-25 15-44 35-59 13-10 26-19 44-24 16-4 29-7 37-7 13-2 23-2 28-2 39 0 75 10 109 30 4 2 5 3 5 5v1l-24 61c-2 1-2 1-4 1h-1c-3-1-5-3-7-4h-1c-36-23-84-36-123-18-10 4-16 11-19 21-5 10-5 19 0 29 6 20 34 31 54 36q12 4.5 39 12c5 1 11 4 16 6 7 3 15 7 21 10 28 16 48 33 56 64 6 24 6 50-2 75-15 44-62 70-104 75-46 6-90 1-133-15-13-5-24-11-36-20-1-1-3-6-1-8" fill="#ffffff" data-color="1"/>
        <path d="M2338 1868h3c33 22 67 32 106 29 2 0 5-2 12-5 4-2 8-5 9-8q12-15-3-30c0-1-2-1-2-1-11-5-19-8-24-10-18-3-34-8-49-13-23-7-41-16-56-36-8-10-13-23-13-39-3-52 36-88 87-96 21-4 42-4 65 0 21 1 41 8 61 18 5 3 6 4 8 8v3l-21 55c-2 2-4 2-4 2-11-6-23-13-36-18-11-5-24-6-39-6s-32 5-36 21c-1 6 2 13 8 18 4 3 18 10 25 11 11 4 23 5 34 10 33 10 66 25 75 62 7 26 4 56-13 78-8 10-16 18-28 25-16 8-32 13-50 15-43 5-82-2-119-17-5-3-8-5-12-6-5-4-8-5-11-7-2 0-3-3-2-5zm0 9c-2 5-2 7-4 9 0 0-4 13-16 37v3c0 2 0 2 2 4 26 14 54 24 85 27 21 2 44 2 63-1 13-4 26-8 39-15 23-13 33-31 40-55v-23c0-9 0-15-4-22-3-9-4-16-8-19-11-13-24-23-42-31-15-5-33-10-51-15s-52-18-37-42c11-20 39-20 58-17 18 4 35 12 49 22 2 1 5 1 5 0v-2l22-47s0-2-2-4c-3-5-7-8-13-11-5-2-13-3-26-8-8-4-18-5-26-5-23-2-45-2-62 1-15 2-27 7-40 12-29 16-44 41-44 77 0 6 0 14 4 24 1 8 6 15 13 21 8 9 13 13 16 15 11 7 21 11 26 13 8 2 23 7 47 13 4 0 7 2 12 3 5 2 18 5 23 9 23 21 5 47-22 50-35 5-70-6-101-26h-1c-2 0-5 0-5 3" fill="#ffffff" data-color="1"/>
        <path d="M976 1928c-6-38-5-70-5-105 0-8 2-14 0-22v-5c2-7 2-20 5-30 5-13 12-23 21-29 22-15 48-16 69 3 11 10 16 30 16 46 2 42 2 91 2 147v15c0 1 2 4 3 4 23-1 44-1 67 0 3 0 5-3 5-4 0-5-2-14-2-22 0-60 2-109 2-148 0-33-6-67-29-92-10-11-31-19-46-23-13-3-31-3-51 0-6 0-11 2-18 4-11 5-16 6-18 8-13 8-24 18-32 29-2 4-3 5-5 5-3 2-7 0-8-3-13-25-33-39-61-44-8-2-18 0-26 0-13-2-36 5-47 11-12 7-21 17-30 30-1 1-4 1-8 0h2c3-5 6-10 11-15 25-25 58-34 93-29 30 3 53 18 67 42 0 2 2 3 2 5 2 2 3 2 3 2 0-2 2-2 2-2 8-11 18-23 29-31 12-8 25-13 41-16 29-5 62-2 88 14 38 22 46 70 46 111v170l-2 2h-81c-2 0-2-2-2-2v-166c-2-18-6-38-20-48-8-6-17-10-26-10-27 0-47 17-55 43-2 5-2 15-2 28z" fill="#ffffff" data-color="1"/>
        <path d="M1316 1698c-8-3-5-17-5-25 0-3-2-5-5-5h-65c-2 0-4 2-4 4v276c0 1 2 3 4 3h68c2 0 4-2 4-3 1-54 1-95 1-121 0-17 2-33 2-44v-7c3-10 5-15 5-16 3-7 8-15 16-21 18-15 47-20 65-5 12 9 20 19 22 32 1 2 1 2 1 4 0 14 0 26 2 34 0 15-2 28 0 41v101c0 3 1 5 5 5h65c3 0 5-2 5-5q-3-58.5 0-132v-26c2-12 3-20 6-25 10-23 27-34 53-37 21-4 42 9 50 31 5 11 7 21 7 31v142c0 8 0 14 1 18 0 1 2 3 4 3h67c3 0 5-2 5-5v-162c0-16-2-34-5-47-2-13-7-25-13-36-7-10-17-20-27-26-11-7-22-12-34-12-34-4-72-1-99 20-7 5-15 13-22 23-1 2-3 3-3 3-3 2-6 2-8-1-12-23-29-38-54-45-15-3-33-1-46-1-26 3-49 15-63 37-2 2-4 2-5 2v-2c14-22 36-36 60-40 23-4 46-2 67 4 21 9 36 23 44 43 0 2 0 2 2 2 0 0 1 0 1-2 15-21 33-34 58-43 34-11 83-9 112 15 31 25 38 67 38 105 0 71 0 129 1 171l-1 2h-83l-2-2v-153c0-9 0-17-2-23-3-23-8-39-32-46-20-6-44 0-58 16-13 17-16 35-16 54v152s0 2-1 2h-80c-2 0-2-2-2-4v-151c0-18 0-31-7-44-8-20-24-28-47-27-24 2-44 23-47 46-2 7-2 13-2 21v157l-2 2h-83c-1 0-1-2-1-2v-289c0-2 0-2 1-2h79c1 0 1 0 1 2z" fill="#ffffff" data-color="1"/>
        <path d="M1840 1835s-2 0-2 2c5 24 18 45 43 53 13 5 34 9 50 5 15-1 25-3 28-5 18-6 33-11 41-19 1-2 1-2 3 0l31 49c2 1 0 3-2 5-18 14-39 26-63 31 0 0-7 1-18 5-7 0-13 1-20 1h-41c-6-1-14-3-27-5-12-3-22-6-28-8-44-21-70-54-78-103-4-18-4-37-2-60 3-28 13-51 28-72 21-28 47-46 81-52 10-2 17-3 22-3q19.5-3 42 0c8 1 15 1 20 3 50 13 83 49 94 99 5 25 7 48 3 72l-1 2zm158 42c-37 23-77 30-117 17-10-2-18-8-28-17-2-1-3-1-3-3-7-11-17-26-15-39 2-3 3-5 6-5h195c3 0 6-3 6-7 2-31-1-60-13-86-3-10-10-21-21-34-18-25-51-38-82-41-14-2-36-2-54 1-6 2-13 4-18 5-55 15-91 66-94 123-3 26-2 54 6 78 5 12 8 20 10 25q24 39 69 54c13 4 23 6 27 8 18 1 41 3 67 1 7 0 12-1 18-1 25-5 49-17 71-31 1-2 1-5 1-8l-26-38c0-2-2-2-3-2z" fill="#ffffff" data-color="1"/>
        <path d="M2188 1706c-2 0-2-2-2-2-2-3-2-6-2-8-1-1-1-5-1-6v-15c0-8-9-7-13-7h-56c-2 0-5 2-5 5 0 13 2 23 2 35v68c0 36 0 93-2 170 0 3 3 5 5 5h72c5-3 2-10 2-13v-20c-2-6-2-13-2-18 2-16 2-42 2-77v-16c0-37 19-67 53-77 12-3 25-3 40-1 3 1 6-2 6-7 0-18 2-34 2-52 0-3-2-6-5-6-28-5-52-2-74 16-6 6-11 13-14 21-2 2-4 3-7 3l5-11s0-2 2-2c24-29 55-41 94-31 2 0 4 2 4 4l-4 71-1 2h-2c-15-7-29-7-44-2-24 7-39 22-47 44-2 4-2 7-2 10-2 3-3 7-3 13v152s0 2-2 2h-81c-2 0-2-2-2-2v-289l2-1h76c2 0 2 1 2 1z" fill="#ffffff" data-color="1"/>
        <path d="M2338 1877c0-3 3-3 5-3h1c31 20 66 31 101 26 27-3 45-29 22-50-5-4-18-7-23-9-5-1-8-3-12-3-24-6-39-11-47-13-5-2-15-6-26-13-3-2-8-6-16-15-7-6-12-13-13-21-4-10-4-18-4-24 0-36 15-61 44-77 13-5 25-10 40-12 17-3 39-3 62-1 8 0 18 1 26 5 13 5 21 6 26 8 6 3 10 6 13 11 2 2 2 4 2 4l-22 47v2c0 1-3 1-5 0-14-10-31-18-49-22-19-3-47-3-58 17-15 24 19 37 37 42s36 10 51 15c18 8 31 18 42 31 4 3 5 10 8 19 4 7 4 13 4 22v23c-7 24-17 42-40 55-13 7-26 11-39 15-19 3-42 3-63 1-31-3-59-13-85-27-2-2-2-2-2-4v-3c12-24 16-37 16-37 2-2 2-4 4-9" fill="#ffffff" data-color="1"/>
        <path d="M976 1928v23l-77 1c-1 0-3-1-3-3-1-5-3-10-3-15 0-11 0-35 2-73v-69c0-13-2-24-5-31-12-27-35-42-64-32-18 5-31 18-39 36-5 13-7 26-7 41v130s0 3 2 10v2c0 1-2 3-5 3h-69c-3 0-4-2-4-5v-274c0-2 1-4 4-4h64c3 0 5 2 5 4v23c0 3 0 6 3 8 4 1 7 1 8 0 9-13 18-23 30-30 11-6 34-13 47-11 8 0 18-2 26 0 28 5 48 19 61 44 1 3 5 5 8 3 2 0 3-1 5-5 8-11 19-21 32-29 2-2 7-3 18-8 7-2 12-4 18-4 20-3 38-3 51 0 15 4 36 12 46 23 23 25 29 59 29 92 0 39-2 88-2 148 0 8 2 17 2 22 0 1-2 4-5 4-23-1-44-1-67 0-1 0-3-3-3-4v-15c0-56 0-105-2-147 0-16-5-36-16-46-21-19-47-18-69-3-9 6-16 16-21 29-3 10-3 23-5 30v5c2 8 0 14 0 22 0 35-1 67 5 105" fill="#ffffff" data-color="1"/>
        <path d="M1316 1698v3c1 0 3 0 5-2 14-22 37-34 63-37 13 0 31-2 46 1 25 7 42 22 54 45 2 3 5 3 8 1 0 0 2-1 3-3 7-10 15-18 22-23 27-21 65-24 99-20 12 0 23 5 34 12 10 6 20 16 27 26 6 11 11 23 13 36 3 13 5 31 5 47v162c0 3-2 5-5 5h-67c-2 0-4-2-4-3-1-4-1-10-1-18v-142c0-10-2-20-7-31-8-22-29-35-50-31-26 3-43 14-53 37-3 5-4 13-6 25v26q-3 73.5 0 132c0 3-2 5-5 5h-65c-4 0-5-2-5-5v-101c-2-13 0-26 0-41-2-8-2-20-2-34 0-2 0-2-1-4-4-13-10-23-22-32-18-15-47-10-65 5-8 6-13 14-16 21 0 1-2 6-5 16v7c0 11-2 27-2 44 0 26 0 67-1 121 0 1-2 3-4 3h-68c-2 0-4-2-4-3v-276c0-2 2-4 4-4h65c3 0 5 2 5 5 0 8-3 22 5 25" fill="#ffffff" data-color="1"/>
        <path d="M1998 1877h2c1 0 3 0 3 2l25 38c1 3 1 6 0 8-22 14-46 26-71 31-6 0-11 1-18 1-26 2-49 0-67-1-4-2-14-4-27-8q-45-15-69-54c-2-5-5-13-10-25-8-24-9-52-6-78 3-57 39-108 94-123 5-1 12-3 18-5 18-3 40-3 54-1 31 3 64 16 82 41 11 13 18 24 21 34 12 26 15 55 13 86 0 4-3 7-6 7h-195c-3 0-4 2-6 5-2 13 8 28 15 39 0 2 1 2 3 3 10 9 18 15 28 17 40 13 80 6 117-17m-29-104c1-7-3-13-7-23-6-15-23-26-37-31-8-3-13-2-20-3-16-2-34 5-46 14-9 10-18 23-22 40-2 3 0 8 1 9 2 2 3 2 8 2h118l2-2q1.5 0 0-3h1c0-1 2-1 2-3" fill="#ffffff" data-color="1"/>
        <path d="m2188 1706 1-2c3 0 5-1 7-3 3-8 8-15 14-21 22-18 46-21 74-17 3 0 5 4 5 7 0 18-2 34-2 52 0 5-3 8-6 7-15-2-28-2-40 1-34 10-53 40-53 77v16c0 35 0 61-2 77 0 5 0 12 2 18v20c0 3 3 10-2 13h-72c-2 0-5-2-5-5 2-77 2-134 2-170v-68c0-12-2-22-2-35 0-3 3-5 5-5h56c4 0 13-1 13 7v21c1 2 1 5 3 8 0 0 0 2 2 2" fill="#ffffff" data-color="1"/>
        <path d="M550 1918c2 0 3 2 5 3v25c0 2 3 5 7 5h63c4 0 7-3 7-5v-274c0-2-2-4-3-4h-71c-1 0-5 2-5 5 2 56 2 87 2 93 0 13-2 23 0 33 0 15-2 36-3 49-3 11-8 23-18 31-2 2-7 5-15 10h-3c-13 5-26 5-41 3-26-6-36-29-37-54v-32c-2-33 0-54 0-64v-51c0-6 0-13 1-18 0-3-1-5-5-5h-70c-3 0-5 2-5 5 2 23 0 46 0 72 2 26 2 59 0 96 0 18 2 35 5 48 2 10 5 19 11 31 7 10 14 16 22 21 11 7 19 11 27 13 22 5 43 5 66 2 14-4 27-10 41-22 6-4 9-13 19-16-10 15-21 25-34 33-7 3-16 6-25 8-18 3-34 5-52 2-18-2-34-9-47-18-13-12-25-26-30-44-1-4-3-10-4-23-2-8-4-15-4-23 2-5 2-69 0-188 0-2 2-2 2-2h85s1 0 1 2v183c4 8 5 13 5 15 10 24 31 27 56 26 10-2 16-5 23-10 16-10 23-26 23-46 1-26 1-81 0-168l1-2h83c2 0 2 0 2 2v291h-82c-1 0-3-2-3-2v-2c2 0 2-11 2-29 0-2 0-3-2-5" fill="#ffffff" data-color="1"/>
        <path d="M780 1703c-3-2-3-5-3-8v-23c0-2-2-4-5-4h-64c-3 0-4 2-4 4v274c0 3 1 5 4 5h69c3 0 5-2 5-3v-2c-2-7-2-10-2-10v-130c0-15 2-28 7-41 8-18 21-31 39-36 29-10 52 5 64 32 3 7 5 18 5 31v69c-2 38-2 62-2 73 0 5 2 10 3 15 0 2 2 3 3 3l77-1v3l-1 2h-84l-1-2v-168c0-8-2-16-5-26-15-39-66-38-87-7-8 12-13 26-13 41v160s0 2-1 2h-84l-1-2v-289c0-2 1-2 1-2h80z" fill="#ffffff" data-color="1"/>
        <path d="M550 1918c-10 3-13 12-19 16-14 12-27 18-41 22-23 3-44 3-66-2-8-2-16-6-27-13-8-5-15-11-22-21-6-12-9-21-11-31-3-13-5-30-5-48 2-37 2-70 0-96 0-26 2-49 0-72 0-3 2-5 5-5h70c4 0 5 2 5 5-1 5-1 12-1 18v51c0 10-2 31 0 64v32c1 25 11 48 37 54 15 2 28 2 41-3h3c8-5 13-8 15-10 10-8 15-20 18-31 1-13 3-34 3-49-2-10 0-20 0-33 0-6 0-37-2-93 0-3 4-5 5-5h71c1 0 3 2 3 4v274c0 2-3 5-7 5h-63c-4 0-7-3-7-5v-25c-2-1-3-3-5-3" fill="#ffffff" data-color="1"/>
        <path d="M1967 1776h-1q1.5 3 0 3l-2 2h-118c-5 0-6 0-8-2-1-1-3-6-1-9 4-17 13-30 22-40 12-9 30-16 46-14 7 1 12 0 20 3 14 5 31 16 37 31 3 10 8 16 7 23 0 2-2 2-2 3m-127-1v1h122c2 0 2-1 2-1-2-20-12-40-31-49-7-4-12-5-13-5-18-4-39 0-54 11-13 10-23 25-26 43" fill="#ffffff" data-color="1"/>
        <path d="M2547 2065s-2 0-7 2c-37 1-70 5-96 5-38 1-74 3-110 5-26 1-42 1-50 1-25 0-43 3-65 3h-62c-54 4-98 2-154 4-13 0-44 1-91 1-422 5-836 5-1246 0-215-1-403-6-593-16-39-2-58-3-58-5s19-3 58-5c190-10 378-13 593-16 410-5 824-5 1246 0h91c56 1 100 1 154 3 19 2 40 2 62 2s40 1 65 1c8 0 24 2 50 2 36 2 72 3 110 5 26 2 59 3 96 6 5 0 7 0 7 2" fill="#ffffff" data-color="1"/>
        <path fill="#ffffff" d="M779.106 2154.239c4.468 12.48-2.87 26.52-16.388 31.36-13.52 4.84-28.1-1.352-32.569-13.831-4.468-12.48 2.869-26.52 16.388-31.36s28.1 1.352 32.569 13.831" data-color="1"/>
        <path fill="#ffffff" d="M2187 2163c0 13.255-10.745 24-24 24s-24-10.745-24-24 10.745-24 24-24 24 10.745 24 24" data-color="1"/>
        <path d="M2104 2354s0 2-1 2h-38l-2-2v-212s0-2 2-2h38c1 0 1 2 1 2zm-3-206c0-1-2-3-3-3h-26c-2 0-4 2-4 3v198c0 3 2 5 4 5h26c1 0 3-2 3-3z" fill="#ffffff" data-color="1"/>
        <path d="M2072 2145h26c1 0 3 2 3 3v200c0 1-2 3-3 3h-26c-2 0-4-2-4-5v-198c0-1 2-3 4-3" fill="#ffffff" data-color="1"/>
        <path d="m1672 2173-18 29c0 2 0 2-2 2-11-8-21-13-34-16-8-2-20-4-31 0-23 3-38 16-46 37-6 15-6 31-3 47 8 28 26 44 55 49 4 0 10 0 22-1 13 0 26-7 35-17h2s2 0 2 2l16 25c2 1 0 4-2 6-8 7-18 12-26 15-37 14-81 10-114-15-21-16-33-41-36-70-5-47 16-90 62-109 7-4 13-5 20-5l1-2h4q28.5-3 45 0 22.5 4.5 48 21zm-7 155c-5-8-8-13-11-15-2-3-5-3-7-1-3 3-5 4-6 4-12 5-23 9-36 10-18 2-33-5-48-14-9-10-16-22-21-35-1 0-1-1-1-1-4-13-5-30 0-43 1-6 3-11 3-14 6-14 14-23 28-30 26-13 55-10 80 7 3 1 6 1 9-2l10-16c2-2 2-5 0-7-2-1-3-3-6-5q-54-27-108-3c-16 7-33 20-41 34-18 31-20 64-6 100 4 15 14 26 26 36 13 10 26 16 40 19 31 5 62 4 90-14 2-2 3-4 5-7z" fill="#ffffff" data-color="1"/>
        <path d="M1353 2281c2 1 4 1 7 0v-2c6-16 11-26 11-33v-1c0-4 4-7 7-7h24c2 0 4 2 4 5-5 18-15 36-27 59-4 10 0 16 9 24 6 5 11 10 14 17 2 3 4 5 7 6 0 2 0 2-2 2-8 0-19 0-31-2-8 0-16-10-19-16-2 0-2-2-4-2l-1 2c-13 13-28 19-46 21-25 3-52 0-70-21-15-18-10-51 5-65 6-9 14-14 24-18l2-2c0-2-2-2-2-2h-1l1-3v-2c-6-8-11-14-13-21-5-10-6-21-3-34 0-5 1-8 3-12 12-14 25-22 43-24 22-3 45 0 60 21q3 4.5 3 15c3 18-3 34-18 47-6 5-13 10-19 13v2zm-60-53s2 2 3 2c2 0 3 0 3-2 17-8 35-26 27-44-4-5-7-8-13-10-12-3-23 0-30 12-10 13 0 33 10 42m37 82-35-38h-2c-2-4-3-6-7-6-1 0-3 0-3 2-16 13-29 34-10 50 18 13 43 7 57-5 0 0 2 0 2-1 0 0-2 0-2-2" fill="#ffffff" data-color="1"/>
        <path d="M1665 2331c-2 3-3 5-5 7-28 18-59 19-90 14-14-3-27-9-40-19-12-10-22-21-26-36-14-36-12-69 6-100 8-14 25-27 41-34q54-24 108 3c3 2 4 4 6 5 2 2 2 5 0 7l-10 16c-3 3-6 3-9 2-25-17-54-20-80-7-14 7-22 16-28 30 0 3-2 8-3 14-5 13-4 30 0 43 0 0 0 1 1 1 5 13 12 25 21 35 15 9 30 16 48 14 13-1 24-5 36-10 1 0 3-1 6-4 2-2 5-2 7 1 3 2 6 7 11 15z" fill="#ffffff" data-color="1"/>
        <path d="M188 2233c0 2-2 2-2 3-2 0-2 2-3 2H93c-2 0-3-2-3-3-2-5-2-12-2-16v-56c2-3-1-5-5-5-6-1-14-1-21 0-10 0-15 5-13 15 0 1 2 1 3 1 0 2 2 2 2 2v172c0 1 2 3 3 3h28c2 0 2-2 2-2 1-3 3-8 3-11q-3-45 0-69c0-1 1-3 3-3h93c3 0 7 2 7 5v75c0 3 1 5 5 5h27c2 0 2-2 2-2v-189c0-2 0-2-2-2h-27c-4 0-7 2-7 5 2 23 2 44 0 67 0 2 0 3-3 2v-77s0-2 1-2h40c1 0 1 2 1 2v199s0 2-1 2h-40c-1 0-1-2-1-2v-83c0-2 0-2-2-2H91v87H51c-2 0-2-2-2-2v-199s0-2 2-2h40v77c0 2 2 3 4 3z" fill="#ffffff" data-color="1"/>
        <path d="M188 2233v-1c3 1 3 0 3-2 2-23 2-44 0-67 0-3 3-5 7-5h27c2 0 2 0 2 2v189s0 2-2 2h-27c-4 0-5-2-5-5v-75c0-3-4-5-7-5H93c-2 0-3 2-3 3q-3 24 0 69c0 3-2 8-3 11 0 0 0 2-2 2H57c-1 0-3-2-3-3v-172s-2 0-2-2c-1 0-3 0-3-1-2-10 3-15 13-15 7-1 15-1 21 0 4 0 7 2 5 5v56c0 4 0 11 2 16 0 1 1 3 3 3h90c1 0 1-2 3-2 0-1 2-1 2-3" fill="#ffffff" data-color="1"/>
        <path d="M707 2214c-5-2-8-4-12-4-11 2-21 2-29 2-5 0-8-3-8-8v-31c0-2-2-3-3-3h-23c-3 0-5 3-5 6v25c0 13-12 11-20 11-1 0-3 3-3 5v13c0 3 2 5 5 5q9 0 15 3h1c2 3 4 5 4 10-2 21-2 44-2 67 2 11 5 21 13 29 10 12 37 12 54 8 3-1 6-3 6-6 2-5 2-12-3-16-2 0-2-2-3-2-10 0-25 5-30-7-3-8-6-18-6-27 2-25 2-41 0-53 0-1 2-1 2-3 3-2 4-2 8-2q21 0 39-3c1 0 1 2 0 3 0 2-2 2-2 2h-41c-1 0-1 0-1 2v60c0 8 3 23 13 25 6 1 15 1 21-2h2s1 0 1 2c2 6 4 14 5 21 0 3 0 6-5 8-13 5-27 7-42 3-5 0-10-3-15-5-11-6-19-24-19-34v-78l-2-2h-20c-1 0-1 0-1-2v-27c0-2 0-2 1-2h20l2-2v-37c0-2 0-3 1-3h38v40s0 2 1 2h41c2 0 2 0 2 2z" fill="#ffffff" data-color="1"/>
        <path d="M707 2214v19q-18 3-39 3c-4 0-5 0-8 2 0 2-2 2-2 3 2 12 2 28 0 53 0 9 3 19 6 27 5 12 20 7 30 7 1 0 1 2 3 2 5 4 5 11 3 16 0 3-3 5-6 6-17 4-44 4-54-8-8-8-11-18-13-29 0-23 0-46 2-67 0-5-2-7-4-10h-1q-6-3-15-3c-3 0-5-2-5-5v-13c0-2 2-5 3-5 8 0 20 2 20-11v-25c0-3 2-6 5-6h23c1 0 3 1 3 3v31c0 5 3 8 8 8 8 0 18 0 29-2 4 0 7 2 12 4" fill="#ffffff" data-color="1"/>
        <path d="M1293 2228c-10-9-20-29-10-42 7-12 18-15 30-12 6 2 9 5 13 10 8 18-10 36-27 44 0 2-1 2-3 2-1 0-3-2-3-2m2-5s1 2 3 2c0 0 1 0 1-2 14-6 30-21 23-37-3-3-6-7-11-8-10-2-18 1-25 10-8 11 0 27 9 35" fill="#ffffff" data-color="1"/>
        <path d="M304 2295c3 7 6 15 11 20 15 15 43 15 59 6 10-3 15-6 16-8h2l13 21c1 2 1 4 0 5-7 5-16 12-25 15-22 7-42 7-60 2-33-7-51-28-57-61-2-14-2-29 3-44 15-39 52-54 92-47 17 3 29 11 40 24 13 17 17 43 13 62 0 2 0 2-1 2H305l-1 2zm88 28c-2-2-3-3-5-3s-2 1-3 1l-26 10h-2c-15 0-28-1-39-10-2-1-4-1-4-3-4-5-13-15-11-23 0-5 2-6 7-6h14c23-2 49 0 82 1l1-1c5-7 2-21 2-28-2-7-3-13-5-18-11-23-29-36-57-38-28-1-54 9-68 31-15 23-15 71 3 94 10 11 23 18 36 21 24 6 47 5 70-3 0-2 5-4 13-7v-2c3-1 3-5 2-6v-2z" fill="#ffffff" data-color="1"/>
        <path d="M851 2217c-7-5-17-8-28-5-3 0-7 2-5 5 0 10 0 18-2 26l4 105c0 1 1 3 3 3h24c2 0 5-2 5-3v-2c-1-23-1-49-1-74 0-22 13-36 32-39 8-1 16 0 25 7 6 5 9 11 11 23 0 6 2 9 2 11v72c0 3 1 5 5 5h21c3 0 5-2 5-5v-77c0-15-2-28-7-39-6-13-21-21-34-23-20-3-39 0-54 15-2 1-3 3-3 3-2 0-3-2-3-5 0 2 0 2 1 2 5-5 8-7 8-8 8-5 17-10 26-10 9-2 13-2 17-2 26 2 42 15 50 39 2 7 2 18 2 28 2 34 2 62 2 85l-2 2h-38l-1-2v-85c0-3 0-6-3-15-4-11-14-18-27-18-21 4-31 15-32 36v82s0 2-2 2h-36c-1 0-1-2-1-2v-147h34c2 0 3 0 3 2z" fill="#ffffff" data-color="1"/>
        <path d="M1099 2222h1v-13c0-2 2-2 2-2h34c2 0 2 0 2 2v139c0 3 0 9-3 19-9 33-36 47-69 51-24 1-46-4-67-15-2-2-2-3-2-5v-2l10-24s2-2 4-2h1c15 9 31 13 47 12 22-2 33-12 38-31 2-7 3-13 2-20h-2c0 2-3 5-7 7-16 14-35 18-58 11-13-3-23-10-31-19-17-20-20-46-15-71q3-21 15-36c14-16 34-22 60-21 15 2 28 8 38 20m-38 10c-23 0-41 21-39 45 0 25 20 44 42 44 23-1 41-21 40-45 0-26-20-46-43-44" fill="#ffffff" data-color="1"/>
        <path d="M1854 2279c0 11-1 23-6 33-13 34-46 49-82 47s-65-25-73-59c-2-5-2-11-2-19 0-7 0-13 2-18 6-36 36-59 72-61 36-3 68 12 83 46 3 10 6 20 6 31m-4-7c0-37-31-67-67-67h-2l-20 2c-35 0-65 31-65 67v15c2 36 31 65 67 65h21c36-2 66-31 66-67z" fill="#ffffff" data-color="1"/>
        <path d="M1956 2202c45 0 81 31 81 79 0 47-36 78-81 78-46 0-82-31-82-78 0-48 36-79 82-79m75 72c0-38-30-67-65-67h-18c-38 0-67 29-69 65v15c0 36 31 67 67 67h18c37 0 67-29 67-67z" fill="#ffffff" data-color="1"/>
        <path d="M2256 2222c-2 0-3-3-6-10v-2h-22c-3 0-6 4-6 7v129c0 3 3 5 5 5h23c1 0 3-2 4-3v-18c0-17 2-30 0-49 0-20 2-33 18-43 10-6 22-8 33-3 2 1 2 1 3 3 10 8 13 16 15 31 0 28 2 52 0 77 0 3 2 5 5 5h24c2 0 4-2 4-3v-80c0-9 0-15-2-22-3-16-10-27-23-34-15-10-34-7-50-3-7 1-13 8-17 11-3 3-5 3-6 2 8-10 18-17 32-20 25-3 48 2 61 25 5 9 8 21 8 32v95s0 2-2 2h-36c-1 0-3-2-3-2 0-11 0-38 2-75 0-20-4-39-25-41-13-3-23 2-31 13-3 7-6 13-5 23v80l-1 2h-39v-147c0-2 0-2 1-2h34s2 0 2 2z" fill="#ffffff" data-color="1"/>
        <path d="M2499 2220h-3c-18-13-36-16-57-13-31 7-47 36-49 65-2 28 6 56 34 69 20 10 39 10 59 0 2-2 2-2 3-2l8-8c0-1 2-1 2-1 5 0 8 1 8 6v8c0 13-5 25-13 33-1 0-1 2-3 2-23 11-49 9-70-2-4-2-8-2-10 3l-7 10c-1 5 0 10 5 11 10 5 17 9 21 9 7 1 18 3 38 3h7c6-2 13-2 19-3 20-9 34-20 41-40 2-6 3-16 3-27 0-40 0-75 2-107v-24c-15-3-26-2-36 3 0-1-2-3 0-6 0-2 0-2 2-2h36c1 0 1 2 1 2v134c0 8-1 11-1 18 0 1 0 4-2 8-8 24-26 39-52 45-2 0-5 0-10 2-2 0-5 2-8 2-26 1-49-5-71-18h-1l13-30h2c22 12 53 18 75 5 11-8 18-21 14-41v-1h-1c-15 15-31 19-48 19-19 0-34-8-47-22-11-14-18-31-18-54 2-22 8-40 20-53 24-26 70-29 94-3" fill="#ffffff" data-color="1"/>
        <path d="M539 2341c3 2 3 5 5 8 0 0 0 2 1 2h25s1-2 1-3c-1-12 0-25 0-38 0-11-1-28-1-51 0-8-2-18-7-27-5-13-14-20-28-23-11-2-21-4-31-4-16 2-32 7-50 15-3 2-5 5-3 10l4 10c0 1 4 3 5 3h4c14-7 31-10 47-11 11 0 20 6 24 16 0 2 2 3 2 5l-2 16c-1-13-1-24-13-29-5-4-11-4-19-4-15 2-30 5-43 14h-1c-2 0-4-2-4-2l-11-23c0-2 0-2 2-2l3-4c2 0 2 0 2-2 21-12 45-16 71-13 13 1 23 5 30 10 19 13 23 34 23 57v83s0 2-2 2h-33l-1-2z" fill="#ffffff" data-color="1"/>
        <path d="m392 2323 10 8v2c1 1 1 5-2 6v2c-8 3-13 5-13 7-23 8-46 9-70 3-13-3-26-10-36-21-18-23-18-71-3-94 14-22 40-32 68-31 28 2 46 15 57 38 2 5 3 11 5 18 0 7 3 21-2 28l-1 1c-33-1-59-3-82-1h-14c-5 0-7 1-7 6-2 8 7 18 11 23 0 2 2 2 4 3 11 9 24 10 39 10h2l26-10c1 0 1-1 3-1s3 1 5 3m-52-55h32c2 0 2-2 2-2-2-20-15-33-34-33-22 0-33 13-36 33 0 0 0 2 1 2z" fill="#ffffff" data-color="1"/>
        <path d="M1850 2285v2c0 36-30 65-66 67h-21c-36 0-65-29-67-65v-15c0-36 30-67 65-67l20-2h2c36 0 67 30 67 67zm-79-53c-24 0-44 22-42 50 0 28 21 49 45 48 25 0 45-23 43-51s-21-49-46-47" fill="#ffffff" data-color="1"/>
        <path d="M539 2341v-2h-2c-8 10-18 15-28 18-16 4-31 2-44-3-16-6-26-23-26-41 0-10 3-21 12-29 4-7 14-12 22-13 20-7 41-7 62-2l2-16c0-2-2-3-2-5-4-10-13-16-24-16-16 1-33 4-47 11h-4c-1 0-5-2-5-3l-4-10c-2-5 0-8 3-10 18-8 34-13 50-15 10 0 20 2 31 4 14 3 23 10 28 23 5 9 7 19 7 27 0 23 1 40 1 51 0 13-1 26 0 38 0 1-1 3-1 3h-25c-1 0-1-2-1-2-2-3-2-6-5-8m-5-56c-17 0-33 0-46 5-5 2-8 4-10 7-5 16-3 26 8 33 15 8 33 0 45-7 6-5 9-18 9-26 0-3-1-7-5-10z" fill="#ffffff" data-color="1"/>
        <path d="M851 2217q1.5 3 0 3c0 3 1 5 3 5 0 0 1-2 3-3 15-15 34-18 54-15 13 2 28 10 34 23 5 11 7 24 7 39v77c0 3-2 5-5 5h-21c-4 0-5-2-5-5v-72c0-2-2-5-2-11-2-12-5-18-11-23-9-7-17-8-25-7-19 3-32 17-32 39 0 25 0 51 1 74v2c0 1-3 3-5 3h-24c-2 0-3-2-3-3l-4-105c2-8 2-16 2-26-2-3 2-5 5-5 11-3 21 0 28 5" fill="#ffffff" data-color="1"/>
        <path d="M2031 2287c0 38-30 67-67 67h-18c-36 0-67-31-67-67v-15c2-36 31-65 69-65h17c36 0 66 29 66 67zm-74-55c-24-2-44 19-45 47 0 26 18 49 42 51 25 0 44-22 46-48 0-28-18-50-43-50" fill="#ffffff" data-color="1"/>
        <path d="M2256 2222v1h2v-1c1 1 3 1 6-2 4-3 10-10 17-11 16-4 35-7 50 3 13 7 20 18 23 34 2 7 2 13 2 22v80c0 1-2 3-4 3h-24c-3 0-5-2-5-5 2-25 0-49 0-77-2-15-5-23-15-31-1-2-1-2-3-3-11-5-23-3-33 3-16 10-18 23-18 43 2 19 0 32 0 49v18c-1 1-3 3-4 3h-23c-2 0-5-2-5-5v-129c0-3 3-7 6-7h22v2c3 5 4 10 6 10" fill="#ffffff" data-color="1"/>
        <path d="m2499 2220 2 2 2-2s0-1-2-5c10-5 21-6 36-3v24c-2 32-2 67-2 107 0 11-1 21-3 27-7 20-21 31-41 40-6 1-13 1-21 3h-5c-20 0-31-2-38-3-4 0-11-4-21-9-5-1-6-6-5-11l7-10c2-5 6-5 10-3 21 11 47 13 70 2 2 0 2-2 3-2 8-8 13-20 13-33v-8c0-5-3-6-8-6 0 0-2 0-2 1l-8 8c-1 0-1 0-3 2-20 10-39 10-59 0-28-13-36-41-34-69 2-29 18-58 49-65 21-3 39 0 57 13zm-34 12h2c-23-2-43 18-44 42-2 26 16 47 39 49 23 0 42-20 44-44 1-25-16-46-39-47z" fill="#ffffff" data-color="1"/>
        <path d="M775 2354s0 2-1 2h-38c-1 0-1-2-1-2v-145c0-2 0-2 1-2h38c1 0 1 0 1 2zm-4-140c0-2 0-2-2-2h-26c-2 0-3 0-3 2v134c0 1 1 3 3 3h26c2 0 2-2 2-3z" fill="#ffffff" data-color="1"/>
        <path d="M2143 2207h40v149h-40z" fill="#ffffff" data-color="1"/>
        <path d="M743 2212h26c2 0 2 0 2 2v134c0 1 0 3-2 3h-26c-2 0-3-2-3-3v-134c0-2 1-2 3-2" fill="#ffffff" data-color="1"/>
        <path d="M1771 2232c25-2 44 19 46 47s-18 51-43 51c-24 1-45-20-45-48-2-28 18-50 42-50m-1 3h1c-23 1-39 21-39 47 2 25 20 44 43 44 21-1 39-23 37-47 0-25-20-44-41-44z" fill="#ffffff" data-color="1"/>
        <path d="M1957 2232c25 0 43 22 43 50-2 26-21 48-46 48-24-2-42-25-42-51 1-28 21-49 45-47m-1 3c-22 0-39 21-39 46 0 24 17 44 39 44 21 0 39-20 39-44 0-25-18-46-39-46" fill="#ffffff" data-color="1"/>
        <path d="M1061 2232c23-2 43 18 43 44 1 24-17 44-40 45-22 0-42-19-42-44-2-24 16-45 39-45m0 3c-19 1-36 19-36 42s18 41 38 41c21-2 37-19 37-42s-18-41-39-41" fill="#ffffff" data-color="1"/>
        <path d="M2465 2232h2c23 1 40 22 39 47-2 24-21 44-44 44-23-2-41-23-39-49 1-24 21-44 44-42zm0 3c-20 0-38 18-39 41 0 23 16 42 36 42 21 2 39-16 39-39 2-23-15-43-36-44" fill="#ffffff" data-color="1"/>
        <path d="M1264 2246h1s2 0 2 2l-2 2c-10 4-18 9-24 18-15 14-20 47-5 65 18 21 45 24 70 21 18-2 33-8 46-21l1-2c2 0 2 2 4 2 3 6 11 16 19 16 12 2 23 2 31 2 2 0 2 0 2-2-3-1-5-3-7-6-3-7-8-12-14-17-9-8-13-14-9-24 12-23 22-41 27-59 0-3-2-5-4-5h-24c-3 0-7 3-7 7v1c0 7-5 17-11 33v2c-3 1-5 1-7 0q12-19.5 15-45l2-1h39s1 1 1 3c-8 23-16 47-31 67 0 2 0 3 2 5l36 44v2h-44c-2 0-3-2-5-4l-13-16h-3c-12 12-25 18-39 21-5 2-14 2-27 2-27 0-60-18-63-51-2-29 16-49 41-62" fill="#ffffff" data-color="1"/>
        <path d="M535 2287c4 3 5 7 5 10 0 8-3 21-9 26-12 7-30 15-45 7-11-7-13-17-8-33 2-3 5-5 10-7 13-5 29-5 46-5zm2 7c0-2-2-2-2-2q-19.5-3-39 0c-10 2-16 7-16 16-2 13 8 20 20 22 4 0 11-2 17-5 15-5 20-17 20-31" fill="#ffffff" data-color="1"/>
    </g>
</svg>
