<?xml version="1.0" encoding="UTF-8"?>
<svg data-bbox="-0.055 0 7742.067 3088" viewBox="0 0 7742 3088" height="392.436" width="983.981" xmlns="http://www.w3.org/2000/svg" shape-rendering="geometricPrecision" text-rendering="geometricPrecision" image-rendering="optimizeQuality" fill-rule="evenodd" clip-rule="evenodd" data-type="color">
    <g>
        <path d="M5700 0c62 7 134 5 187 8 46 4 95 5 148 5 40-1 80 5 116 6 12 0 69 0 170 1 31 0 65 6 90 6 8 0 260 1 758 3 36 0 71-1 106-3 49-4 92 1 142-5 27-2 69-2 126-1 1 1 2 2 2 3l-13 65c-1 4-3 6-7 6-8 1-50 3-123 9-121 9-244 11-365 16-72 3-153 4-245 4-882-4-3069-15-6563-33-1 0-2-1-2-2l-8-35c0-1 1-1 1-1 253-3 485-11 727-12 156 0 336-4 540-9 80-2 147-2 198 2 71 3 180 8 266 9 469 3 893-10 1354-19 183-3 374 0 563 0 58 0 120 5 179 6h5l26-4h2c57 6 92 8 108 6 90-10 157-15 200-15q121.5 0 219-3c124-2 258 1 351 0 44-1 81 2 132 5 90 3 225 2 406-4 65-2 126-7 180-14z" fill="#faf9f7" data-color="1"/>
        <path d="m682 1373-468-2c-1 0-3-2-3-3v-44c0-3 2-5 3-6l24-18c2 0 2-1 2-2l-25-113v-1c0-2 1-4 2-5l10-1v-2c-5-1-8-3-11-1h-1c-1 0-2-2-2-4v-110c0-3 1-4 3-5l38-5c1-1 1-1 1-2s0-1-1-3l-38-7c-2 0-3-2-3-4v-1l29-144c0-2 1-4 2-6l43-40c1-2 2-4 3-7l3-21c0-3-2-6-4-7l-72-41c-2-1-3-5-2-7l20-121c0-2 1-3 3-5l23-16c1-1 1-2 1-4v-1l-24-56v-2l-21-141c0-3 2-5 4-5l36 5h1c3 0 4-2 4-4v-2l-4-5c-2-2-5-4-9-4h-27c-3 0-6-2-6-5v-39c0-4 4-6 7-6h28c2 0 4-2 4-5v-2c0-2-2-4-5-4h-29c-1 0-2-1-2-2v-1l16-38c2-4 7-8 13-8l217-10 1-2c0-1-1-1-1-1l-246 1s-2-1-2-2v-40c0-1 2-2 3-2 9 1 20 0 33-5h2l89-7 59-13c1 0 1 0 1-1l-1-1-152 7c-1 1-3-1-3-3l-18-79c0-2 0-2 1-2l4351 21c-5 2-14 3-26 4-202 15-331 25-386 28-13 1-24 3-33 4q70.5 3 108 0c84-5 170-6 257-6 27 0 66 6 97 5 8 0 63 1 167 3 94 2 186 2 275-1 189-7 413-13 559-18 87-3 209-13 310-11 217 0 378 1 483 2 43 0 86 1 124 3v2c-9 2-16 2-21 3-186 12-285 20-433 25-38 1-222 7-554 19-128 4-247 12-372 21-5 0-15 1-28 3 1 0 1 1 1 1 305-9 632-16 985-20 137-2 278-5 420-12q141-7.5 315-12c100-3 204-7 315-13 1 0 1-1 1-1 0-1-1-1-1-1l-369-13c-1 0-1 0-1-2v-2l770 5c1 0 1 0 1 1v2c0 1-1 3-2 3-74 0-126 1-155 1-13 0-49 3-110 10-4 2-8 2-10 3l-39 16c-1 0-1 1-1 3 0 1 0 1 1 1h2l297-9c1 0 2 2 2 3l15 42c0 1-1 1-1 1-95 0-137 4-222-3-23-1-64-1-122 0-1 0-1 1-1 1 0 1 0 1 1 1 18 5 46 10 85 14 24 4 52 5 85 5 23-1 61-1 117-1 20 0 38 1 56 3 1 0 2 1 1 3l-59 130c-1 1-2 2-3 4l-61 24c-1 1-3 3-3 4 0 2 2 3 4 3l72 15c2 0 4 3 3 5l-7 75v4l-18 23c-1 2-2 4-1 5 1 15 5 31 13 46 15 32 14 66 12 100 0 4 1 9 1 14l59 259v2c0 1-1 2-1 3l-45 44c-1 0-1 1-1 1 0 1 0 2 1 2l48 52c1 1 3 2 1 3l-17 27-4 4-26 13q-3 1.5-3 6l7 180c0 3-1 4-2 4l-108 20c-2 0-2 0-2 1s0 1 2 1l108 3s1 0 2 1l22 55h-1c-83 0-173-1-269-1-19 0-35 6-53 5-44 0-167 0-367-2-25 0-53 5-76 5-135 0-213-1-238-1-41 0-72 6-112 5-112 0-196-2-249-2-12 0-25 2-38 3v1c34 0 61 2 78 2 436 3 732 4 888 4 29 1 50 7 76 7 82 0 198 1 348 1 2 0 3 1 3 4v1l-11 16c0 1-1 3-2 3l-4104-20-1-2 723-9s2 0 2-1h-2c0-1 0-3-1-3-189 0-493-2-1045-4-96-1-229 2-300 2-366 4-817 8-1232 7-372-2-820-5-1342-7-3 0-4-1-4-2v-18c0-1 1-2 4-2 22-1 46-10 74-13 46-5 94-6 142-5 27 1 107 3 237 1 3 0 5 2 6 2 4 1 7 1 11 0 0-2 1-2 1-2 0-1-1-2-3-2M3517 189l366-10c1 0 1-2 1-2v-1 1c0-3-82-6-183-3h-2c-101 1-184 6-184 10v3c0 1 0 2 2 2m521-12c0-1-1-1-2-1l-112 6c-1 0-1 1-1 2v2c0 1 1 2 1 2l113-7s1 0 1-1zm93 11c1 0 2 0 3-1-1-1-2-1-3-1l-1 1c0 1 1 1 1 1m-2027 15c58 11 118 15 179 15 104 0 155 3 238-3 92-6 152-9 180-11 2 0 2-1 2-1 0-1 0-1-2-1-35-5-86-12-132-12-61 1-122 0-188 5-87 7-180 11-277 8m-550 0c42 7 88 10 137 7 18 0 63 3 132 10 16 1 43 8 55 11 4 0 7 0 11-2 17-19 37-23 62-15 14 4 30 12 49 21 1 1 4 1 5 1l33 1c7 0 13-3 17-9l12-17v-2c1-2 0-5-2-5h-2c-26 0-64 2-94-2-47-5-89-1-137-5-69-4-143-4-222 3-21 2-38 0-56 1l-1 1c0 1 0 1 1 1m1432-8s0-1-1-1l-87 7c-2 0-3 1-3 1v1c0 1 1 1 3 1l87-7c1 0 1 0 1-1zm21 5c9 2 19 6 28 13h1c3 0 4-2 4-3v-12c0-2-3-3-5-3-16 0-26 0-28 1-1 0-1 1-1 1 0 1 0 3 1 3m-275 4 55 12c3 0 5 0 6-1l51-17v-1l-112 4s-1 1-1 2c0 0 0 1 1 1m-1588 11 103 3c4 0 7-1 10-3l8-8c1 0 1-1 1-3 0-1-1-2-2-2h-81c-8 0-21 4-40 12 0 1 0 1 1 1m339-12-51 8c-1 0-3 2-3 4v1c0 1 3 4 5 5s6 1 10 0c23-8 36-13 41-17 0-1 0-1-2-1m-552 7c0 1 22 4 49 6 25 2 47 4 47 1 0-1-22-4-47-6-26-2-47-3-49-2zm-64 11c0-3-1-5-4-5l-277-6c-1 0-3 1-3 4v10c0 3 1 5 3 5l277 6c2 0 4-1 4-4zm223-4c-1 0-2-1-4 0-1 0-2 1-2 1 0 2 1 2 4 2 1 0 2-2 2-3m2768 19c44 4 87 14 130 15q156 6 237 3c66-3 221-10 466-21l1-2c0-1-1-1-1-1-225 1-500 3-823 4-3 0-6 0-10 1-1 0-1 0-1 1zm1248 1h-4zm-1655 12c41 13 87 16 135 12 54-5 104-7 141-11 16-2 24-3 26-3 0-2 1-2 1-2 0-1-1-1-1-2-5-1-12-2-23-2-67-1-149 0-246 1-10 0-20 1-33 5-1 0-1 1-1 1 0 1 0 1 1 1m2879 23c35-3 72 5 117 11 34 5 58 6 69 4 26-5 48-12 68-23v-1q3-1.5 0-3c0-2-1-2-1-2-47-16-91-18-134-8-20 5-38 8-54 11-43 4-64 8-67 10 0 1 2 1 2 1m-5436 2 28 10h1c1 0 4-1 4-2s0-1-1-1c-3-7-2-11 3-11 15-1 95-3 239-7q3 0 3-3l-1-10c0-2-1-3-2-3l-237 17c-2 0-3 0-4 1-7 5-18 7-32 5-1 0-2 1-2 2 0 2 0 2 1 2m1617-7 188 7h8l134-16s1-1 1-2l-1-1c-42-4-89-6-140-4-24 0-88 5-190 14zm4443-3c-75-10-149-13-220-10-42 2-76 7-104 15l323 2c3 0 4-2 4-3 0-3-1-4-3-4m-3762-3v-4l-264-1s-1 0-1 1h1l54 19zm137 0c0-1-2-3-3-3h-55c-1 0-2 2-2 3v1c0 1 1 2 2 2h55c1 0 3-1 3-2zm-1083 4c0-1-1-2-3-2l-81-5c-1 0-2 2-2 3 0 2 1 2 2 2l81 5q3 0 3-3m-885-4-123 4c-1 0-1 2-1 2 0 7 28 13 61 11h3c34-1 62-9 60-16zm182 33v1l240-21c1 0 1-2 1-2v-1l-1-1-253-8v1zm899-29c0-2-34-3-78-3-42 0-76 1-76 3s34 3 76 3c44 0 78-1 78-3m-1216 3c0-3-2-4-4-4-3 0-4 1-4 4 0 2 1 4 4 4 2 0 4-2 4-4m4971-4c0-1-1-1-3-1l-409 12c-2 0-3 1-3 2l1 1c32 17 67 19 103 16 69-7 152-7 234-25 10-2 35-2 76-2 0 0 1-2 1-3M776 275l101-4c2 0 2-1 2-1v1c0-4-23-7-51-7l-2 1c-28 0-51 4-51 7v2s0 1 1 1m710-8c0-2-7 0-17 2-9 1-16 3-16 5 0 0 8-2 18-3 8-2 15-3 15-4m-882 4c-33 4-51 5-52 5 0 1-1 1-1 2l1 2c17 7 34 12 52 17 1 1 1 1 2 1l1-1q25.5-10.5 48-27v-1c0-1 0-1-1-1s-17 1-50 3m5670 7c0 2 0 2 1 3 0 1 2 1 3 1 17-5 27-8 27-10 0-1-10-1-28 2-2 0-3 0-3 1zm-5070-2c0-1-4-1-6 0-3 1-6 2-5 4 0 1 4 1 6 0 4-2 5-3 5-4m4223 9c-119 5-179 9-180 9v1h2c43 3 97 6 163 7 0 0 6 0 17-1h16c65-9 118-16 161-23h2v-1c-1 0-61 3-181 8m-350 19c-38-19-103-36-136-1v1l1 1 134 2 1-2zm-1027-7c-5 0-7-1-7 0-1 0-1 0-1 1 0 2 0 2 1 2h8v-2c0-1 0-1-1-1m766 3v9c0 1 0 1 1 1h1c43 2 79 2 79-1v-1c0-4-36-8-78-11h-1c-1 0-2 1-2 3m-464 1v10c0 1 0 3 1 3h1c76 2 139 1 139-3 0-3-61-9-139-11h-1zm-1695 24c-8-17-21-22-38-14-14 6-22 11-27 13-1 0-1 1-1 3 0 0 0 1 1 1h64c1 0 1-1 1-1zm4595 3h54v-1c0-11-12-20-26-20h-3c-14 0-25 8-25 20zm-520 2h56c2 0 4-1 4-3 0-3-1-4-2-5l-20-11h-5l-34 18c0 1 0 1 1 1m414-12 61 10s1 0 1-1c0-4-13-10-29-12h-3c-16-4-30-3-31 2zm-542 13c-35 1-126-3-276-14-11-1-45-1-99 0 0 0-2 0-2 1l2 1c61 5 120 10 182 15 61 5 117 3 176 2 8 0 14-1 19-4v-1zm376-8c0-2-1-4-3-4l-144-1c-1 0-2 1-2 3l-1 8c0 1 2 2 3 2l144 3c1 0 3-2 3-4zm148-1c0-3-2-4-3-4h-128c-3 0-4 1-4 3 0 1 0 2 1 2l11 11c0 1 1 1 1 1l119 1c1 0 3-2 3-4zm-1137 19-20-16c-1-1-3-1-4 0l-13 6c-3 1-5 3-6 3-31 2-55 2-77-2-29-4-48-3-68 11-1 1-1 1 0 2h186c2 0 3-1 3-2s0-2-1-2m-4506-11 104 13c3 1 5 0 6-1 2-3 4-6 6-11v-1c0-1-1-2-2-2l-114-1-2 1v2zm1274 2c0-2-2-4-5-4h-63c-2 0-5 2-5 3v3c0 2 3 4 5 4h63c3 0 5-1 5-3zm3412-4s-9 4-29 15c-3 1-6 1-10-1-6-6-13-10-21-13-2 0-5-1-7-1-20 0-38 4-52 15-1 0-1 1-1 1 0 1 1 2 2 2 31 5 93 11 119-16 0 0 1 0 1-1s-1-1-2-1m-3643 6c0-4-3-5-5-5h-119c-2 0-4 2-4 5v1c0 3 2 4 4 4h119c2 0 5-2 5-4zm52-3c0-1-8-2-17-2-10 0-17 1-17 2 0 3 7 4 17 4 9 0 17-1 17-4m-635 5c0-2-2-5-5-5h-102c-2 1-5 3-5 5v2c0 3 3 5 5 5l102-1c3 0 5-3 5-5zm-1264 5v4c0 1 1 3 1 3h2c98 0 177-3 177-5v2c0-4-80-7-177-7h-2s-1 1-1 3m4541 24h102c1 0 2-1 2-2v-1c-10-20-30-23-51-16-14 5-34 6-53 18zm-28-4-21-15c-3-1-6-1-7 2v1l-5 13v1c0 1 2 3 3 3l27-1c3 0 3-1 3-2zm327-13h-83c-1 0-2 1-2 2l1 1c8 6 19 7 32 5 18-5 35 0 52-7h2c0-1-2-1-2-1m153 6q0-3-3-3l-107-2c-3 0-4 1-4 2v8q0 3 3 3l108 2c1 0 2-1 2-2zm-313 11c5-2 9-3 9-3v-1c0-2 0-2-1-2-5 2-7 3-10 4v1c0 1 0 1 2 1m-152 0c-1 0-2 0-3 1-2 0-2 0-2 2v1c3 0 4 1 4 1 1 0 2-1 2-2 0-2-1-2-1-3m-527 7c0-2-3-4-5-4l-62 1c-3 0-5 1-5 3v3c0 2 2 4 5 4h62c2 0 5-2 5-4zm-706 16c0-3-1-4-4-4l-159-7c-3 0-4 1-4 4 0 2 1 3 4 3l159 7c3 0 4-1 4-3m-728-5c0-1-2-2-4-2l-65 1c-1 0-2 1-2 2s1 4 2 4l66-2c1 0 3-1 3-3m3280-1h-120c-1 1-2 2-1 3l1 1 44 32c1 1 3 1 6 0l71-34c1 0 0-1 0-2zm-3756 9c0-1-1-3-2-3l-85 1c-2 0-4 1-4 2v17c0 1 2 2 4 2h85c1 0 2-1 2-4zm-1596 20c0-1-1-3-4-3l-103 1c-2 0-4 1-4 3v1c0 2 2 4 4 4l103-1c3 0 4-1 4-4zm4798 5c0-3-3-4-4-4h-56c-1 0-4 1-4 4v3c0 1 3 4 4 4h56c1 0 4-3 4-4zM517 736c1 3 2 4 5 5 51 38 112 84 184 135 1 1 1 3 1 5l-79 221c0 1 2 2 3 2h1l189-136c2-1 5-1 6 0l190 133c1 0 3 0 3-2l-69-217c-1-2 0-5 2-6l189-135c1 0 1-1 1-1 0-1-1-2-2-2l-240-2c-2 0-5-1-5-3l-67-196s0-1-1-1c0-2-2-2-3 0v1l-70 195c-1 2-2 3-6 3l-231-1c-1 0-1 1-1 2m6612 175v-1s0-1 2-1l190-137c1 0 1-2 1-2 0-1-1-2-2-2l-242-1c-1 0-3-1-3-1l-68-200c0-1-1-1-1-1-1 0-2 0-2 1l-71 199c0 1-1 1-1 1l-235-1c-1 0-2 1-2 2s0 1 1 1l189 140c1 0 1 0 1 1v1l-78 222v1c0 2 1 2 2 2h1l192-138h2l189 133c1 1 1 1 2 1 0 0 1-1 1-2v-1zm-4946-67c-1 124 87 220 204 254 42 13 88 19 138 19 51 1 98-5 140-18 117-33 206-127 207-251 0-125-87-220-203-254-43-13-90-18-140-20-51 0-98 6-140 18-116 33-206 128-206 252m-281-16c52-23 78-62 76-116-5-93-88-129-169-131-94-2-241-2-439-3-3 0-4 1-5 2-1 3-1 5 0 8s2 4 5 4c15 3 22 13 22 26 0 93-1 241-2 443 0 15-9 24-24 27-2 1-3 2-5 4 0 3-1 5 0 6 0 3 3 5 5 5 94 0 224 1 389 2 35 0 67-2 97-7 61-8 126-46 140-107 16-78-14-131-90-158-2-1-2-1-2-3 0-1 0-1 2-2m1710 9c54-24 80-63 76-117-5-93-87-129-169-130-94-2-240-3-439-4-2 0-4 1-5 2-1 3-1 5 0 9 1 2 2 3 5 3 15 5 23 13 23 27-1 93-1 240-2 443 0 15-8 23-24 27-2 0-4 1-4 4-2 2-2 4-2 5 0 3 3 5 6 5 94 0 223 1 389 2 34 0 67-2 98-5 61-10 125-46 138-108 17-79-13-132-89-159h-1c-1-1-1-2 0-4m832 4c54-24 79-62 77-116-5-93-87-130-169-131-94-2-240-3-440-3-1 0-3 1-4 2-2 1-2 5 0 8 1 2 2 4 4 4 16 3 23 13 23 26 0 93-1 240-3 443 0 15-7 24-23 27-1 1-4 2-4 4-1 3-1 4-1 6s2 5 6 5c94 0 223 0 388 1 35 1 68-1 98-6 60-8 126-46 139-108 16-77-13-130-91-159-1-1-1-2 0-3m1952 215c139-121 114-323-42-414-41-23-87-38-140-44-110-14-231-3-319 68-173 141-100 389 103 449 94 28 193 28 296 1 1-1 4 0 6 1 24 25 46 49 67 73 6 8 7 15 0 23-3 4-2 8 0 12 2 1 5 2 6 2 2 0 5 0 6-1l117-93c1-2 3-4 3-7s-4-7-7-7h-4c-23 10-32-2-50-18-20-18-34-30-42-37-1-1-1-2-1-5 0-1 1-2 1-3M4894 598c-1-1-2-3-3-3l-228-1c-2 0-5 3-5 5v4c0 2 3 4 5 5 32 5 52 33 70 56 80 99 142 177 188 233 1 3 3 5 3 7-2 110-2 165-2 167 0 21-3 30-22 34-3 1-6 3-7 5-1 3-1 7 1 9 1 0 3 1 4 1h177c2 0 4 0 5-1 3-2 3-6 1-9 0-1-1-2-2-2l-12-4c-8-3-13-12-13-20V904c0-1 1-3 2-4 66-81 135-166 208-254q22.5-28.5 54-36c4 0 5-3 5-6q0-6-6-6l-221-1c-3 0-7 2-7 6 0 3 3 5 5 5 22 7 34 19 18 43-2 2-42 51-120 149-1 1-3 1-3 0-56-73-95-123-116-154-12-15-7-32 11-35 11-3 14-7 10-13m485 309v61c0 2 0 3 2 4 2 4 7 4 10 2 1-2 2-3 2-4 4-12 12-19 25-20h61c39 0 59 1 60 1 14 2 22 9 25 20 1 3 1 4 3 5 3 2 7 1 11-1 0-1 1-4 1-5v-61c1-40 1-61 1-61 0-1-1-2-2-4-3-3-7-4-10-2-1 1-2 2-3 5-4 10-12 17-25 20-1 0-21 0-60-1h-61c-13-3-21-10-24-22 0-1-2-2-3-3-3-2-8-2-10 1-1 1-1 2-1 5 0 0-2 20-2 60M357 1104c0-1-1-2-2-2l-73 3c-1 0-2 0-2 1v9c0 1 1 2 2 2l73-2c1 0 2-2 2-3zm-41 73 14 1c1 0 1-1 1-1 1 0 1-1 1-2 0 0-1 0-1-2-4-1-9-1-16-1-1 1-1 1-1 3 0 1 0 2 1 2zm-15 0h-33c-2 1-4 2-2 5 3 5 8 8 14 9 0 1 0 1 1 1s2-1 2-1l19-11c0-1 1-1 1-2s-1-1-2-1m1730 37c1 0 2-1 2-2q0-3-3-3c-13 0-26 2-38 7-2 1-3 2-3 4v3l1 2c2 4 7 6 11 4zm-723-2v6c0 1 2 1 2 1h2c39 1 70 1 70-1v-1c0-3-31-5-70-6h-1c-1 0-3 0-3 1m-947 24c0-2-7-2-16-2-8 0-15 2-15 3s7 2 15 1c9 0 16-1 16-2m50 1c0 2 11 6 25 8 15 1 27 1 27-1 0-1-12-5-26-7-14-3-26-3-26 0m3013 35c0-1-1-2-3-2l-76-6c-1 0-2 1-2 2s1 2 2 2l76 6c2 0 3-1 3-2m702 4c0-2 0-3-2-3h-91c-1 0-2 1-2 3 0 1 1 2 2 2h91c2 0 2-1 2-2m-3756 22s-8 1-18 6c-9 3-16 7-15 8 0 1 8-1 18-5 8-3 15-7 15-8zm3378 47 1-17s-1-1-2-1h-1c-76-2-137-1-137 5s61 12 137 15h1s1-1 1-2m2092-20-41 2c-3 0-4 1-4 3v1c5 10 12 16 20 17 2 0 5-1 6-3 5-6 12-12 20-17v-1c0-1 0-2-1-2m20 14c0-7-1-12-4-13-1-1-1-1-2-1s-4 1-4 3v2c1 4 4 8 6 10l1 1c2 0 3-1 3-2m-1855-6c0-3-2-6-5-6h-64c-4 0-5 3-6 5v1c0 2 2 5 6 5h64c3 0 5-3 5-5m92 0c0-2-3-5-5-5l-57-1c-3 0-5 3-5 6 0 4 2 5 5 5l57 1c2 0 5-2 5-5zm2335-2c0-1-1-3-3-3h-145c-1 0-3 2-3 3 0 2 2 3 3 3h145q3 0 3-3m652 6c0-3-2-4-4-4l-169-3c-2 0-4 1-4 3v1c0 3 2 4 4 4l169 3c2 0 4-1 4-3zm-4123 9v-9c0-2-1-3-4-3h-2c-44-2-80-1-80 1v6c0 3 36 6 79 7h3c2 0 3-1 4-2m2050-6c-11-8-20-9-26-3-1 1-1 2-1 3s1 4 3 4h22l2-2s1-1 0-2m209-1c0-2-3-4-5-4l-127-1c-2 0-3 1-3 4v4c0 2 1 4 3 4l127 1c2 0 5-2 5-5zm1900 3h73v-3c0-1-15-4-35-4h-3c-20 0-35 3-35 4zm-1499-4c0-1 0-3-1-3l-126 10c-1 0-1 1-1 2v6c0 1 1 2 1 2h2l124-9c1 0 2-1 2-2zm-3910 19-1 1c0 1 1 2 3 2l97-7c1 0 2-1 2-1v-1c-2-5-3-7-6-10-1-1-2-1-4-1zm588-15c-2-1-3-1-4-1h-29c-5 0-11 1-16 5l-12 9c-2 0-2 2-2 2-1 2-1 4 2 5h68c1 0 2 0 2-1 0 0 0-1-1-1zm424 6c0-3-3-6-6-6h-55c-4 0-6 3-6 5v1c0 4 2 5 6 5l55 1c3 0 6-2 6-4zm2234-2 10 11c1 1 2 1 4 1q3 0 3-3l4-10c1-1 0-3-2-3h-1l-17 2s-1 0-1 1zm66-2c-1 0-2 1-1 2v1c10 10 34 25 39-1v-1s-1-1-2-1zm845 70h216v-1c0-1 0-1-1-1-30-14-59-23-88-25-40-2-75 1-107 9-8 3-15 8-22 13v3c0 1 1 2 2 2m-35-2c-10-20-24-25-41-17-16 6-26 12-32 14 0 2-1 2-1 3s1 1 2 1l71 1c1 0 1-1 1-2m-119-16-328 13v3l343 1v-1zm-472 15h-56v1c0 12 11 21 27 21h2c15 0 28-9 28-21 0-1-1-1-1-1" fill="#faf9f7" data-color="1"/>
        <path d="m5240 159-427 16h-1l-26-12c-2-1-7-2-10-1-22 2-45 9-66-6-1-1-1-1-1-2s1-2 2-2c12 0 168 1 471 2 25 0 43 0 58 1 1 0 1 1 1 1 0 1 0 3-1 3" fill="#faf9f7" data-color="1"/>
        <path d="M4131 186c1 0 2 0 3 1-1 1-2 1-3 1 0 0-1 0-1-1z" fill="#c51d23" data-color="2"/>
        <path fill="#c51d23" d="M1090.451 217.533c.097.48-1.385 1.182-3.308 1.566s-3.56.306-3.656-.175c-.096-.48 1.385-1.182 3.308-1.566s3.56-.306 3.656.175" data-color="2"/>
        <path d="M2528 665c108 0 210 63 210 182-1 118-103 181-212 181-108 0-210-64-210-182 1-119 104-182 212-181" fill="#faf9f7" data-color="1"/>
        <path d="M1523 668c0-1 2-2 3-2l252 1h-1c39 0 71 24 71 53v15c0 30-32 53-71 53l-252-1c-2 0-3-1-3-2z" fill="#faf9f7" data-color="1"/>
        <path d="M3234 677c0-2 1-3 2-3l252 1c39 0 70 25 70 54v14c0 30-31 53-70 53l-253-1c-1 0-1 0-1-1z" fill="#faf9f7" data-color="1"/>
        <path d="M4066 680s0-1 1-1l253 1c39 0 70 24 70 52v16c0 30-31 53-70 53l-253-1c-1 0-2-1-2-1z" fill="#faf9f7" data-color="1"/>
        <path d="M6220 1032v2s0 1-1 1c-53 15-106 15-157-1-61-19-115-71-126-134-46-274 412-295 417-36 1 42-14 79-43 116-2 1-3 1-4 1s-2 0-4-1c-58-40-124-78-194-33-2 1-4 3-4 7 0 3 2 6 6 7 43 10 81 34 110 71" fill="#faf9f7" data-color="1"/>
        <path d="M1521 876c0-1 1-2 4-2l249 1c49 0 89 28 89 63v17c0 34-40 62-89 62l-251-1c-1 0-2-1-2-2z" fill="#faf9f7" data-color="1"/>
        <path d="M3232 886c0-2 2-3 3-3l250 1c48 0 88 29 88 63v17c0 34-40 63-88 63l-251-3c-2 0-3 0-3-1z" fill="#faf9f7" data-color="1"/>
        <path d="M4065 890c0-2 1-3 2-3l249 1c50 0 90 28 90 62v18c0 34-40 62-90 62l-250-1c-1 0-2-1-2-2z" fill="#faf9f7" data-color="1"/>
        <path d="M7538 1599q0 3-3 3c-377-11-664-18-861-22-105-3-216-3-334-1-144 2-256 3-335 3q-378-1.5-546-3c-557-8-1091-12-1603-13-120 0-255 4-355 3-189-1-324-1-405 2-76 3-161-1-244 3-50 2-98 3-145 2-62-1-128 5-191 5-423 5-786 8-1088 10-21 0-41 0-60-2-78-5-129-3-250-5-51 0-109 0-170 3-321 7-549 13-685 15-16 1-35 5-49 4-3 0-4-2-3-4l26-129c0-4 3-5 5-5l129-3c4-2 6-2 8-4 6-3 11-6 13-6 326 1 645 3 962 5 24 0 44 5 64 1 7-1 15-1 26-1 1898 9 3922 20 6073 30 2 0 5 2 5 5zm-6153-103v-1c0-1-1-2-4-2l-63-4c-2 0-4 1-4 4v1c0 2 2 4 3 4l64 2c1 0 4-1 4-2z" fill="#faf9f7" data-color="1"/>
        <path d="M6524 1764c-22-6-38-17-47-36-1-1-1-3-1-5 0-5 4-8 9-11 35-10 70-23 106-38 81-34 161-44 188 60 34 124-111 223-209 260-1 1-2 3-2 4s0 2 1 2c29 30 54 60 75 92 12 19 20 57 4 74-3 1-5 2-8 2-4 0-6-1-9-3l-135-140c0-1-1-1-2-1s-2 0-2 2c-17 42-33 93-51 149-2 7-7 11-14 10-5 0-9-4-14-11-27-36-8-101 5-141 29-90 65-180 108-265 1-2 0-4-2-4m5 173c1 1 1 2 3 2v-1c75-26 210-110 196-206-2-9-9-16-17-17-29-6-80 20-110 35-4 1-6 6-7 9-5 57-31 103-64 173-1 1-1 4-1 5" fill="#ffffff" data-color="3"/>
        <path d="M7465 1819v-1c0-1-1-2-2-2h-1c-90 63-135 171-167 272-6 17-16 26-31 13-29-24-21-70-10-102 26-79 57-155 96-227 6-10 13-14 22-9 3 1 4 2 6 5 11 16 16 34 14 55 0 1 2 2 4 2 1 0 1 0 2-1 20-25 67-72 100-69 24 1 38 31 39 53 0 2 2 3 3 3 2 0 3 0 3-1 22-22 103-105 128-44 10 27 9 57-5 89-10 25-26 58-46 96-6 10-9 23-13 36-4 19-2 63 31 48 30-14 56-72 72-108 8-16 28-15 31 4 12 77-85 170-165 141-43-17-52-59-43-100 4-16 12-38 25-63 7-16 24-49 49-100v-1c0-2-1-3-2-3s-1 0-1 1c-92 74-133 167-172 276-3 7-10 23-21 19-34-13-36-60-28-93 7-30 18-57 29-81 20-36 37-72 53-108" fill="#ffffff" data-color="3"/>
        <path d="M5454 1858c-34 7-63 11-95-3-17-9-29-22-34-39v-1c-1-6 3-11 9-12h1c65-5 110-19 223-42 39-10 95-6 110 37 0 1 1 4 1 5 0 7-5 12-12 13-42 2-84 9-125 22-1 0-2 1-2 2-4 36-14 70-30 104-55 115-100 225-135 333 0 0 0 2-1 2-2 5-9 8-15 4h-1c-36-24-30-70-17-110 33-106 75-210 126-311v-2c0-1-1-2-3-2" fill="#ffffff" data-color="3"/>
        <path d="M7011 1960v-1c0-1-1-2-3-2h-2l-5 4c-1 2-2 3-3 4-15 58-31 101-71 144-40 45-102 53-146 9-73-74-13-216 51-275 30-27 75-47 108-19 33 27 61 48 59 101v1c0 3 2 5 6 5h9c4 0 6-2 7-5 23-61 75-142 149-140 11 2 24 7 38 20 35 34 49 46 51 94 0 3 1 5 4 6 1 1 4 1 5 1h1c6 0 11 5 11 10 0 3-1 7-5 8l-18 14c-1 1-2 2-2 4-9 55-38 117-81 154-34 29-82 36-119 10-50-38-55-89-44-147m178-118c-2 1-4 10-2 23 1 12 3 21 7 21 2 0 3-10 2-22-1-13-4-22-7-22m-258 24v-1c-2 1-4 11-4 22 2 13 4 23 7 23 3-1 4-11 3-23 0-11-4-22-6-22zm201 7c-39 49-60 105-63 169 0 12 4 40 22 38 50-6 87-106 96-146 1-1 0-2-1-3-24-14-40-33-50-56 0-2-1-3-2-3s-1 1-2 1m-259 25c-38 47-60 103-62 168-1 13 4 40 21 39 50-6 87-106 97-146 1-1 0-2-2-3-23-15-40-33-49-58 0 0-1-1-2-1-2 0-2 0-3 1" fill="#ffffff" data-color="3"/>
        <path d="M4840 2071h1v-3h-1c-31-21-43-53-34-95 13-60 77-124 135-145 31-12 55-15 74-10 26 8 46 22 60 45 11 16 12 37 4 62-6 16-16 46-29 86-4 13-16 15-28 8-54-33-20-100-2-146v-2c0-4-4-7-7-7-20-1-59 27-74 40-28 22-71 73-64 111 3 17 13 25 31 25 38-2 75-3 92 34v1c2 7-3 13-9 16h-1c-40 8-75 21-108 40-44 24-90 71-90 125 0 34 24 55 58 50 49-10 89-54 108-97v-1c0-1 0-1-1-1l-38 6c-19 2-38-4-52-18l-11-10c-2-4-3-7-3-11 0-8 6-14 13-15 23-4 62-13 115-31 42-13 86-22 117 13 6 6 10 12 11 18v2c0 6-4 11-10 12l-69 10c-3 0-6 4-6 7 6 56-33 107-76 137-59 38-129 42-183-6-21-20-34-45-36-75-4-71 50-145 113-175" fill="#ffffff" data-color="3"/>
        <path d="M4171 2072c31-19 63-44 96-7 29 33 38 78 8 115-27 33-58 59-98 75-3 1-4 4-3 6 3 32 32 123 79 79 12-12 22-26 32-43 1-3 2-7 2-11-3-32-3-60 20-83 2-2 5-3 7-3 9-2 15 0 16 8l2 1c1 1 3 3 4 1 0-1 0-1 2-1 18-34 37-68 55-103 4-8 7-19 9-32 2-28 21-54 46-66 20-8 40 2 34 25-1 5-6 14-12 31-1 3-2 5-2 9 1 43 9 86 19 135 6 31 7 66 0 95 0 1 1 3 2 3s1 0 2-2c23-23 40-52 53-87 3-5 5-10 10-11h1c8-3 16 1 19 9 4 19 2 38-7 57-32 69-87 104-165 104-35 1-66-13-88-39-1-1-3-1-5 0-36 51-103 74-155 34-37-28-54-84-55-130 0-1-1-2-1-2-1 0-2 1-2 1-17 43-36 95-54 155v1c-4 7-12 12-20 8-5-2-9-7-13-15-1-1-3-1-4-1s-2 0-2 1c-31 32-82 47-120 20-9-8-16-18-20-28 0-1-1-3-2-3s-3 2-4 2c-10 15-23 27-36 37-43 31-102 24-119-32 0-1-1-1-2-1s-1 0-3 1c-37 43-84 70-139 71-38 1-71-14-91-45-1-1-3-1-4 0-36 43-86 84-143 52-36-20-47-68-40-108 4-21 11-46 22-75 16-43 31-82 47-118v-1c0-2-2-5-4-5-15-1-29-7-41-16 0-1-1-1-2-1-2 0-4 1-4 2-12 22-27 52-45 91-8 15-22 11-31 0-32-36-18-76 3-112 17-31 27-55 33-75 0-1 1-3 1-3 0-4-3-8-8-8-7-1-14 1-21 5-69 36-142 102-164 178-12 44 34 71 68 86 18 10 43 21 74 37 28 14 38 40 29 69-16 52-55 81-107 90-83 17-171-25-228-88-4-6-6-13-2-20q1.5-3 6-6c28-9 53-9 75 2 32 16 68 43 109 55 26 7 79 9 89-22v-8c-4-7-10-12-18-17-51-27-137-60-165-114-20-39-8-95 12-132 39-70 93-123 162-158 19-11 38-15 55-17 46-2 81 47 92 84 3 13 3 28-1 47-1 0-1 0-1 1 0 2 3 5 5 5h2l45-7c5 0 10-4 12-9 14-35 30-64 44-89 3-7 8-12 13-14 7-4 16 1 19 9 12 25 13 51 4 78 0 2 1 5 4 6 22 3 37 14 45 30v5c0 7-3 12-10 13l-58 8c-3 1-6 4-7 6-32 67-68 144-88 214-6 21-8 62 13 75 28 16 72-51 81-71 5-9 7-22 7-38 1-38 15-79 42-124 25-42 79-99 133-88 13 4 27 12 45 25 21 16 30 39 27 66-5 36-21 68-47 94-35 35-75 41-119 19h-2c-1 0-3 1-3 2-8 41-2 113 60 95 44-13 76-48 101-86 7-10 16-28 25-55 7-21 16-41 28-59 31-48 59-84 105-114 31-20 76-25 96 13 0 1 1 3 4 3 1 0 3-2 3-3 5-15 12-27 20-34 2-1 6-3 8-3 5 0 8 2 11 4 27 27 21 78 6 110-24 48-81 157-64 186v2c4 5 12 8 18 3h1c18-12 34-28 47-49 5-8 13-30 25-62 46-144 100-274 162-393 3-7 8-14 14-22 6-6 14-8 20-4 17 13 19 47 16 66-2 19-11 42-26 74-16 35-28 61-34 77v1s0 1 2 1zm-64 144c2 0 2 0 2 1 0 0 1 0 1-1 49-20 108-60 129-110 3-7 3-12 1-14-3-4-8-4-15-1-52 18-94 75-118 123zm-208-75c-14 7-21 11-22 12-47 46-81 100-102 164-6 17-13 56-5 71 4 6 13 7 20 3v-1c37-23 57-62 77-104 17-37 52-113 38-144-1-2-3-2-6-1m-271 21c-39 8-81 85-94 119v1c0 2 3 5 5 5 28 2 45-17 60-39 19-25 30-52 35-81 0-4-2-5-5-5zm775 14-53 100v5c8 19 24 48 44 54h5c5 0 11-4 14-9 2-10 4-22 4-35 2-32-2-70-10-113 0-2-1-2-3-2z" fill="#ffffff" data-color="3"/>
        <path d="M5878 2388h-32c-24-28 1-112 14-145h1c0-1-1-2-2-2h-2c-44 12-76-1-92-39 0-1-2-1-3-1s-2 0-2 1c-32 48-112 86-149 23-24-42-14-100 4-143 29-63 99-168 174-172 24-1 40 8 51 29h1c1 1 2 1 3 0h2c3-9 7-16 10-23 10-19 27-19 37-2 14 27 14 56 2 87-1 4-19 43-52 115-8 19-26 69-17 84v1c3 6 13 7 21 4v-2c31-17 46-45 60-81 29-75 61-145 94-210 6-10 10-18 16-22 5-5 13-4 18 1 6 6 10 14 11 25h2c0 2 2 2 4 2v-1c53-54 126-30 135 43 9 71-24 162-67 219 0 1 2 2 2 2h1c51-25 80-67 100-119 2-7 7-9 14-9 20 2 16 45 11 56-16 49-48 83-96 101-62 25-149 30-188-35-1-1-2-1-2-1-1 0-2 1-2 1zm230-461c-37 19-64 61-82 99-22 43-36 80-28 125 3 11 9 21 18 25 2 2 6 2 8 0 37-23 60-76 76-116 12-29 35-107 15-131-3-3-5-3-7-2m-307 37c-13 6-21 10-21 12-48 44-82 99-104 163-4 17-12 56-4 71 3 6 13 7 20 4 0-1 1-1 1-1 35-24 55-64 76-105 18-36 52-113 38-143-1-2-4-2-6-2z" fill="#ffffff" data-color="3"/>
        <path d="M2223 2539c2 0 3-1 3-2l-1-1c-23-21-37-47-44-78-34-143 59-317 182-392 40-24 77-28 113-13 21 9 41 21 57 36 38 32 45 106 39 154-13 115-80 276-198 320-1 1-3 1-3 2s2 1 2 1c32 16 63 26 95 33 17 4 36 1 54-3h3c6 0 11 6 10 11 0 2 0 3-2 4-24 54-103 52-150 34-25-9-52-21-83-38-41-20-86-23-132-10-9 2-15-1-16-11 0-2 1-4 2-6 15-23 39-36 69-41m245-444c-11-1-24 3-39 11-47 23-88 70-120 120-37 57-59 118-64 184-4 45 9 140 79 112 53-21 97-79 123-128 29-54 47-110 55-166 4-26 12-131-34-133" fill="#ffffff" data-color="3"/>
        <path d="M1926 2194c-24-5-41-16-50-36-3-6 0-12 6-15 40-12 84-29 135-52 42-19 102-27 135 15 20 23 28 53 27 88-3 74-64 140-125 179-1 0-1 1-1 2s0 2 1 2c44 25 51 71 33 115-26 65-164 149-231 108-31-20-55-44-50-82 4-20 10-44 18-73 27-85 61-169 103-247 2-2 0-3-1-4m16 154c64-24 189-101 189-181 0-20-11-29-30-27-33 3-64 21-98 36-3 2-5 5-5 9-1 18-5 37-13 56-13 34-29 69-47 103v1c0 2 1 3 2 3zm-66 205c47 4 116-47 143-77 19-21 41-66-8-71-14-1-22-1-26 0-26 7-51 11-73 10-2 0-3 1-5 2-17 41-30 84-38 127-1 5 2 9 7 9" fill="#ffffff" data-color="3"/>
        <path d="M1573 2227c-25-5-41-17-51-37-2-5 0-11 6-14 40-11 85-29 135-52 42-19 102-27 135 15 20 23 28 54 27 88-2 74-64 140-124 178-1 0-1 2-1 3s0 2 1 2c43 25 50 71 33 115-26 65-165 149-232 108-30-20-55-44-49-82 2-20 8-45 18-73 27-86 61-169 103-248 1-1 0-2-1-3m15 154c63-24 189-101 189-181-1-20-10-28-29-27-33 3-65 21-99 36-3 1-5 5-5 8-1 19-4 38-13 57-14 34-29 69-47 103v1c0 3 2 4 3 4 0 0 1 0 1-1m-66 206c47 3 117-48 144-78 18-21 41-66-9-71q-21-1.5-27 0c-24 9-49 11-71 10-3 0-5 1-5 3-18 41-31 84-39 126-1 5 3 9 7 10" fill="#ffffff" data-color="3"/>
        <path d="M880 2703q0-3-3-3v1c-37 20-92 14-109-31-1-2-2-2-3-2s-1 0-3 2c-28 33-56 58-102 54-20-4-35-13-44-31h-2c-1-1-3-1-4 0-52 76-174 64-162-46 5-49 31-96 57-136l1-1c0-1-1-1-2-2v1l-46 14c-2 0-3 2-5 3-29 60-54 115-74 165-9 24-16 50-21 76-1 10-7 13-17 10-7-4-14-10-20-20-26-47 4-103 30-150 4-8 21-37 50-89 1-2 1-5 0-7-9-12-13-21-12-28 2-35 16-66 41-93 8-8 18-12 26-13 37-2 20 68 17 86v1c0 2 3 5 5 5 1 0 1-1 2-1l64-46c2-1 5-3 8-3 2 0 6 2 8 4 27 21 45 58 21 89-32 48-91 129-68 184 4 7 10 11 17 10 6 0 13-3 20-9 30-27 44-63 55-107 6-28 19-57 36-85 34-54 68-98 123-122 35-15 61-7 79 24h2c1 0 2 0 2-2 6-14 23-54 42-30 28 35 17 82-2 121-15 29-73 138-58 170v1c4 6 11 9 18 6v-1c37-20 54-56 70-100 50-134 108-264 175-391 14-26 34-22 41 6 8 29 3 60-11 92-12 27-50 108-112 243-1 1 0 3 1 4 17 10 27 20 32 32 8 21 12 42 13 64 0 2 1 3 2 3s3-1 3-1c27-32 42-60 56-102 15-47 35-99 60-155v-2c1-2-1-4-4-4-14-3-47-14-48-31 0-9 7-16 16-16 21-1 41-5 58-8 4 0 6-3 7-6 14-34 31-72 53-102 5-5 13-6 18-2 21 19 19 64 10 86v1c0 3 3 5 4 5 25 5 40 15 46 32 0 0 0 1 1 1 1 7-3 13-10 15h-1l-53 8c-7 0-11 5-15 11-26 56-50 113-73 169-11 31-23 69-11 99 23 60 85-38 95-59 11-25 19-40 22-47 6-11 21-11 26 2 7 19 2 40-6 58-22 52-80 113-141 97-25-6-42-20-53-42-1-2-3-2-4-1-2 0-2 0-2 1-15 18-33 33-50 44-5 2-7 7-8 11-6 75-26 148-65 213-2 5-8 12-19 21-19 19-39 15-60 0-65-46-49-151-30-218m-77-273c-12 7-20 12-21 12-48 46-82 101-103 164-5 17-13 55-5 71v1c5 6 13 7 20 2h1c36-23 56-63 77-105 17-36 53-112 37-143-1-2-3-3-6-2m191 141c-3 0-5 18-4 39s5 37 8 37 5-17 4-38c-1-22-5-38-8-38m-32 105h-2c-2 0-4 1-4 2-13 42-23 84-32 129-3 25-4 48-1 68 1 3 3 4 5 4 1 0 3 0 3-1 10-12 18-25 24-40 18-44 32-91 41-142q0-4.5-3-6c-12-2-22-6-31-14" fill="#ffffff" data-color="3"/>
        <path d="M298 2303c-1-6-5-10-11-10h-3c-16 3-36 14-48 22-83 61-136 143-157 244-11 50-8 92 7 129 27 69 87 40 123 2 27-29 49-65 67-110 2-5 5-9 7-11h1c7-4 17-2 21 7 10 17 11 37 6 60-23 87-116 153-208 129-69-19-102-91-103-159-2-113 51-219 130-297 44-41 126-94 184-52 37 27 62 67 48 114-12 38-20 67-27 90-3 9-10 22-23 16-59-27-30-97-17-148 3-11 3-19 3-26" fill="#ffffff" data-color="3"/>
        <path d="M5878 2388c-2 13-8 19-16 17s-13-8-16-17h33z" fill="#faf9f7" data-color="1"/>
        <path d="M6368 3084c0 3-2 4-3 4-3 0-4-1-4-3-3-14-13-20-28-20h-561c-4 0-6-3-6-7 0-2 2-4 4-5 25-9 20-27 20-52v-526c0-16-5-24-17-25-3 0-5-2-5-5s2-4 5-4h532c17-2 37 2 48-17 1-2 2-2 4-2s4 1 4 3l-1 134c0 3-1 4-3 4s-4-1-4-3c-7-15-16-20-35-20h-402c-1 0-3 3-3 5l-2 143c0 4 3 5 5 5h262c15 0 26-7 32-20v-1c2-2 4-2 7-1v1c4 6 2 79 2 133 0 3 0 7-1 9-1 1-2 2-4 2-1 0-3-1-3-2-7-12-19-17-34-17h-262c-1 0-2 1-2 2l-2 163c0 1 2 2 3 2l432 2c1 0 2 0 5-2 4-4 8-10 10-17 0-2 1-4 4-4 2 0 3 3 3 4z" fill="#faf9f7" data-color="1"/>
        <path d="M5130 2651c0-1-1-1-1-1-1 0-2 1-2 2v372c0 16 3 31 22 32 2 0 4 2 4 5v2c0 1-2 2-3 2l-148-1c-2 0-3-1-3-2v-2c0-3 2-5 4-5 13-2 19-11 19-27v-543c0-15 1-28-16-33-4 0-5-3-5-5q0-6 6-6h179c3 0 5 3 5 7 0 2-2 4-4 6-17 4-21 14-13 29 33 65 94 182 182 353 0 0 1 2 2 2l1-2 195-366c3-4 2-7-2-9l-16-9c-3-1-4-3-4-5 0-4 4-8 7-8l176 2s1 0 3 1c3 1 3 5 2 8l-2 2-11 5c-2 1-4 4-5 5-4 12-7 24-7 37v504c0 25-4 47 23 51 1 0 3 1 3 3v4c0 2-2 4-6 4l-155-1h-1c-2 0-5-2-5-4 0-3 2-4 4-5 13-4 19-14 19-29-2-178-2-302-2-372 0-1 0-1-1-1h-1l-217 408c-1 3-4 4-7 4s-6-1-7-4z" fill="#faf9f7" data-color="1"/>
        <path d="M6492 2876c1-1 2-2 4-2h1l3 1c2 1 3 4 3 6 0 0 0 1-1 1-15 44 79 77 111 84 83 18 215 23 284-30 41-30 41-85-8-108-15-7-31-10-49-13-24-2-88-6-186-10-67-4-144-18-188-70-61-71-37-180 39-234 120-86 314-69 448-22 4 2 24 10 58 24 2 1 6 1 8 0l7-4s1-1 2-1c4 0 7 4 7 7 0 1 0 3-1 4l-62 116c0 2-2 4-4 4-3 0-5-3-5-6l1-7c0-3-1-6-4-7-71-59-176-74-265-67-51 3-146 23-146 90 0 47 71 55 103 55 138 0 387-19 402 179 10 124-108 188-214 205-131 23-265 11-381-54-11-6-19-6-28 0-2 1-3 1-4 1-4 0-7-2-7-5 0-2 1-3 1-4z" fill="#faf9f7" data-color="1"/>
        <path d="M7451 2447c1 0 4 1 4 3 0 1-1 2-1 4l-13 8c-3 2-5 6-5 9 0 1 0 4 1 5 2 8 6 15 8 21 94 190 184 372 267 544 3 7 9 10 19 12 3 0 4 2 4 5v2c0 3-3 5-7 5h-156c-3 0-6-3-6-7 0-2 1-4 4-5 3-2 7-4 9-7 1 0 1-2 1-3v-2l-67-142c-1-1-3-3-4-3l-282-2c-3 0-5 2-6 4-19 42-38 84-58 130-3 9-2 16 7 19 4 1 8 4 8 9s-5 9-11 9l-140-1h-1c-2-1-4-3-1-8 1-2 2-3 5-5 9-4 16-13 22-24 74-174 149-348 224-524 5-12 8-21 11-29 1-3 0-6-3-9s-7-6-11-7c-3-1-5-3-5-6s2-7 6-7zm-190 350v1c0 1 0 2 1 2h1l191-2c1 0 2-1 2-3v-1l-98-207c-1-1-1-1-2-1s-1 0-2 1z" fill="#faf9f7" data-color="1"/>
        <path d="M2640 2529c-15-23-4-53 13-68 20-17 47-13 57 13 15 42-17 91-64 92-9 0-16-4-20-10-2-5 3-11 13-18 3-2 4-6 1-9" fill="#ffffff" data-color="3"/>
    </g>
</svg>
