<?xml version="1.0" encoding="UTF-8"?>
<svg data-bbox="0 0 4074 2651" viewBox="0 0 4074 2651" height="449.178" width="690.463" xmlns="http://www.w3.org/2000/svg" shape-rendering="geometricPrecision" text-rendering="geometricPrecision" image-rendering="optimizeQuality" fill-rule="evenodd" clip-rule="evenodd" data-type="color">
    <g>
        <path d="M123 1369c23 33 47 67 70 100l17 24-7 28c-27 114-55 228-83 342h625l16 41c20 50 39 100 59 150 446 176 891 352 1337 528 429-174 857-348 1285-521 17-51 34-101 50-152l15-44h301c63-332 126-665 189-998h-464l8-70c13-124 26-247 39-370-475-121-949-241-1423-361-475 120-950 239-1426 359 10 121 19 241 28 362l5 72-72-3c-120-6-248 20-331 115-78 89-93 212-78 326l9 72zm3526-991C3152 252 2655 126 2157 0c-498 125-996 251-1493 376 10 139 21 277 31 416-334-16-516 199-476 513H0l141 201c-34 140-68 281-102 421h663c23 59 46 118 68 176 463 183 925 365 1388 548 445-181 890-362 1336-542 19-60 39-120 59-180h308l213-1125h-470z" fill="#ffffff" data-color="1"/>
        <path fill="#ffffff" d="m2157 2466-961-371 961 297 962-297z" data-color="1"/>
        <path fill="#ffffff" d="M2157 238 894 496l1263-325 1263 325z" data-color="1"/>
        <path fill="#ffffff" d="m871 866-35-329 40 20 5 309z" data-color="1"/>
        <path fill="#ffffff" d="m3439 866 36-329-41 20-4 309z" data-color="1"/>
        <path fill="#ffffff" d="m2095 2303 62-41 62 41-15-70 55-51h-71l-31-74-31 74h-70l55 51z" data-color="1"/>
        <path d="M1740 553c-64 13-128 27-192 41 24-30 49-61 74-91 62-16 125-32 187-48-23 32-46 65-69 98m99 125c-65 5-130 10-195 14 32-46 64-93 96-139 65-8 130-15 195-23-32 49-64 99-96 148m661-99c-56-12-112-23-169-35 25-40 50-79 76-119 55 11 111 21 167 31-24 41-49 82-74 123m371 281c-43-13-87-27-130-40l66-138c45 18 91 35 136 53-24 42-48 83-72 125m-1508 4c27-45 54-90 81-136-59 14-118 28-177 43 29-39 58-77 86-115 59-17 117-34 176-51-27 41-54 81-81 122 62-10 123-20 185-29-33 58-65 116-97 174h194c36-64 72-129 109-194 64 3 129 5 194 8-26 54-51 109-76 164h217c21-46 43-92 64-138l100 19-5-9h96l71-143c53 16 106 31 159 46l-48 97h85l-92 71 134 32c-5 11-10 23-15 35h317c36-70 72-139 108-208-655-318-1124-339-1748-87-90 99-162 202-224 307h311c1-3 1-5 1-8zm872-153c-66-9-131-17-197-26 33-54 66-108 98-162l-192 6c28-38 57-75 86-113 64-2 128-5 192-7-28 38-55 75-83 113 62 8 124 15 186 23-30 55-60 111-90 166m569-34c-47-18-94-36-140-53 23-40 47-79 71-119 48 18 96 36 143 53-24 40-49 79-74 119m142 52 69-111 102 48c-21 37-42 73-63 110-36-16-72-31-108-47" fill="#ffffff" data-color="1"/>
        <path fill="#ffffff" d="m2403 887 82-47 62 47-1-81 76-59h-81l-17-85-55 85h-81l51 59z" data-color="1"/>
        <path d="M1309 2033c-26-2-57-18-65-44-2-7-3-18-3-32 1-30 13-55 35-75 25-23 56-24 88-23 20 0 38 5 54 16 15 11 24 37 24 54-1 28-8 54-27 76-26 28-68 30-106 28m996-138c-19-3-43-4-73-3-19 0-33 0-37 20 0 1-1 1-1 2 0 17 61 18 73 19 20 3 43 15 42 38 0 44-33 58-71 59-29 1-59 0-91-4-3 0-6-3-6-6 0 0 1-1 1-2l7-21c4-10 115 21 122-14 7-32-106-9-115-57-2-14 1-27 11-42 11-16 32-23 54-24 31-1 61 0 89 4 3 0 5 2 5 4 0 1 0 1-1 1l-3 22c-1 2-3 4-5 4zm79 136h-32c-1 0-3-1-3-3l26-165c0-1 1-2 1-2 29 1 62 1 98 0s64 18 61 58c-4 39-25 59-64 62-28 2-53 2-74 1-1 0-3 1-3 3l-5 42c-1 2-2 4-5 4m26-137-10 52v1c0 1 1 2 3 2q34.5 1.5 63 0c20-1 30-17 30-36-1-14-10-19-22-20h-62c-1 0-2 0-2 1m-352 83c13 15 26 33 38 52v1c0 1 0 2-1 2h-43c-1 0-2 0-3-1l-31-48c-2-3-5-4-8-4h-41c-1 0-2 0-2 1l-9 50h-1l-38 1c-1 0-1-1-1-1v-1l29-164c0-2 2-3 4-3 9 0 45 0 105-1 10 0 20 3 31 10 21 13 21 40 14 61-7 22-21 36-42 41v1c-1 0-2 2-1 3m-77-83-9 51c0 2 1 4 3 4h1c15-1 33-1 52-1 18 0 30-7 36-19 5-10 4-13 0-22-3-9-9-14-18-14-19 0-40-1-63 0-1 0-2 0-2 1m-911 66c0 1 1 1 2 1s1 0 2-1c8-10 17-19 26-30q24-31.5 48-60c3-4 6-7 9-8h35c2 0 3 2 3 3v1l-26 165c0 1 0 1-1 1l-37 1h-1l19-107v-1c0-1-1-1-2-1h-1c-22 26-43 50-64 74-6 7-21 20-27 5 0 0-2-2-4-6-16-28-29-52-40-71 0-1-1-1-2-1s-2 0-2 2l-18 102c-1 1-2 3-4 3h-33c-1 0-2-1-2-3l31-165c0-1 1-2 2-2l33-1c2 0 4 1 5 3zm2320-65c-18-3-43-4-73-3-19 0-33 0-37 20v2c0 17 60 18 72 19 21 3 43 15 43 38-1 44-34 58-72 59-29 1-59 0-91-4-3 0-5-3-5-6v-2l7-21c5-10 115 21 122-14 7-32-106-9-115-57-2-14 1-27 11-42 11-16 32-23 54-24 32-1 61 0 90 4 2 0 4 2 4 4v1l-4 22c0 2-3 4-5 4zm-182-2h-62c-1 0-1 1-2 2l-23 135c0 1-1 1-2 1l-36 1c-1 0-1-1-1-2l23-136c0-1 0-2-1-2l-63 1c-1 0-2-1-2-2l5-27c0-1 1-2 1-2l166-1c1 0 2 0 2 1l-3 29c0 1-1 2-2 2m-256 82c3 4 5 6 5 8 1 2 1 3 2 5 10 11 23 27 29 42 0 1-1 2-2 2h-41c-1 0-3-1-3-2-7-12-16-27-27-43-3-4-6-7-9-10-1 0-2-1-3-1l-40 1c-1 0-3 1-3 3l-9 49c0 1-1 1-1 1l-36 1c-1 0-2-1-2-2v-1l28-163c1-2 2-3 4-3 27-1 63-1 108-1 22 0 45 14 47 37 3 33-12 65-46 74-1 0-1 1-1 2zm-86-31v1c0 1 1 2 2 3h1c16 0 36-1 59-2 19-1 30-9 32-25 2-14 1-27-16-28-27-1-49-1-67 0-1 0-2 0-2 1zm-1216-52h-64l-1 1-21 137-1 1h-39c-1 0-1-1-1-2l23-135v-1s0-1-1-1h-57c-1 0-2-1-2-2v-28c0-1 1-1 2-1h165c1 0 1 1 1 2l-3 28c0 1-1 1-1 1m925 57c4-35 20-61 49-78 22-14 55-14 81-12 52 3 73 38 68 87-6 69-58 91-120 86-47-3-84-31-78-83m94-58c-26 3-42 14-52 39-6 16-7 42 5 56 14 15 37 17 57 15 25-3 42-14 51-39 6-16 7-42-5-56-14-15-37-17-56-15m-991 60c4-35 20-62 49-80 22-13 55-13 80-12 52 3 74 37 69 86-5 69-57 92-119 88-47-3-84-31-79-82m95-59c-25 2-41 13-51 38-6 16-8 42 5 56 13 15 36 17 56 15 25-2 42-13 51-38 6-16 8-42-5-56-13-15-36-17-56-15m-438 0c-25 3-42 14-51 39-6 17-7 43 6 57 13 15 37 16 56 14 26-3 42-14 51-40 6-16 7-42-6-56-13-15-37-16-56-14" fill="#ffffff" data-color="1"/>
        <path d="M2273 937h1c1 0 2 2 2 3l-21 109c-1 1-2 2-3 2-98-2-206-3-325-3-29 0-48 2-57 5-1 0-3 1-4 2-9 6-15 23-2 30 5 3 14 6 25 7 46 4 91 9 137 12 62 5 107 10 136 15 27 5 49 13 65 25 36 25 41 74 28 115-11 35-26 69-57 89-34 22-82 29-121 29-228 0-369-1-422-1-2 0-3-1-3-2v-1l21-109c0-2 2-3 3-3 126 1 240 2 345 3 20 0 36-1 47-4 13-4 20-12 19-24 0-18-45-20-55-21-71-3-121-5-150-7-36-2-68-6-98-12q-21-3-45-15c-28-13-44-33-48-61-5-33 1-74 19-106 27-46 81-70 133-74 33-2 73-2 119-2 127 0 230 0 311-1m905 0q3 0 3 3l-24 123c0 1 0 1-1 1-92-2-175-2-249-2-4 0-16 0-35 1-51 2-84 27-98 74-8 30-11 73 11 98 18 19 57 24 84 25 86 1 149 1 189-1 21-1 43-4 65-8 1 0 2 0 2 1v1l-24 121c0 1-2 2-3 2-112 2-213 3-305 2-47 0-98-12-137-37-41-26-61-69-61-118 0-62 13-131 48-183 55-83 137-102 232-102h250c22 0 40 0 53-1m-703 440h-165s-1-1-1-2l84-436c0-1 1-1 2-1h162c1 0 1 1 1 1l-81 437s-1 1-2 1M982 938c2 0 3 2 3 4l-23 121s-1 1-2 1c-77-1-154-2-232-2-30 0-55 2-73 5-44 7-76 45-82 88-3 18-5 35 0 53 11 44 57 53 97 53 74 1 146 3 218-3 13-1 23-4 35-4 1 0 2 1 2 3l-26 118c0 3-2 4-4 4-119 3-229 2-330-1-38-2-73-11-103-29-82-48-71-144-54-222 18-78 56-136 130-168 38-17 81-21 129-20 87 0 192 0 315-1m658 1q3 0 3 3c-16 75-32 159-49 250-2 10-6 27-13 53-14 58-41 102-99 122-27 9-57 14-89 16-70 4-136 4-197 1-85-5-185-22-184-132 0-42 15-95 20-125 4-22 8-45 13-69 4-18 12-58 23-117 0-1 1-2 2-2h163q3 0 3 3v1c-14 76-27 144-40 203-4 22-7 44-8 66-3 48 36 58 75 59 41 0 71 0 89-1 26-3 45-12 58-29q9-12 18-57c8-36 15-73 22-111 7-35 15-75 26-131 1-2 2-3 4-3zm2191 1q3 0 3 3c0 1 0 2-1 3-23 14-44 30-65 47-20 16-40 33-62 49-31 24-71 55-119 93-4 3-11 7-15 10-1 1-2 2-2 4 0 1 1 2 1 2 5 4 9 8 13 13 110 110 173 172 190 188 5 4 9 9 14 13 2 3 4 6 5 10 0 1-1 2-2 2h-209c-10-1-14-3-21-10-52-55-107-111-164-169l-1-1c-1-1-3 0-4 1v1c-3 8-6 18-8 30-3 13-12 62-26 146-1 1-2 2-3 2h-163c-1 0-2-1-2-2 12-67 27-146 43-237 12-62 27-131 39-197 0-1 2-2 3-2h157q3 0 3 3v1l-32 169s0 1 1 1c0 1 1 2 3 2 0 0 1 0 1-1 20-16 49-43 76-63 59-47 103-82 133-106 5-4 10-6 16-6 76-1 143-1 198 1" fill="#ffffff" data-color="1"/>
        <path d="M2871 1624v1s0 1 1 1h122c1 0 2 0 2-1v-1l-46-96c0-1-1-1-1-1h-1zm-1043 28h-108l-6 33-15 86h-138l62-321c1-2 3-4 5-4q207-1.5 333 0c27 0 53 3 76 11 29 9 47 40 48 68 1 26-4 53-15 79-14 36-40 55-78 59-1 0-2 1-2 2 1 5 3 9 6 14l74 92h-159c-27-38-57-81-83-119m-89-121-12 59c0 1 1 2 2 2l182-1q40.5 0 42-39c0-6-1-10-3-15-2-3-5-5-8-6-7-1-12-1-16-1l-184-1c-2 0-3 1-3 2M612 1636c3-2 7-5 11-10 39-48 74-90 106-125 11-13 23-28 36-43 12-14 20-12 39-12h157c2 0 3 2 3 4-13 57-31 140-42 210-5 32-12 70-21 111 0 1 0 2-1 2H772c-1 0-3-2-3-3v-1l45-204v-1c0-1-1-1-1-1h-1c-2 1-5 3-7 6-25 29-54 63-86 101-20 25-45 49-68 77-5 5-10 9-16 14-1 1-3 2-5 2h-85q-3 0-6-3c-18-30-42-78-63-123-12-26-24-51-37-73q-1.5-3-3-3h-1c-2 0-4 1-4 3-10 64-22 129-37 196-1 5-2 9-4 12 0 1-1 1-2 1H262c-1 0-1 0-1-1 1-22 7-51 11-68 17-73 32-147 46-221 2-11 5-21 7-32 1-3 3-5 6-5h176c7 0 9 7 12 13 37 72 67 131 90 176 1 1 2 1 3 1m3004 1c-1-4 0-13 2-26 7-43 16-97 28-161 1-3 3-4 5-4h125c2 0 3 1 2 2v1l-62 322q0 3-3 3h-143c-1 0-2-1-3-2-5-4-8-8-10-10-34-43-65-78-94-117-17-23-38-49-63-79 0 0-1 0-1-1-1 0-2 0-3 1v1l-35 199c0 3-3 5-5 5l-127 1c-1 0-2-1-2-2l62-323c1-1 2-2 3-2h165c3 0 7 2 10 5 29 36 59 76 90 119 8 10 17 21 28 35 17 22 26 33 28 35h1c2 0 2 0 2-1zm-999 135c-1 0-2-1-2-2 0 0 0-1 1-1 38-49 80-97 120-148 40-49 80-99 121-150 8-10 15-17 20-22 4-5 9-4 15-4h149c2 0 3 1 4 2l151 321v1c1 1 0 2-1 2h-142c-1 0-3-1-3-2l-20-54c-1-2-3-4-6-4l-207-1c-4 0-8 2-11 6l-42 53c-2 2-5 3-8 3zm-261-124 13-69c1-2 3-4 5-4l247 1c1 0 2 1 2 2l-36 186c0 2-2 3-3 3-79 3-160 5-244 4-24 0-48 0-72-1-32-1-76-10-102-30-25-19-37-46-36-80 1-42 8-80 20-115 17-48 63-82 111-94 14-4 33-5 57-6h319c1 0 2 1 2 2l-15 81q-1.5 3-3 3c-151-2-245-3-281-3-61 1-78 60-76 109 0 6 3 14 6 24 1 1 2 3 3 4 27 28 76 22 112 22 28 1 57 0 85-2 2 0 3-1 3-2l6-33c1-1 0-2-1-2h-105c-5 0-10 1-15 2-1 0-2-1-2-2m-1287 112c-41-14-67-52-71-95-3-37 3-74 17-109 19-47 51-80 96-98 18-8 56-13 76-14 89-2 159-1 210 1 57 3 110 26 130 83 5 14 5 34 2 59-12 86-41 154-133 178-11 4-30 6-56 7-48 2-102 2-165 1-42-1-72-1-106-13m267-79c44-13 59-65 55-105-3-37-33-45-64-46-23 0-43-1-61-1-23 0-50 0-72 7-44 13-59 65-55 105 3 37 33 45 64 46 38 1 99 5 133-6" fill="#ffffff" data-color="1"/>
    </g>
</svg>
