<?xml version="1.0" encoding="UTF-8"?>
<svg data-bbox="0 0 2376 2315" viewBox="0 0 2376 2315" height="498.724" width="511.865" xmlns="http://www.w3.org/2000/svg" shape-rendering="geometricPrecision" text-rendering="geometricPrecision" image-rendering="optimizeQuality" fill-rule="evenodd" clip-rule="evenodd" data-type="color">
    <g>
        <path d="M1210 0c16 3 26 5 30 5h95c18 0 14 42 14 58v2l-5 5c-2 0-5 0-5-2l-17-16h-2c-14-3-26-7-37-8-2 0-3 1-5 1-7 9-9 28-9 39 0 0 0 1 2 1l33 6h2l16-11h1c2 0 2 0 2 2 2 2 4 5 4 7 0 19 1 31 0 38 0 4-4 6-7 9h-2l-16-10s0-2-2-2c-12 2-22 2-31 3-4 2-5 4-7 7 0 14-2 25-2 33 0 7 9 11 14 11 14 2 25 2 33 2 11 0 21-6 30-14 2 0 3-2 5-4h2c0 4 2 7 2 11 0 14-2 26-7 38-2 5-6 7-11 7-12-2-24-2-36-4h-11c-5 0-9-1-14 0-21 0-42 0-61-1-5 0-22-2-22-7-2-9 10-18 15-23 0 0 0-2 2-2 2-3 2-7 2-8 3-16 7-34 8-51 4-19 2-40 2-59 0-2 2-4 4-4v-1h-4V31c-2-1-2-5-2-7-1 0-1-1-1-1-6-2-11-6-16-11-2-2-3-3-3-7 0 0 0-2 1-2 2-1 5-3 9-3zm73 28v-4h-3v4s0 2 1 2zm-49-2c-1 5-1 11 0 16h2c2 0 2 0 2-2 0-5 0-9-2-14zm27 5c0 2 1 2 1 4 2 0 2-2 2-2v-2l-2-1c-1 0-1 1-1 1m-18 20h-3v3q0 3 3 0zm-5 33c2 0 2 0 2-2 1-4 0-9-4-12h-2c-1 3 2 8 4 14m33 5 3 14c4 0 4-5 4-9-2-3-5-7-7-5m16 28h3v-2c2 0 2-2 0-2 0-1 0-1-2-1 0 0-1 0-1 1zm-21 85s1 2 1 4h2c2-2 2-4 2-4s0-2-2-3h-2c0 1-1 3-1 3" fill="#ffffff" data-color="1"/>
        <path d="M957 26v-2c-2-1-2-1-3 0l-2 2v2l3 3-1 2c-4 5-6 11-4 18s5 15 7 24c2 7 4 21 5 38 2 20 9 39 14 56 2 5 4 11 7 16 0 2 4 3 6 3 5 0 13 0 22-1 7 0 11-2 14-4 12-5 23-17 32-28 1 0 1-2 3-2l2 2c2 5 3 11 5 16 2 12 2 24 2 35 0 5-4 8-7 8-42 11-72 18-89 23-18 4-32 7-49 7-2 0-2 0-3-2-4-7 5-21 8-28v-1c0-6 0-9-1-13-9-31-20-66-32-102-3-9-5-20-7-27-2-8-10-15-19-19-2-1-4-5-4-7 4-5 7-7 14-8 39-9 60-14 60-14 7-2 12-2 19 0v1c0 2 0 2-2 2m-3 42c-2 0-2 0-2 2 0 1 2 1 2 1 1 0 1 0 1-1 0-2-1-2-1-2m3 122s-2 2-2 4c2 1 2 3 4 3 0 0 2-2 0-3 0-2 0-4-2-4m72 14c1 2 1 2 3 2v-2l-2-2h-3zm15 5h2c0-2 2-2 2-2l-2-1c-2-2-2-2-3 0v1s0 2 1 2m-99 2c-4 0-5 2-9 3v2h2c2 0 3-2 7-3zm-4 16v3c2 2 2 2 4 2v-4c-2-1-2-1-4-1" fill="#ffffff" data-color="1"/>
        <path d="M1569 63v3h2v-3h2l26 8c1 0 1 2 3 2 14 7 26 14 39 23 7 3 19 10 22 17v2c14 18 18 37 19 58 0 8 0 15-3 21-11 29-28 68-59 80-21 8-44 14-67 5h-1c-13-2-25-4-37-9-19-7-42-15-63-28-3-1-5-3-5-7v-1c4-7 11-11 16-13 1 0 1 0 3-1 4-6 5-9 7-11 12-42 26-82 40-120 0-2 4-9 9-19 2 0 0-2 0-2-5-7-12-16-7-24h2c5 0 9 0 12 1 10 4 24 9 38 16 2 0 2 2 2 2m9 19v-2zm-51 19c2-2 2-2 2-3 0 0-2-2-3-2l1 3zm121 9c1 0 1-2 1-2l-1-2h-2v6h2zm-117 120v4c5 3 10 5 17 5 18 0 39-4 51-16 7-5 12-14 15-24 7-23 11-47-1-68-4-5-11-11-16-14-3-4-9-7-16-9h-1l-6 5-1 2c-11 31-25 70-42 115m-5-115c0-2 1-3 1-3h-1c0 1-2 1-2 3zm141 96c1 0 1 0 1-4l-3-3c-2 3-4 5-2 5 0 2 2 4 4 2m-25 7 2-2c-3-7-7-12-7-12-2 2 2 7 4 12v2zm-10 26 2-3c1-2 0-4 0-4l-2-2h-2c0 2-2 4-2 6l2 3zm-45-5c-2 0-2 2-2 5 0 4 0 5 2 5 1 0 3-1 3-5 0-3-2-5-3-5m-9 31v4l2 1q1.5 0 0-3z" fill="#ffffff" data-color="1"/>
        <path d="M676 345c-1 4-5 5-3 11h2l8-6h2v2c-7 7-14 12-21 16-17 10-31 17-38 23h-2c-2 0-2 0-2-2-1-12 4-26 7-37l2-2-30-143c0-1 2-1 2-1s-2 0-2-2c-1-4-3-10-5-16v-1c-10-2-17-2-22-11 0-2 0-2 1-3 32-16 61-34 94-46 0 0 2 0 2 2l-3 19v2c5 10 14 19 24 28 32 31 72 61 108 87h2c5 2 14 2 16 5l1 2c0 7-5 12-10 16-24 12-44 22-58 31-3 2-7 2-8 0v-2c0-5 0-10-2-17-2-11-10-19-21-18-2 0-5 2-10 6-13 7-23 14-32 19-7 5-10 12-14 19v2c2 7 5 12 11 17zm-22-115 5 33s0 2 2 2c5 3 14-2 19-5 3-2 5-7 2-11-9-7-18-14-28-19m57 47s0 2 2 4h2l2-2v-4c0-1 0-1-2-1-2 1-4 1-4 3m82 0-7 4c-1 0-1 1-1 1l1 2c0 2 2 2 4 2l3-2c2 0 4-3 2-5v-2zm-141 46v-2h-2v2zm-16 1c0 2 0 4 2 4v2-2c2 0 4-2 4-2s0-2-2-3h-2c-2 0-2 1-2 1" fill="#ffffff" data-color="1"/>
        <path d="M1883 406h2l-2 7v2h2l3-9v-2h-2v-1l11-12h3v-6c2-1 9-10 21-26 6-3 9-9 14-14l12-12c4-3 6-5 6-5v-2l1-26c0-2 2-4 4-4s3 2 7 4l16 16 15 15c12 7 21 16 30 25v1c2 2 0 6-4 6 0 1-1 1-1 0v-2h-2v3l-2 2h-16c-3 4-5 5-5 5-21 21-40 42-59 63-12 16-24 30-33 40-4 5-14 18-12 25v1c0 4-2 7-4 11-2 5-9 3-10 2-26-25-44-41-53-49-3-4-8-11 0-14 7-2 18-5 28-11l2-1zm125-57v-2h-3v3c2 2 2 2 3 0zm-76 38c-2 2-6 5-7 11-2 1 0 5 1 6 2 0 6 0 7-1 2-5 2-11 0-16zm-23 4s-2 1-2 5c0 3 0 5 2 5s2-2 4-5c0-4-2-5-4-5m56 0s0 1 2 1c0 2 1 2 1 2v-2c-1-1-1-1-3-1m-51 26c-1 0-1 1-1 3s1 4 1 4c2 0 2-2 2-4s0-3-2-3m26 10s0-2-1-2l-2 2c0 2 2 2 2 2 1 0 1 0 1-2m-59 4-3-4h-2c-2 2-2 4-2 4l2 1q3 3 3 0h2zm14 5c-2 0-2 0-3 2-2 0-2 1-2 1 2 0 2 0 3-1zm-49 23c0 1 0 8 2 10 2 0 2 0 4-2 1-3 0-7-4-10 0 0-2 0-2 2m32 6c1-1 1-3 1-6h-1l-2 5v1zm-2 21h2v-1h-2z" fill="#ffffff" data-color="1"/>
        <path d="M485 516h-2l-11-26c0-2-1-4-3-5-23-21-47-44-73-67-12-8-21-20-32-31h-3l-26-2c-2 0-4-1-4-3 0-4 2-5 4-9h3c2 5 5 5 11 4v-2c0-4-2-5-6-7v-2c6-5 13-10 18-17 12-16 21-26 30-35 1-2 5-2 7 0 1 2 1 2 1 3v4h2v15s2 0 2 2 3 5 5 7c21 21 42 40 59 58 18 14 32 26 44 36 5 4 16 13 22 11 6 2 9 3 13 5 1 0 1 0 1 2 2 3 0 5-1 9-16 15-32 33-49 50-4 2-9 7-12 4v-2c1 0 1-2 1-4v-1h-1zM382 382l-5-4v-1c-2 0-6 0-9 1v2c2 9 9 4 14 4zm5 12h2v-2h-2zm23-2s-2 0-2 2 0 2 2 2c0 0 1 0 1-2 0 0 0-2-1-2m21 18c-4-4-7-6-13-2v2c4 1 9 3 13 3 1 0 1-2 1-3zm15 3s-1-2-3 0c-2 0-2 2-2 4 0 0 2 1 4 0 1 0 1-2 1-4m-10 28 2-3v-2c-6 0-11-5-11-7-2 0-3 0-3 2l-2 1v2c0 2 0 2 2 2 5 0 8 0 10 3v2zm56 47c-2 0-4 0-4 2s0 2 2 2 2 0 2-2zm5 16s-2 0-2 2c0 1 2 3 2 3 2 0 2-2 2-3 0 0 0-2-2-2" fill="#ffffff" data-color="1"/>
        <path d="m1430 387 1 4c0 7 0 12-1 19-6 17-14 38-23 61-14 36-26 68-38 96-16 36-47 108-95 212-17 40-34 82-50 126-9 23-16 40-21 57-4 16-2 23 16 27 14 3 28 5 42 7 81 12 135 19 195 27 15 4 31 4 45 6 23 3 31 12 33 33v3c-3 9-7 18-10 26-9 16-18 34-28 53-23 36-45 73-68 110-52 81-106 163-162 245-89 129-162 239-225 330-16 23-32 45-47 68-5 7-12 17-19 19-2 0-4-2-4-3-3-6-2-14-2-18 2-21 7-43 14-66 11-30 23-65 33-101 47-143 93-288 136-433 4-10 7-26 4-38-2-16-16-21-31-24-4-2-14-4-28-6-11-1-21-3-30-3-40-5-84-9-122-18-12-3-40-8-47-19v-1c-2-21 9-41 17-56 13-18 23-33 35-53 37-59 79-122 122-188 54-77 121-174 199-288 44-62 89-127 134-197 4-7 11-15 19-19h2c2 0 4 0 4 2m-251 490c-4 3-7 7-11 9-2 0-2 1-2 1v2c0 2 2 2 4 2v-2c9-9 21-10 29-14h2s0-2-2-2h-3c-3 2-12 9-16 4zm-54 63c-2 3-4 5-6 5-1 0-1 0-1 2l1 5h4c0-4 2-5 3-7v-4c0-1 0-1-1-1m-13 10c-1 2-3 4-7 7v2c0 2 0 2 2 2h2c2 0 5-2 7-6v-1c2-2 0-4-2-4zm13 19-11 14c-2 0-2 2-2 2l2 2 9 2 2-2c3-5 3-11 1-18zm-51 60 9-7q-3-3-6 0l-1 1c-2 0-2 4-2 6m57 0h-1l-2 1s0 2 2 2h1s2 0 2-2zm9 10c-2 0-3 2-7 4-2 3-3 5-2 5 0 2 2 0 6-2 1-3 3-5 3-7m39 19 1-3v-2c0-3-1-5-3-5l-7-4h-2c-3 6-7 9-10 11 0 0-2 0-2 2 0 0-2 0-5-2-2 0-2 2-4 2l-7 19h-2c-3 3-8 3-13 3v2c0 7-2 14 5 14l1-2c9-14 18-26 30-33 5-3 11-3 12-2l2 2c2 0 2 0 4-2m43 7v2l9 3h2l3-5v-2l-3-1h-2zm5 21c6 0 9 2 11 5h2c1 0 1-1 1-1v-2c-1-4-5-5-8-7h-2l-4 3zm-181 63h5s0 2 2 2v-2h2c2 0 2 0 2 2 0 3 0 5 1 8h4l5-7h2v2h1q3-3 6 0h1v-16c0-1 2-1 2-1 2 0 4 0 4-4h1c4 2 6 2 7 2 2 0 2 0 2 2l4 3v2l-4 5 2 2 5-7 2-2c2 0 3 0 3-2 2-3 6-1 9-1h5v-2l-3-4s-2 0-2-1c0-4 2-5 5-7 4-2 7-2 9-2 0 2 2 0 5-2v-1h-1c-4 1-7 1-7 0h-2c-2 1-2 1-5 1 0-1 1-3 3-7 2 0 2-1 0-1-2-4-5-7-10-9v-2c-2-7-4-12-7-17h-4c-2 0-2 0-2 1v2c0 5 2 11 2 14 2 2 2 7 0 12v2h2c9 5 10 12 5 19-2 4-3 5-9 5l-1-1-2-6v-1l-11-11c-1-3-3-5-1-8v-2l3-5 2-2s0-2-2-2c0 0 0-2-2 0-5 4-10 7-17 11h-10l-4 3v2c5 0 14 2 16 7 0 2 0 3-2 5v2c0 5-2 10-7 14h-5v-2l-2 2h-2l-1-6h-2l-9 6zm106 14c6 16 23 28 41 26 0 0 0-2 1-2 2-3 4-5 4-8 0-2 0-2 1-2v-4c-5-10-3-12 7-19 4 0 4-3 4-5l-4-11v-1c0-7 4-11 11-11 2 2 2 0 3 0v-1h-1c-7-2-11-7-11-13v-1l-5-4c-2 0-2-2-2-2 0-1 0-5 2-7h7l-5-3c-4-2-6 0-7 2l-4 8v2c0 7 4 9 9 9 3 0 5 2 5 5-3 12-17 10-29 10h-7v-1c-2-2-2-4-6-5h-1q-6 1.5-9 6v2c-2 4 0 7 2 9 5 7 14 9 22 10 2 0 2 0 2-1 2-6 16-6 21-4 2 2 3 4 2 4v1c-2 4-9 6-12 7-2 0-4 2-7 4-4 2-9 3-13 5h-1c-6-5-11-7-20-7zm175-56h2c3-2 3-3 3-5 0 0-2 0-5 3zm-16 23c4-4 9-7 11-12v-2h-2c-5 3-9 9-11 14zm-57-2-9-2c-5 0-7 2-9 5v2l7 5c2 0 4 0 5-1l6-6zm-18 26h4c1-2 1-2 0-3h-4c0 1-2 3 0 3m141 7v2l2 2c4 0 5-2 5-2s-1-2-3-4h-4zm-130 14c3 0 10 2 10-3-5-2-9-2-12 1v2zm104 14-2-2c-1 0-1-1-1-1-2-4-4-6-6-7-1 0-1-2-1-2-4 0-4 2-4 3v2c2 5 7 14 14 9zm-57 23-7 5v2c1 1 3 1 5 0l2-2c1-2 3-4 1-5zm-39 47-5 7h-2c-1 0-3 0-3 1 0 2 0 2-2 2h-2l-1 2-9 9c-2 3-5 3-9 1l-3-3c-2 0-4 2-6 3 2 6 6 9 11 11h2c7-5 12-12 19-21 0 0 0-2 2-2 3 0 10-5 10-10zm6 50c3-1 6-5 6-7 4-8 6-14 7-14v-1c0-2-1-2-1-2h-6c-1 0-5 2-5 3-3 4-3 11-1 16zm43-14c-7-1-12-1-16 4-5 5-3 10 4 12 0 2 0 0 0 0zm-64 86c-4 0-4-2-6-2 0-2-1-2-1-2-2 0-2 2-4 2-2-2-2-2-3-2-2 0-6-3-9-5h-2s-2 0-2 2c0 5-5 5-8 9h-2 2l1 7v1c2 2 4 2 7 2l6-5c3-2 7-2 8 2l2 1h2c2 2 3 2 5 0v-1l4-7z" fill="#ffffff" data-color="1"/>
        <path d="M1159 389v-2c4 0 7 0 11 2 17 5 42 9 36 31-1 14-1 26-1 37 1 31 3 47 3 49 0 7 0 15-2 29-1 0-1 2 0 4 0 10 2 21 0 33-1 12-7 17-19 16-7-2-10-2-14-2-5-2-7-4-7-9-1-3-1-14-1-31q0-13.5-6-30v-3c2-18 0-35 0-53 0-8-1-14-1-17-2-14-2-23 0-35 0-5 0-12 1-19m30 115h2c-2-9-4-14-4-14h-1s0 7 1 14zm-16 26 2-3c2-2 2-2 2-4l-2-2c-2 0-2-1-2-1s0 1-1 1c0 2 0 2-2 4v2l2 3z" fill="#ffffff" data-color="1"/>
        <path d="M1011 568c0-1-2-1-3-1l-2-2-2-7v-2h2c0-3 0-5-4-5l-17-45v-2c-3-14-5-26-12-39-4-6-5-19-4-27 0-6 0-11 2-13 2-5 11-7 18-7h8c14 0 25 7 32 20v3c3 9 3 19 5 33v19c-4 34 21 63 17 98l-7 16s0 1-1 1c-9 0-16-3-20-12-5-8-10-17-14-22v-4zm-14-139s0 2 2 3c3 0 3-1 3-1v-4c0-2-1-2-1-2-2 2-4 2-4 4m16 38v-8c-2 0-2-2-2-2-3-2-7-4-9-4-1 0-1 0-1 2 1 7 5 10 10 12zm-16 65 7 1h2c0-1 0-5-4-5v-1c-1 0-3 0-5 3z" fill="#ffffff" data-color="1"/>
        <path d="M1590 490c-2 7 0 14 4 21 1 7-2 16-9 22q-16.5 19.5-30 42c-16 26-28 49-45 72-9 10-21 21-35 21-4 0-5-4-5-7-2-4 0-9 0-16 0-2 0-3-2-5-5-5-10-7-5-16 7-10 14-24 19-40 3-7 12-28 24-66 6-16 13-30 21-40 0-2 2-2 4-4 0-2 1-2 1-2l11 2h3c2-2 6-2 11-2 12 2 24 7 33 16zm-14 43s0-1-2-3c-3-3-3-9-1-14 0-2 0-2-2-2-5 7 0 16 3 26v-1z" fill="#ffffff" data-color="1"/>
        <path d="M2068 556v-3c0-2 0-2 1-2 16-12 32-23 46-35l2 5h1c2-3 2-5 2-8-2-2-2-4-2-4 2-7 6-17 11-21 5-5 12-2 14 4 1 1 3 3 3 7 0 3 2 5 2 7 7 17 14 34 24 55 0 0 0 2-1 2h-21c-13 35-21 70-25 105v1h2c16-6 31-15 45-26 13-7 26-19 28-33 2-2 2-2 4-2h1c6 7 11 13 16 20 9 14 14 26 19 36 2 5 4 12 6 19h-34c-40 21-75 41-104 56-14 9-23 25-30 40 0 2-2 4-3 2-11-2-19-14-25-23-7-12-14-26-22-40v-1c0-6 3-11 8-9 4 0 9 2 16 3v-1c4-9 5-18 9-28 5-23 12-46 21-72v-15c0-2 0-2-2-2-19 10-38 22-54 33-11 9-21 19-25 31v2h-3c-7-2-12-10-17-17-7-11-13-21-18-32-2-5-2-9-2-14 0-1 2-3 4-3l42-7h1c11-5 16-7 25-12 16-11 26-18 31-21 2 0 2 0 2 1zm-82 58v-4h-4v4zm124 31v-2h-4v7h4zm87 0-2-2-2 2c-1 5-1 11-1 16l1 2 4 1s0 2 1 2c2 0 2-2 4-3 2-7 0-14-5-18m-21 40s0-2-2-2h-2l-1 2v4c0 1 1 1 1 1h2c2 0 2 0 2-1zm-80 9-4-2v7h4zm12 10-2-1h-2c-1 3-3 7-1 7 1 1 3 0 5-4z" fill="#ffffff" data-color="1"/>
        <path d="m891 588 3 19c0 1 2 3 2 3l12 12c6 7 11 16 9 27-3 8-10 22-21 17-9-3-14-7-17-14-14-21-28-40-44-57-2-4-7-7-14-14-2 0-2 0-2-2-5-12-12-21-22-37-9-12-18-31 0-40 12-7 35-9 47 4 0 1 3 5 5 12 4 17 16 33 26 47 5 5 7 12 12 17v2h-1c-2 2-2 4 0 4h1l2-2s2 0 2 2m-40-27v2s2 2 3 0v-3h-1c-2 0-2 0-2 1m17 51-3 2v1c1 4 1 4 3 4h2c2 0 2-2 0-5v-2zm21 7c0 2 0 5 4 7 1 2 5 2 7 2 1-2 0-6-4-7-2-2-5-4-7-2" fill="#ffffff" data-color="1"/>
        <path d="M155 678c-7 4-12 7-21 5-3 0-5-3-5-5 0-3 2-7 4-10 1-4 6-12 15-25 4-7 7-12 11-19 5-12 10-19 10-21 14-19 30-36 44-52 3-4 8-4 12-5 21-13 47-13 70-7 1 0 3 0 3 1 18 9 33 20 47 32 18 14 28 29 30 50 3 21 3 39-7 58v2c-4 10-7 21-12 29-7 16-20 37-32 54-3 6-8 9-12 14h-5c-7-5-9-12-11-19 0-2 0-2-1-3-4-4-7-7-9-7-54-28-91-47-112-60-3-1-10-5-17-12zm166 16c2-4 3-7 5-11 5-24 5-54-17-69-14-9-28-14-44-18 0 0-5-1-12-1h-2c-2-2-3-2-5 0h-2c-14 3-21 8-31 17-2 2-6 7-9 12v2c0 3 2 5 3 9h2l107 61h1c2 0 4-2 4-2m29-59h-1v3c0 2 1 2 1 0h2c0-2 0-2-2-3m-188 15c0-1-2-1-2-1h-1v1s0 2 1 2c0 0 2 0 2-2m195 6c0-2 2-2 2-4 0 0 0-2-2-2h-1v2c0 2 0 4 1 4m-10 8c0-1 0-3-2-3v-2c-2 0-2 0-2 2 0 0-1 2 0 2v1zm-192 0c-2 0-2 2-2 4v1c2 0 2 0 4-1 0-2-2-2-2-4m194 30c1 0 1 2 3 2 0 0 2 0 2-2h-2c0-2 0-2-2-4 0 0-1 0-3 2v2zm-72 37c2 0 2-2 4-4 0 0 1 0 1-2h-1c0-3-2-5-2-5-2 0-2 2-4 4l-1 1v2c1 2 1 4 3 4m33 12h-1l-4 1c0 2-2 2-2 2s0 2 2 2h2l3-2z" fill="#ffffff" data-color="1"/>
        <path d="M1724 605h2l9 10c0 2 1 2 1 2 4 2 6 2 7 4 14 7-5 26-14 33-20 21-48 40-71 57l-2 2c-10 12-24 24-40 33-2 2-3 2-3 2-2 0-2 0-2 2-2 1-2 1-4 3q-4.5 3-15 9h-2c-3-2-9-7-10-11v-1c3-11 5-16 5-18 3-14 12-24 24-31 4-4 7-14 9-19 0-2 2-2 2-4 3-5 10-12 19-22 5-7 9-16 14-21 7-7 14-11 22-16h2v2c0 1 2 1 2 1s0-1 2-1c0-2 0-2-2-4 0 0 2 0 2-2 5-5 10-10 14-15 3-4 5-5 7-5 1-2 5-2 10-2 2 2 12 5 11 10 0 2 0 2 1 2m-15 12c-2 0-4 4-4 7q-3 6 0 9c2 0 4-4 5-7 0-5 0-9-1-9m-35 21s-2 0-2 2 0 2 2 3l1-1c0-2 0-4-1-4m-7 14c-6 4-9 7-7 12h1c6-1 7-7 7-12l-1-2zm17 30 2-2v-2c-4-7-9-10-9-10-2 1 0 7 5 12v2zm-36-11c5 7-4 14 1 23h2c9-4 10-9 5-16-3-5-5-7-7-9 0-1 0-1-1-1v1s-2 0 0 2m12 35c3-2 5-3 7-5v-2c-2-2-4-3-4-3h-2c-3 3-3 7-3 10l2 2zm-58 37-3 1h-2 2c0 4 1 7 3 7l2-1s0-4-2-7" fill="#ffffff" data-color="1"/>
        <path d="M781 758c-12-1-21-5-28-12-19-19-36-36-61-45-2-2-5-4-9-7-7-7-12-12-17-18 0 0-2-1-3-1-7-6-14-9-21-14-7-4-18-12-14-21 1-7 8-12 14-16 0 0 0-2 1-2 2-8 4-21 13-22 8-2 19-2 22 5 7 9 14 16 23 24 10 11 19 18 23 23 1 2 1 2 3 2 4 2 5 3 5 5 5 4 11 9 14 14 2 3 4 5 5 7 11 7 20 12 28 24 4 4 7 9 13 13 1 1 5 1 5 5 5 7-9 31-14 36zm-110-90c2 0 2 0 4-4 0 0-2 0-2-1-2 0-2 0-2 1-2 2-2 4 0 4" fill="#ffffff" data-color="1"/>
        <path d="M1689 866v-1l-1-2c-4-3-9-9-11-14-7-19 9-30 23-37 17-8 31-14 43-24l2-2c14-17 39-35 61-38 2 0 2 0 2-2 3-3 9-3 16-2 10 2 19 7 28 14 5 4 7 7 7 14 0 13-6 25-18 32-17 12-37 21-52 28-4 1-11 5-25 12-22 12-47 21-73 22zm61-45 7-7h2l2 2h2c3-4 5-5 7-9 0-2 0-2-2-2-7 4-12 9-18 16m-36 21-2 7c2 2 5 0 5-2v-1q0-3-3-6z" fill="#ffffff" data-color="1"/>
        <path d="M710 851c-2 9-6 15-11 21-5 5-9 10-12 14-2 1-2 1-4 1h-1c-13-5-25-14-35-24-18-12-37-23-58-31-8-6-19-6-28-11-12-5-31-17-34-31-2-9 8-19 15-23 0-2 0-2 2-2l21-3c2 0 2-2 2-2 1 0 1 2 1 2 4 0 6 0 9 2 11 1 18 3 24 8 14 11 28 23 41 33 14 13 26 20 41 30 13 7 20 12 25 14 0 0 2 0 2 2m-124-72h-7c-2 0-2 2-2 2 0 2 0 2 2 2h5c2 0 2-2 2-2zm14 7c-2 0-4 0-4 2s0 2 2 4c2 0 2-2 2-4 1 0 0-2 0-2m-30 30h2v-5c-2 0-2 1-4 1v2c0 2 2 2 2 2m54 7c0-4-3-5-7-7h-2s-1 0-1 2c1 5 5 8 8 7 2 0 2 0 2-2" fill="#ffffff" data-color="1"/>
        <path d="M1928 957c-2 11-12 14-22 18-16 3-30 5-46 7-7 0-12 1-17 7-4 5-5 7-12 8-16 4-35 11-53 14-8 0-17-2-24-5l-2-2c-5 2-10 2-12 0-7 0-7-2-5-7v-17c-2-16 14-21 26-23 9-2 17-3 24-5 2-2 4-2 4-4 12-7 19-12 21-14 3-1 10-3 17-3 2 0 2 0 2 2 0 1 2 1 2 1h1v-3h2c2-2 14-5 38-12 14-4 27-4 41-2 0 0 1 0 1 2 6 7 9 14 13 22v2c-2 7 0 11-4 16-2 0-2 0-2 2l2 1h2c0-1 2-3 2-5v-2h1zm-38-23c-2 4-9 11-5 16h1c6-3 7-9 6-16zm-23 4s0 2 2 3h2v-5c-4 0-4 2-4 2m-26 7h2zv2zm47 30s2 0 2-2-2-2-2-2c-2 0-2 0-2 2v2s0 1 0 0z" fill="#ffffff" data-color="1"/>
        <path d="M615 1022v1c0 2-1 2-1 2-6 0-11-2-18-3-19-6-40-2-57-11 0-2 0-2-2-2-9-7-12-13-21-13-9-2-23 1-33-2-16-4-35-12-37-30 0-10 9-19 18-24 17-7 36-4 52 1 42 16 68 25 80 30 12 4 23 7 35 11h2c2 1 3 3 3 5 7 5 13 10 16 14 7 8-2 15-7 19-9 5-17 7-26 5h-2c0-2 0-3-2-5zm-106-63v-4c0-1 0-1-2-1-1 1-1 1-1 3v2zm-47 9s-2 0-2 1c-1 2 0 4 0 4 2 0 4 0 4-2s0-3-2-3m12 5c-2 0-2 0-2 2v1c2 0 2 0 4-1 0-2-2-2-2-2m28 10c0-3-3-10-9-10 0 0-1 2-1 3 1 6 3 9 10 9zm112 2c0-2-4-3-6-3-1 0-3 1-3 1 0 2 2 4 3 4 2 2 4 0 6-2m-21 21v-5c0-2-2-2-2-2s-2 0-2 2c0 0-1 1 0 1 0 2 2 4 4 4" fill="#ffffff" data-color="1"/>
        <path d="M0 1023v-14c0-3 3-5 9-5h303c4 0 5 0 7 4l2 1v13c0 1-2 3-2 3-2 2-3 4-7 4H9q-6 0-9-6" fill="#ffffff" data-color="1"/>
        <path d="M2376 1004v21c-1 2-3 4-5 4h-129c-2 0-2 0-2-2-1-2-3-2-5 0 0 2-2 2-2 2h-169c-5 0-7-2-7-7v-14l2-2c2-2 5-2 9-2zm-59 5h-2c-1 2-1 2-1 4h1c0 2 2 2 2 0 2-2 2-2 0-4m-38 11v2z" fill="#ffffff" data-color="1"/>
        <path d="M239 1179c2 1 3 3 3 7 0 12 0 20-1 24 0 0 0 2-2 2-5 1-9 1-14 0-4 0-5-2-5-6v-95c0-9-13-6-20-7 0 0 0-2-1-2v-14c0-5 1-7 5-7h49c2 0 3 0 7 2 2 0 2 1 2 3v14c0 2-2 4-4 4-5 0-16-2-16 7v62c0 2 0 4-1 4z" fill="#ffffff" data-color="1"/>
        <path d="M2216 1184c0 17-14 29-30 29h-3c-16 0-30-12-30-29v-73c0-16 14-30 30-30h3c16 0 30 14 30 30zm-16-84v4c0 1 2 1 2 0h2c0-2 0-4-2-4zm-7 14c0-5-3-10-8-10h-2c-5 0-9 5-9 10v66c0 6 5 11 11 11 5 0 8-5 8-11zm18 2v5c0 2 1 2 1 2v-2c2-2 4-3 4-5 0-4-2-5-4-7h-1zm0 56v3c1 2 3 0 3 0v-2l-2-1z" fill="#ffffff" data-color="1"/>
        <path d="M2327 1184c2 3 2 5 6 7 5 3 12-4 12-9v-14c-2-3-4-3-5-3h-7c-21 1-28-16-28-34 2-8 2-13 2-17 0-7 0-12 1-16 9-17 33-22 47-10 7 7 11 14 11 24v72c0 17-11 29-28 31-7 0-11-2-16-3-10-6-15-14-17-28 0-2 3-5 5-5h12c2 0 5 1 5 5m0-58c0 7 0 19 9 19s9-12 9-19c0-8 0-21-9-21s-9 13-9 21" fill="#ffffff" data-color="1"/>
        <path d="M68 1104H49c-5 0-9 0-9 5v21c0 3 2 5 7 7h16q3 0 3 3v14c0 2-1 4-3 4H47c-5 0-7 3-7 8v18c0 3 2 5 7 7h24c4 0 6 2 6 3v14c0 2-2 4-4 4s-3 1-5 1c-14 0-30 0-44-1-7 0-7-4-7-7v-117c0-7 4-5 9-5h45c2 0 4 0 4 1 2 6 2 11 0 16 0 2 0 2-2 2l-2-2-1-3h-2v1c0 2 0 4 2 4 0 0 0 2-2 2m-16-13h-1zs0 2 0 0" fill="#ffffff" data-color="1"/>
        <path d="M105 1182v-5c7-2 12-2 17-2 2 0 2 2 4 4 0 3 1 7 1 8 4 6 11 9 16 4s5-14 0-19c-5-7-10-13-16-18-1 0-1-3-1-5s0-2-2-2h-2c0 2 0 2-2 2v-2c-5-5-8-10-10-12-5-9-7-19-4-30 2-10 9-19 20-21 20-7 40 2 43 27 0 1-2 3-3 3-6 2-11 4-16 4-2 0-2-2-2-2l-3-9-2-2c-5-5-14-1-14 6-2 12 5 20 14 27 16 13 28 27 26 48 0 12-7 24-19 27q-13.5 3-24 0c-9-1-14-8-20-17v-2h2c2 2 5 2 7 2v-2c-2-7-3-10-7-14h-2zm17-78v3c2 2 2 4 4 4v-4c-2-2-2-3-4-3m-14 17h-2l6 9c1 1 1 1 1 0l2-2c2-2 2-2 0-2z" fill="#ffffff" data-color="1"/>
        <path d="M2064 1212c-2 0-2-2-2-4-1-7-1-15 2-22 11-13 19-27 28-39 7-9 18-28 12-38-3-5-10-7-15-2-6 5-6 11-6 14 0 2-1 4-3 4h-14c-5 0-5-6-4-11 0-14 11-31 27-31 10-2 19 0 28 7 15 15 12 40 1 57-5 9-14 21-24 37-2 2 0 3 2 5 0 2 1 2 3 2h23c2 0 3 2 3 3v14c0 4-1 5-5 5h-52c-2 0-4-1-4-1" fill="#ffffff" data-color="1"/>
        <path d="M2256 1116s-2 0-3-2h-9c-2 0-4-2-4-3v-9c0-2 2-4 4-4 7-3 14-7 17-14 4-3 11-3 14-1 2 0 4 1 4 3v124s0 2-2 2c-7 1-12 1-18 0l-1-2v-85c0-4 0-6-2-9m17 54v7c2 0 2-2 2-4 0-1 0-3-2-3" fill="#ffffff" data-color="1"/>
        <path d="M1749 1158h-2v-2c2-4 7-9 10-12 9-4 18-6 23-13 12-12 30-5 42-5 10 0 7-5 14-10 0 0 2 0 2-2 14-2 29-2 45-2 7 0 17-1 37-5 6-2 17-2 20 5 2 4 0 6 0 9 2 2 0 4 0 5 0 5-1 11-1 16-2 10-4 14-9 21s-16 7-24 9c-30 3-58 3-86 1-23-1-47-5-70-10v-4z" fill="#ffffff" data-color="1"/>
        <path d="M521 1184c-1-2-3-2-3-2-4-2-5-2-5 0s-2 2-2 2h-16c-14 0-24 3-36 5-6 2-11 2-14 0-9-2-11-10-9-17 2-6 2-13 3-23v-2c2-3 4-9 9-14 5-7 16-8 24-8 7-2 18-2 28-2 18-2 37-2 56 0 25 2 49 5 73 10 2 0 2 2 2 2-2 14-14 17-26 23-5 1-9 8-14 10-3 4-7 4-10 4-7 0-21-4-32 0l-5 7c-2 1-4 1-4 1zm-22-49s0-2-2-2c-9-2-23 0-30 7v2c0 2 0 2 2 3 10 0 19-14 31-7zm75 5c0 2 0 2 1 2 0 2 2 0 2 0v-2c0-2 0-2-2-2h-1c0 2-2 2 0 2m-53 5v-1c0-4-1-4-1-4-2 0-2 2 0 5zm-14 6-1 1v2h3v-5zm-29 3v2c1 0 1 2 1 0l4-2v-2h-4c-1 0-1 2-1 2m14 18c0-2-2-2-4-2-2 2-3 2-3 3 1 2 3 2 5 0 2 0 2-1 2-1" fill="#ffffff" data-color="1"/>
        <path d="M288 1194h10c2 0 5 2 5 4v10c0 2-3 4-5 4h-10c-2 0-4-2-4-4v-10c0-2 2-4 4-4" fill="#ffffff" data-color="1"/>
        <path d="M0 1288v-15c2-4 3-6 9-6h303c2 0 4 0 5 2 2 0 2 2 2 2 2 7 2 12 0 17 0 2-2 4-5 4H56c0-2-2-2-4-4l-1 2c0 2 0 2-2 2H7c-4 0-5-2-7-4m248-8s-2 1-2 3l2 2c1 0 1-2 1-4 0 0 0-1-1-1" fill="#ffffff" data-color="1"/>
        <path d="M2376 1269v21c-1 2-3 2-5 2h-207v-2h-2v2h-28c0-4 0-5-2-7h-2c-1 2-1 3-1 5v2h-35v-2l-2-2c0-1 0-3-2-3l-1-2v7c0 2-2 2-2 2h-23c-8 0-7-9-7-16s4-9 9-9h44q0 3 0 0h256c3 0 7 0 10 2m-289 2s0-2-2-2h-2v2l-1 3 1 2h2l2-2zm35 0-4 5v2s0 2 2 2c2-2 4-4 5-6v-1l-1-2z" fill="#ffffff" data-color="1"/>
        <path d="M1733 1301s0 1-2 1v-1l-7-7c-1 0-1-2-1-6v-1c1-4 3-7 8-9 23-16 42-2 66 0 2 0 11 0 23 2 9 1 18 5 25 10 7 7 12 12 22 11h12c18-2 47 10 51 29 2 11-9 21-17 26-14 7-34 4-49-1-37-13-67-23-93-33-1 0-10-4-26-7h-2l-5-7v-2c0-2-2-4-3-5zm23-14s-2 0-2 1c-2 2 0 2 0 4 2 0 2-2 3-4 0 0 0-1-1-1" fill="#ffffff" data-color="1"/>
        <path d="M462 1377c-7-12-14-26-12-40 2-10 17-15 28-17 14-2 22-4 29-4 11 0 21 0 28-10 7-9 14-7 23-11 21-5 47-17 64-5 2 0 2 0 4 2 2 0 5 0 9-2l7 2c1 0 1 2 1 3v18c0 5-1 9-1 12-4 9-16 12-25 14-16 3-24 3-35 12q-12 7.5-21 12h-1c-11 2-18 2-21 4-30 9-49 17-75 12zm124-61c-4 2-5 4-9 6-3 1-3 3-3 5q0 3 3 3c2 0 2 0 4-2 1-1 3-5 7-10 0 0 0-2-2-2" fill="#ffffff" data-color="1"/>
        <path d="M1670 1447c-2 0-2 0-2-2 2-8 4-15 9-21 5-5 11-10 14-14 0-1 2-1 4-1 14 5 24 14 36 22 18 14 37 25 56 33 10 4 19 6 28 11 12 5 33 17 35 30 2 10-7 21-14 24 0 2-2 2-4 2l-21 3h-3c-2 0-5 0-9-2-8-1-17-3-24-8-14-11-26-23-40-35-12-11-25-19-42-28-11-7-19-12-23-14m42-10v1c2 2 2 2 4 2v-2c0-1 1-1 0-1 0-2-2-2-2-2v2zm16 31v2c0 1 0 1 1 1h2v-3c0-2 0-2-2-2 0 0-1 0-1 2m24 7c0-2-2 0-2 2v1c2 0 4 0 4-1 0-2 0-2-2-2" fill="#ffffff" data-color="1"/>
        <path d="M689 1430v3c7 5 14 12 14 21-2 16-14 24-27 30-7 3-26 12-38 21-2 1-5 5-10 8-16 19-35 30-58 35-2 0-2 2-2 2-1 2-3 3-7 3-14-1-26-7-36-17l-2-2v-3h-3v-11c0-12 5-21 15-28 7-5 14-10 23-14 14-7 24-10 28-12 3-2 12-7 24-14 23-12 47-19 77-22zm-21 10c1 2 1 2 3 0l2-2c0-1-2-3-2-3h-3c0 2-2 2-2 3 0 2 2 2 2 2m15-3c-1 0 0 0 0 0 0 1 0 1 2 0-2-2-2-2-2 0m-34 26-11-2c-2-2-3 0-3 0l-2 3c-2 0-2 2 0 2l5 5h2c3-1 7-3 9-7zm-102 71v2c2 3 4 3 7 3v-1c-1-2-3-4-3-4 0-2-2-2-2-2z" fill="#ffffff" data-color="1"/>
        <path d="m258 1595 10 32 2 1c4 2 14 7 16 11v5c-9 5-19 12-33 19-7 4-11 4-16 0v-22c-5-9-10-18-17-27-2-3-6-3-9-1-4 1-12 5-24 10-9 4-13 9-11 18 2 3 5 12 12 26 7 12 18 21 32 26 1 2 3 2 3 3h2l-2 2c-12 11-28 16-45 18 0 0-4 0-7-2l-2-2c-9-21-14-37-23-54-5-9-15-28-31-59 0-2-2-2 0-4l2-5v-2h-2v2l-2 2h-1c-2-5-2-11-2-14 0-2 0-2 2-2 5-5 19 0 26 2l1 2h2c4 0 7-2 11-4 8-2 21-5 38-10 10-6 23-11 35-16 16-9 28-16 37-21 8-3 15-9 20-12 2-2 2-4 2-5 0-6 2-13 2-18 2-3 3-7 7-7l2 2c5 3 7 7 8 9 2 7 4 14 7 21 2 5 6 12 9 19 16 33 30 57 38 75 7 8-1 17-10 22-9 7-21 13-33 20h-2l-7-4c-2 0-2-2-2-3l7-25c-3-16-7-28-10-36-2-4-4-4-5-6-13 0-27 7-37 11zm-58 7h4v-3h-4zm-47 21v2h2c2-2 4-4 5-7v-4h-1zm16 19c2 2 2 2 5 2 2 0 2 0 2-2 0-1-2-1-2-1-3 1-5 1-5 1m-14 19c0 2 0 2 2 2h2v-3h-2z" fill="#ffffff" data-color="1"/>
        <path d="m2151 1705-3 4c-16 0-31-4-44-11-38-17-64-40-69-84 0 0 0-1 1-1v-2h2s0-2-2-2c-1 0-1 0-1-2 0-22 5-41 17-59 5-9 12-19 23-29 7-9 5-18 7-28 0-2 0-2 1-2 23 2 42 9 60 21v2h-2l-5 1v2c1 2 3 2 5 4h2l3-2h2v2c0 1 0 1-2 1-17 7-31 14-42 25-17 14-22 31-15 52 5 14 19 31 33 42 7 5 21 14 29 16 7 1 14 3 21 1 16 0 33-12 40-26 11-17 9-45 2-66l-9-12q-1.5-3 0-6c4-3 7-3 13 0 15 7 29 14 40 21 7 4 12 9 17 14q3 3 0 6l-10 8c-2 0-2 0-2 2-10 21-17 42-24 59-2 5-6 11-7 14-13 16-30 28-49 35-2 2-4 2-5 2-6 0-13 2-21 2-4 0-4 0-4-4zm-27-181s-2 2-2 3c0 0 0 2 2 2 0 0 1 0 1-2 0-1 0-1-1-3m125 50h2c2-1 2-3 2-3s-2 0-4 2h-2s0 1 2 1m0 42c0-2 2-2 4-3 0-2 0-2-2-2-2-2-4 0-4 3v2zm-200 0 3 9c0 2 2 2 2 2h2l5-6v-3s0-2-2-2c-2-2-5-2-9-3-1 0-1 1-1 3m-2 21c-2 2 0 4 2 5h5c2-1 0-5-2-5-2-2-5-2-5 0m82 21c0 2 1 3 3 5s5 0 5 0c0-2 0-3-3-5-2-2-4-2-5 0m22 5c2 0 2 0 4-2h2v-1l-2-2h-5c0 3 0 3 1 5m-26 7s-1 0-1 2c0 0 0 2 1 2 0 0 2 0 2-2 0 0 0-2-2-2m7 23 2 2 5 3h2v-2c-2-1-2-3-5-7h-2zm28-4c-2 0-2 2 0 4 0 2 0 2 2 2v-2c-2-2-2-4-2-4" fill="#ffffff" data-color="1"/>
        <path d="M788 1534c5 4 10 7 9 14-2 9-4 14-4 16-5 14-14 24-24 31-4 2-5 5-7 11-2 5-4 8-5 12v2c-14 15-21 22-28 36-5 9-18 16-30 23-2 0-2 2-3 2-2 3-7 8-13 15-1 0-5 4-8 6-2 1-2 1-4 1-15 0-21-15-29-24l-2-2c-26-3 2-29 9-36 20-20 47-37 69-56 2 0 2-2 4-2 15-21 40-37 63-49zm-84 91 9 2h2c0-2-2-4-4-6-3 0-5 0-7 2zm-7-2c2 2 2 0 2 0zm-38 47c-2 0-2 4 0 5 0 4 2 6 4 6 1 0 1-4 0-6 0-3-2-5-4-5m-10 5c-4 2-4 2-4 6h2c2-2 2-2 2-4zm15 20h-3c0 1 0 3 2 3h1c2-2 2-2 0-3" fill="#ffffff" data-color="1"/>
        <path d="M1595 1538h2c10 1 21 5 28 12 19 19 36 37 61 45 2 2 3 4 9 7 7 7 12 12 15 16 2 2 4 3 4 3 7 4 14 9 21 14 7 4 17 13 15 21-3 7-8 12-14 16-1 0-1 2-1 2-2 8-6 19-14 22-7 2-18 2-23-5-7-9-12-17-21-24-12-11-19-18-24-23 0-2-2-2-2-3-3 0-5-2-7-4-5-3-9-9-12-16-2-1-4-3-7-5-9-7-18-12-26-24l-12-12c-2-2-6-2-7-6-4-7 8-31 15-36m70 73-4-19h-1v2c-2 0-4 1-2 3l2 17h1zm-23 0h2c0-4 2-5 2-9 0 0 0-2-2-2 0-1-2-3-3-3 0 0-2 2-2 3l-2 2c2 4 2 5 4 9z" fill="#ffffff" data-color="1"/>
        <path d="M786 1806c2-7 2-15-1-22-2-2-2-6 0-9 0-4 3-7 7-12 8-9 12-14 19-25 8-12 14-22 28-31v-2c12-14 19-33 24-47 7-12 14-26 30-30 14-3 24 6 33 14 2 0 2 2 2 4 0 3-2 7-4 10-3 21-9 42-19 60-5 12-11 20-16 29-5 7-2 18-16 16-5 0-10 0-13 2-2 0-4 1-4 3s0 2 2 4l8 10v4c-3 3-6 7-8 12-5 7-5 15-9 22 0 2-2 4-3 4v2l-13-2c0-2-1 0-1 0-4 2-7 2-9 2-9 0-18-4-25-7-1 0-5-4-10-9-2 0-2-2-2-2m129-165v3h4v-3c0-2-2-2-2 0zm-83 90 3-2v-1h-5v1zq0 3 0 0m14 18c-2 1 0 3 1 5 2 2 6 3 6 2 1-2 1-6-2-7-2-2-4-2-5 0" fill="#ffffff" data-color="1"/>
        <path d="M1536 1698v-2c2 0 2 2 2 2l19 18c7 15 19 31 26 41 7 11 14 28-2 35-14 9-40 11-50-5v-2c-5-21-14-35-28-52-5-7-9-14-16-24 0 0 0-2-2-4-1-5-1-12-5-19v-2c-9-7-21-21-21-33 2-7 4-12 9-17 3-6 9-7 14-4 5 4 10 5 14 11 2 0 2 0 2 1 10 16 22 32 33 47l3 9zm-47-37-4 11v2h2l2-2c2-5 2-9 2-11zm14 11s-2 0-2 2c-2 0-2 1 0 1 0 2 2 0 2 0 2-1 2-1 0-3m63 64-4 6h2l2 1s1 0 1-1l2-2c0-2 0-2-2-4z" fill="#ffffff" data-color="1"/>
        <path d="M1325 1723c0-11 2-18 4-21 1-4 1-9 3-11 0-2 2-3 3-3 7 1 14 3 18 8 2 4 5 9 9 18 10 17 15 35 21 52 1 4 3 11 8 23 0 2 2 3 2 3 2 11 3 18 5 25 2 5 4 8 7 15v2c4 9 4 19 2 31 0 7-4 11-11 13-22 3-47-6-50-30-2-10-2-21-4-33v-2c2-14 2-26-1-38-7-19-12-33-14-46 0-1 2-1 2-1 1-2 3-4 1-7v-2s-1 0-1 2l-2 2zm28 48v-3c-2 0-4 0-4 2v1s0 2 2 2zm45 70s-2 2-2 4c0 0 0 1 2 1 0 0 2 0 2-1 0-2 0-4-2-4" fill="#ffffff" data-color="1"/>
        <path d="M1217 1808c2 23 2 44 3 64 0 6 0 11-1 20v15c0 2-2 2-4 2s-9-2-21-5c-12-4-21-7-24-19 0-4 0-9 2-16 0-10 1-19 0-31 0-9 0-21-2-41-2-10 0-22 2-38v-2c-2-14-2-28 0-36 1-9 7-14 15-12 11 1 16 1 18 1 3 2 7 4 7 7v21c0 16 1 30 7 44l-2 19c-2 0-5 0-7 2 2 3 3 3 7 3zm-24-59h1c2-4 2-4 0-6 0 0-1 2-1 4h-2s2 0 2 2m-6 29c0-1 0-1-1-1l-6 1c-1 0-1 0-1 2l1 2 7-2zm28 61h-3v4c1 2 3 3 5 3v-1s2-2 0-6zm-31 26c2 4 2 6 2 6h1c2 0 2 0 2-2-2-2-2-4-2-4-1-1-1-3-1-5 0-1-2-1-2-1v1h-2c0 2 2 4 2 5m21 2h-2v2c-2 0-2 2 0 2 2 1 2 0 2 0 1-2 1-2 0-4m-7 32s-2 0-2 1c0 2 0 4 2 4l1-2c0-2 0-3-1-3" fill="#ffffff" data-color="1"/>
        <path d="M293 1892c3-7 19-7 28-7h2c7-4 13-11 19-18 21-22 43-47 64-71 5-5 12-12 18-16 7-7 8-12 8-23v-3c0-2 0-4 2-7h2c5 0 9 0 12 3 4 4 17 20 45 49 4 4 7 9 9 14v2l-2 2c-5-2-10-2-15-2-7 2-13 9-20 16l-8 8c-12 9-23 16-30 23-17 14-33 28-45 44q-6 4.5-9 12v5c5 7 11 16 18 24 8 11 31 16 45 20 2 0 3 0 3 1 0 2 0 2-1 2-4 5-9 11-14 14-11 9-21 17-30 17h-2c-3 0-5-1-5-1-17-18-40-42-70-74-8-8-17-19-24-31-2-2-2-2 0-3m118-95c-1 0-1 0-3 2 0 2 2 4 2 4 1 0 1-2 1-2 2-2 0-4 0-4m-26 32c2 2 2 2 4 0v-4h-2c-2 2-2 2-2 4m44 0c0-2-2-4-2-4h-2c-1 0-1 0-1 2 1 2 3 2 3 4 0 0 2 1 2 3l2 2c0-2 1-2 1-2 0-2-1-3-3-5m-19 0v2c0 1 1 1 1 1 2 0 2-1 2-3zm-2 31c2-1 2-3 0-5s-4-2-4-2c-1 2-1 2 0 6 0 1 2 3 4 1m-12 11v3l2 2s1-2 0-4c0-1-2-1-2-1" fill="#ffffff" data-color="1"/>
        <path d="M1888 1848h-2c-3-5-7-3-14-5h-19c-1 0-1-2-1-4 0-3 0-5 1-7 6-3 11-8 18-15 5-6 10-13 15-18 7-8 14-19 23-28 2-1 5-1 7-1 5 5 5 17 5 24v2c2 3 4 5 5 5 18 17 35 33 53 49 0 0 2 0 2 2h-2c-2 1-2 3 0 7l3-4h4c17 17 35 31 50 44 4 1 7 3 13 5l1 2c6-2 11 0 16 1 5 2 3 9 0 13-2 1-17 19-47 50-4 4-11 11-14 2-5-14-9-23-11-28 0-2-1-2-1-2-2-3-5-5-9-9-17-15-40-34-68-57-9-7-16-14-23-21 0 0-1-2-3-7zm66-3c-1 0-1 0-1 1 3 2 5 4 5 4 2 0 0-2-2-5 0-2-2-2-2 0m37 20h-2zl3 9h2l2-2v-3zm-21 4c-2 0-2 2 0 3l2 2v-3zm35 21-2 2v1h4c1-1 1-3-2-3m-11 10c-1 2 0 4 2 6 2 1 5 1 5 0 2-2 0-4-1-6zm-13 0c-2 0-4 0-6 2v2s0 2 2 2c2 1 2 1 4 1zm17 32-7-11v-1l-2 1c-1 0-3 4-3 5 0 2 0 4 2 6 0 1 3 3 5 3 1 0 3 0 5-2z" fill="#ffffff" data-color="1"/>
        <path d="M584 2146c-3-2-19-10-19-16v-1c5-9 14-11 24-12 0-2 2-2 2-2 2-2 5-5 7-9 9-9 16-19 24-33 7-11 14-19 20-30 10-22 19-40 27-62 0-2 0-4-1-6-4-5-7-12-9-17 0-2-2-2-2-2 0-3 2-5 6-5 10-2 19 7 29 16 5 1 11 5 16 8 29 16 56 28 78 39 11 5 9 15 6 24-4 9-9 21-16 35-2 0-2 2-2 2-2 0-3 1-7 1-2 0-2 0-2-1-5-6-8-14-10-23 0-2 0-2-2-2-10-8-19-17-31-24h-2c-9 2-21 21-26 30 0 1 0 1 2 3l26 19h2l19-2c1 0 3 2 3 4-2 3-2 7-3 12-4 7-7 14-12 25-4 7-7 8-13 8h-1l-9-15-2-2c-12-5-23-9-31-11-4-1-6 0-7 2-5 9-11 19-16 28-7 12 11 19 19 24 18 11 30 16 51 9h5s2 2 0 2c-2 12-7 23-16 31-3 5-12 16-19 12-9-5-17-10-26-15s-17-11-24-14c-4-2-21-11-54-26v-2c0-4-2-5-4-5zm185-101-7-2h-2v2c0 2 0 4 4 5 1 0 5 0 5-1zm-73 45-4-5v-2c-3 2-5 4-3 6v1c0 2 3 2 5 2s2-2 2-2m-54 49-4-3v-2 2h-2c-1 0-1 3-1 3v2h5zm43 46s-2 0-3 1v4c0 2 1 0 3-2 2 0 2-2 0-3" fill="#ffffff" data-color="1"/>
        <path d="M1667 2218c-2-2-2-4-4-6 0-7-2-17-2-27l-1-2c0-4-2-5-2-9-5-7-12-19-21-35v-2l2-1h2c0-2 0-4-2-6h-2c-2 0-2 0-2 2s0 2-1 2v-2c-13-19-25-40-34-61-1-2-7-5-12-9-5-3-12-6-22-8h-2c-2-4-4-7-2-11 2-7 5-12 12-15 4-2 14-9 33-18h2c0 2 2 2 2 0l2-3h1c18-9 37-19 58-28 5-4 12-5 17-7 2-2 2-2 4-2h17c18 2 28 11 37 24 0 0 2 0 2 2 1 2 5 5 8 11 6 7 6 14 4 22-2 9-5 18-9 28-2 2-2 2 0 4 9 7 18 14 28 19 19 10 40 17 61 24l7 11v3c-23 12-42 23-61 32q-4.5 0-12 3c-5 2-7 2-9 0v-23c0-1-2-1-2-1-19-11-41-16-62-18h-2c-2 7-2 14 2 21 1 4 7 12 15 28 0 2 4 4 6 4l15 5c4 3 4 7 0 10-3 4-7 7-10 9-19 10-39 21-58 31 0-1 0-1-2-3-1 0-1 0-1 2m38-229-10 5v2c1 4 7 7 10 5 4-1 4-7 2-10v-2zm-78 35c-2 2 0 4 1 5 4 2 6 0 7-1 0 0-1-4-3-4-2-2-5-2-5 0m38 56c12-11 24-26 21-42 0-5-4-9-7-10-7-4-14-4-21-2-5 3-14 7-19 12 0 2 0 4 2 7 8 12 15 24 22 35zm51-28 8 4c2 0 4-2 4-4v-2c0-3-2-7-7-8-4-4-9-2-9 3 2 4 2 5 2 7zm-67 9h-1zm44 7c0-2 0-2-2-2h-3v3c0 2 0 2 1 2h2s2 0 2-2zm-72 12-1 2v1c0 2 1 4 1 4h2c2 0 4-2 4-4 0 0-2 0-2-1l-2-2v-2c-2 0-2 0-2 2m27 21v-2c-4 0-6 0-11 2 0 0-2 2-2 3h4zm81 78-3-3h-2v3c0 2 0 2 2 4h2c0-2 1-4 1-4" fill="#ffffff" data-color="1"/>
        <path d="M1257 2178c-2-2-2-4-3-6-2-14-6-31-9-55 0 0 0-2 2-2 15-7 31-11 54-16 10-3 22-5 33-7 17-2 29-3 33-3 16-2 29-7 45-11 9-2 14-3 14-3 7 1 11 8 11 15 3 16 7 28 8 40 0 2-1 6-3 6-5 0-12-2-18-4-7-5-12-8-15-10 0-2 0-2-2-2-9 0-17 4-26 9l-2 1c4 25 5 42 7 53 2 14 4 28 7 40 5 21 9 36 16 50l1 2c4 2 7 5 11 11 2 0 2 1 0 1-2 6-5 7-7 9h-2c-12 0-22 2-28 4-15 1-31 7-47 10l-2 2c-1 0-1-2-1-4 3-12 8-24 10-35 0-3-2-7-2-10-8-35-15-73-24-113 0-2-2-4-5-6 0 0 0-1-2-1-23 3-40 14-52 35zm124-70v-2c-2 0-2 0-2 2zm-12 0c-2 0-4 2-4 3 0 2 0 2 2 4 2 0 2-2 3-4 0-1 0-3-1-3m-16 31-11-2c-1 0-3 2-3 2v4c-2 0 0 1 0 1l7 4c3-2 7-5 7-9m28 58v1z" fill="#ffffff" data-color="1"/>
        <path d="M1070 2315h-3c-7-5-10-7-12-8-2 0-4 0-11-2-15-2-33-4-54-5-8 0-14-2-19-4-17-7-33-21-45-37l-2-1c-10-25-17-51-12-77 5-33 16-64 47-82 21-12 42-16 64-12 20 2 37 10 58 19h5l19-3 2 1c4 20 4 39-3 58h-2c-2 0-4 2-5 2v1c0 4 0 4 1 6v1c0 2-1 2-3 4l-2-2c-10-16-24-30-40-38-19-9-38-7-54 7-19 19-30 42-33 66-2 26 9 42 30 54 22 14 54 0 74-12l9-12c2-2 2-2 4-2h1c6 3 7 7 6 12-2 4-4 14-7 33-2 12-7 23-13 33m34-205s-2 1 0 1v2l1-2h2v-1zm-11 8v4c2 2 2 3 4 3v-3c-2-2-2-4-4-4m-12 16c3 7 10 12 19 16h2s2 0 2-2v-2c-7-5-16-10-23-14zm-155 64h-2zm17 60 2-2c2 0 2 0 2-2l-2-3c-2 2-4 3-4 5h-1c0 2 1 2 1 2zm112 3 2 5h3c0-1 0-1-2-3 0-2-1-2-3-2m-63 4v-2h-5v5l3 2v-2zm-40 5c0-2-2-2-2-2h-3v5h3zm96 14c0-2-2-4-4-4-1 0-3 2-3 4s2 2 3 2c2 0 4 0 4-2" fill="#ffffff" data-color="1"/>
    </g>
</svg>
