<?xml version="1.0" encoding="UTF-8"?>
<svg data-bbox="0 0 2429 2219.25" viewBox="0 0 2429 2219" height="473.28" width="518.018" xmlns="http://www.w3.org/2000/svg" shape-rendering="geometricPrecision" text-rendering="geometricPrecision" image-rendering="optimizeQuality" fill-rule="evenodd" clip-rule="evenodd" data-type="ugc">
    <g>
        <path d="M352 2158C147 2089 0 1896 0 1669c0-166 80-315 203-409v-178c0-127 22-246 64-357l-64-25c80-208 220-384 399-508C777 71 988 0 1215 0c226 0 437 71 612 192 179 124 319 300 399 508l-64 25c41 111 66 230 66 357v178c123 94 201 243 201 409 0 227-148 420-352 489-11 4-21 2-30-5-10-7-15-16-15-28v-912c0-12 5-20 15-27 9-7 19-9 30-5 29 10 55 20 81 36v-135c0-118-21-231-60-333l-65 22c-64-166-176-310-322-410-142-98-312-156-496-156-185 0-355 58-497 156-146 100-259 244-323 410l-64-22c-40 102-61 215-61 333v135c26-14 54-26 82-36 10-4 21-2 31 5 9 7 14 15 14 27v912c0 12-5 21-14 28-10 7-21 9-31 5m1569-1014c-38 0-70 31-70 68v913c0 38 32 70 70 70s69-32 69-70v-913c0-37-31-68-69-68m-1413 0c38 0 69 31 69 68v913c0 38-31 70-69 70s-69-32-69-70v-913c0-37 31-68 69-68" fill="#ffffff"/>
        <path d="M1342 1796c-71 71-184 71-255 0-69-69-69-184 0-253 71-71 184-71 255 0 69 69 69 184 0 253m-113 128c-31 5-62 4-94-5-39-10-78-33-107-62-31-30-52-68-64-110-7-29-11-62-5-93 1 31 7 62 17 90 14 38 36 71 64 100 28 28 63 49 99 63 29 10 61 17 90 17m160-430c-28-27-63-48-99-62-30-11-59-17-90-17 31-6 64-4 93 5 42 10 78 33 109 62 30 30 52 68 63 109 8 30 10 63 5 94-2-31-7-62-17-90-14-38-37-71-64-101m41-40q-52.5-54-123-78c-36-13-73-19-111-20 38-6 78-2 115 8 50 12 95 40 131 77 38 36 64 83 78 133 11 36 14 76 7 114 0-38-7-76-19-110-17-47-43-89-78-124m-107-128c-42-14-85-22-130-22 45-6 90-2 133 10 57 16 111 47 154 90 21 21 40 45 54 71 16 26 28 54 37 83 12 42 15 89 8 132 0-43-7-86-21-128-19-56-50-104-91-146-40-40-91-71-144-90m17-55c-49-18-97-25-147-26 50-6 102 0 150 14 68 19 129 55 177 104 26 24 47 52 64 83 18 29 32 60 42 95 14 49 17 101 12 151 0-50-8-101-24-147-23-65-59-122-106-169-47-48-106-85-168-105m17-54c-55-19-111-28-168-28 57-5 116 0 172 16 74 21 144 62 199 118 28 27 52 59 73 93 19 33 35 70 47 108 15 55 21 114 14 171 0-57-9-114-26-168-25-71-66-137-120-190-54-54-120-96-191-120m-284 905c54 19 111 28 166 28-57 5-116 0-171-16-75-23-144-62-200-118-27-28-52-59-72-94-19-32-35-69-45-107-18-55-23-114-16-172 0 58 9 115 28 169 24 71 64 136 118 190 53 54 119 96 192 120m16-54c48 17 98 24 149 24-52 7-104 2-153-12-66-19-128-55-177-104-24-24-46-52-64-83-17-29-31-61-40-95-15-49-19-101-14-151 0 50 9 100 26 147 21 64 58 122 104 168 47 49 106 85 169 106m17-55c42 13 87 22 130 22-45 5-90 2-133-10-58-16-111-47-153-90-23-21-40-45-56-71-15-26-27-54-34-84-12-41-16-88-11-131 0 43 7 86 23 128 19 55 50 104 90 145 40 40 90 72 144 91m16-51c36 14 72 19 111 21-39 5-77 2-115-9-50-12-95-39-132-76-36-36-64-83-78-133-10-37-12-77-7-115 0 38 7 77 19 111 18 47 44 89 79 123 34 35 78 63 123 78m-295-681c-215 215-215 562 0 777 213 215 562 215 777 0 213-215 213-562 0-777-215-215-564-215-777 0" fill="#ffffff"/>
        <path d="M1153 1730c34 35 88 35 123 0 35-33 35-88 0-123-35-33-89-33-123 0-35 35-35 90 0 123z" stroke="#373435" stroke-width="3.544" fill="#ffffff"/>
    </g>
</svg>
