<?xml version="1.0" encoding="UTF-8"?>
<svg data-bbox="0 0 538.273 434" viewBox="0 0 538 434" height="201.61" width="250.077" xmlns="http://www.w3.org/2000/svg" shape-rendering="geometricPrecision" text-rendering="geometricPrecision" image-rendering="optimizeQuality" fill-rule="evenodd" clip-rule="evenodd" data-type="color">
    <g>
        <path d="M382 346c-6-10-8-18-6-26q6-18 21-30c10-7 22-14 35-21-19-4-47-16-49-38-1-9 3-17 10-22 2-2 5-4 7-6 10-8 22-16 33-23l4-3c1-1 2-1 3-1 2 1 4 2 5 5l1 1c0 1-1 2-1 2-7 7-13 15-12 26 0 6 5 11 9 15 6 4 11 8 17 10 10 4 15 8 21-2 4-6 7-15 4-22-1-4-8-9-12-11l-9-3c-2 0-3-1-3-2s1-2 1-2c16-13 23-20 44-24 26-5 36 26 23 44-10 13-24 22-38 32 8 3 15 7 22 11 12 6 22 15 26 27 1 4-1 12-2 15-3 7-8 12-14 17-24 20-49 34-74 43-27 9-49 5-66-12m102-23c5-7 6-14 4-22-2-7-7-11-13-15-7-5-16-9-25-10-5-1-9 3-13 7-15 18-12 39 10 48 8 3 19 4 27 0 4-2 8-5 10-8m-403-3c0 1 1 3 2 3 39 11 87 16 86-40 0-47-36-77-80-80-12-1-8 1-8 20zm-43 30c3-51 5-100 3-149-11 1-29 0-38 6 0 1-1 1-1 1-1 0-1-1-1-1l-1-1v-1l25-22c6-7 12-11 18-11 57-8 144 2 160 71 11 44-21 77-55 100-26 17-46 22-77 17-11-3-23-5-34-7 0-2 0-3 1-3M434 7l9-7h1l1 1v1c-36 102-73 209-114 323-8 23-11 45-8 68v1c0 2-1 4-3 5l-43 32c-1 1-2 2-4 3-26-94-48-181-79-272-9-25-17-46-26-64-5-11-11-24-26-17h-1c-1 0-2 0-2-1-6-6-5-13 0-19 6-7 20-23 42-47 4-4 10-8 15-3 10 9 15 25 22 43 18 44 34 91 51 140 9 27 20 62 32 105l1 1c1 0 1-1 1-1 15-35 25-70 35-110 8-30 13-50 15-58q4.5-30 3-60 0-3 3-6z" fill="#ffffff" fill-rule="nonzero" data-color="1"/>
    </g>
</svg>
