<?xml version="1.0" encoding="UTF-8"?>
<svg data-bbox="-0.181 0.308 22582.182 2603.989" viewBox="0 0 22582 2605" height="221.659" width="1921.746" xmlns="http://www.w3.org/2000/svg" shape-rendering="geometricPrecision" text-rendering="geometricPrecision" image-rendering="optimizeQuality" fill-rule="evenodd" clip-rule="evenodd" data-type="color">
    <g>
        <path d="M2647 1416c-47 719-432 1113-1152 1182C774 2667 66 2162 5 1427-65 580 583-23 1420 1c386 10 736 154 1051 431 9 8 14 19 14 32s-6 25-17 33l-143 108c-17 13-41 12-56-2-308-279-650-401-1025-367-766 68-1204 865-859 1544 403 792 1780 822 1981-141v-4c2-20-13-38-33-40-1-1-2-1-4-1h-721c-19 0-35-15-35-34v-157c0-19 17-36 36-36h993c25 0 45 21 45 46z" fill="#ffffff" data-color="1"/>
        <path d="M6215 1057c12 0 20-3 23-8 200-331 392-653 578-967 15-25 42-41 72-41h193c14 0 26 12 26 26 0 5-1 10-4 14l-746 1247c-10 16-15 34-16 54v1131c0 21-17 38-38 39h-83c-47 1-74 1-83 0-21 0-38-17-38-39l-8-1130c0-19-5-38-15-55L5322 86c-3-4-4-8-4-13 0-15 12-26 26-26l193-2c30 1 57 16 72 41 188 313 382 633 584 963 3 5 11 8 22 8" fill="#ffffff" data-color="1"/>
        <path d="M8038 1733h-518c-16 2-32 12-39 28l-354 753c-11 24-35 39-61 39h-183c-3 0-5 0-7-1-15-3-24-19-21-34 1-2 2-4 2-6 399-852 778-1664 1137-2437 5-10 11-17 17-22 9-5 18-8 28-8s19 3 28 8c7 5 13 12 18 22 358 773 736 1586 1133 2439 1 2 2 3 2 5 3 16-6 31-21 34-2 1-4 1-6 1h-183c-26 0-50-15-62-38l-352-753c-7-16-23-27-40-29-2-1-174-1-518-1m-417-267c-1 4-2 8-2 12 0 13 11 25 25 25l799 1c14 0 25-12 25-25 0-4-1-7-2-11l-398-857c-4-9-13-15-23-15s-19 6-23 15z" fill="#ffffff" data-color="1"/>
        <path d="M10428 2526V71c0-12 9-21 19-21 355-12 664-8 928 14 433 37 669 367 595 790-102 581-824 512-1253 515-21 0-38 17-38 38v1117c0 16-14 29-30 29h-194c-15 0-27-12-27-27m250-2219 2 800c0 18 14 33 33 33l562-1h-1c251 0 455-184 455-412v-42c0-227-204-412-455-412l-563 1c-18 0-33 14-33 33" fill="#ffffff" data-color="1"/>
        <path d="M12797 45c10 0 20 3 28 8 7 4 13 12 18 22 358 773 736 1587 1133 2439 1 2 1 4 2 6 3 15-6 31-21 34-2 0-4 1-7 1h-183c-26 0-50-15-61-39l-352-753c-7-16-22-27-40-29-2 0-174 0-518-1h-518c-17 2-32 12-40 28l-354 753c-11 24-35 39-61 39h-183c-2 0-5 0-7-1-15-3-24-18-21-34 1-2 2-4 2-6 399-852 778-1665 1138-2437 5-10 11-18 18-22 8-5 18-8 27-8m-414 1417q-3 6-3 12c0 16 13 29 29 29h786c16 0 29-13 29-29q0-6-3-12l-393-844c-5-11-15-17-26-17-12 0-22 6-27 17z" fill="#ffffff" data-color="1"/>
        <path d="M14628 75v2218c0 17 14 31 31 31h894c17 0 31 14 31 32v166c0 18-14 32-31 32h-1154c-18 0-32-14-32-32V75c0-17 14-31 32-31h198c17 0 31 14 31 31" fill="#ffffff" data-color="1"/>
        <path d="M19426 1093h1091c16 0 29 12 29 28v172c0 16-13 28-29 28h-1090c-16 0-28 13-28 29v946c0 16 12 28 28 28h1090c16 0 29 13 29 28v173c0 16-13 28-29 28h-1340c-16 0-29-12-29-28V73c0-16 13-28 29-28h1353c16 0 29 12 29 28v172c0 15-13 28-29 28h-1104c-16 0-29 12-29 28v763c0 16 13 29 29 29" fill="#ffffff" data-color="1"/>
        <path d="M22578 2524c3 3 4 7 4 11 0 10-8 18-18 18h-219c-30 0-57-14-74-37l-850-1129c-17-22-43-35-70-35-48 0-88 39-88 88v1086c0 15-12 27-27 27h-189c-17 0-30-13-30-30V89c0-23 17-41 39-42 392-10 708-3 951 21 741 75 760 1146 16 1273-80 14-169 24-267 31-12 1-22 11-22 23 0 5 2 10 5 14zM21263 305v800c0 19 15 33 33 33h553c256 0 463-180 463-401v-63c0-222-207-401-463-401h-553c-18 0-33 15-33 32" fill="#ffffff" data-color="1"/>
        <path d="M17245 2065c11 0 19-6 25-17 522-1060 845-1720 971-1979 5-12 17-19 30-19 17 0 32 13 35 30l331 2439v4c0 18-14 32-31 32h-165c-20 0-37-15-40-36-113-803-186-1354-217-1655-4-31-9-53-18-65-3-5-9-8-16-8s-14 4-17 11c-200 415-482 988-844 1719-10 20-25 30-44 30-21 0-36-10-46-30-361-732-641-1305-841-1721-3-6-10-11-18-11-6 0-12 3-16 9-8 12-13 33-17 65-32 301-105 852-219 1655-3 20-20 35-41 35h-164c-18 0-32-14-32-32 0-1 0-3 1-4l335-2439c2-17 17-30 34-30 13 0 25 8 31 20 125 259 447 919 968 1980 5 11 13 17 25 17" fill="#ffffff" data-color="1"/>
        <path d="M3259 133h1548c27 0 49 22 49 49v226c0 27-22 49-49 49H3259c-27 0-49-22-49-49V182c0-27 22-49 49-49" fill="#ffffff" data-color="1"/>
        <path d="M4912 1643c-8 318-9 605-2 862v1c0 28-22 50-49 50h-143c-26 0-46-21-46-46v-215c0-15-13-27-28-27-8 0-15 3-20 9-565 664-1627 235-1627-635 1-870 1064-1298 1627-633 5 6 13 10 21 10 15 0 27-13 28-28V776c0-25 21-45 46-45h143c27 0 49 22 49 49v1c-7 257-7 544 1 862M3864 916c-389 47-670 412-621 812 49 401 410 687 807 638s679-413 629-814c-49-401-411-686-807-637z" fill="#ffffff" data-color="1"/>
    </g>
</svg>
