<?xml version="1.0" encoding="UTF-8"?>
<svg data-bbox="-0.232 0 4826.831 5491" viewBox="0 0 4827 5491" height="864.454" width="759.882" xmlns="http://www.w3.org/2000/svg" shape-rendering="geometricPrecision" text-rendering="geometricPrecision" image-rendering="optimizeQuality" fill-rule="evenodd" clip-rule="evenodd" data-type="color">
    <g>
        <path d="M2121 6c-12 16-2 22 12 34 41 46 93 100 151 159 6 6 10 12 14 18h2c2 0 4 0 4-2V22c0-4-4-6-8-8l-6-2c-2 0-4-2-4-6 0-2 2-4 6-4 34-2 64-2 86 0h4c2 2 2 6 0 8 0 2 0 2-2 2-4 2-6 4-8 8v2c-2 116-2 209-2 281 0 8 2 12 10 16 0 0 2 0 2 2 2 2 2 6-2 8l-2 2c-32-2-64-2-94 0-2 0-6-4-6-6s2-4 2-4l6-4q3-6 0-12l-191-201h-2s-2 0-2 2v195c0 10 2 16 10 16 2 0 4 2 4 6v2c0 2-4 4-6 4h-82c-4 0-4-2-6-4 0-2 2-6 8-10 4-2 6-6 6-8V20s0-2-2-2c-2-4-4-6-6-8-2 0-4-2-4-4q0-6 6-6h100c2 0 2 2 2 4zm-459 237c-2 2-4 4-4 6l16 76c0 2 2 4 2 2 12-2 80-16 199-38 12-2 18-8 20-18 0-2 0-2 2-4s6-2 8 0 2 2 2 4l14 76v2c0 4-4 6-6 4h-2c-8-10-14-10-24-8-67 14-161 32-283 56h-2c-2 0-4-2-4-4 0 0 0-2 2-2l6-14c0-2 2-2 2-4v-2c-22-106-38-196-54-271 0-8-4-12-12-16-4-2-4-6-2-8 0-2 2-2 4-2 156-32 248-48 276-54 10 0 15-6 19-16 2-2 2-4 4-4 4 0 6 0 6 4 4 20 10 46 14 74 0 2-2 6-4 6s-4-2-4-2c-12-14-23-8-41-6q-126 24-180 36c-2 0-2 0-2 2l12 69c0 2 2 2 4 2 12-2 54-10 124-24 12-2 16-7 14-17 0-4 2-6 6-8q6 0 6 6c10 47 16 75 16 83v6c0 2-2 4-4 4s-4-2-6-2l-6-10c-4-6-10-8-16-8zm1144-78c-4 24 26 40 44 46 30 12 72 26 108 44 56 28 76 74 44 134q-6 12-24 24c-56 34-130 14-187-4-30-10-58-26-86-50-6-6-14-8-22-8-2 0-4-2-4-4v-2l48-60h2c2-2 6 0 6 2v2c0 8 0 10 6 18 6 10 22 24 46 38 31 20 65 30 101 30 22 2 52-4 54-30 2-14-18-28-28-32-36-20-106-34-149-66-28-20-38-48-32-82 10-59 63-81 119-79 70 4 130 36 186 77v2l22 4s2 0 2 2v2l-60 62-2 2q-6 0-6-6c2-12-4-24-12-32-38-36-82-55-130-57-18 0-40 4-46 23M1459 269c20 54 22 116-18 162-20 22-40 38-60 46-30 11-96 37-203 79h-2c-2 0-4-2-4-4s0-4 2-6c6-4 8-10 6-16-4-10-22-51-52-129-32-78-48-122-52-132-2-6-8-8-14-8-4 0-4 0-6-2s-2-4 0-8h2c106-42 173-70 201-80 22-8 48-10 76-8 62 6 102 54 124 106m-303 6 77 198s2 2 4 2l108-42c46-18 70-70 54-116l-16-40c-18-46-70-68-118-50l-107 44s-2 0-2 2zm2302 120c-2 2-4 4-6 4s-6-2-6-6c2-12-6-16-13-22-12-4-38-18-84-40-2 0-4 0-4 2h-2c-46 98-78 167-98 207-6 12-10 18-2 28 2 0 2 2 2 4q0 6-6 6h-2l-78-38-2-2c-2-2-2-6 2-8h2l10-4s2 0 2-2l106-221v-2c0-2 0-4-2-4q-69-33-90-42c-8-4-14-4-18 2l-4 4c-4 0-6-4-6-6v-4l32-70c2-2 4-2 6-2q6 0 6 6c0 10 4 14 14 18 102 50 186 90 249 120 4 2 8 2 10-2 4-2 6-4 10-4s6 2 6 4v2zm1366-128c-3-1-6 1-8 5s-1 9 1 10c3 1 7-1 9-5 1-4 1-8-2-10M1084 520c0 2 0 2 2 2l42 68v2c0 4-2 6-4 6h-4c-12-6-18 0-30 6-104 64-184 116-243 152l-2 2c-2 0-4-2-4-6s4-10 8-12c2-2 2-4 2-6v-4L701 486c-2-2-4-4-8-4h-2l-10 4c-2 0-4-2-6-2v-4c0-1 0-3 2-5 44-28 72-44 84-52h6l2 2c2 0 2 4 0 6-6 6-8 12-6 16v4l127 207h2c108-66 164-102 168-104 14-8 16-14 18-28v-2c0-2 2-4 4-4s2 0 2 2zm1318-81c538 53 1040 311 1399 715 289 329 467 708 531 1139 46 311 22 642-70 949-170 564-566 1043-1091 1314-373 191-793 271-1210 227-415-42-811-203-1138-464-459-371-754-920-806-1508-28-319 14-646 122-943 149-409 399-746 747-1007 433-325 975-478 1516-422m-423 4101c383 40 770-34 1113-210 480-249 847-689 1002-1208 84-283 106-586 64-873-60-397-221-744-488-1045-329-373-792-610-1286-660-497-50-997 90-1394 389-321 241-550 550-688 927-99 271-137 574-111 867 47 539 319 1045 741 1384 299 241 664 391 1047 429M3574 770l6 2h2c2 0 6-2 6-6l8-64-122-86h-6l-51 32c-2 2-4 4-4 8 0 2 2 4 4 6l2 2v2q0 6-6 6h-4l-66-46c-2-2-2-4-2-4 0-4 2-6 4-6 14-2 28-8 44-16 28-18 107-64 239-141 6-4 6-10 4-14-2-2-2-6-2-12 0-2 2-4 4-4h4l80 55c2 2 2 2 2 4 0 4-2 6-4 6h-10c-6 2-12 6-12 12-6 52-18 152-38 299 0 8 2 14 6 20 2 4 2 10-2 12 0 2-4 4-6 2q-45-33-84-57c-2-2-4-4-4-6 0-4 4-6 6-6zm-56-184s-2 0-2 2c0 0 2 0 2 2l84 58c2 0 2 0 2-2l20-116v-2s0-2-2-2zm553 289s-2 2-4 2-6-4-6-6 0-2 2-2c2-12-2-18-10-26s-30-28-66-61c-2 0-2-2-4-2l-2 2c-74 79-126 135-156 167-10 10-18 16-10 26v4c0 2-2 6-6 6 0 0-2-2-4-2l-61-58c-2-2-2-4-2-4 0-4 2-8 6-8l9 2s2-2 4-2l166-181c2 0 2-2 2-2 0-2 0-2-2-2-36-36-60-58-72-68-6-6-12-8-20-2h-2q-6 0-6-6c0-2 0-2 2-4l52-56c0-2 2-2 2-2 4-2 8 0 8 4v4c-4 8 0 14 6 22 84 76 152 140 203 187 2 2 4 4 6 4s4-2 4-2c4-2 8-2 12-2 2 0 4 2 4 6 0 0 0 2-2 2zM667 678l2 2c62 70 44 185-40 261-81 76-201 80-263 12-62-70-44-185 40-261s201-80 263-12zm-54 48c-40-44-115-38-169 12s-64 125-22 169c40 44 118 40 171-10 54-50 62-125 22-169zm519 923-22-28c-2-4-4-8-4-12v-128c0-2-2-4-4-4h-72c-2 0-4 0-4 4l-2 40c0 2-2 4-4 6l-42 10c-2 0-4 2-4 2l-4 259c0 4 0 6-2 8-24 56-52 114-80 174-16 32-23 50-23 50-52 103-114 211-186 327-102 161-217 309-347 448h-4c-2 0-2 0-4-2-48-377 8-733 168-1072 59-130 137-254 233-371 349-435 881-694 1437-700 357-2 686 88 989 271 34 22 62 42 106 72 395 273 670 702 762 1172 40 208 46 417 18 626-30 208-92 407-190 600-2 2-4 4-8 4-273-63-538-153-797-273-186-86-355-175-509-269-480-295-905-650-1276-1067-2-2-2-6-2-8l-8-239c0-2-2-2-2-4l-50-24h-2c-1 0-1 0-3 2l-48 36c-4 2-6 8-6 12v78c0 2-2 2-2 0zm2974-542-59 45c-2 2-2 4-2 4q12 15 123 162c6 8 14 12 24 8h4c4 2 4 6 4 8s-2 2-2 4l-62 46c0 2-2 2-2 2q-6 0-6-6v-2c4-10 2-14-6-24-40-54-97-130-173-228v-2c0-2 2-3 4-3h14c2 0 4-2 6-2 86-66 157-122 219-168 6-4 8-10 8-18v-2c0-2 2-4 6-4h2l4 4c94 124 150 197 168 221 4 6 12 10 23 10 2 0 4 0 4 2 2 2 2 6 0 6v2c-15 12-35 28-57 44-2 0-2 0-2 2q-6 0-6-6v-2c6-16-4-26-14-40-52-65-90-113-112-143 0-2-2-2-4-2l-56 44-2 2 2 2c8 10 32 42 76 99 8 8 16 10 24 4 2-2 6-2 8 2 0 0 2 2 2 4s-2 2-4 4c-38 30-60 46-68 52-2 0-4 2-6 2s-4-2-4-6v-2l6-10c2-2 2-4 2-8 0-2-2-6-4-8l-76-99-2-2c-2 0-2 0-4 2M163 971h2c2 0 2 2 4 4 16 28 28 50 38 68 2 0 2 2 2 6h-2c-2 4-6 6-8 4h-2c-32-24-98 58-114 83-16 26-22 56-18 86 6 34 36 68 68 80 99 44 163-58 191-142 2-2 0-4 0-6l-38-28h-2l-2 2c-12 18-28 38-44 60-5 8-5 16 0 22 2 2 4 6 4 8l-2 2c0 2-4 4-6 4l-1-2c-28-20-48-34-58-42-2-2-2-2-2-4q0-6 6-6h2c14 6 20-6 28-18 33-43 59-79 81-109 2-2 6-4 10-2l2 2v6c-6 8-4 16 4 22 24 18 42 30 54 38 2 2 4 4 8 4 2 0 4-2 4-2 8-2 12 0 14 2v4c-2 27-6 49-10 63-26 76-100 180-183 196-54 10-102-6-146-48-36-36-52-78-46-128 8-85 78-153 144-203 8-6 12-14 14-24 0-2 0-4 2-4s2 2 2 2m945 682c0-2 0-2 2-2h2l24 32c2 0 2 2 2 4 14 630 30 1294 52 1916q0 6-6 6l-32 6h-2c-2 0-4-4-4-6q-21-553.5-30-1179c-4-331-8-588-8-777m692 1894 2 2s-2 0-2 2l-122 10c-2 0-4 0-6-2l-401-1314c-2-4-4-10-4-14l-12-413c0-2 2-4 4-4s4 2 4 4zM962 1894v-2c2 0 2 2 2 2L655 3625c0 2-2 4-4 4l-2-2-70-108c-2-2-2-6-2-10l238-1312v-2zm993 1647-112 6c-2 0-2-2-2-2l-512-1651v-2s0-2 2-2l2 2 160 168 464 1477v2zm158-12-114 6h-2l-437-1404 2-2h2l166 160h2l383 1238c0 2 0 2-2 2M962 2147v14c-6 283-10 493-10 626 0 12-2 22-4 30-6 16-8 24-8 24s-20 118-62 349c-6 24-7 50-11 78-26 145-50 275-70 385 0 2-2 4-6 4l-102 14v2c-2 0-2-2-2-4l271-1522c0-2 2-2 2-2 2 0 2 0 2 2m-209 166L550 3461c0 2 0 2-2 2h-2l-66-127v-2l147-814 124-209c2 0 2 0 2 2m1513 1208-108 4h-3l-363-1174v-2s0-2 2-2v2l153 133v2l321 1033v2zm-993-1105c0-2 2-2 2-2 2 0 2 0 2 2l357 1145v2s-2 2-4 2l-100 10c-2 0-4-2-6-4l-233-754c0-4-2-8-2-12zm1163 1097-124 4c-2 0-2-2-4-2l-307-979c0-2 2-2 4-2l169 140v2l264 833v2zM452 3270l-56-150v-2l86-371 87-139h2c2 0 2 0 2 2l-117 660zm2141 237-114 2h-2l-243-782v-2l2-1s2 0 2 1l146 112h2l209 666c0 2-2 2-2 4M350 2937l60-86s0-2 2-2 2 2 2 4l-42 164-2 2c-2 0-4-2-4-2l-18-78c0-2 2-2 2-2m2405 564-118 2h-2l-191-618c0-2 0-2 2-2l151 106s2 0 2 2l158 506v2zm-1424 92s-2 0-2-2l-32-608s0-2 2-2 2 2 2 4v2q75 238.5 186 588c0 2-2 4-4 4zm1591-96-124 4-1-2-148-470c0-2 2-2 2-2h2l157 101 114 365v2s0 2-2 2M946 3043v3c-2 258-4 453-4 587 0 2-2 4-4 4l-97 14c-2 0-4-2-4-4l107-604zm2136 452h-118l-100-331c0-2 0-2 2-2l140 80c0 2 2 2 2 2l76 249c0 2 0 2-2 2m161 0h-116c-2 0-2 0-2-2l-67-215c0-2 2-4 2-4h2l137 70 2 2 44 147h2c0 2-2 2-4 2m315 2c2 0 2 0 2 2h-2l-267-4c-2 0-4 0-4-2l-38-122c0-2 0-2 2-2 102 50 205 94 307 128m-1836 317c0-2 0-2 2-2 34-2 78-4 129-6 555-18 1125-18 1709-4 2 2 2 2 2 4v4l-32 32q-6 6-12 6c-295-22-628-34-999-38-299-2-564-2-799 4m1716 116 2 2c0 2-2 2-2 2-109 101-231 187-362 261-511 285-1161 305-1689 52-2 0-4-2-4-6l-34-355q0-6 6-6c500-10 995-12 1461 8 220 8 419 20 622 42m-2278-46 37-2s2 0 2 2l14 265c0 2 0 4-2 4 0 0-2 0-2-2l-37-24s-2 0-2-2l-12-239c0-2 0-2 2-2m-280 8 60-2s2 0 2 2v60s0 2-2 2v-2l-62-58c0-2 0-2 2-2m3252 22h2c2 0 4 0 6 2l58 131v2c0 2 0 2-2 4-8 4-12 6-22 2q-15-9-42 0c-71 26-137 84-167 154-10 24-14 62 10 80s52-6 70-22c28-30 63-64 103-104 32-30 66-54 104-68 32-12 66-10 100 6 107 46 119 158 71 253-43 90-109 158-195 204l-48 24c-8 4-10 8-12 16-2 10-8 14-16 16-2 0-4-2-6-4l-64-128c-2-2-2-2-2-4l2-2c8-6 14-8 20-4 10 4 18 8 26 8 30-2 64-22 90-38 46-34 88-72 110-123 6-18 10-32 10-46 0-40-30-72-70-44-10 8-20 16-28 26-2 0-40 38-116 111-57 56-143 78-209 28-58-42-80-99-66-173 12-56 46-108 86-150 48-56 108-91 175-127 4-2 8-8 10-20 0-2 2-4 2-6 4-2 8-4 10-4M350 4825c4-4 6-8 10-10 2 0 6 0 8 2 16 8 28 4 34-10 74-201 114-307 120-321 0-2-2-2-2-2-94 48-196 98-307 154-14 8-12 23-4 33q6 6 0 12l-4 6c-4 2-8 2-10 0L65 4574q-3-3 0-6c4-6 8-10 12-10 2-2 4-2 4 0 22 12 30 0 38-20 2-2 10-24 26-66 32-86 74-195 123-329 10-28 30-66 12-90-2-2-2-6-2-8 2-4 4-8 10-12h4l144 128c2 2 2 4 2 6-6 4-8 8-10 10-4 2-6 2-10 0-14-6-24-4-28 6-6 12-14 28-22 50-30 76-60 155-94 239 0 2 0 2 2 2 82-40 160-78 236-114 22-12 36-18 41-22 14-10 16-19 4-33-2-2-2-6 0-8l8-10h6l150 131v4c-16 34-38-14-52 24-32 82-68 178-108 283v2h2c86-44 172-87 262-135 6-2 12-6 16-12 6-4 6-12 2-16l-8-14v-6l8-8c2-2 2-2 4-2 0 0 2 0 2 2l141 123c2 0 2 2 0 4q-6 9-12 12h-4c-16-8-32-8-52 2-121 64-247 128-374 192-16 8-32 16-48 26-16 8-12 18-4 32 4 6 2 14-6 20h-6l-132-118c-2-2-2-2-2-4zm3511-193v4c86 25 150 45 188 59 24 6 49 14 69 0 2-2 6-2 8 0l8 10v4s0 2-2 2l-157 122h-4c-4-4-6-10-8-14v-6c4-4 6-6 6-8s2-2 2-4c0-4-4-8-8-8l-204-70c-1-2-5 0-7 0l-106 82v4c6 8 42 54 106 138 6 8 13 10 23 8 14-2 16 0 22 10 0 2 0 4-2 5l-135 104h-4c-8-8-12-14-4-24 6-10 4-18-4-28-158-205-251-327-279-365-6-8-14-10-20-8l-12 2c-2 2-6 0-8-2l-6-7v-2c0-2 0-4 2-4 68-54 161-126 281-218 28-22 66-48 100-58 57-18 109-4 155 42 68 70 68 158 0 230m-357-6 78 99h4l172-131c31-24 41-64 21-90l-10-14v2c-17-26-59-28-91-4l-172 132c-2 2-2 2-2 4zM615 5046c2-6 4-10 8-14 2-2 4-2 6-2 14 4 28 2 40-8 46-36 102-81 166-131 87-70 157-126 209-166 20-16 32-26 12-50-2-2-2-4-2-6l6-10c0-2 4-4 6-4h4l171 88c2 0 2 2 2 2v2c-6 10-8 14-20 14-16 0-22 8-22 26v485c0 14 2 23 4 33 4 8 12 16 18 20v6l-6 12s-2 2-4 2h-2l-175-89c-2 0-2-2-4-2-2-6-2-12 4-14 0-2 2-2 4-2l22-2c2 0 4-2 4-4q6-6 6-24c0-40 2-66 2-80 0-4-4-8-8-10l-201-104h-4s-2 0-2 2c-18 12-40 30-68 54-6 4-10 8-14 16v6c4 8 8 14 14 18 2 2 4 4 2 6l-6 12c-2 2-2 4-4 4s-2-2-2-2l-164-82s-2 0-2-2m317-91v4l142 69h2v-2l6-187c0-2 0-2-2-2zm2516-68c20 44 26 87 24 129-12 128-89 208-203 256-114 47-227 47-325-32q-51-42-78-108c-18-44-26-88-22-130 10-127 90-207 202-255 113-48 227-48 325 32 34 28 60 64 77 108m-460 197c98 223 439 74 339-149-98-224-437-76-339 149m-1244 142s-2 2-2 4c36 81 62 141 78 179 8 24 19 48 43 54 2 0 4 4 4 6l-2 12c0 2-2 4-6 4l-193-42c-2 0-2-2-2-2v-2c0-4 2-10 4-14l4-4h12c4-2 6-6 6-10 0 0 0-2-2-2l-80-201c0-2-2-4-4-4l-131-28s-2 0-2 2c-2 10-14 66-36 167-2 12 0 20 8 26 12 8 10 12 8 22-2 2-4 4-6 4l-168-36c-2-2-2-2-2-4 2-10 2-18 14-20 14 0 18-8 20-20 54-253 86-402 96-450 2-6 0-14-6-18l-10-8c-2-2-4-4-4-8l2-8c2-4 4-4 6-4 86 18 201 42 347 74 36 6 80 18 109 38 52 32 74 79 70 143-8 98-78 156-175 150m-226-275-25 123v2s0 2 2 2l213 46c38 8 74-12 80-44l4-16c6-32-20-64-58-70l-212-45h-2zm1255 187c29 140 45 215 47 225 6 26 34 12 34 36 0 2-2 4-4 6q-42 9-81 18l-84 18c-2 0-4-2-6-4-10-22 22-20 16-46-2-12-18-86-48-225-30-140-48-213-50-225-4-26-32-12-34-36 0-2 2-4 4-4 30-6 58-14 84-18 26-6 54-12 82-18 4-2 6 0 6 2 10 22-22 22-16 48 4 10 20 83 50 223m-393 335c0-8 4-14 14-16 4-2 6-6 6-10 0 0 0-2-2-4l-128-177c0-2-2-2-4-2l-131 4c-2 0-4 2-4 4l4 177 2 2c4 18 33 12 21 36-2 2-3 4-5 4h-166c-2 0-2-2-2-2v-2c0-6 2-12 10-14 10-6 14-14 14-28-10-241-14-395-18-461 0-6-2-10-8-14l-14-7c-2-2-2-2-2-4-2-6 0-12 4-14 0 0 2-2 4-2 142-6 251-10 331-12 90-4 187 0 223 95 16 42 18 84 4 126-18 56-69 86-127 100 0 0-2 2 0 2v2c73 97 113 149 115 153 18 22 32 40 58 44 4 2 6 4 4 8v8c-2 4-4 6-10 6h-189c-2 0-2 0-4-2m-259-437 4 130 2 2 217-6h-2c40 0 72-28 72-60v-18c-2-32-34-58-74-56l-215 6c-2 0-4 0-4 2" fill="#ffffff" data-color="1"/>
    </g>
</svg>
