<?xml version="1.0" encoding="UTF-8"?>
<svg data-bbox="0.172 0 2099.828 2268" viewBox="0 0 2100 2268" height="516.684" width="478.454" xmlns="http://www.w3.org/2000/svg" shape-rendering="geometricPrecision" text-rendering="geometricPrecision" image-rendering="optimizeQuality" fill-rule="evenodd" clip-rule="evenodd" data-type="color">
    <g>
        <path d="M1124 862h-1c-1 0-2 0-2 2v1234c0 5-3 7-6 8-468 35-884-265-1011-709-31-108-39-216-33-327 12-260 140-506 336-675 114-98 244-167 390-205h1c2 0 4 1 4 3v44c0 3-2 6-5 6-7 1-22 5-39 11-350 113-611 433-637 804-17 237 46 448 186 633 177 238 459 373 756 367 2 0 3-1 3-2V781c0-2 2-3 4-3h54c4 0 8 1 10 5l267 407c1 1 1 1 4 1 0 0 1 0 1-1l264-409q4.5-3 9-3h58c1 0 3 1 3 2v708c0 1 0 1-2 1h-50c-1 0-1 0-1-1V862c0-2-1-2-2-2h-1c-112 171-200 307-265 404-2 5-6 8-10 10h-4c-5 0-10-1-12-5zm-270 625v-316c0-2-3-6-5-6H403c-1 0-3 2-3 4v318c0 2 0 2-1 2h-51c-1 0-1 0-1-2V779c0-1 0-1 1-1h51c1 0 1 0 1 1v335c0 1 2 3 5 3h445c3 0 5-2 5-3V179c0-1 0-3 3-3 210-40 411-13 603 76 277 131 479 391 539 694 5 23 10 55 15 97 3 39 6 72 4 99-2 81-11 151-25 209-58 238-185 429-378 570-130 96-278 156-443 179-1 0-1 0-1-1v-48c0-2 1-2 2-2 163-24 309-86 438-188q183-142.5 276-351c193-435 25-942-384-1178-178-103-388-145-592-113-3 0-4 2-4 4v1265c0 1-1 1-1 1h-51c-1 0-2 0-2-2" fill="#ffffff" data-color="1"/>
        <path fill="#ffffff" fill-rule="nonzero" d="m199 378 35 30-42 49-35-29-8 7 78 67 7-7-35-31 41-50 37 32 7-9-77-66z" data-color="1"/>
        <path d="m459 285 8-7-100-52-8 6 25 111 10-7-7-29 44-36zm-75 12-16-59 55 29z" fill="#ffffff" fill-rule="nonzero" data-color="1"/>
        <path fill="#ffffff" fill-rule="nonzero" d="m587 211 11-4-50-92-8 5z" data-color="1"/>
        <path d="m819 127-33-27c12-9 17-21 14-37-6-22-26-30-50-23l-39 11 29 98 11-3-9-31 26-8c4-1 6-2 9-2l31 25zm-53-28-27 6-13-49 25-8c21-5 33 0 38 17 5 16-3 28-23 34" fill="#ffffff" fill-rule="nonzero" data-color="1"/>
        <path fill="#ffffff" fill-rule="nonzero" d="m1104 2-47 77-42-79h-10l-3 103h11l2-82 38 71h6l42-69-2 82 11 1 2-104z" data-color="1"/>
        <path d="m1337 144 11 3-23-112-11-2-69 90 12 3 17-25 57 14zm-56-51 37-48 11 60z" fill="#ffffff" fill-rule="nonzero" data-color="1"/>
        <path fill="#ffffff" fill-rule="nonzero" d="m1582 147 4-8-63-34-47 92 10 6 20-40 47 25 5-8-48-25 19-35z" data-color="1"/>
        <path fill="#ffffff" fill-rule="nonzero" d="m1661 308 8 6 64-81-8-6z" data-color="1"/>
        <path d="m1837 471 7 8 43-105-8-7-107 36 8 9 28-10 40 41zm-19-72 56-20-23 56z" fill="#ffffff" fill-rule="nonzero" data-color="1"/>
        <path d="M5 1587c6 14 17 25 30 29l4-10c-12-3-20-12-26-21-9-23 0-49 22-58 22-10 47-2 57 21 5 11 6 22 1 34l10 3c5-13 5-27-3-40-12-29-42-40-69-28s-38 42-26 70m134 228 14-41c14 10 27 10 40 0 18-12 20-32 5-54l-23-32-83 61 6 8 26-19 16 23c3 2 4 5 5 7l-13 38zm8-59-15-23 42-30 16 22c12 17 11 31-3 41-13 9-28 6-40-10m99 170 27-26 39 36 7-6-40-38 25-26 44 42 7-7-52-50-71 75 53 51 6-7zm218 183 9 6 16-113-8-6-97 62 11 6 24-16 48 32zm-36-67 50-32-9 59zm182 140 10 4 35-87 35 13 2-8-77-32-4 9 34 13zm177 56 11 4 22-102-10-2zm243-71-46 87-32-93h-12l37 105 11 2 54-100zm149 85-5-38 53-6-1-10-53 6-4-36 58-7v-10l-70 10 12 102 73-9-2-10zm268-56c24-10 31-27 25-40-13-35-66 3-77-23-2-10 1-21 19-28 9-2 20-4 29-1l1-10c-10-2-22-1-33 3-24 10-32 26-26 41 14 35 68-5 78 21 3 10-2 21-20 28-12 5-26 5-36 1l-1 9c11 5 26 5 41-1m231-120 8-6-95-62-9 6 16 113 10-6-5-29 49-32zm-77 5-8-59 51 34zm194-96 49-47-6-7-42 40-65-68-8 9zm168-186c18-25 13-56-11-74-26-17-57-11-75 14s-13 57 11 75c25 17 56 11 75-15m-9-6c-14 21-40 26-60 11-20-14-24-40-9-59 15-20 40-25 59-11 21 15 25 40 10 59m47-275 76 35-104 25-3 9 94 42 5-9-76-35 104-26 3-8-94-43z" fill="#ffffff" fill-rule="nonzero" data-color="1"/>
    </g>
</svg>
