<?xml version="1.0" encoding="UTF-8"?>
<svg data-bbox="0 -0.019 13394 2193.019" viewBox="0 0 13394 2193" height="226.848" width="1385.269" xmlns="http://www.w3.org/2000/svg" shape-rendering="geometricPrecision" text-rendering="geometricPrecision" image-rendering="optimizeQuality" fill-rule="evenodd" clip-rule="evenodd" data-type="color">
    <g>
        <path d="M8921 354c-90-86-316-150-416-81-72 50-62 142 16 181 64 32 145 57 244 76 34 6 96 34 185 83 73 39 118 98 136 175 46 200-12 344-172 431-247 135-576 44-778-142-9-7-10-21-3-31l138-172h1c7-9 21-9 29-2h1c118 109 278 194 442 148 35-10 62-40 69-78 11-71-19-118-91-140-232-71-368-87-479-207-101-108-91-329-5-438 193-241 621-174 832-4 5 4 9 11 9 19 0 5-3 10-6 15l-133 166c-5 5-13 6-19 1v-1z" fill="#ffffff" data-color="1"/>
        <path d="M154 28c0-2 1-4 3-4h3c146-3 269 121 271 274l1 10-1-4c3 154-116 282-265 285h-7c-2 0-4-2-4-4z" fill="#cccccc" data-color="2"/>
        <path d="m832 23-2 566c-145 1-267-109-282-255-9-105 37-202 119-260 45-32 104-52 165-51" fill="#ffffff" data-color="1"/>
        <path d="m830 589 2-566c110 1 210 66 256 166 45 95 31 212-38 296-61 69-141 105-224 104z" fill="#cccccc" data-color="2"/>
        <path d="M1510 585c0 3-3 5-5 5h-6c-152-3-273-130-271-285v-3c3-158 129-281 280-278h-1c3 0 4 1 4 3z" fill="#ffffff" data-color="1"/>
        <path d="M2064 27h244c9 0 17 8 17 18v1206c0 10-8 17-17 17h-244c-10 0-17-7-17-17V44c0-9 7-17 17-17" fill="#ffffff" data-color="1"/>
        <path d="M2984 1268h-258c-6 0-9-4-9-9V35c0-5 3-9 9-9h245c3 0 5 1 7 4l593 779c3 2 5 3 8 3 5 0 9-3 9-9V36c0-6 4-9 9-9h256c4 0 9 3 9 9v1223c0 5-5 9-9 9h-264c-3 0-5-2-6-4l-573-751c-2-2-4-4-7-4-6 0-10 4-10 9v741c0 5-3 9-9 9" fill="#ffffff" data-color="1"/>
        <path d="M4254 36c0-5 4-9 9-9l506 1c335 0 607 254 607 569v101-1c0 314-272 569-608 569l-508-1c-4 0-9-4-9-9zm276 248v726c0 7 5 11 11 11h207c193 0 350-150 350-336v-75c0-186-157-337-350-337h-207c-6 0-11 5-11 11" fill="#ffffff" data-color="1"/>
        <path d="M5684 27h244c9 0 17 7 17 16v1208c0 9-8 17-17 17h-244c-9 0-16-8-16-17V43c0-9 7-16 16-16" fill="#ffffff" data-color="1"/>
        <path d="M6759 805c4 0 6-2 7-4 103-259 205-514 306-767 3-4 6-7 12-7h286c3 0 4 1 4 3 0 1 0 1-1 2l-491 1222c-3 6-8 11-14 11-7 2-43 3-109 3s-102-1-109-3c-6 0-11-5-13-11L6146 32c-1-1-1-2-1-2 0-2 2-3 4-3h286q9 0 12 6c101 254 203 509 306 768 1 2 3 4 6 4" fill="#ffffff" data-color="1"/>
        <path d="M7589 27h250c8 0 13 5 13 12v1216c0 7-5 13-13 13h-250c-8 0-14-6-14-13V39c0-7 6-12 14-12" fill="#ffffff" data-color="1"/>
        <path d="M9403 26h248c9 0 15 7 15 14v1213c0 9-6 15-15 15h-248c-7 0-14-6-14-15V40c0-7 7-14 14-14" fill="#ffffff" data-color="1"/>
        <path d="M10811 615c-3 1-4 4-4 6 0 4 2 6 5 7 235 66 307 298 174 493-78 115-233 143-364 147h-547c-6 0-12-6-12-12V42c0-9 7-16 16-16 167 1 314 1 441-1 145-1 316 27 399 144 110 156 80 374-108 446m-471-341v243c0 5 5 9 10 9h197c84 0 153-55 153-124v-13c0-69-69-124-153-124h-197c-5 0-10 4-10 9m1 483-1 262c0 4 4 9 9 9l245 1c95 0 171-56 171-124v-31c0-69-76-125-171-125l-243-2h-1c-5 0-9 5-9 10" fill="#ffffff" data-color="1"/>
        <path d="M11367 1252V42c0-9 8-15 17-15h247c9 0 15 6 15 15v960c0 9 8 17 17 17h495c10 0 17 7 17 16v217c0 9-7 16-17 16h-774c-9 0-17-7-17-16" fill="#ffffff" data-color="1"/>
        <path d="M12739 779v231c0 7 6 12 12 12h611c7 0 12 5 12 11v223c0 6-5 12-12 12h-884c-7 0-12-6-12-12V38c0-7 5-12 12-12h868c6 0 11 5 11 12v228c0 6-5 11-11 11h-595c-6 0-12 5-12 12v226c0 7 6 12 12 12h531c6 0 11 6 11 12v217c0 6-5 11-11 11h-531c-6 0-12 5-12 12" fill="#ffffff" data-color="1"/>
        <path d="M173 697c107-6 185 27 237 98 32 45 48 119 46 225-3 141-4 220-4 237v1c0 9-7 16-16 16h-1l-264-1h1c-11 0-20-8-20-19l2-538c0-10 9-19 19-19" fill="#cccccc" data-color="2"/>
        <path d="M831 699v574l-286 1c-8 0-14-7-14-15 3-82 3-165-1-247-3-93 11-165 42-214 50-79 137-113 259-99" fill="#ffffff" data-color="1"/>
        <path d="M831 1273V699c185-22 305 82 300 265-3 99-3 197-2 295h1c0 9-8 16-16 16z" fill="#cccccc" data-color="2"/>
        <path d="M1510 714v542c0 10-9 18-19 18h-266c-9 0-16-7-16-16 0-18-2-98-3-239-2-106 13-182 46-226 52-72 132-105 239-99 10 1 19 9 19 20" fill="#ffffff" data-color="1"/>
        <path d="M1572 2031c0 90-73 162-163 162H163c-90 0-163-72-163-162v-363c0-90 73-163 163-163h1246c90 0 163 73 163 163zm-652-204c6 102 79 158 180 126 28-9 47-27 59-56v-5q0-10.5-9-15l-21-8c-1-1-3-1-4-1-6 0-9 2-12 7-10 22-27 35-53 39-28 5-58-10-71-37-7-13-10-31-11-53-2-23 0-41 4-53 11-28 38-47 68-46 25 2 44 12 56 34 3 3 7 6 11 6 2 0 5-1 6-2l21-11c5-3 8-8 8-13 0-2-1-5-2-7-15-27-36-44-65-50-104-21-170 42-165 145m379 131h11c10 0 18-8 18-18v-81c0-7 2-14 5-21l82-140c1-1 1-2 2-4 1-7-3-13-10-15-2-1-3-1-4-1h-17c-13 0-25 7-31 19l-48 83c-1 1-2 3-5 3 0 0-1 1-2 1-2 0-4-1-4-1-2 0-3-2-4-3l-49-83c-6-12-18-19-31-18h-20c-7 2-11 9-10 16 1 1 1 2 2 3l81 141c4 6 6 13 6 20v81c0 10 8 18 19 18zm-1036 2h10c11 0 19-8 19-18l-2-199c0-7 7-14 16-14l49-1c10 0 17-7 17-16v-12c0-11-9-19-20-19H172c-10 0-19 9-19 20v11c0 10 7 18 17 18l49-1h1c8 0 14 7 14 15l1 198c0 10 9 18 20 18zm359-10c-10-55-25-94-46-117-3-2-3-4-3-7 0-5 2-8 6-10 28-11 39-38 33-79-5-34-34-59-68-58h-89c-22 0-40 18-40 40v222c0 10 9 17 18 17h22c10 0 18-8 18-19v-65c0-7 3-13 7-19 9-14 30-18 44-7q9 6 12 15l30 85c1 6 7 9 13 9h38c3 0 5-3 5-6zm149-55c12 0 23 0 35 1 11 1 20 8 24 18l10 32c3 7 9 12 17 12h32v-1c6 0 10-5 9-10v-2l-86-247c-3-9-10-15-19-17-7 0-15-1-22-1-8 0-15 1-22 1-9 2-17 8-20 17l-85 247c-1 0-1 1-1 2-1 5 3 10 8 10 1 1 1 1 2 1h31c7 0 14-5 16-12l12-32c3-10 13-17 23-18 11-1 24-1 36-1" fill="#ffffff" data-color="1"/>
        <path d="M6004 1848c0 17-3 29-10 34-58 47-141 109-249 189-9 7-20 10-31 10-18 0-35-9-45-24l-2-4c-17-25-11-59 14-77l79-59c2-1 2-2 2-3 2-3 0-6-3-7 0-1-1-1-2-1h-614c-10 0-17-8-17-17-1-9-1-23-1-41s0-32 1-41c0-10 7-17 17-17h614c1-1 2-1 2-1 3-2 5-6 3-8 0-1 0-1-1-2l-80-61c-25-18-30-50-14-75l2-4c10-16 27-25 45-25 11 0 22 4 31 11 108 79 191 142 249 188 7 6 10 17 10 35" fill="#ffffff" data-color="1"/>
        <path d="M9915 1880v-41c1-10 9-18 18-18h614s1-1 2-1c3-2 5-5 3-8l-2-2-80-60c-24-18-30-51-14-76l2-4c1 0 1-1 2-1 16-25 49-31 73-14 0 0 1 0 2 1 108 79 191 141 248 188 7 5 11 17 11 34s-4 30-11 35c-57 46-139 109-248 189 0 1-1 1-1 1-25 16-58 10-74-14 0-1-1-1-1-1l-2-4c-16-25-10-59 13-77l80-60c1 0 1-1 2-2 2-3 0-6-3-7-1-1-2-1-2-1l-614 1c-9 0-17-8-17-18 0-9-1-22-1-40" fill="#ffffff" data-color="1"/>
        <path d="M11896 1675c9 0 17 0 24 1 11 1 19 8 23 18l96 279c1 0 1 1 1 2 0 5-3 11-9 12h-37c-9 0-16-5-19-13l-12-37c-4-11-15-18-27-20h-80c-12 2-23 9-27 21l-12 36c-3 8-10 13-19 13h-37c-6-1-9-7-9-12v-2l97-279c4-10 12-17 23-18 7-1 16-1 24-1m-1 189h30c6-3 10-9 10-17v-6q-34.5-93-39-93c-5 0-17 31-40 93-1 2-1 5-1 6 0 8 5 14 11 17z" fill="#ffffff" data-color="1"/>
        <path d="M12132 1835c1 26 5 45 12 59 13 26 40 44 70 44 3 0 7-1 10-1 30-5 49-19 61-44 3-6 10-10 17-7l24 10c9 4 14 13 10 22-13 33-35 53-67 63-114 36-196-28-201-143-6-116 69-187 186-163 32 7 56 26 73 57 5 8 1 18-7 23l-23 12c-7 3-15 1-19-5-13-24-35-37-64-38h-3c-33 0-62 20-73 51q-7.5 21-6 60" fill="#ffffff" data-color="1"/>
        <path d="M12478 1675h101c12 0 22 9 22 22v12c0 10-8 19-19 19h-56c-9 0-17 7-17 17v219c0 12-9 22-21 22h-20c-12 0-21-10-21-21v-220c0-10-7-17-16-17h-56c-11 0-19-9-19-19v-13c0-12 10-22 23-22 28 1 62 1 99 1" fill="#ffffff" data-color="1"/>
        <path d="M12664 1675h37c7 0 13 5 13 12v288c0 7-6 13-13 13l-38-1c-7 0-13-5-13-12l1-288c0-7 6-12 13-12" fill="#ffffff" data-color="1"/>
        <path d="M13062 1861c-1 71-59 129-131 129h-27c-72-2-129-60-129-132v-1l1-56c1-71 59-129 131-129h27c72 2 129 60 129 132v1zm-143-139h2c-46-1-85 47-86 108-1 60 36 109 82 110 47 2 85-47 86-107 1-61-35-110-82-111z" fill="#ffffff" data-color="1"/>
        <path d="M13192 1785v188c0 8-6 14-14 14h-32c-8 0-15-7-15-15v-263c0-25 20-44 45-44 16 0 31 8 38 22l103 178c2 2 5 4 8 4 5 0 9-4 9-8v-172c0-8 7-15 15-15h31c7 0 14 6 14 14v266c0 23-18 41-41 41-15 0-28-8-35-20l-112-194c-1-2-4-4-6-4-4 0-8 3-8 8" fill="#ffffff" data-color="1"/>
        <path d="M2177 1858c0 6 0 11-2 15-3 7-10 11-16 11h-98c-6 0-11 5-11 11v58c0 5 5 10 11 10h121c10 0 17 7 17 17v16c0 11-8 18-18 18l-182 1h-2c-6-2-11-8-10-14 0 0 0-1 1-2v-140c0-91-1-138-2-141v-1c-1-7 4-13 11-14h1l182-1c10 0 19 8 19 18v16c0 10-8 17-18 18l-121 1c-5 0-10 4-10 10v58c0 6 5 10 10 10h98c7 0 14 4 17 11 2 4 2 8 2 14" fill="#ffffff" data-color="1"/>
        <path d="M2251 1713c0-5 4-9 9-9h117c78 1 142 61 142 137v40-1c0 75-65 136-143 136h-118c-5 0-9-4-9-9zm61 52 1 192c0 4 4 8 8 8l42-1c50 0 91-38 91-84v-39c0 1 0 0 0 0 0-47-41-85-91-85h-43c-4 0-8 4-8 9" fill="#ffffff" data-color="1"/>
        <path d="M2711 1967c40 0 64-22 65-61 1-50 1-112 0-185v-1c0-10 8-17 18-17h24c11 0 19 8 20 18 1 99 0 168-3 208-7 68-62 92-124 92s-118-24-124-92c-5-40-6-109-3-208 0-10 9-18 19-18h24c9 0 18 7 18 17v1c-2 73-2 135 0 185 1 39 25 61 66 61" fill="#ffffff" data-color="1"/>
        <path d="M2905 1867c-5-116 70-187 187-162 32 7 57 26 72 57h1c4 8 1 18-7 22h-1l-23 12c-7 3-15 1-18-6-14-23-35-35-64-37h-3c-33 0-62 20-73 51-6 14-7 34-7 60 2 25 6 45 12 59 13 27 40 44 70 44 4 0 7 0 11-1 28-4 49-18 60-43 3-6 11-10 17-7l25 10c9 3 13 13 9 21v1c-13 31-36 53-67 62-114 36-196-28-201-143" fill="#ffffff" data-color="1"/>
        <path d="M3338 1945c-14 0-27 1-40 2s-23 8-27 20l-12 36c-3 7-11 13-19 13h-37c-6-1-10-7-9-12v-3l97-278c4-10 13-17 23-18 8-1 15-2 24-2s17 1 25 2c9 1 18 8 21 18l97 278v3c1 6-3 11-9 12h-37c-8 0-16-5-19-13l-13-36c-3-12-13-19-25-20-14-1-27-2-40-2m1-53h29c7-3 11-9 11-16 0-3-1-5-1-6q-33-93-39-93c-3 0-16 31-38 92-1 1-2 4-2 6 0 8 5 14 11 17z" fill="#ffffff" data-color="1"/>
        <path d="M3592 2015h-10c-11 0-21-9-21-21v-220c0-9-7-17-16-17h-56c-11 0-19-8-19-19v-13c0-12 10-22 22-22 29 1 63 1 100 1 38 0 72 0 100-1 12 0 23 10 23 22l-1 13c1 11-8 19-19 19h-55c-9 0-17 8-17 17v220c0 12-9 21-21 21z" fill="#ffffff" data-color="1"/>
        <path d="M3778 1703h37c7 0 13 6 13 13v288c0 6-6 12-13 12h-38c-7 0-13-6-13-12l1-288c0-7 6-13 13-13" fill="#ffffff" data-color="1"/>
        <path d="M4034 1697c84 1 149 75 148 166-2 90-69 163-152 161-81-2-147-76-146-166 3-90 70-163 152-161zm80 132c0-41-34-74-75-74h-12c-40 0-73 33-74 74v63c0 40 34 73 74 74h12c41 0 74-34 74-74z" fill="#ffffff" data-color="1"/>
        <path d="M4320 1810c-1-2-4-3-6-3-4 0-8 3-8 7v189c0 7-6 13-14 13h-32c-8 0-15-6-15-15v-263c0-25 20-45 45-45 16 0 31 9 38 23l103 178c2 3 5 4 8 4 5 0 9-3 9-9v-171c0-9 7-15 15-15h31c8 0 14 6 14 15v266c0 22-18 41-40 41-16 0-29-9-36-21z" fill="#ffffff" data-color="1"/>
        <path d="M6885 1945c-14 0-27 1-40 2-12 1-23 8-27 20l-12 36c-3 7-11 13-19 13h-37c-6-1-10-7-9-12 0-1 1-2 1-3l97-278c3-10 12-17 22-18 7-1 15-2 24-2s17 1 25 2c9 1 19 9 22 18l96 278v3c1 6-3 11-9 12h-37c-8 0-16-5-19-13l-12-36c-4-12-14-19-25-20-14-1-28-2-41-2m0-52h28c7-3 11-10 11-16 0-3 0-5-1-7-22-62-35-93-38-93-4 0-18 31-40 93 0 2-1 4-1 7 0 6 4 13 10 16z" fill="#ffffff" data-color="1"/>
        <path d="M7079 1715c0-6 5-11 11-11h120c79 2 139 66 138 144v28c-2 80-65 141-141 140h-117c-6 0-11-5-11-12zm63 51-1 188c0 6 5 10 10 10l41 1c50 0 91-39 91-86v-37c0-47-41-86-90-86h-41c-6 0-10 5-10 10" fill="#ffffff" data-color="1"/>
        <path d="M7515 1932c3 0 5-2 7-6 22-70 44-137 65-204 4-11 15-19 28-20h24s1 0 2 1c8 0 14 8 12 16 0 1 0 2-1 2l-92 276c-4 10-12 16-22 18-7 1-15 1-23 1s-15 0-22-1c-11-2-19-8-22-18l-92-275c-1-1-1-2-1-3-2-8 4-16 12-16 1-1 1-1 3-1h23c13 1 24 9 28 21 21 66 43 133 65 203 2 4 3 6 6 6" fill="#ffffff" data-color="1"/>
        <path d="M7821 1697h2c83 1 148 75 146 166-1 90-69 163-151 161s-148-76-146-166 70-163 151-161zm0 54h2c-47-1-86 48-87 108 0 60 36 110 83 111 46 0 84-48 86-109 1-59-36-109-82-110z" fill="#ffffff" data-color="1"/>
        <path d="M8018 1867c-6-115 70-187 186-162 33 7 57 26 73 56l1 1c4 7 1 18-8 21v1l-23 12c-7 3-15 1-18-6-14-23-35-35-65-37-32-1-63 18-75 50-6 15-8 35-6 61 0 25 5 45 11 59 15 31 48 48 81 43 29-4 49-18 60-43 3-7 11-10 18-8l24 10c8 4 13 14 9 22v1c-13 31-35 53-66 62-115 36-197-28-202-143" fill="#ffffff" data-color="1"/>
        <path d="M8451 1946c-14 0-27 0-40 1s-24 8-27 20l-12 36c-3 8-10 13-19 13h-37c-6-1-10-6-9-12v-3l98-278c4-11 12-17 23-18 6-2 15-2 23-2 9 0 17 1 25 2 10 1 18 8 22 18l96 279c0 1 1 2 1 2 0 6-3 12-9 12h-37c-9 0-16-5-19-12l-13-37c-4-11-14-19-26-20-14-1-27-1-40-1m-5-55h29c7-3 12-10 12-17 0-2-1-4-2-6-21-62-33-93-37-93s-17 31-40 92c-1 2-2 4-2 6 0 8 5 14 11 17 1 0 11 1 29 1" fill="#ffffff" data-color="1"/>
        <path d="M8622 1865c-5-115 72-186 188-160 33 7 57 26 73 57 4 9 1 18-8 23l-23 12c-7 3-15 0-18-6-13-23-34-36-64-38h-4c-32 0-61 20-72 50-6 15-8 34-7 60s5 45 11 59c13 27 40 45 71 45 3 0 6 0 9-1 29-4 50-18 61-43 3-6 11-9 18-7l24 10c9 4 12 14 9 22-13 32-36 53-68 63-114 35-196-30-200-146" fill="#ffffff" data-color="1"/>
        <path d="M9045 1820c1 0 2 0 3-1 2-1 4-2 4-4l55-94c7-12 20-20 35-20h19c9 0 15 7 15 14 0 3 0 6-2 8l-91 158c-4 7-7 15-7 23v91c0 12-9 21-20 21h-24c-11 0-20-9-21-21v-91c0-8-1-15-6-23l-91-158c-2-2-2-5-2-8 0-7 6-14 15-14h19c15 0 28 8 35 20l55 94c0 2 2 3 4 4 1 1 2 1 5 1" fill="#ffffff" data-color="1"/>
        <path d="m495 1727 39 1c13 0 23 11 23 24l-1 23c0 13-11 24-24 24l-38-1c-13-1-23-11-23-24l1-24c0-13 11-23 23-23" fill="#ffffff" data-color="1"/>
        <path d="M772 1755c5 1 15 26 27 76 0 2 1 2 1 4 0 7-5 13-13 14h-19c-11 0-17-1-18-1-7-2-12-8-12-15 0-1 1-3 1-4 17-49 27-74 33-74" fill="#ffffff" data-color="1"/>
    </g>
</svg>
