<?xml version="1.0" encoding="UTF-8"?>
<svg data-bbox="0 0.052 11855 3109.948" viewBox="0 0 11855 3110" height="337.354" width="1286.113" xmlns="http://www.w3.org/2000/svg" shape-rendering="geometricPrecision" text-rendering="geometricPrecision" image-rendering="optimizeQuality" fill-rule="evenodd" clip-rule="evenodd" data-type="color">
    <g>
        <path d="M6651 412c1 0 1 0 1 1 0 2-3 5-6 5h-401c-7 0-13-5-15-12-10-53-50-91-119-112-47-14-126-22-172 14-46 37-31 102 15 126 21 10 100 30 236 59 135 28 282 73 382 173 83 85 100 182 90 300-7 81-40 152-98 213-173 180-432 199-676 161-225-36-415-178-430-421v-1c0-7 6-13 13-13h393c3 0 7 1 9 2 5 3 7 6 9 10 52 123 170 149 288 114q24-7.5 57-48c3-4 5-10 5-16 0-1 0-2-1-4-10-57-41-93-89-106-193-51-297-79-310-84-153-56-286-109-319-281-59-310 158-464 436-487 311-25 647 35 702 407m4796-381h398c5 0 10 5 10 11v1271c0 6-5 11-10 11h-398c-6 0-10-5-10-11V42c0-6 4-11 10-11m-699 979h576c5 0 10 4 10 10v294c0 5-5 10-10 10h-998c-5 0-9-5-9-10V41c0-5 4-10 9-10h403c5 0 9 5 9 10v959c0 6 4 10 10 10M9514 31c54 0 122 1 200 1 5 0 10 4 13 9l485 1276c1 3-2 7-4 7h-439c-5 0-11-4-12-9l-45-156c-2-6-7-10-13-10h-373c-6 0-10 4-12 10l-45 156c-2 5-7 9-12 9h-439c-3-1-5-4-5-7v-1L9300 41c2-6 7-10 13-10zm-125 866v2c0 3 3 6 6 6l236 1c4 0 6-4 6-7v-2l-117-426c-1-4-4-5-6-5-3 0-6 1-6 5zM8154 31h501c3 0 7 4 7 8 0 2-1 4-2 5l-472 472c-2 2-2 4-2 6 0 1 0 3 1 4l516 786c1 1 1 3 1 4 0 4-3 8-7 8h-473c-3 0-5-1-7-4l-310-513c-1-2-4-4-6-4s-4 1-5 2l-97 97c-1 1-2 3-2 5v409c0 4-3 8-8 8h-405c-4 0-8-4-8-8V39c0-4 4-8 8-8h404c5 0 8 4 8 8v358c0 3 4 7 8 7 2 0 4-1 5-3l339-367q3-3 6-3M4709 807v193c0 6 4 9 10 9h616c5 0 10 5 10 10v296c0 5-5 9-10 9H4296c-5 0-9-4-9-9V41c0-5 4-10 9-10h1039c5 0 10 5 10 10v295c0 5-5 10-10 10h-617c-6 0-9 4-9 9v157c0 5 3 9 9 9h511c5 0 9 4 9 9v259c0 5-4 9-9 9h-510c-6 0-10 5-10 10zM2983 559c-1 3 7 82 23 237 19 175 12 356 12 520 0 4-4 8-8 8h-405c-6 0-11-5-11-11V40c0-5 4-9 8-9h501c12 0 22 9 25 20l202 803c0 2 3 4 5 4s4-2 5-4l238-817c1-3 4-6 8-6h509c5 0 9 4 9 9v1277c0 4-3 7-7 7h-437c-7 0-13-6-13-14-1-182-8-381 19-572 8-65 13-127 14-186 0-1 0-2-1-2s-1 1-2 1l-201 764c-2 5-6 9-12 9h-257c-8 0-15-7-17-14l-198-751c0-2-2-4-5-4-2 0-3 2-4 4m-1188 590h-186c-7 0-12 4-14 10l-44 156c-2 5-7 9-12 9h-439c-3-1-5-4-4-7L1582 41c1-6 7-10 13-10h400c6 0 12 4 13 10l486 1276c1 3-2 6-4 7h-439c-5 0-10-4-11-9l-46-156c-1-6-7-10-13-10zm-125-253v2c0 3 4 7 7 7h235c5 0 8-3 8-7 0 0-1-1-1-2l-116-422c-1-3-4-6-7-6s-6 3-7 6zM15 870h389c11 0 18 8 18 18v1c-2 88 36 128 114 119 46-5 71-25 80-74 8-50 12-89 12-116 2-172 1-432 0-778 0-4 4-9 9-9h399c6 0 9 5 9 9q1.5 589.5 0 825c0 40-2 76-4 108-18 190-147 325-331 364-130 28-262 27-399-3C79 1283 3 1106 0 885c0-8 7-15 15-15h1z" fill="#ffffff" data-color="1"/>
        <path d="M10350 2029c0-1 1-2 1-3 0-3-3-6-7-6l-2 2c-124 107-286 252-486 432-134 120-288 156-460 105-59-16-88-54-88-112 0-5-3-10-9-10-1 0-4 1-5 3-94 76-210 134-329 134-85-1-155-15-211-42-60-30-96-78-109-144 0-3-2-5-5-5-2 0-3 0-4 1-154 159-341 237-564 170-80-23-146-107-100-191 28-48 78-122 150-217 1 0 1-1 1-2l-4-6-1-1c-1-3-5-3-7-1v1c-1 0-100 90-296 269-180 164-437 198-669 157-101-18-225-65-267-160-9-20-14-30-16-33-1-2-4-4-7-4s-6 2-7 3c-103 128-263 214-427 208-71-3-164-4-216-55-48-46-58-98-31-155 44-95 112-162 200-255 10-12 15-24 13-39 0 1 0 0 0 0-3-18-21-31-42-28-37 5-94 14-123 29-115 59-208 119-284 231-48 71-106 154-173 247-5 8-15 13-24 13h-251c-5 0-9-4-9-9 0-2 1-4 2-5 111-145 224-297 342-458 6-8 9-16 8-23v-2c-2-15-16-25-30-23h-2c-151 28-269 124-384 230-198 179-330 346-617 298-83-14-125-56-129-129 0-4-2-7-7-7-1 0-2 0-3 1-164 121-321 177-520 104-72-26-116-76-132-148-1-5-6-9-11-9-3 0-7 1-9 4-136 156-310 215-520 178-96-16-169-77-139-184 25-86 112-173 194-258 13-12 24-38 21-54-2-14-15-25-31-25-168 11-325 134-408 251-72 103-129 185-172 246-11 14-26 22-43 22h-243c-3 0-6-3-6-7 0-1 0-2 1-3 116-154 227-304 334-448 11-14 16-26 16-35v-4c-2-15-16-25-30-24-1 1-2 1-3 1-90 19-170 56-241 114-112 89-202 169-272 238-145 146-325 220-531 162-66-18-138-72-133-149 0-20 15-51 45-94 22-34 63-91 122-172 1-1 1-3 1-4 0-3-3-6-6-6-2 0-3 1-4 1-110 99-215 195-316 290-98 93-212 160-350 157-74-2-144-10-208-25-7-2-13 1-17 6l-375 530c-7 11-19 17-32 17H408c-5-2-7-7-7-12 1 0 1-1 2-2l412-582c1-2 2-3 2-6 0-4-2-6-4-9l-25-16c-6-5-9-12-9-19 0-13 9-22 22-22h52c8 0 17-5 21-12l238-334c1-2 1-3 1-5 0-5-4-8-8-8-2 0-2 1-4 2-108 63-207 152-305 244-5 6-13 9-21 9-3 0-6-1-9-1l-2-1c-5-1-7-5-7-9 0-3 1-5 2-6 72-70 145-135 221-197 50-42 100-72 147-90 16-6 28-16 36-31 165-286 365-498 707-539 53-6 136 1 178 30 86 59 1 183-62 228-189 132-388 230-598 297-9 2-18 9-24 19l-276 478c-1 2-2 4-2 7 0 6 4 12 11 13 80 17 154 23 222 17 98-8 199-91 283-162 111-96 241-211 386-347 7-6 15-10 24-10h285c2 0 5 3 5 5 0 1 0 3-1 4-84 111-181 245-292 401-22 29-28 55-20 81 3 5 7 10 13 13 125 52 286-32 369-114 146-142 250-250 401-344 116-72 233-81 349-28 39 19 67 48 78 88 1 6 5 9 10 9 3 0 5-1 7-2 128-109 296-174 456-91 7 4 14 10 20 17 73 86 25 168-48 242-59 59-101 100-126 167-3 7-3 14-1 21 5 19 20 31 43 36 173 39 335-83 444-210 6-7 13-16 17-26 90-207 362-261 571-280 99-9 186 0 257 25 3 1 5 2 8 4l33 23c2 2 4 3 7 3 4 0 8-2 10-5l16-23c5-7 12-11 21-11l251-17h1c4 0 8 3 8 8 0 2 0 3-2 4-184 268-280 409-288 422-17 26-27 49-27 70v2c-1 14 10 25 25 26h1c139-4 251-89 351-183 155-148 385-396 609-347 73 16 140 40 164 116 1 4 5 7 10 7 2 0 5-1 7-2 108-89 251-156 391-115 90 26 135 79 115 173-5 25-28 59-71 103-39 40-214 207-89 234 153 32 271-48 394-160 36-31 63-63 83-94 26-38 38-58 39-58 141-155 406-200 612-207 73-2 141 11 205 26 30 8 51 26 62 54q-1.5 0 0 0c8 20-1 43-21 52h-1c-63 23-127 16-195-22-9-6-15-17-15-28 0-13 8-24 20-30l63-23 3-3c2-2 1-7-2-8-1-1-2-1-3-1-208-5-388 156-473 335-50 103 9 177 118 182 117 5 232-17 345-64 52-21 137-88 257-200 65-62 156-144 270-245q13.5-12 30-12h276c3 0 5 3 5 5 0 1 0 3-1 4-87 117-187 255-300 413-29 41-15 90 43 97 149 16 272-71 377-172 23-22 50-59 82-108 61-97 160-165 294-205 117-35 447-95 555 8 3 2 6 3 11 3 4 0 8-2 11-6l20-27c3-4 6-7 11-7l256-17c5 0 8 4 8 9 0 1 0 3-1 5-128 185-228 331-299 437-9 13-15 28-18 46l-1 1c-2 16 8 31 24 32h2c117 9 238-76 318-149 255-233 446-399 572-500 5-6 10-10 14-16l274-386c6-9 17-15 28-15h236c3 0 5 3 5 6 0 1-1 2-1 3-214 306-404 579-571 820-47 68-78 128-92 176-7 23-1 40 19 51 12 6 32 7 60 1 145-28 231-119 342-222 5-5 11-7 17-7 3 0 8 1 11 2 4 3 8 7 8 13 0 3-2 7-4 9-161 152-274 254-490 237-68-5-144-15-163-82-39-143 144-346 221-464m-8935-51c122-43 696-270 619-455-4-6-8-11-14-15-81-49-213 3-283 47-158 101-249 243-332 412 0 1-1 2-1 4 0 4 4 8 9 8 0 0 1-1 2-1m2860 561c147 46 309-72 415-172 59-56 136-177 170-229 5-7 7-15 7-23 0-9-2-17-7-24-13-19-33-32-57-38-124-33-233-1-327 94-84 85-156 182-216 292-17 31-18 60-2 87 4 6 9 11 16 13zm4636 1c148 46 310-73 415-173 60-56 138-177 172-230 4-7 7-15 7-23s-4-17-8-24c-14-18-32-31-57-38-124-33-233-1-328 95-83 85-156 182-216 293-17 31-18 60-2 87 4 6 10 11 17 13" fill="#ffffff" data-color="1"/>
        <path fill="#ffffff" d="M2145.573 1811.022c1.84-39 65.987-67.662 143.279-64.017s138.458 38.216 136.619 77.216c-1.84 39-65.988 67.662-143.28 64.017-77.29-3.645-138.457-38.216-136.618-77.216" data-color="1"/>
        <path fill="#ffffff" d="M8318.076 1811.154c1.734-39.716 65.231-69.2 141.825-65.856s137.28 38.25 135.546 77.966-65.23 69.2-141.825 65.856-137.28-38.25-135.546-77.966" data-color="1"/>
    </g>
</svg>
