<?xml version="1.0" encoding="UTF-8"?>
<svg data-bbox="0 0.405 6624 5240.627" viewBox="0 0 6624 5241" height="720.99" width="911.214" xmlns="http://www.w3.org/2000/svg" shape-rendering="geometricPrecision" text-rendering="geometricPrecision" image-rendering="optimizeQuality" fill-rule="evenodd" clip-rule="evenodd" data-type="color">
    <g>
        <path d="M3987 677c3 4 3 4 6 0 38-7 75-10 113-7h44c14 4 31 4 44 7h7c14 4 27 7 41 14 17 7 27 10 31 10 13 7 24 10 34 17 68 38 112 95 140 167 3 7 3 17 6 27 4 10 7 17 7 28 10 51 10 102 7 149-3 48-14 99-24 150-17 62-34 120-54 167-14 38-45 96-92 92h-4c-20-7-37-20-51-37-27-31-48-65-65-106-37-82-68-150-115-218-41-61-96-116-157-157-7-3-10-3-17 0-75 72-147 150-208 235-14 18-34 45-58 86 20-55 51-123 89-201 23-58 54-109 88-157l4-3c3-14 13-28 27-35 3-3 7-3 10-6l3-4c11 0 21 0 35 10 30 17 51 31 54 35 85 57 157 136 211 224v7c4 4 7 7 11 14l3 3c3 7 10 21 20 38 7 13 14 27 17 41 21 44 34 75 45 92 13 27 27 51 44 71 7 4 10 10 17 10 3 4 7 0 10-3 21-31 38-65 51-106 21-61 34-122 45-187 13-72 13-153-7-225-27-95-89-157-188-184-47-14-95-17-149-14-79 4-154 24-222 55-85 37-150 119-194 204-44 86-82 171-119 270-45 105-89 218-130 333 0 0 0 4 4 4 44 20 88 44 132 68 4 3 4 3 7 0 38-48 75-92 113-140 71-85 143-163 218-231 7-4 27-21 61-48 20-20 41-34 65-44 13-11 30-11 47 0 4 0 11 3 11 10v3c-24 24-58 58-103 92-27 21-54 48-85 79-95 95-187 201-276 313l-3 4 3 3c51 37 96 78 140 123 10 10 17 17 20 23 7 11 14 17 14 17s14 18 38 48c3 4 3 4 6 4l11 3h-4v3h14-4c4 0 7 4 7 4 34 7 62 17 89 24 10 3 20 6 24 10 10 3 17 7 20 10 17 4 34 17 48 24h7v3c37 28 78 55 78 109v92c0 4 0 7 3 7 17 4 31 10 48 21 17 10 24 24 24 47v184c0 24-34 45-51 51-7 0-10 4-17 4-4 0-7 3-7 7v92c0 27-10 51-27 71-4 0-4 4-4 4 0 3 0 3 4 3 47 44 82 92 85 157 3 82-38 157-89 221-75 89-177 160-286 212-133 64-276 109-426 126-3 0-3 3-3 3 20 31 51 55 82 75 51 34 92 61 122 78 7 4 10 7 17 7 4 4 7 0 11-3 10-28 0-75-14-102-4-7-4-14 3-21 17-27 41-41 75-41 51-3 96 17 109 68 4 11 7 21 7 34 0 4 4 4 7 4 14 0 27-4 37-4 24 4 41 7 55 17 44 31 58 69 41 123v10c3 7 7 14 10 21 14 47-10 82-41 116-3 0-3 3-3 3-10 20-17 44-38 58-44 27-109 24-153 3-48-23-89-54-130-95h-6v3c30 62 51 123 44 188-10 85-65 170-123 235 0 3 0 3 4 3 10 4 20 7 30 11 34 17 51 64 55 102 0 3 3 7 7 10 17 3 41 7 64 10 14 0 24 7 41 10v4c-44-4-71-7-81-7-297-10-590-10-876 3h-4l92-20c4 0 7-3 7-10 4-21 7-41 17-62 14-30 34-44 68-51v-3c-47-51-81-109-105-170-24-69-17-140 7-205v-3c0-4 0-4-4-4-30-3-68-24-71-58-4-24-11-44-21-64-7-21-3-34 14-48 3-4 7-7 10-10 3 0 3 0 3-4-23-54-44-112-64-180 0-4 0-4 3-4 58-34 123-51 191-54 3 0 3 0 3-4 0 0 0-3-3-3-68-17-136-38-198-65-34-13-61-27-88-44h-7c-51-27-106-61-157-106-3 0-7-3-17-13-3-4-10-7-17-14-14-14-34-31-54-54-21-24-38-45-52-65-13-24-23-48-34-72-34-95-10-187 72-249 3-3 3-6 0-10-20-24-27-47-27-82v-81c0-4-4-4-4-4-17-7-34-13-51-24-24-17-20-34-20-61v-163c0-14 3-24 13-31 11-14 31-24 58-31 0 0 0-3 4-3v-96c0-20 3-37 13-51 34-51 103-81 160-102 35-14 72-24 110-34 6 0 10-3 13-7 17-24 34-44 48-65 7-6 20-20 37-37 31-31 58-55 86-78 3-4 6-7 13-11v-6c-7-11-17-21-24-31-51-68-129-174-235-310-65-85-129-157-197-222-17-17-38-34-55-47-17-14-51-45-72-65-112-109-207-232-282-371 0-4-4-7-4-11 0-3 0-3-3-3-4-7-7-14-7-21h-3l-11-23c-3-7-6-14-6-21l-4-3v-4c-10-17-17-37-24-61-30-99-54-198-64-296-7-38-11-92 0-140v3-7c3-10 6-20 10-27l13-24c28-23 58-30 92-23 7 0 17 6 31 13 14 4 24 10 34 14q6-6 0 0h-3 3s7 3 14 10q168 97.5 306 225c92 82 174 177 239 286 41 72 82 150 119 232 24 54 68 157 106 235 61 119 112 225 160 317 41 82 78 163 109 242 0 3 3 3 3 3 21-7 38-14 58-17 24-7 45-10 58-10 72-10 147-4 218 13 0 0 4 0 4-3 61-163 126-324 194-484 34-78 75-157 126-225 44-58 102-102 170-133 35-13 75-27 116-37 14 0 28-3 45-7m-1183 998h4c37-27 78-51 122-68 4-3 4-3 4-6-58-133-96-219-113-259-10-17-13-28-17-31-10-27-41-99-95-215-68-146-140-286-211-419-48-85-82-146-103-177-34-51-75-102-122-147-85-85-181-160-283-224-34-21-68-41-102-58-14-7-48-17-58 0-10 20-14 41-14 61 0 27 0 54 4 78 13 86 27 164 51 246 30 102 78 197 136 286 44 65 92 129 146 191 31 30 62 61 92 88 38 31 58 51 72 62 27 27 51 54 75 78 143 164 279 341 412 514m917 219v-4c-79-92-171-167-283-221-3-4-7-4-14-7-17-14-30-21-54-24h-7c-72-24-150-37-225-27-58 7-116 20-170 41v3l-27 7h-7c-11 7-21 17-34 24-96 51-178 119-249 204v4h3c171-28 344-41 522-41 190 0 371 13 535 41zm-1322 766c3 4 3 4 7 4 68 37 139 61 218 78 85 17 177 31 276 37 255 21 514 17 766-23 45-7 92-17 150-31 51-14 96-31 133-51 31-17 55-34 68-62 7-13 10-23 10-30v-443c4-38-20-65-47-85-41-28-85-48-137-62-47-13-88-23-126-30-102-17-207-31-313-38-153-10-307-7-460 0-116 10-228 24-334 48-24 3-58 14-99 24-44 13-82 34-112 54-34 21-58 48-58 89v364c0 4 3 7 7 7h129c4 0 7 0 7 4v136c0 3-3 7-7 7h-75c-3 0-3 0-3 3m289 160c-37-6-58-10-64-10-72-14-137-31-191-54-27-7-51-21-79-38-6-3-13 4-17 7-20 17-34 31-40 37-92 123 40 273 129 348 164 129 368 204 569 235 58 7 92 10 157 14 3 0 7-4 7-7v-276c0-7-4-10-7-14-17-17-31-34-45-47-17-21-47-58-92-116-10-14-10-28-10-41h4c0-4-4-4-7-7-99-3-198-14-297-27-10 0-13-4-17-4m995 0c-3 0-10 0-17 4-99 13-197 24-300 27 0 3-3 3-3 7 3 13 0 27-7 41-44 58-75 95-92 116-13 13-27 30-47 47-4 4-4 7-4 14v276c0 3 4 7 4 7h3c65-7 99-7 153-14 205-31 409-106 569-238 92-72 225-222 130-345-4-6-17-20-38-37-3-3-10-10-17-7-27 17-54 27-78 38-55 20-119 40-191 54-7 0-27 4-65 10m-899 862v4l-4-4c-6-13-23-54-47-37-14 10 0 37 6 51 4 3 4 10 4 14 7 20 0 51 34 58 10 0 34 3 41-11 31-54 65-109 102-170 3-3 0-7-3-7-34-17-55-41-62-78v-4s4-3 7-6c51-28 106-52 160-72 4 0 4 3 4 3v14c-21 55-41 102-68 147-55 88-86 139-92 150-11 20-24 47-35 71-23 58-27 113-17 170 21 89 89 174 161 236h3l3-4c-10-61-3-123 38-170 44-48 99-72 163-72 41 0 75 10 106 24 78 48 102 130 85 218h-3c0 4 3 4 3 4h4s3-4 6-4c89-75 174-191 164-313-7-62-34-123-65-174-20-31-44-72-75-123-20-30-34-54-41-75-3-3-3-3-3-7h3c69 86 144 161 229 232 44 38 95 75 153 82 34 7 85-3 85-48 0-3-3-7-3-7-21-13-44-23-65-30-31-10-58-4-68 24-3 3-3 3-3 0-4-24 6-38 27-45 20-7 44 4 65 11 13 6 30 17 51 27 6 0 10 0 17-4 30-30 44-64 13-102 0-3-3-3-7-3-34-7-64-10-95-10-17 0-27 0-34 3-17 7-37 24-31 44 4 4 4 7 4 10h-4c-17-10-23-23-17-40 11-31 55-35 82-35 27 4 61 7 95 11 7 0 11 0 11-7 10-24 10-55-14-75-17-17-34-24-58-21-37 4-126 24-109 79v3h-3c-21-17-21-34-7-54 10-10 31-17 48-28 3-3 6-3 6-6-3-41-6-86-54-96-24-7-48-3-68 10-4 4-4 7-4 11v3c4 17 11 34 14 55 3 34-3 61-20 85-7 7-11 10-14 10h-7c-14-7-31-14-41-20-44-24-85-52-119-75-24-17-44-34-65-51-13-14-20-31-34-52 0-3-3-3-7-3l-24 7c-3 0-3 0-3 3 17 58 21 113 14 171-7 64-34 160-106 173h-20c-21-6-38-20-51-37-4-4-7-7-11-14-17-24-27-58-34-88-13-68-10-137 10-205v-3s0-4-3-4c-10 0-31 0-58-3-20-3-37-3-58-3-48 0-99 0-150 6-41 4-78 14-112 34-7 4-10 11-7 18 27 78 55 153 82 224m119-143c7 7 17 14 24 17h3c4 0 7 0 11-3 17-27 30-55 40-82v-7c-3-3-3-3-6 0-28 11-55 24-86 41 0 0-3 4-3 7v3c7 11 10 17 17 24m406 740c23-62 44-130 17-195-21-44-65-74-116-81-106-14-205 58-195 173 4 35 14 69 31 103 4 3 7 6 10 3 79 0 157-3 232 0h17c0-3 4-3 4-3m-311 3v-3c-17-24-40-41-68-55-47-17-81 10-88 58l3 3c61 0 113 0 150-3zm365 0h3c38 0 86 3 147 3 3 0 3-3 3-3-6-48-41-78-88-58-27 14-48 31-65 55h-3s3 0 3 3" fill="#ffffff" data-color="1"/>
        <path d="M2722 1297c-37-61-78-119-129-177-3-7-7-10-10-14-4-6-10-13-21-23l-3-4v-3l-4-4h-3v-3c-65-61-102-102-160-153-10-11-21-24-34-31 0 0-7-10-27-27-7-7-11-7-11-10-20-14-61-55-129-116-21-21-34-38-48-51-17-21-27-31-30-35-4 0-4-3-4-3-7-10-13-20-24-34-10-10-20-27-30-48-17-27-28-61-38-102-7-34-3-65 4-102 0-4 3-4 6-4h4c44 38 92 75 139 120 147 129 266 279 365 453 41 68 75 133 106 198 20 40 47 98 81 173" fill="#ffffff" data-color="1"/>
        <path d="M2852 2210h85c4 0 7 4 7 7v79s-3 3-7 3h-82c-3 0-6-3-6-3v-79c0-3 3-7 3-7" fill="#ffffff" data-color="1"/>
        <path d="M2542 2347h146c4 0 7 3 7 7v136c0 3-3 3-7 3h-146c-4 0-7 0-7-3v-136c0-4 3-7 7-7" fill="#ffffff" data-color="1"/>
        <path d="M3090 2360h69c3 0 6 4 6 7v62c0 3-3 6-6 6h-69c-3 0-6-3-6-6v-62c0-7 3-7 6-7" fill="#ffffff" data-color="1"/>
        <path d="M2733 2514h122c4 0 4 3 4 7v112l-4 3h-122c-4 0-4-3-4-6v-109c0-4 0-7 4-7" fill="#ffffff" data-color="1"/>
        <path d="m2770 3543-31-82c0-3 0-7 4-10 3-7 10-7 14-11h3s3 0 3 4l-6 14c0 3-4 3 0 6z" fill="#ffffff" data-color="1"/>
        <path fill="#ffffff" d="M3650.06 3446.231c1.227-2.822 12.9-.467 26.074 5.26 13.173 5.728 22.857 12.66 21.63 15.483s-12.902.468-26.075-5.26-22.857-12.66-21.63-15.483" data-color="1"/>
        <path d="M2913 4061c-20-28-34-58-44-96-14-44-3-92 14-133 10-27 17-41 17-44h3c-10 65-17 123-10 181 3 34 10 61 20 92" fill="#ffffff" data-color="1"/>
        <path d="M2436 5127c-44 78-139 119-225 113-20-4-44-7-71-17-154-52-215-225-181-375 17-85 68-160 150-201 65-31 153-34 218 3 34 21 65 48 85 82h4c3 0 3-4 3-4v-330h147c3 0 3 0 3 3v672c0 10 7 20 14 23 7 7 13 7 17 11 3 0 3 3 3 10v112c-24 4-48 7-68 7-14 0-44-7-58-17-20-17-31-34-34-58-3-13 0-27-7-34m-24-102c4-7 7-17 7-27v-116c0-14-3-24-10-38-31-51-75-85-136-95-11 0-21 0-38 3-30 7-54 21-75 41-44 44-64 116-51 177 14 69 51 113 113 133 13 4 23 7 37 7h38c51-10 88-37 115-85" fill="#ffffff" data-color="1"/>
        <path d="M4757 4752c0 4 3 4 3 4h3c21-31 45-55 72-79 51-41 112-58 181-51 105 14 187 96 218 194 30 96 24 195-28 280-71 126-228 180-357 105-38-20-65-44-86-74-3-4-6-11-10-11v-3c-3 0-3 3-3 3v103c0 3-4 6-7 6h-58l-3-3v-825c0-3 0-3 3-3h68c4 0 7 3 7 3zm3 96c-3 44-3 99-3 163 3 58 41 102 88 126 48 31 96 45 150 31 65-14 109-48 143-102 55-92 48-211-17-297-41-47-88-75-153-75-31 0-58 4-82 14q-76.5 36-123 123c-3 6-3 10-3 17" fill="#ffffff" data-color="1"/>
        <path d="M5462 4752c0 4 0 4 3 4 21-31 45-58 72-79 54-41 112-58 180-51 110 14 191 96 222 194 31 96 24 195-27 280-75 126-229 180-361 105-35-20-62-44-82-74-4-4-7-7-10-11 0-3-4-3-4-3v106c0 3-3 6-7 6h-58c-3 0-3-3-3-3v-828h72s3 0 3 3zm0 96v163c0 58 41 102 85 126 51 31 99 45 153 31 62-14 109-48 144-102 54-92 47-211-21-297-37-47-88-75-150-75-30 0-58 4-82 14-51 24-92 65-122 123-4 6-7 10-7 17" fill="#ffffff" data-color="1"/>
        <path d="M6096 4398h64c4 0 7 3 7 7v99c0 3-3 6-7 6h-64c-4 0-7-3-7-6v-99c0-4 3-7 7-7" fill="#ffffff" data-color="1"/>
        <path d="M3421 4933h-3v290c0 3-4 6-7 6h-65c-3 0-7-3-7-6v-794c0-7 4-7 7-7h341c122 0 225 112 231 235 4 65-10 123-47 174-24 30-58 61-89 71-24 10-37 14-41 17l191 304h3c0 3-3 6-6 6h-72c-7 0-10-3-10-6l-188-290c0-4-3-4-3-4h-225c-3 0-7 0-10 4m0-443c-3 0-3 3-3 3v362c0 3 3 6 6 6h266c102-3 160-112 150-204-7-89-75-167-167-167z" fill="#ffffff" data-color="1"/>
        <path d="M569 5223c0 3 0 3-3 3-4 3-14 3-28 3H7c-4 0-7-3-7-10v-790c0-4 3-7 7-7h143c3 0 7 3 7 7v657c0 4 0 7 3 7h402c4 0 7 3 7 7z" fill="#ffffff" data-color="1"/>
        <path d="M6597 5141h6c7 17 11 30 14 44 0 3 3 7 7 10 0 4 0 4-4 4-54 34-143 54-201 20-40-24-54-58-54-102v-416c0-3-4-7-4-7h-71c-7 0-10 0-10-6v-48c0-4 3-4 7-4h74l4-3v-191c0-3 0-7 3-7h68c4 0 4 4 4 4v194l3 3h130c3 0 3 0 3 4v54h-129c-4 0-7 4-7 7v365c0 44 0 71 34 92 10 3 24 7 41 7 27 0 51-7 75-17 3-4 7-4 7-7" fill="#ffffff" data-color="1"/>
        <path d="M1877 5219c0 4 0 10-6 10-24 4-55 11-75 7-14-3-34-7-45-17-20-17-34-37-37-61v-17s-4 0-4-4c0 0-3 0-3 4-37 41-82 71-136 88-65 21-130 14-188-17-44-27-75-64-88-116-24-88 24-167 99-204s160-37 238-24c17 4 34 7 51 14 4 0 7-4 7-4v-3c0-34 0-61-17-92-34-61-133-61-187-41-41 10-79 31-113 55h-7l-41-92c-3 0-3 0-3-4l3-3c103-68 236-92 355-62 44 14 92 41 119 82s41 92 41 143c3 17 3 86 3 198 0 14 0 31 14 37 14 11 20 11 20 28zm-187-242c0-7-3-10-7-10-34-14-68-20-102-20-48-4-109 10-136 51-14 23-17 47-7 71s34 44 54 55c55 17 123 0 167-38 14-13 24-27 31-47z" fill="#ffffff" data-color="1"/>
        <path d="M3111 4797h-4c-30-24-64-45-102-55-37-14-126-17-146 24-14 20-10 54 13 71 14 7 28 14 48 21 48 17 133 37 191 71 68 38 82 110 61 178-17 58-65 98-122 116-35 10-65 17-92 17-103 3-201-28-280-96v-7l51-88 4-4s3 0 3 4c65 54 157 92 245 71 21-3 38-13 48-34 14-24 4-54-24-68-17-7-30-10-44-17-10-3-20-3-24-7-37-10-78-24-123-41-51-24-92-51-102-109-3-24-3-61 4-85 44-133 207-153 327-126 44 10 88 34 122 65 7 7 7 10 0 17-6 13-20 34-37 61-3 10-10 17-17 21" fill="#ffffff" data-color="1"/>
        <path d="M770 4984c3 20 10 44 20 65 28 51 72 78 133 82 58 0 120-24 147-79l3-3 120 34c3 3 6 7 3 10v3c-41 65-95 106-167 130-10 3-27 7-51 10-55 10-109 4-157-10-78-24-133-72-174-143-17-31-30-68-34-102-3-31-3-75 0-103 31-180 188-276 365-252 174 24 276 181 255 348 0 3-3 3-6 3H773c-3 0-3 4-3 7m153-102h154s3 0 3-4c0-10-3-20-7-30-20-72-75-116-150-116s-129 44-150 116c-3 10-6 20-6 30 0 4 3 4 6 4z" fill="#ffffff" data-color="1"/>
        <path d="M4433 4902h3c4-47 4-92-17-133-51-95-180-92-265-54-21 10-41 20-62 34-3 3-7 3-10 7 0 0 0 3-3 3v-3l-28-45v-3c0-3 0-7 4-7 17-10 34-20 54-30 55-31 116-48 177-45 38 0 86 10 116 27 82 48 109 123 113 212v289c3 4 3 7 7 7l13 4c4 0 7 6 7 10v48c0 3-3 6-7 6-24 4-58 4-71-17-17-20-17-47-17-71 0-4-4-4-4-4-41 48-92 79-150 92-47 11-88 14-136 4-61-14-113-55-133-113-24-61-14-129 34-173 68-65 164-75 252-69 41 4 82 14 123 24m0 55c-27-7-44-14-51-14-48-14-99-17-150-14-68 11-150 45-147 127 4 75 65 122 137 126 64 3 119-17 167-55 23-20 47-54 47-88v-79z" fill="#ffffff" data-color="1"/>
        <path d="M6096 4636h64c4 0 7 0 7 4v583c0 3-3 6-7 6h-64c-4 0-7-3-7-6v-583c0-4 3-4 7-4" fill="#ffffff" data-color="1"/>
    </g>
</svg>
