<?xml version="1.0" encoding="UTF-8"?>
<svg data-bbox="0 0 12492 1944" viewBox="0 0 12492 1944" height="206.62" width="1327.586" xmlns="http://www.w3.org/2000/svg" shape-rendering="geometricPrecision" text-rendering="geometricPrecision" image-rendering="optimizeQuality" fill-rule="evenodd" clip-rule="evenodd" data-type="color">
    <g>
        <path d="M2668 1323h3c1 0 1 0 1 1v3c-68 96-159 175-268 233-362 197-758 26-1047-218-43-35-91-78-147-128-173-162-385-323-620-376-203-45-400-10-586 102v2c-2 0-4-2-4-5l2-1c130-178 301-284 515-316 1 0 1-2 1-4v-2c-8-4-19-11-28-16-192-116-177-408 35-496 160-66 341 23 380 196 31 134-43 277-175 322-2 0-2 3-2 3 0 1 0 1 2 4 27 2 56 8 91 16 227 66 423 202 598 366 156 147 338 294 534 372 246 99 491 73 715-58" fill="#ffffff" fill-rule="nonzero" data-color="1"/>
        <path d="M4 1327c-2 0-2-3-2-3 0-1 2-1 4-1 176 105 359 140 554 105 175-30 335-125 479-235 3-3 7-5 9-5 4 0 6 2 9 5l207 185h2v7h-2c-242 192-581 335-893 220-151-54-274-147-367-278m2668-390v3l-1 2-3-2c-155-93-319-132-494-116-204 19-394 133-554 256-2 3-4 3-8 3-2 0-7 0-9-3l-205-183c-2-2-2-5-2-6 0-3 0-5 2-5 162-129 348-230 555-262h3v-4c0-2-3-2-3-2-119-42-186-167-175-288 18-173 188-286 354-240 137 42 225 178 197 320-17 94-73 162-164 206v4c206 35 372 137 497 303 4 6 9 10 10 14" fill="#ffffff" fill-rule="nonzero" data-color="1"/>
        <path d="M3552 1671c0-150-129-275-285-275s-285 125-285 275c0 148 129 273 285 273 63 0 121-19 168-54l52 46 63-73-48-42c33-43 50-97 50-150m-285 155c-83 0-150-72-150-155s67-154 150-154c80 0 149 71 149 154 0 20-5 42-13 62l-56-48-65 74 56 47c-21 13-45 20-71 20" fill="#ffffff" fill-rule="nonzero" data-color="1"/>
        <path d="M4248 1944c144 0 246-99 246-241v-297h-132v292c0 73-47 128-114 128s-115-55-115-128v-292h-132v297c0 142 102 241 247 241" fill="#ffffff" fill-rule="nonzero" data-color="1"/>
        <path d="M5231 1944c154 0 285-125 285-273 0-150-131-275-285-275-156 0-286 125-286 275 0 148 130 273 286 273m0-118c-82 0-152-72-152-155s70-154 152-154c80 0 149 71 149 154s-69 155-149 155" fill="#ffffff" fill-rule="nonzero" data-color="1"/>
        <path fill="#ffffff" fill-rule="nonzero" d="M6101 1936h132v-412h160v-118h-454v118h162z" data-color="1"/>
        <path fill="#ffffff" fill-rule="nonzero" d="M6843 1936h131v-530h-131z" data-color="1"/>
        <path fill="#ffffff" fill-rule="nonzero" d="M7451 1936h133v-313l231 313h131v-530h-131v314l-231-314h-133z" data-color="1"/>
        <path d="M8666 1730h114v67c-25 18-58 29-88 29-82 0-154-72-154-155s72-154 154-154c46 0 91 21 119 56l97-84c-54-59-134-93-216-93-158 0-287 125-287 275 0 148 129 273 287 273 82 0 162-34 216-90v-223h-242z" fill="#ffffff" fill-rule="nonzero" data-color="1"/>
        <path d="M9442 1944c43 0 77-36 77-80 0-43-34-77-77-77-46 0-83 34-83 77 0 44 37 80 83 80" fill="#ffffff" fill-rule="nonzero" data-color="1"/>
        <path d="M10245 1944c82 0 158-34 212-90l-97-87c-28 37-69 59-115 59-80 0-149-72-149-155s69-154 149-154c46 0 87 21 115 56l97-84c-54-57-130-93-212-93-153 0-285 125-285 275 0 148 132 273 285 273" fill="#ffffff" fill-rule="nonzero" data-color="1"/>
        <path d="M11151 1944c155 0 285-125 285-273 0-150-130-275-285-275-153 0-286 125-286 275 0 148 133 273 286 273m0-118c-80 0-149-72-149-155s69-154 149-154 149 71 149 154-69 155-149 155" fill="#ffffff" fill-rule="nonzero" data-color="1"/>
        <path fill="#ffffff" fill-rule="nonzero" d="M11892 1936h132v-307l153 276 151-276v307h132v-530h-132l-151 275-153-275h-132z" data-color="1"/>
        <path fill="#ffffff" fill-rule="nonzero" d="M3264 899V106h-252v1022h746V899z" data-color="1"/>
        <path d="M3986 263c74 0 130-60 130-133 0-69-56-130-130-130-75 0-134 61-134 130 0 73 59 133 134 133m-127 865h251V358h-251z" fill="#ffffff" fill-rule="nonzero" data-color="1"/>
        <path d="M4548 337c0-50 30-82 69-82 30 0 59 8 74 24l49-149c-45-44-123-73-188-73-144 0-244 100-244 246v55h-101v202h101v568h240V560h160V358h-160z" fill="#ffffff" fill-rule="nonzero" data-color="1"/>
        <path d="M5179 942c-82 0-142-51-167-130h549c0-294-143-470-386-470-231 0-402 166-402 399 0 236 175 404 415 404 114 0 246-49 315-119l-149-151c-48 41-115 67-175 67m0-399c76 0 127 47 149 116h-313c28-71 89-116 164-116" fill="#ffffff" fill-rule="nonzero" data-color="1"/>
        <path fill="#ffffff" fill-rule="nonzero" d="M5682 1128h256V106h-256z" data-color="1"/>
        <path d="M6571 342c-98 0-180 38-227 103v-87h-251v770h251V681l1 4c0-78 59-134 137-134 76 0 129 59 129 143v434h242V637c0-173-119-295-282-295" fill="#ffffff" fill-rule="nonzero" data-color="1"/>
        <path d="M7292 1145c197 0 322-99 322-254 0-176-154-221-289-254-92-23-124-30-124-65 0-23 32-45 78-45 72 0 153 33 220 76l93-165c-86-58-199-96-313-96-190 0-311 108-311 256 2 167 140 205 290 240 75 18 126 32 126 70 0 29-32 47-86 47-93 0-192-37-263-89l-99 163c92 73 226 116 356 116" fill="#ffffff" fill-rule="nonzero" data-color="1"/>
        <path d="M8221 358v448-4c0 75-58 134-136 134s-132-61-132-146V358h-240v489c0 175 117 298 283 298 96 0 177-39 225-106v89h253V358z" fill="#ffffff" fill-rule="nonzero" data-color="1"/>
        <path d="M8867 501V358h-250v770h250V778l2 2c0-141 96-229 251-229V342c-110 0-202 60-253 159" fill="#ffffff" fill-rule="nonzero" data-color="1"/>
        <path d="M9565 342c-119 0-229 32-337 86l80 157c64-34 121-55 192-55 106 0 169 60 169 140v11c-59-25-124-38-180-38-181 0-326 107-326 256 0 147 129 246 294 246 78 0 160-30 212-82v65h243V670c0-206-148-328-347-328m-47 648c-67 0-115-37-115-98 0-60 54-102 121-102 54 0 106 9 145 25v82c-11 58-78 93-151 93" fill="#ffffff" fill-rule="nonzero" data-color="1"/>
        <path d="M10526 342c-97 0-179 38-227 103v-87h-250v770h250V681l3 4c0-78 58-134 136-134 75 0 129 59 129 143v434h242V637c0-173-118-295-283-295" fill="#ffffff" fill-rule="nonzero" data-color="1"/>
        <path d="M11337 1145c134 0 242-54 317-141l-166-138c-37 42-96 70-151 70-100 0-184-89-184-195 0-104 84-190 184-190 54 0 112 28 147 65l166-139c-76-84-179-135-311-135-233 0-428 181-428 399 0 221 195 404 426 404" fill="#ffffff" fill-rule="nonzero" data-color="1"/>
        <path d="M12110 942c-82 0-143-51-169-130h551c0-294-142-470-387-470-233 0-401 166-401 399 0 236 175 404 413 404 114 0 246-49 315-119l-149-151c-45 41-115 67-173 67m0-399c76 0 128 47 147 116h-312c27-71 89-116 165-116" fill="#ffffff" fill-rule="nonzero" data-color="1"/>
    </g>
</svg>
