<?xml version="1.0" encoding="UTF-8"?>
<svg data-bbox="58.162 25.72 398.096 114.376" viewBox="0 0 464.04 159.19" xmlns="http://www.w3.org/2000/svg" data-type="ugc">
    <g>
        <path d="m198.26 41.57-11.01 39.57h-21.06l10.19-36.74-22.21-2.83h-6.74l-12.79 45.65c-.52 2.42-.13 4.28 1.18 5.58 1.31 1.31 3.1 2.06 5.39 2.25h63c1.57 0 2.94-.13 4.12-.39s2.19-.69 3.04-1.27c.85-.59 1.58-1.39 2.2-2.4s1.22-2.27 1.81-3.77l12.71-45.65h-29.81ZM79.9 36.49l5.17-7.59c.64-.94-.03-2.2-1.17-2.2H69.13c-2.31 0-4.43 1.02-5.55 2.67l-5.17 7.59c-.64.94.03 2.2 1.17 2.2h14.77c2.31 0 4.43-1.02 5.55-2.67m24.03 2.67h13.4c.8 0 1.58-.12 2.31-.34.69-.21 1.33-.51 1.89-.89.62-.42 1.15-.93 1.55-1.52l5.11-7.5c.64-.94-.03-2.2-1.17-2.2h-14.77c-2.31 0-4.43 1.02-5.55 2.67l-4.79 7.03c-1.12 1.65-3.24 2.67-5.55 2.67H83.02c-2.38 0-4.57 1.04-5.74 2.74l-5.1 7.41c-.64.94.03 2.21 1.16 2.21h14.72c2.3 0 4.41-1.01 5.54-2.64l4.8-6.97c1.13-1.64 3.24-2.64 5.54-2.64Zm16.63 14.29h15.49c1.39-.12 1.68-.47 2.11-1.24.45-.84 2.13-6.47 2.99-9.42.26-.9-.41-1.8-1.36-1.8h-10.92c-2.31 0-4.43 1.02-5.55 2.67l-4.79 7.03c-1.12 1.65-3.24 2.67-5.55 2.67H99.64c-2.38 0-4.57 1.04-5.74 2.74l-5.1 7.41c-.64.94.03 2.21 1.16 2.21h14.72c2.3 0 4.41-1.01 5.54-2.64l4.8-6.97c1.13-1.64 3.24-2.64 5.54-2.64Zm108.2-14.3.84-3.01c.65-3.53.46-6.14-.59-7.84s-3.33-2.55-6.86-2.55h-59.77c-3.4 0-6.09.65-8.08 1.96s-3.61 3.53-4.85 6.66l-1.34 4.77h80.65Zm82.87 0 3.8-13.4h-75.54l-3.8 13.4zm-53.7 2.42-14.84 53.49h29.79l14.11-50.46-21.39-3.03zm115.48-.08-3.28 12.05h-21.69L351.45 43l-11.73-1.51h-18.45L306.46 94.9h30.52l7.63-27.21 42.67.1c1.61-.07 2.98-.23 4.12-.5s2.14-.69 3.01-1.26q1.305-.855 2.31-2.31c.67-.97 1.37-2.16 2.11-3.56l5.15-18.68h-30.59Zm31.23-2.32.94-3.41c.27-1.61.35-3.04.25-4.32-.1-1.27-.44-2.32-1-3.16-.57-.84-1.41-1.47-2.51-1.91-1.1-.43-2.53-.65-4.27-.65h-72.39l-3.73 13.45z" fill="#ffffff"/>
        <text transform="matrix(.86 0 -.21921 .98 73.49 132.65)" fill="#ffffff" font-family="GirlsjumpFontRegular,GirlsjumpFontRegular" font-size="34.91" letter-spacing="0"><tspan y="0" x="0">ON-TRACK-performance.com</tspan></text>
    </g>
</svg>
