<?xml version="1.0" encoding="UTF-8"?>
<svg version="1.1" xmlns="http://www.w3.org/2000/svg" width="1024" height="1024">
<path d="M0 0 C54.70208003 -1.3978385 109.00636429 10.14409816 157.76171875 35.06640625 C158.58720215 35.48599609 159.41268555 35.90558594 160.26318359 36.33789062 C181.25416519 47.15340572 200.28573155 61.12915972 218.421875 76.15625 C219.93046115 77.38780029 221.47908739 78.57256991 223.0703125 79.6953125 C223.62847656 80.14777344 224.18664062 80.60023438 224.76171875 81.06640625 C224.76171875 81.72640625 224.76171875 82.38640625 224.76171875 83.06640625 C225.31786865 83.29875977 225.87401855 83.53111328 226.44702148 83.77050781 C229.37106407 85.40755222 231.41473137 87.44217094 233.796875 89.80078125 C234.2721463 90.2704985 234.7474176 90.74021576 235.23709106 91.22416687 C236.77296195 92.74824217 238.29955652 94.28112232 239.82421875 95.81640625 C240.34505035 96.33872833 240.86588196 96.86105042 241.40249634 97.39920044 C248.64905741 104.68324541 255.52953093 112.04763828 261.54150391 120.39746094 C262.86353468 122.20566469 264.23454216 123.96822859 265.6171875 125.73046875 C306.70964576 178.47281625 329.94763618 247.06027344 330.01171875 313.81640625 C330.01272583 314.55162506 330.01373291 315.28684387 330.01477051 316.04434204 C329.95019427 386.66320918 307.2007206 458.65385052 262.76171875 514.06640625 C261.59372009 515.60706401 260.4269379 517.14864523 259.26171875 518.69140625 C255.79688327 523.14502732 252.00707645 527.27583173 248.1875 531.42578125 C244.04403259 535.93622242 239.99027711 540.50560118 236.19921875 545.31640625 C233.60781076 548.24004604 231.00386978 549.90497223 227.76171875 552.06640625 C226.5735112 553.2323523 225.4091241 554.42278506 224.26171875 555.62890625 C218.60844651 561.4101771 212.20864655 566.21795474 205.76171875 571.06640625 C205.06723633 571.58928223 204.37275391 572.1121582 203.65722656 572.65087891 C152.49868642 610.92188946 88.64806482 635.99620947 24.19140625 636.26953125 C23.11206818 636.27523132 22.0327301 636.2809314 20.92068481 636.2868042 C18.64325928 636.29619564 16.36582051 636.30276468 14.08837891 636.30664062 C10.69407665 636.31624397 7.30040809 636.34728212 3.90625 636.37890625 C-16.174758 636.47718734 -35.94345298 634.70504711 -55.55078125 630.25390625 C-57.29875 629.86706665 -57.29875 629.86706665 -59.08203125 629.47241211 C-68.49265051 627.34039956 -77.74060145 624.84086045 -86.90673828 621.82861328 C-89.22772532 621.0698571 -91.55804023 620.34718817 -93.890625 619.625 C-135.23245939 606.40003549 -174.71055494 581.57720731 -206.23828125 552.06640625 C-207.64948686 550.83097358 -209.06576411 549.6012974 -210.48828125 548.37890625 C-216.23668683 543.36807613 -221.42197946 537.96051601 -226.40234375 532.19140625 C-228.4330168 529.84101021 -230.48857832 527.51417634 -232.55078125 525.19140625 C-233.20691406 524.45148437 -233.86304688 523.7115625 -234.5390625 522.94921875 C-235.73674534 521.6221311 -236.97423896 520.33044854 -238.23828125 519.06640625 C-282.11738916 463.05625567 -307.95075895 396.53129323 -309.23828125 325.06640625 C-309.27855028 323.68489304 -309.31890964 322.30338247 -309.359375 320.921875 C-310.54691178 249.73952354 -287.5428704 177.98242118 -243.23828125 122.06640625 C-242.52414062 121.16019531 -241.81 120.25398438 -241.07421875 119.3203125 C-236.19799931 113.24657628 -231.03632019 107.4914033 -225.73828125 101.7890625 C-223.77561614 99.65159753 -221.89393199 97.49273337 -220.05078125 95.25390625 C-217.46831969 92.20323636 -214.59942625 89.65285182 -211.5546875 87.0703125 C-209.33755279 85.15228534 -207.19466956 83.16846523 -205.05712891 81.16259766 C-198.95119687 75.4525121 -192.56687623 70.27818828 -185.8671875 65.28369141 C-184.21281537 64.04737554 -182.56840643 62.79874567 -180.92578125 61.546875 C-172.94855193 55.49195636 -172.94855193 55.49195636 -169.51953125 53.4375 C-167.14790849 52.13723549 -167.14790849 52.13723549 -165.23828125 50.06640625 C-163.75865187 49.19741756 -162.25389558 48.37099164 -160.73828125 47.56640625 C-157.14922453 45.6450395 -153.57714598 43.70185447 -150.03515625 41.6953125 C-104.06108419 15.68557765 -52.77680105 1.56580387 0 0 Z M-206.64453125 96.47265625 C-208.23828125 98.06640625 -208.23828125 98.06640625 -210.80078125 100.06640625 C-213.6522256 102.4060529 -215.90791546 105.01076127 -218.296875 107.8125 C-220.3320336 110.17524953 -222.43709538 112.46128402 -224.55078125 114.75390625 C-250.6752052 143.86900499 -271.67297952 180.72746119 -283.23828125 218.06640625 C-283.51478516 218.9387793 -283.79128906 219.81115234 -284.07617188 220.70996094 C-309.87455886 302.68588125 -301.58916744 387.58162258 -262.95166016 463.78076172 C-259.11330563 471.14134525 -254.8626459 478.17616908 -250.23828125 485.06640625 C-249.76712891 485.77120117 -249.29597656 486.47599609 -248.81054688 487.20214844 C-239.28285682 501.3283164 -228.7398378 514.62451302 -217.01953125 526.99511719 C-214.85741049 529.27785213 -212.98898148 531.44035591 -211.23828125 534.06640625 C-210.57828125 534.06640625 -209.91828125 534.06640625 -209.23828125 534.06640625 C-209.23828125 534.72640625 -209.23828125 535.38640625 -209.23828125 536.06640625 C-208.57828125 536.06640625 -207.91828125 536.06640625 -207.23828125 536.06640625 C-207.23828125 536.72640625 -207.23828125 537.38640625 -207.23828125 538.06640625 C-205.82508206 539.53511353 -205.82508206 539.53511353 -203.92578125 541.06640625 C-200.68121739 543.81050879 -197.5720959 546.64335919 -194.48828125 549.56640625 C-181.89016214 561.04469255 -167.65279429 570.99964322 -153.23828125 580.06640625 C-152.61518066 580.46102051 -151.99208008 580.85563477 -151.35009766 581.26220703 C-113.50780786 604.99834189 -68.74355813 620.71057064 -24.23828125 625.06640625 C-23.39088379 625.15180664 -22.54348633 625.23720703 -21.67041016 625.32519531 C-11.16245655 626.26893233 -0.6553984 626.30982168 9.88671875 626.31640625 C10.86081696 626.31708099 11.83491516 626.31775574 12.83853149 626.31845093 C28.66325778 626.3010941 44.11859868 625.66303752 59.76171875 623.06640625 C61.31415283 622.80899658 61.31415283 622.80899658 62.89794922 622.54638672 C135.65461401 610.01526345 209.72450492 570.60342769 253.57275391 509.70410156 C254.81962335 507.98664772 256.10451594 506.30333298 257.3984375 504.62109375 C276.05615489 480.14203478 290.11560443 452.86820343 300.76171875 424.06640625 C301.25430176 422.74938721 301.25430176 422.74938721 301.75683594 421.40576172 C312.65522904 391.89355093 319.04918417 359.54184697 319.76171875 328.06640625 C319.78218262 327.25171875 319.80264648 326.43703125 319.82373047 325.59765625 C321.42555545 252.73447714 297.95878448 180.74267858 251.76171875 124.06640625 C251.35405273 123.55722656 250.94638672 123.04804688 250.52636719 122.5234375 C243.76220098 114.11365296 236.30279528 106.40159263 228.69921875 98.75390625 C227.78946289 97.83488525 226.87970703 96.91586426 225.94238281 95.96899414 C219.85628622 89.91080036 213.50699671 84.37717097 206.76171875 79.06640625 C205.66428345 78.19592651 205.66428345 78.19592651 204.54467773 77.30786133 C188.89473662 64.98896476 172.610948 54.32749936 155.07421875 44.87890625 C154.18379883 44.39719971 154.18379883 44.39719971 153.27539062 43.90576172 C148.5382964 41.38478336 143.67955633 39.20880436 138.76171875 37.06640625 C138.07118408 36.75743408 137.38064941 36.44846191 136.66918945 36.13012695 C43.04591882 -5.74726407 -74.42771261 1.92193048 -206.64453125 96.47265625 Z " fill="#FDFDFD" transform="translate(502.23828125,171.93359375)"/>
<path d="M0 0 C2.35501777 1.35538476 4.4044699 2.69435297 6.5625 4.3125 C7.1702124 4.75674316 7.7779248 5.20098633 8.40405273 5.65869141 C13.71858904 9.62195727 18.57975541 13.98850514 23.37890625 18.5546875 C28.16993258 23.11432487 28.16993258 23.11432487 34 26 C35.54296875 27.6015625 35.54296875 27.6015625 37.1875 29.625 C40.08768363 33.03556791 43.10116217 35.94074117 46.51171875 38.828125 C49.86418712 41.75429833 53.07780256 44.81987346 56.3125 47.875 C61.59463094 52.84992367 66.98551924 57.53034845 72.65625 62.05859375 C75.3414881 64.28286598 77.72203934 66.69425503 80.140625 69.19921875 C83.26124267 72.22149763 86.69004948 74.86392086 90.078125 77.578125 C94.11436436 80.92367099 97.89708362 84.50927898 101.6875 88.12890625 C103.89292092 90.31450466 103.89292092 90.31450466 107 90 C108.12221661 87.83572512 109.098563 85.73059447 109.9375 83.4375 C111 81 111 81 112.51806641 79.63549805 C114.42113553 77.53522457 114.50443691 76.19352395 114.7734375 73.39453125 C114.8765625 72.49283203 114.9796875 71.59113281 115.0859375 70.66210938 C115.2766061 68.78247767 115.46162853 66.9022635 115.640625 65.02148438 C116.62060438 56.60202738 119.67647238 50.81516856 125.8125 44.9375 C126.50472656 44.27234375 127.19695312 43.6071875 127.91015625 42.921875 C130.48740045 40.55177379 133.10737241 38.24028451 135.76171875 35.95703125 C138.40742264 33.64377182 140.9826372 31.26145943 143.5625 28.875 C152.86028874 20.30797642 162.28939616 11.79342419 172.4609375 4.26953125 C174.1387858 3.06026769 174.1387858 3.06026769 175 1 C175.66 1 176.32 1 177 1 C179 4 179 4 179 7 C176.91333008 9.27856445 176.91333008 9.27856445 174 12 C172.95062654 13.0319608 171.9048054 14.06754294 170.86206055 15.10620117 C170.02175545 15.9368232 170.02175545 15.9368232 169.16447449 16.78422546 C166.65932904 19.26257929 164.1595185 21.7462858 161.65991211 24.23022461 C160.33777366 25.54221668 159.01385909 26.85242117 157.68823242 28.16088867 C155.77055574 30.05443769 153.85929592 31.95425812 151.94921875 33.85546875 C151.3524382 34.44192673 150.75565765 35.0283847 150.14079285 35.63261414 C148.72206345 37.05094989 147.35541417 38.52104029 146 40 C146 40.66 146 41.32 146 42 C144.68 42 143.36 42 142 42 C141.7525 42.556875 141.505 43.11375 141.25 43.6875 C139.78393985 46.39971127 137.97010529 48.63587365 136 51 C136.33 51.33 136.66 51.66 137 52 C140.81783593 50.42983685 143.17443817 48.0266293 146.03515625 45.08984375 C146.7532975 44.36034264 146.7532975 44.36034264 147.48594666 43.61610413 C149.51949209 41.55021504 151.54127265 39.4729727 153.56323242 37.39575195 C159.64764868 31.15974886 165.77189979 25.32305262 172.62890625 19.92749023 C175.48062197 17.6092967 178.01470532 15.06752189 180.58203125 12.4453125 C182.30635482 10.68773751 183.81522911 9.16521114 186 8 C188.75 8.3125 188.75 8.3125 191 9 C188.5609612 14.56100846 186.05866667 18.34563609 181.5859375 22.45703125 C179.77384927 24.11220002 179.77384927 24.11220002 178 27 C176.42587839 28.33444054 174.85036515 29.66726416 173.26904297 30.99316406 C168.13493274 35.5339846 163.3886758 40.51110302 158.5625 45.375 C157.43838533 46.50413955 156.31403826 47.63304778 155.18945312 48.76171875 C152.45694765 51.50515188 149.72760991 54.25169985 147 57 C147.66 57.33 148.32 57.66 149 58 C149.33 58.66 149.66 59.32 150 60 C153.42557487 56.58135248 156.83291179 53.1457685 160.23046875 49.69921875 C161.70846157 48.20651301 163.18739364 46.71474498 164.66674805 45.22338867 C165.68771882 44.19225573 166.70690296 43.15935094 167.72436523 42.12475586 C169.20092366 40.62406525 170.68373859 39.12981715 172.16796875 37.63671875 C173.04735107 36.74686279 173.9267334 35.85700684 174.83276367 34.94018555 C177 33 177 33 179 33 C179.33 32.01 179.66 31.02 180 30 C184.45375516 25.41589103 189.67718956 21.51305489 195 18 C195.66 18 196.32 18 197 18 C199 21 199 21 198.84375 22.99609375 C197.80744918 25.4573082 196.60654662 26.44373979 194.5 28.0625 C191.83347234 30.1225019 191.10366566 30.68900302 190 34 C188.43359375 35.578125 188.43359375 35.578125 186.4375 37.25 C185.72335937 37.85972656 185.00921875 38.46945312 184.2734375 39.09765625 C182.76292679 40.36160594 181.24731126 41.61948094 179.7265625 42.87109375 C179.01242187 43.47050781 178.29828125 44.06992187 177.5625 44.6875 C176.90378906 45.22761719 176.24507812 45.76773438 175.56640625 46.32421875 C173.84165119 47.88712695 173.84165119 47.88712695 173.52734375 50.08203125 C173.35332031 50.71496094 173.17929687 51.34789062 173 52 C171.69088499 52.71304988 170.35321983 53.37468542 169 54 C167.10571258 55.86604265 167.10571258 55.86604265 165.375 58 C163.6266832 60.07660336 161.92037235 62.07962765 160 64 C159.34 64.99 158.68 65.98 158 67 C160.22468387 67.23193174 160.22468387 67.23193174 162 65.0625 C162.44214844 64.60101563 162.88429688 64.13953125 163.33984375 63.6640625 C165.33751663 61.66168922 167.44208179 59.80945829 169.5625 57.9375 C174.099838 53.88702986 178.38954132 49.64525542 182.66040039 45.32006836 C186.1062662 41.84734729 189.65391106 38.56649456 193.3828125 35.40234375 C195.17956262 33.88391934 195.17956262 33.88391934 197.375 31.5625 C199 30 199 30 201 30 C201 29.34 201 28.68 201 28 C202.32 27.34 203.64 26.68 205 26 C205 26.66 205 27.32 205 28 C205.66 28 206.32 28 207 28 C203.49342357 37.86007629 194.87791113 45.40636754 187.84765625 52.9375 C181.53428933 59.65489468 181.53428933 59.65489468 176 67 C175.34 67 174.68 67 174 67 C173.72687988 67.59167969 173.45375977 68.18335938 173.17236328 68.79296875 C171.28835977 72.33969755 168.58141737 75.05984659 165.875 78 C165.33101562 78.61617188 164.78703125 79.23234375 164.2265625 79.8671875 C159.98473133 84.48562985 155.41212344 88.44448615 148.97949219 89.25439453 C146.94876119 89.28540182 144.96313106 89.2059249 142.9375 89.0625 C136.19893019 88.62712471 131.1621788 89.53274635 125.70703125 93.7890625 C125.08183594 94.39492188 124.45664062 95.00078125 123.8125 95.625 C121.24563086 98.10299587 119.55585792 99.41655546 116 100 C117.98 100.495 117.98 100.495 120 101 C120 101.66 120 102.32 120 103 C121.81090105 104.44004682 121.81090105 104.44004682 124.1875 105.9375 C128.49601968 108.86461577 132.49046943 111.98931445 136.4375 115.375 C136.98293457 115.84212402 137.52836914 116.30924805 138.09033203 116.79052734 C139.18793749 117.73174917 140.28510861 118.67347776 141.38183594 119.61572266 C143.92240593 121.78908293 146.48727217 123.93021135 149.0625 126.0625 C149.91972656 126.77535156 150.77695312 127.48820312 151.66015625 128.22265625 C153.87461478 130.02469187 153.87461478 130.02469187 156.1328125 131.0390625 C158.31796861 132.16364075 159.32113115 133.37415028 160.8125 135.3125 C162.9623446 137.95169542 165.0580144 139.90036432 167.875 141.8125 C168.90625 142.534375 169.9375 143.25625 171 144 C171 144.66 171 145.32 171 146 C171.84498047 146.37125 171.84498047 146.37125 172.70703125 146.75 C175.38361761 148.20912715 177.42194823 149.96287576 179.6875 152 C180.47511719 152.70125 181.26273438 153.4025 182.07421875 154.125 C184.48560731 156.47280225 184.93956542 157.45608882 185.3125 160.8125 C184.92147661 164.80093862 183.84914102 166.22786279 181 169 C176.17408599 171.81511651 171.06557181 171.65043437 165.75390625 170.5234375 C158.14768569 168.05047909 152.73080838 162.84260629 146.90625 157.58203125 C144.30091924 155.04223806 144.30091924 155.04223806 142 154 C142 153.34 142 152.68 142 152 C141.401875 151.71125 140.80375 151.4225 140.1875 151.125 C138 150 138 150 135 148 C135 147.34 135 146.68 135 146 C134.44957031 145.76796875 133.89914062 145.5359375 133.33203125 145.296875 C130.36685168 143.64789742 128.16686425 141.56454088 125.6875 139.25 C124.23923828 137.91388672 124.23923828 137.91388672 122.76171875 136.55078125 C121.85035156 135.70902344 120.93898438 134.86726562 120 134 C115.47525122 129.75157296 115.47525122 129.75157296 110 127 C108.31267723 125.01739574 106.64633943 123.0167658 105 121 C103.515 120.01 103.515 120.01 102 119 C102 117.68 102 116.36 102 115 C102.86625 114.690625 102.86625 114.690625 103.75 114.375 C106.81410544 112.50249112 108.15539968 110.03041481 110 107 C109.01 107 108.02 107 107 107 C106.62875 107.86625 106.62875 107.86625 106.25 108.75 C104.75446671 111.44195992 103.47486073 113.14385446 101 115 C97.93724796 114.81623488 95.7394691 114.36973455 93 113 C93 112.34 93 111.68 93 111 C91.68 111 90.36 111 89 111 C89 110.34 89 109.68 89 109 C88.49726563 108.76410156 87.99453125 108.52820313 87.4765625 108.28515625 C85.41052648 107.21303346 83.44821757 106.07850908 81.4609375 104.87109375 C71.00173539 98.47584771 71.00173539 98.47584771 59 97 C59 96.34 59 95.68 59 95 C58.319375 94.79890625 57.63875 94.5978125 56.9375 94.390625 C52.94058101 92.49846654 50.17342331 89.79041048 47 86.75 C46.34499512 86.12883301 45.68999023 85.50766602 45.01513672 84.86767578 C35.41385251 75.66963161 26.48596748 66.12338344 18.70703125 55.328125 C17.06147915 52.96005976 17.06147915 52.96005976 15 51 C12.55456201 47.40670336 10.29475099 43.69085158 8 40 C7.53722656 39.25862793 7.07445312 38.51725586 6.59765625 37.75341797 C5.08028545 35.31823489 3.57041892 32.87854548 2.0625 30.4375 C1.56564697 29.63957031 1.06879395 28.84164063 0.55688477 28.01953125 C0.09596436 27.26929688 -0.36495605 26.5190625 -0.83984375 25.74609375 C-1.46427368 24.73567017 -1.46427368 24.73567017 -2.10131836 23.70483398 C-3 22 -3 22 -3 20 C-3.66 19.67 -4.32 19.34 -5 19 C-7.05906695 13.98456627 -8.79470841 8.43050744 -8 3 C-5.86210194 -0.37562851 -3.81203072 -0.46319368 0 0 Z M26 29 C26.66 29.66 27.32 30.32 28 31 C28 30.34 28 29.68 28 29 C27.34 29 26.68 29 26 29 Z M28 31 C31.87553561 35.96553 36.19322511 39.9459842 41 44 C42.33391633 45.14515459 43.66729197 46.29093945 45 47.4375 C45.99 48.283125 46.98 49.12875 48 50 C48.34563672 46.77926393 48.34563672 46.77926393 45.5859375 44.4765625 C44.52313945 43.51764696 43.4524362 42.56743829 42.375 41.625 C41.85292969 41.15578125 41.33085937 40.6865625 40.79296875 40.203125 C39.20819218 38.78660866 37.60715252 37.39104843 36 36 C35.44989258 35.5162793 34.89978516 35.03255859 34.33300781 34.53417969 C31.56482833 31.85266436 31.56482833 31.85266436 28 31 Z M49 49 C50.44077046 52.36179774 52.24750021 54.59156268 55 57 C55.66 57 56.32 57 57 57 C57 57.66 57 58.32 57 59 C58.55855981 60.35712166 58.55855981 60.35712166 60.5 61.625 C61.1496875 62.07101562 61.799375 62.51703125 62.46875 62.9765625 C62.9740625 63.31429687 63.479375 63.65203125 64 64 C64.34108833 60.87409863 64.34108833 60.87409863 61.98828125 58.84375 C61.10527344 58.0703125 60.22226562 57.296875 59.3125 56.5 C58.44238281 55.7265625 57.57226562 54.953125 56.67578125 54.15625 C54.21085305 52.1699137 51.75520687 50.54887305 49 49 Z M65 63 C64.96474868 64.88658874 64.96474868 64.88658874 66 67 C68.24164322 68.59501537 70.53566643 69.74543018 73 71 C73 70.34 73 69.68 73 69 C72.34 69 71.68 69 71 69 C70.67 68.01 70.34 67.02 70 66 C67.50240018 64.30117552 67.50240018 64.30117552 65 63 Z M136 66 C136.66 66.66 137.32 67.32 138 68 C138.99 67.67 139.98 67.34 141 67 C139.35 66.67 137.7 66.34 136 66 Z M155 67 C156 69 156 69 156 69 Z M75 72 C75.66 73.32 76.32 74.64 77 76 C77.99 76.33 78.98 76.66 80 77 C80.33 77.99 80.66 78.98 81 80 C81.66 79.34 82.32 78.68 83 78 C80.36 76.02 77.72 74.04 75 72 Z M82 80 C83.10091165 81.10091165 84.202202 82.20144571 85.3046875 83.30078125 C86.60658843 84.60568195 87.9023052 85.91675493 89.1953125 87.23046875 C89.97648437 88.02066406 90.75765625 88.81085938 91.5625 89.625 C92.30628906 90.38039063 93.05007813 91.13578125 93.81640625 91.9140625 C97.36392726 95.63730215 97.36392726 95.63730215 102 97 C102.226875 97.598125 102.45375 98.19625 102.6875 98.8125 C104.33651464 101.56085774 106.27359268 102.39211876 109 104 C109.33 104.99 109.66 105.98 110 107 C112.31 107.33 114.62 107.66 117 108 C113.24324189 104.13711878 109.29982308 100.6039718 105.1875 97.125 C103.94105279 96.06551987 102.69495687 95.00562629 101.44921875 93.9453125 C100.85415527 93.4390332 100.2590918 92.93275391 99.64599609 92.41113281 C97.57324512 90.63413776 95.53574749 88.81917861 93.5 87 C88.35791117 82.11265148 88.35791117 82.11265148 82 80 Z M107 91 C107 91.99 107 92.98 107 94 C108.5354878 95.46090788 108.5354878 95.46090788 110.5 96.6875 C111.1496875 97.12449219 111.799375 97.56148438 112.46875 98.01171875 C112.9740625 98.33785156 113.479375 98.66398437 114 99 C114 98.01 114 97.02 114 96 C112.4645122 94.53909212 112.4645122 94.53909212 110.5 93.3125 C109.8503125 92.87550781 109.200625 92.43851562 108.53125 91.98828125 C108.0259375 91.66214844 107.520625 91.33601563 107 91 Z M117 108 C116.67 108.66 116.34 109.32 116 110 C116.99 109.67 117.98 109.34 119 109 C118.34 108.67 117.68 108.34 117 108 Z M124 114 C124.99 115.485 124.99 115.485 126 117 C126.66 116.67 127.32 116.34 128 116 C126.68 115.34 125.36 114.68 124 114 Z M128 117 C128.66 117.66 129.32 118.32 130 119 C130 118.34 130 117.68 130 117 C129.34 117 128.68 117 128 117 Z M120 118 C120 118.66 120 119.32 120 120 C120.66 119.67 121.32 119.34 122 119 C121.34 118.67 120.68 118.34 120 118 Z M124 122 C124.99 123.485 124.99 123.485 126 125 C126.66 124.67 127.32 124.34 128 124 C126.68 123.34 125.36 122.68 124 122 Z M129 126 C129.33 126.66 129.66 127.32 130 128 C130.66 127.67 131.32 127.34 132 127 C131.01 126.67 130.02 126.34 129 126 Z M134 130 C134.33 130.66 134.66 131.32 135 132 C135.66 131.67 136.32 131.34 137 131 C136.01 130.67 135.02 130.34 134 130 Z M141 135 C141 135.66 141 136.32 141 137 C141.66 136.67 142.32 136.34 143 136 C142.34 135.67 141.68 135.34 141 135 Z " fill="#FCFCFC" transform="translate(417,311)"/>
<path d="M0 0 C0.98613281 0.00322266 1.97226562 0.00644531 2.98828125 0.00976562 C4.02082031 0.01814453 5.05335938 0.02652344 6.1171875 0.03515625 C7.67759766 0.04192383 7.67759766 0.04192383 9.26953125 0.04882812 C11.84380712 0.06063673 14.41796896 0.0771055 16.9921875 0.09765625 C17.33886475 0.71584229 17.68554199 1.33402832 18.04272461 1.97094727 C24.86080392 14.1158976 31.72676508 26.2139033 38.9921875 38.09765625 C43.18679122 33.04315876 46.27925882 27.61838668 49.4921875 21.91015625 C50.06066406 20.91951172 50.62914062 19.92886719 51.21484375 18.90820312 C51.77042969 17.92529297 52.32601562 16.94238281 52.8984375 15.9296875 C53.39666016 15.05030518 53.89488281 14.17092285 54.40820312 13.26489258 C56.54066483 9.0009552 58.22160198 4.52412005 59.9921875 0.09765625 C67.9121875 0.09765625 75.8321875 0.09765625 83.9921875 0.09765625 C83.9921875 1.08765625 83.9921875 2.07765625 83.9921875 3.09765625 C83.1779834 3.43410156 82.3637793 3.77054688 81.52490234 4.1171875 C78.82344882 5.79438878 78.82344882 5.79438878 78.53839111 8.19677734 C78.39503124 11.07072108 78.40512527 13.90822183 78.46875 16.78515625 C78.47345306 17.83920654 78.47815613 18.89325684 78.48300171 19.97924805 C78.50438395 23.3527101 78.56101812 26.72461277 78.6171875 30.09765625 C78.63368971 32.37107898 78.64803904 34.64451842 78.66015625 36.91796875 C78.69414838 41.07832867 78.72905942 45.2385194 78.79931641 49.3984375 C78.81217682 50.23544189 78.82503723 51.07244629 78.83828735 51.93481445 C78.91531567 54.28053332 78.91531567 54.28053332 79.9921875 57.09765625 C81.3121875 57.09765625 82.6321875 57.09765625 83.9921875 57.09765625 C83.9921875 58.08765625 83.9921875 59.07765625 83.9921875 60.09765625 C74.4221875 60.09765625 64.8521875 60.09765625 54.9921875 60.09765625 C54.9921875 59.43765625 54.9921875 58.77765625 54.9921875 58.09765625 C55.6315625 57.85015625 56.2709375 57.60265625 56.9296875 57.34765625 C59.09453056 56.32310463 59.09453056 56.32310463 59.61499023 54.48144531 C60.13367297 51.20350472 60.10301266 48.0255956 60.08984375 44.70703125 C60.0884288 44.0024176 60.08701385 43.29780396 60.08555603 42.57183838 C60.07997683 40.33040041 60.06742823 38.08906382 60.0546875 35.84765625 C60.04966981 34.3242202 60.04510737 32.80078257 60.04101562 31.27734375 C60.03001424 27.55074853 60.01276396 23.82421229 59.9921875 20.09765625 C52.26963738 33.39929277 44.60918862 46.73530586 36.9921875 60.09765625 C33.88251027 59.50440546 33.08641344 59.19726653 30.8046875 56.78515625 C28.9921875 54.09765625 28.9921875 54.09765625 28.6328125 52.36328125 C27.67193203 48.96504546 25.77044951 46.14148975 23.9296875 43.16015625 C23.53136719 42.50644043 23.13304687 41.85272461 22.72265625 41.17919922 C21.89546723 39.82356468 21.06585014 38.46940892 20.23388672 37.11669922 C19.0347721 35.16690018 17.84265338 33.21299598 16.65234375 31.2578125 C13.69195833 25.88779532 13.69195833 25.88779532 9.9921875 21.09765625 C9.9630686 25.63930938 9.9453486 30.18093835 9.9296875 34.72265625 C9.92130859 36.00785156 9.91292969 37.29304687 9.90429688 38.6171875 C9.90107422 39.86113281 9.89785156 41.10507812 9.89453125 42.38671875 C9.88929443 43.52834473 9.88405762 44.6699707 9.87866211 45.84619141 C9.99001557 49.03545026 10.29781821 51.98323922 10.9921875 55.09765625 C13.14747172 57.03069294 15.33667901 57.84232497 17.9921875 59.09765625 C17.9921875 59.42765625 17.9921875 59.75765625 17.9921875 60.09765625 C10.0721875 60.09765625 2.1521875 60.09765625 -6.0078125 60.09765625 C-4.0078125 58.09765625 -2.0078125 56.09765625 -0.0078125 54.09765625 C0.15023218 52.56832498 0.24333501 51.0321841 0.30859375 49.49609375 C0.35064941 48.53783691 0.39270508 47.57958008 0.43603516 46.59228516 C0.47519043 45.56280762 0.5143457 44.53333008 0.5546875 43.47265625 C0.5964209 42.42899902 0.6381543 41.3853418 0.68115234 40.31005859 C1.32185451 23.67011723 1.32185451 23.67011723 -0.0078125 7.09765625 C-0.9978125 6.76765625 -1.9878125 6.43765625 -3.0078125 6.09765625 C-4.39358173 4.47432658 -5.73422518 2.8104116 -7.0078125 1.09765625 C-4.50284246 -0.15482877 -2.79927976 -0.01608781 0 0 Z " fill="#FCFCFC" transform="translate(356.0078125,571.90234375)"/>
<path d="M0 0 C6.54323388 8.08281832 10.2145645 16.04065912 9.125 26.625 C7.83337204 33.61498661 5.2142876 39.54988869 0.125 44.625 C-0.535 44.625 -1.195 44.625 -1.875 44.625 C-2.83002158 46.34976911 -2.83002158 46.34976911 -2.875 48.625 C2.16215305 55.64103461 11.13080398 58.43840215 19.3125 59.9375 C20.91444515 60.18171262 22.51798532 60.41674084 24.125 60.625 C23.63 62.11 23.63 62.11 23.125 63.625 C14.3196182 67.22807745 4.70019524 66.19578563 -3.875 62.625 C-7.97149117 60.303655 -11.7300422 57.76588322 -15.0703125 54.4375 C-19.07311177 51.85073278 -22.2959253 52.30898207 -26.9375 52.5625 C-38.83839252 52.86390316 -49.25100791 51.26883443 -58.875 43.625 C-58.875 42.965 -58.875 42.305 -58.875 41.625 C-60.855 42.12 -60.855 42.12 -62.875 42.625 C-63.875 39.625 -63.875 39.625 -63.875 37.625 C-64.52561095 35.95200041 -65.19533324 34.28640763 -65.875 32.625 C-69.06563415 23.87354633 -68.67536408 16.86985182 -65.19921875 8.234375 C-61.00990001 -0.02068375 -54.25658374 -5.17843521 -45.8125 -8.625 C-29.35437896 -12.82707346 -13.27720925 -10.96812938 0 0 Z M-44.75 2.5625 C-48.36467962 7.77189121 -49.23874569 12.027848 -49.1875 18.3125 C-49.18258545 19.02003418 -49.1776709 19.72756836 -49.17260742 20.45654297 C-49.01454335 27.56537317 -47.98255769 34.13782667 -43.6875 40 C-38.8642909 44.50166182 -34.5576665 46.85398533 -27.875 46.875 C-26.5405568 46.81188444 -25.20632032 46.73594336 -23.875 46.625 C-24.80461422 45.47275972 -25.7440125 44.32840824 -26.6875 43.1875 C-27.20957031 42.54941406 -27.73164062 41.91132812 -28.26953125 41.25390625 C-29.88334411 39.3701725 -29.88334411 39.3701725 -32.875 38.625 C-32.545 37.635 -32.215 36.645 -31.875 35.625 C-21.31691344 37.18308656 -21.31691344 37.18308656 -16.875 41.625 C-13.62884316 40.61757201 -12.89784536 39.66780031 -11.26953125 36.6171875 C-9.49154568 32.21205451 -9.33884781 28.01932741 -9.375 23.3125 C-9.37927002 22.47452881 -9.38354004 21.63655762 -9.38793945 20.77319336 C-9.61172829 12.62585631 -11.61478941 6.88521059 -17.4375 1.0625 C-19.65156679 -0.2432317 -21.34517554 -1.00021119 -23.875 -1.375 C-23.215 -1.705 -22.555 -2.035 -21.875 -2.375 C-29.58786068 -7.51690712 -39.12644044 -3.81966291 -44.75 2.5625 Z " fill="#FCFCFC" transform="translate(583.875,581.375)"/>
<path d="M0 0 C5.94072787 -0.0746515 11.8811773 -0.12883772 17.82226562 -0.16479492 C19.83956667 -0.17979884 21.85683556 -0.20020855 23.87402344 -0.22631836 C26.78849263 -0.26307353 29.70252726 -0.27981068 32.6171875 -0.29296875 C33.95062698 -0.31619453 33.95062698 -0.31619453 35.31100464 -0.33988953 C42.66751084 -0.34182751 50.31177251 0.73779097 56.4375 5.125 C60.73372857 9.94515889 62.35228538 15.10920247 62.0625 21.5625 C61.17144274 26.77245727 58.99914919 30.54310833 55 34 C46.94063707 38.44312347 39.27761712 40.15589405 30.125 40.0625 C28.97257812 40.05347656 27.82015625 40.04445313 26.6328125 40.03515625 C25.76398438 40.02355469 24.89515625 40.01195312 24 40 C24.33 40.99 24.66 41.98 25 43 C24.96954727 44.81332157 24.90343345 46.62620389 24.8125 48.4375 C24.718812 52.79508534 24.718812 52.79508534 26.75 56.5625 C29.23008843 58.20228154 29.23008843 58.20228154 33 60 C22.11 60 11.22 60 0 60 C1.65 58.02 3.3 56.04 5 54 C5.73414957 51.55866688 5.73414957 51.55866688 5.64697266 49.08374023 C5.66273346 48.15935654 5.67849426 47.23497284 5.69473267 46.28257751 C5.68461151 45.30116287 5.67449036 44.31974823 5.6640625 43.30859375 C5.66884613 42.28572769 5.67362976 41.26286163 5.67855835 40.20899963 C5.68195155 38.05313574 5.67278992 35.89721999 5.65185547 33.74145508 C5.62505534 30.44430847 5.65163852 27.15055758 5.68359375 23.85351562 C5.68029009 21.75520083 5.67388477 19.65688815 5.6640625 17.55859375 C5.67418365 16.57515488 5.68430481 15.591716 5.69473267 14.57847595 C5.61388527 8.76861686 5.61388527 8.76861686 2.45849609 3.96508789 C1.64719238 3.31660889 0.83588867 2.66812988 0 2 C0 1.34 0 0.68 0 0 Z M23 7 C23.33 15.58 23.66 24.16 24 33 C35.90936204 34.15927951 35.90936204 34.15927951 40.75 30.625 C43.94594134 26.89640177 44.17828336 25.03434964 44.25 20.1875 C44.27578125 19.14980469 44.3015625 18.11210938 44.328125 17.04296875 C43.95408344 13.57417855 43.07568054 11.77889007 41 9 C37.31602884 6.54401923 34.55276192 6.7728468 30.3125 6.875 C26.6928125 6.936875 26.6928125 6.936875 23 7 Z " fill="#FCFCFC" transform="translate(447,572)"/>
<path d="M0 0 C0.99 0.495 0.99 0.495 2 1 C4.10374996 1.15441209 6.21195119 1.24992639 8.3203125 1.31640625 C9.57714844 1.35830078 10.83398438 1.40019531 12.12890625 1.44335938 C14.10697266 1.50233398 14.10697266 1.50233398 16.125 1.5625 C17.46485751 1.60569512 18.80470156 1.64930973 20.14453125 1.69335938 C23.42957815 1.79970981 26.71470281 1.90173808 30 2 C30 2.99 30 3.98 30 5 C29.18724609 5.39872314 28.37449219 5.79744629 27.53710938 6.20825195 C24.61753994 7.82518764 24.61753994 7.82518764 24.38476562 11.42651367 C24.36526731 12.84021571 24.37428554 14.25449363 24.40625 15.66796875 C24.40620972 16.42161209 24.40616943 17.17525543 24.40612793 17.95173645 C24.4114888 19.54806848 24.42909624 21.14439932 24.45800781 22.74047852 C24.49955914 25.16180952 24.49910149 27.58032865 24.4921875 30.00195312 C24.502692 31.5573107 24.51563686 33.11265407 24.53125 34.66796875 C24.53155212 35.74028999 24.53155212 35.74028999 24.53186035 36.83427429 C24.6766505 43.11692966 25.85207876 48.90577679 30.5 53.4375 C35.98527299 56.86579562 41.72571503 56.54006504 48 56 C51.26923441 55.23198938 53.46151103 54.19048508 56 52 C60.12725879 44.8523708 59.37801554 36.26146493 59.25 28.3125 C59.24226563 26.37407227 59.24226563 26.37407227 59.234375 24.39648438 C59.18819326 18.80560756 59.03735111 13.50638026 58 8 C57.34 8 56.68 8 56 8 C55.505 7.01 55.505 7.01 55 6 C54.01 5.34 53.02 4.68 52 4 C52.33 3.34 52.66 2.68 53 2 C62.9 1.505 62.9 1.505 73 1 C73 2.32 73 3.64 73 5 C72.35039307 5.41032471 71.70078613 5.82064941 71.03149414 6.2434082 C68.60175234 7.95387556 68.60175234 7.95387556 68.50170898 11.61010742 C68.48067089 13.10841467 68.48014519 14.60709868 68.49609375 16.10546875 C68.48667252 16.90350418 68.47725128 17.70153961 68.46754456 18.52375793 C68.43885564 21.07859818 68.43581576 23.63251169 68.4375 26.1875 C68.43387882 28.72450134 68.42415436 31.26082223 68.39674377 33.79768372 C68.38011529 35.37481742 68.37695231 36.95217325 68.38975525 38.52934265 C68.32709719 45.17875203 66.87408007 51.77946024 62.125 56.75 C55.17390584 63.14500663 45.13090965 64.68294556 35.98046875 64.3203125 C26.07969663 63.25627146 16.6183748 60.8115849 10.125 52.8125 C2.22848227 40.41125739 4.84158184 20.2224301 5 6 C3.35 5.67 1.7 5.34 0 5 C0 3.35 0 1.7 0 0 Z " fill="#FCFCFB" transform="translate(272,570)"/>
<path d="M0 0 C3.0833134 -0.02911321 6.16659125 -0.04683682 9.25 -0.0625 C10.12269531 -0.07087891 10.99539063 -0.07925781 11.89453125 -0.08789062 C12.73886719 -0.09111328 13.58320312 -0.09433594 14.453125 -0.09765625 C15.22817383 -0.10289307 16.00322266 -0.10812988 16.80175781 -0.11352539 C18.99283598 -0.00036998 20.89637861 0.39447552 23 1 C22.67 1.99 22.34 2.98 22 4 C20.74799805 4.57995728 20.74799805 4.57995728 19.47070312 5.17163086 C16.58216895 6.86239161 16.58216895 6.86239161 16.41992188 10.67016602 C16.41256895 12.19814842 16.43054404 13.72638387 16.46875 15.25390625 C16.46548706 16.06939438 16.46222412 16.88488251 16.4588623 17.7250824 C16.44572899 21.20892185 16.49006962 24.6914754 16.52978516 28.17504883 C16.62339381 39.69870912 16.41208648 48.07427163 9.05859375 57.484375 C1.20700482 63.26505148 -9.6231141 63.93768859 -19 63 C-27.85686835 61.59586233 -35.47389507 59.17565058 -41.375 52.1875 C-44.56408722 45.93198276 -45.27656 39.8927233 -45.203125 32.95703125 C-45.21366182 31.45637144 -45.22541612 29.95571978 -45.23828125 28.45507812 C-45.24862579 26.12435382 -45.24984899 23.79478567 -45.22998047 21.46411133 C-45.2152023 19.18994245 -45.23765173 16.9185227 -45.265625 14.64453125 C-45.25025696 13.95172562 -45.23488892 13.25891998 -45.21905518 12.54512024 C-45.27566336 9.71947164 -45.46251969 7.60165053 -47.38464355 5.45004272 C-48.86855793 4.23046661 -50.43065745 3.10748893 -52 2 C-52 1.67 -52 1.34 -52 1 C-42.1 1 -32.2 1 -22 1 C-22.66 2.32 -23.32 3.64 -24 5 C-24.99 5.33 -25.98 5.66 -27 6 C-28.76072853 29.80137894 -28.76072853 29.80137894 -23 52 C-17.11982052 55.75330605 -10.82175732 55.80522069 -4 55 C0.44326214 53.74367828 3.12735434 52.41820081 5.58081055 48.4309082 C7.24775723 44.40104381 7.39889405 40.92660688 7.328125 36.64453125 C7.32625183 35.86107834 7.32437866 35.07762543 7.32244873 34.27043152 C7.31575809 32.62401028 7.30190344 30.97760412 7.28125 29.33129883 C7.24996785 26.80990848 7.24026135 24.28914376 7.234375 21.76757812 C7.22520886 20.16405486 7.21483434 18.56053796 7.203125 16.95703125 C7.19887512 16.20388138 7.19462524 15.45073151 7.19024658 14.67475891 C7.14709813 11.52580387 7.00295293 9.0088588 6 6 C2.99992729 4.29144978 2.99992729 4.29144978 0 3 C0 2.01 0 1.02 0 0 Z " fill="#FBFCFB" transform="translate(648,571)"/>
<path d="M0 0 C8.97580941 4.74193705 8.97580941 4.74193705 10.75219727 10.39282227 C11 13 11 13 9.86303711 14.93725586 C9.2778833 15.54448486 8.69272949 16.15171387 8.08984375 16.77734375 C7.43999512 17.46425293 6.79014648 18.15116211 6.12060547 18.85888672 C5.42080566 19.5654541 4.72100586 20.27202148 4 21 C3.32469238 21.70012207 2.64938477 22.40024414 1.95361328 23.12158203 C-0.15621145 25.28999921 -2.29241152 27.42899615 -4.4375 29.5625 C-5.14970703 30.27857422 -5.86191406 30.99464844 -6.59570312 31.73242188 C-10.66138826 35.79072157 -14.82451382 39.67131621 -19.17602539 43.42114258 C-21.66921617 45.57928269 -24.08091573 47.82193249 -26.5 50.0625 C-30.33334942 53.56529634 -34.21848952 56.82361828 -38.44140625 59.84375 C-40.14989071 61.05215721 -40.14989071 61.05215721 -42 63 C-46.39774274 64.10125896 -50.8985615 64.72362578 -55.24609375 63.2265625 C-57.91486109 61.57314739 -59.52336067 60.02292459 -60.85546875 57.1640625 C-61.55718225 54.12930155 -61.41960298 51.95240117 -60.16015625 49.09375 C-56.17255649 43.17901236 -50.30752042 38.78967003 -44.828125 34.3203125 C-42.06667546 32.13211411 -42.06667546 32.13211411 -40 30 C-38.69923882 29.12806119 -37.38463076 28.27668245 -36.0625 27.4375 C-32.54187612 25.12012732 -29.29002284 22.64702535 -26.0625 19.9375 C-21.00168739 15.72736529 -15.76325027 11.80631967 -10.4375 7.9375 C-9.23975952 7.06049438 -9.23975952 7.06049438 -8.01782227 6.16577148 C-7.26815186 5.62509033 -6.51848145 5.08440918 -5.74609375 4.52734375 C-5.07247803 4.03999756 -4.3988623 3.55265137 -3.70483398 3.05053711 C-2 2 -2 2 0 2 C0 1.34 0 0.68 0 0 Z " fill="#FDFDFD" transform="translate(497,417)"/>
<path d="M0 0 C5.61 0 11.22 0 17 0 C17.9590625 2.05992187 18.918125 4.11984375 19.90625 6.2421875 C20.9048325 8.38109182 21.90468876 10.51939593 22.90478516 12.65759277 C23.64085867 14.23188107 24.37619884 15.80651244 25.11083984 17.38146973 C27.47146614 22.43854044 29.85489978 27.48404383 32.26123047 32.51953125 C33.0940262 34.27112685 33.91977009 36.02609101 34.73876953 37.78417969 C35.94365005 40.36749691 37.17230819 42.93827426 38.40625 45.5078125 C38.76376343 46.28802765 39.12127686 47.0682428 39.48962402 47.87210083 C42.13017137 53.28233492 44.91853094 55.78662724 50 59 C50 59.33 50 59.66 50 60 C40.43 60 30.86 60 21 60 C21.99 59.01 22.98 58.02 24 57 C23.67 56.34 23.34 55.68 23 55 C23.66 55 24.32 55 25 55 C23.02 50.71 21.04 46.42 19 42 C10.42 42 1.84 42 -7 42 C-8.65 45.96 -10.3 49.92 -12 54 C-10.515 54.495 -10.515 54.495 -9 55 C-9.33 55.33 -9.66 55.66 -10 56 C-8.68 56.66 -7.36 57.32 -6 58 C-6 58.66 -6 59.32 -6 60 C-13.26 60 -20.52 60 -28 60 C-28 59.34 -28 58.68 -28 58 C-27.21625 57.9175 -26.4325 57.835 -25.625 57.75 C-22.9072715 57.3022854 -22.9072715 57.3022854 -21.99853516 55.26855469 C-21.66901855 54.51993164 -21.33950195 53.77130859 -21 53 C-20.59958496 52.22817383 -20.19916992 51.45634766 -19.78662109 50.66113281 C-14.94644697 41.21913291 -10.80046869 31.49901565 -6.625 21.75 C-5.8818322 20.02199699 -5.13834485 18.29413138 -4.39453125 16.56640625 C-2.59267191 12.37917659 -0.7951275 8.19011986 1 4 C0.34 4 -0.32 4 -1 4 C-0.67 2.68 -0.34 1.36 0 0 Z M5 13 C3.49699373 16.31114413 1.99810044 19.62413372 0.5 22.9375 C0.07074219 23.88302734 -0.35851562 24.82855469 -0.80078125 25.80273438 C-1.20683594 26.70185547 -1.61289062 27.60097656 -2.03125 28.52734375 C-2.40830078 29.35999756 -2.78535156 30.19265137 -3.17382812 31.05053711 C-4.0650334 32.80057141 -4.0650334 32.80057141 -4 34 C2.27 34 8.54 34 15 34 C13.47207177 28.36738803 13.47207177 28.36738803 11.2734375 23.25390625 C10.9640625 22.64482422 10.6546875 22.03574219 10.3359375 21.40820312 C10.01882813 20.79912109 9.70171875 20.19003906 9.375 19.5625 C9.05015625 18.92634766 8.7253125 18.29019531 8.390625 17.63476562 C7.59928647 16.08700056 6.8004333 14.5430813 6 13 C5.67 13 5.34 13 5 13 Z " fill="#FCFCFC" transform="translate(695,572)"/>
<path d="M0 0 C6.93 0.33 13.86 0.66 21 1 C21.33 1.66 21.66 2.32 22 3 C20.35 3.66 18.7 4.32 17 5 C17 15.89 17 26.78 17 38 C28.24329378 37.54744113 28.24329378 37.54744113 36 32 C37.15941038 35.47823115 36.70820884 37.45895578 36 41 C40.7711473 38.73117094 42.1076506 36.41873324 44.04296875 31.57421875 C44.2975032 30.94900833 44.55203766 30.32379791 44.81428528 29.67964172 C45.62065446 27.68802046 46.40404024 25.68822811 47.1875 23.6875 C47.72446678 22.35423496 48.26286491 21.02154545 48.80273438 19.68945312 C52.19261 11.44699744 52.19261 11.44699744 55 3 C54.505 2.01 54.505 2.01 54 1 C57.96 1 61.92 1 66 1 C66.598125 2.65 67.19625 4.3 67.8125 6 C70.9282291 14.16067419 74.63374552 22.04116079 78.34106445 29.94726562 C78.8124585 30.95853516 79.28385254 31.96980469 79.76953125 33.01171875 C80.19854736 33.92397217 80.62756348 34.83622559 81.06958008 35.77612305 C82 38 82 38 82 40 C83.98 40.66 85.96 41.32 88 42 C87.505 42.99 87.505 42.99 87 44 C77.1 44.495 77.1 44.495 67 45 C67.33 44.01 67.66 43.02 68 42 C68.66 42 69.32 42 70 42 C69.52269162 40.5410574 69.04308958 39.08286504 68.5625 37.625 C68.29566406 36.81289063 68.02882813 36.00078125 67.75390625 35.1640625 C67.04820271 32.98968201 67.04820271 32.98968201 66 31 C63.28553021 30.68758545 60.66090639 30.48663408 57.9375 30.375 C57.17888672 30.33632813 56.42027344 30.29765625 55.63867188 30.2578125 C53.75952805 30.16326438 51.87979664 30.08053244 50 30 C49.34 33.3 48.68 36.6 48 40 C48.99 40.66 49.98 41.32 51 42 C51 42.66 51 43.32 51 44 C42.09 44 33.18 44 24 44 C23.67 44.66 23.34 45.32 23 46 C23 45.34 23 44.68 23 44 C15.41 44.33 7.82 44.66 0 45 C0.33 43.35 0.66 41.7 1 40 C1.99 40.33 2.98 40.66 4 41 C4.02922653 36.50001382 4.04687482 32.00005235 4.0625 27.5 C4.07087891 26.2315625 4.07925781 24.963125 4.08789062 23.65625 C4.2054571 14.26992667 4.2054571 14.26992667 3 5 C2.01 4.34 1.02 3.68 0 3 C0 2.01 0 1.02 0 0 Z M58 11 C54.75441594 17.75505602 54.75441594 17.75505602 53 25 C53.99 25 54.98 25 56 25 C57.5159375 25.061875 57.5159375 25.061875 59.0625 25.125 C62.12447731 25.32645936 62.12447731 25.32645936 64 23 C63.34 22.34 62.68 21.68 62 21 C61.64080332 19.33871537 61.31088368 17.67099977 61 16 C60.36562656 14.3207762 59.70710678 12.64991582 59 11 C58.67 11 58.34 11 58 11 Z " fill="#FBFBFA" transform="translate(368,506)"/>
<path d="M0 0 C0.87454834 0.04713135 1.74909668 0.0942627 2.65014648 0.14282227 C4.06650391 0.21533203 4.06650391 0.21533203 5.51147461 0.28930664 C7.00130859 0.37341797 7.00130859 0.37341797 8.52124023 0.45922852 C9.51833008 0.51143555 10.51541992 0.56364258 11.54272461 0.61743164 C14.01501545 0.74755221 16.48694653 0.88253033 18.95874023 1.02172852 C17.95874023 4.02172852 17.95874023 4.02172852 14.95874023 6.02172852 C14.47341587 9.22205322 14.47341587 9.22205322 14.52514648 13.00610352 C14.51990463 13.69931702 14.51466278 14.39253052 14.50926208 15.10675049 C14.50283342 16.57611757 14.50418986 18.04553605 14.51269531 19.51489258 C14.52115756 21.74989329 14.49254069 23.98229626 14.46069336 26.21704102 C14.45907988 27.64672775 14.45966169 29.07641898 14.46264648 30.50610352 C14.46079346 31.80257812 14.45894043 33.09905273 14.45703125 34.43481445 C14.79038637 38.70973439 14.79038637 38.70973439 18.95874023 44.02172852 C12.02874023 44.02172852 5.09874023 44.02172852 -2.04125977 44.02172852 C-2.37125977 43.03172852 -2.70125977 42.04172852 -3.04125977 41.02172852 C-0.56625977 40.52672852 -0.56625977 40.52672852 1.95874023 40.02172852 C2.28874023 34.74172852 2.61874023 29.46172852 2.95874023 24.02172852 C-2.65125977 24.02172852 -8.26125977 24.02172852 -14.04125977 24.02172852 C-13.71125977 25.67172852 -13.38125977 27.32172852 -13.04125977 29.02172852 C-12.82763821 31.84628018 -12.66507192 34.66954765 -12.51782227 37.49829102 C-11.9784561 40.3542791 -11.22049892 41.19209992 -9.04125977 43.02172852 C-9.04125977 43.35172852 -9.04125977 43.68172852 -9.04125977 44.02172852 C-12.16618228 44.07964695 -15.29096742 44.11529598 -18.41625977 44.14672852 C-19.30571289 44.16348633 -20.19516602 44.18024414 -21.11157227 44.19750977 C-22.38774414 44.20717773 -22.38774414 44.20717773 -23.68969727 44.21704102 C-24.86798096 44.23275146 -24.86798096 44.23275146 -26.07006836 44.2487793 C-28.04125977 44.02172852 -28.04125977 44.02172852 -30.04125977 42.02172852 C-28.06125977 41.52672852 -28.06125977 41.52672852 -26.04125977 41.02172852 C-25.96712456 35.94973963 -25.91266526 30.87806583 -25.87646484 25.80566406 C-25.86137461 24.08002224 -25.84090001 22.3544188 -25.81494141 20.62890625 C-25.77856768 18.14907364 -25.76153618 15.66974788 -25.74829102 13.18969727 C-25.72506523 12.03173897 -25.72506523 12.03173897 -25.70137024 10.85038757 C-25.65532977 6.63960323 -25.65532977 6.63960323 -27.55957031 3.01123047 C-28.04852783 2.68469482 -28.53748535 2.35815918 -29.04125977 2.02172852 C-28.04125977 1.02172852 -28.04125977 1.02172852 -26.27539062 0.90820312 C-25.52652588 0.91343994 -24.77766113 0.91867676 -24.00610352 0.92407227 C-23.1972168 0.92729492 -22.38833008 0.93051758 -21.55493164 0.93383789 C-20.70479492 0.9422168 -19.8546582 0.9505957 -18.97875977 0.95922852 C-18.12475586 0.96374023 -17.27075195 0.96825195 -16.39086914 0.97290039 C-14.27430313 0.98472478 -12.15777292 1.00266083 -10.04125977 1.02172852 C-10.53239258 1.7165332 -11.02352539 2.41133789 -11.52954102 3.12719727 C-13.28954436 6.49712614 -13.35302557 8.56483236 -13.22875977 12.33422852 C-13.16688477 14.21110352 -13.10500977 16.08797852 -13.04125977 18.02172852 C-7.76125977 18.02172852 -2.48125977 18.02172852 2.95874023 18.02172852 C2.89686523 15.95922852 2.83499023 13.89672852 2.77124023 11.77172852 C2.7190332 10.03149414 2.7190332 10.03149414 2.66577148 8.25610352 C1.78656929 4.2341178 0.34982808 3.20673567 -3.04125977 1.02172852 C-2.04125977 0.02172852 -2.04125977 0.02172852 0 0 Z " fill="#FBFBFB" transform="translate(635.041259765625,505.978271484375)"/>
<path d="M0 0 C0.86044922 0.25136719 0.86044922 0.25136719 1.73828125 0.5078125 C4.02943864 1.00640634 5.85570998 1.00242022 8.1875 0.875 C13.77737087 0.83816395 19.22483723 1.70057942 23.640625 5.359375 C26.32084513 8.34766641 28 10.98314409 28 15 C27.3343427 19.18522463 26.42081038 22.72648746 23.19140625 25.62109375 C21.17702052 26.90436027 19.15670246 27.977278 17 29 C16.21625 29.45375 15.4325 29.9075 14.625 30.375 C10.33374282 31.3967279 6.35091127 30.5801215 2 30 C2 33.63 2 37.26 2 41 C2.66 41 3.32 41 4 41 C4 41.66 4 42.32 4 43 C5.32 43.33 6.64 43.66 8 44 C5.23434618 44.92188461 3.61716298 45.11785222 0.76953125 45.09765625 C-0.03291016 45.09443359 -0.83535156 45.09121094 -1.66210938 45.08789062 C-2.49548828 45.07951172 -3.32886719 45.07113281 -4.1875 45.0625 C-5.4549707 45.05573242 -5.4549707 45.05573242 -6.74804688 45.04882812 C-8.83206155 45.03705403 -10.91603977 45.0191189 -13 45 C-13.33 43.35 -13.66 41.7 -14 40 C-12.68 39.34 -11.36 38.68 -10 38 C-9.92580866 33.78250781 -9.8713796 29.56536189 -9.83520508 25.34741211 C-9.82012411 23.91277448 -9.7996562 22.47818292 -9.77368164 21.04370117 C-9.73726563 18.98084141 -9.72026757 16.91859142 -9.70703125 14.85546875 C-9.6913208 13.61434326 -9.67561035 12.37321777 -9.65942383 11.09448242 C-10.03293601 7.70074267 -10.45452425 7.07541794 -13 5 C-13.33 4.01 -13.66 3.02 -14 2 C-9.38 2 -4.76 2 0 2 C0 1.34 0 0.68 0 0 Z M3 6 C1.80658248 6.97332261 1.80658248 6.97332261 1.88647461 8.76586914 C1.89171143 9.51473389 1.89694824 10.26359863 1.90234375 11.03515625 C1.90556641 11.84404297 1.90878906 12.65292969 1.91210938 13.48632812 C1.92048828 14.33646484 1.92886719 15.18660156 1.9375 16.0625 C1.94201172 16.91650391 1.94652344 17.77050781 1.95117188 18.65039062 C1.96299627 20.76695663 1.98093231 22.88348685 2 25 C3.60517097 24.91266424 5.20921662 24.80447776 6.8125 24.6875 C7.70582031 24.62949219 8.59914063 24.57148437 9.51953125 24.51171875 C12.40959054 23.9155018 13.36872951 23.44956252 15 21 C15.47551123 18.36482342 15.47551123 18.36482342 15.375 15.5 C15.38273437 14.5409375 15.39046875 13.581875 15.3984375 12.59375 C15.19247895 10.00137396 15.19247895 10.00137396 13.765625 8.203125 C11.57685747 6.71166394 10.00346625 6.47260626 7.375 6.25 C6.57835937 6.17265625 5.78171875 6.0953125 4.9609375 6.015625 C3.99027344 6.00789063 3.99027344 6.00789063 3 6 Z " fill="#FAFBFA" transform="translate(336,505)"/>
<path d="M0 0 C2.375 -0.1875 2.375 -0.1875 5 0 C5.66 0.99 6.32 1.98 7 3 C7.33 2.34 7.66 1.68 8 1 C8 1.66 8 2.32 8 3 C16.58 3 25.16 3 34 3 C34.495 7.95 34.495 7.95 35 13 C34.01 13 33.02 13 32 13 C31.40703125 12.35546875 30.8140625 11.7109375 30.203125 11.046875 C27.35036283 8.39643639 25.58782883 8.41686212 21.75 8.25 C20.67234375 8.19328125 19.5946875 8.1365625 18.484375 8.078125 C17.66453125 8.05234375 16.8446875 8.0265625 16 8 C16.185625 9.216875 16.37125 10.43375 16.5625 11.6875 C16.98993182 15.02977939 16.92258883 17.71968417 16 21 C17.58409994 20.88512252 19.16728963 20.75765492 20.75 20.625 C21.63171875 20.55539062 22.5134375 20.48578125 23.421875 20.4140625 C25.99066382 20.00149945 27.75841015 19.28839043 30 18 C32.125 24.625 32.125 24.625 31 28 C31.33 28.66 31.66 29.32 32 30 C31.34 30 30.68 30 30 30 C29.67 30.66 29.34 31.32 29 32 C28.34 31.01 27.68 30.02 27 29 C26.01 29.66 25.02 30.32 24 31 C23.67 29.68 23.34 28.36 23 27 C21.02 26.67 19.04 26.34 17 26 C16.97294271 27.77074917 16.95357805 29.54161711 16.9375 31.3125 C16.92589844 32.29863281 16.91429687 33.28476562 16.90234375 34.30078125 C16.87670138 37.09963849 16.87670138 37.09963849 18 40 C24.13386604 40.37554282 28.60291384 40.08404923 34 37 C35.4818964 34.9648239 35.4818964 34.9648239 36 33 C36.99 33.495 36.99 33.495 38 34 C37.69106068 35.6256807 37.3777305 37.25052748 37.0625 38.875 C36.88847656 39.77992188 36.71445312 40.68484375 36.53515625 41.6171875 C36 44 36 44 35 46 C23.78 46 12.56 46 1 46 C1.99 44.68 2.98 43.36 4 42 C3.67 41.34 3.34 40.68 3 40 C3.66 40 4.32 40 5 40 C4.9558157 35.3728374 4.88595343 30.74703538 4.79248047 26.12060547 C4.76429046 24.54747356 4.74306602 22.97420053 4.72900391 21.40087891 C4.70754558 19.13631044 4.66088652 16.87343496 4.609375 14.609375 C4.60814636 13.90818542 4.60691772 13.20699585 4.60565186 12.48455811 C4.50207323 9.0156794 4.30855729 7.3464062 1.96191406 4.71191406 C1.31448242 4.14698242 0.66705078 3.58205078 0 3 C0 2.01 0 1.02 0 0 Z " fill="#FAFAF9" transform="translate(496,504)"/>
<path d="M0 0 C1.29550781 0.04833984 2.59101562 0.09667969 3.92578125 0.14648438 C5.28906763 0.20300129 6.65234883 0.25964351 8.015625 0.31640625 C9.39451112 0.36966447 10.77341735 0.42240459 12.15234375 0.47460938 C15.52367033 0.60427578 18.89470018 0.73924279 22.265625 0.87890625 C22.99043658 4.95383122 23.36427507 8.73560337 23.265625 12.87890625 C22.5025 12.07453125 21.739375 11.27015625 20.953125 10.44140625 C17.28510302 6.94398994 14.46396646 6.71876966 9.578125 6.31640625 C7.825 6.17203125 6.071875 6.02765625 4.265625 5.87890625 C4.265625 10.16890625 4.265625 14.45890625 4.265625 18.87890625 C11.81648086 18.22065793 11.81648086 18.22065793 19.265625 16.87890625 C19.265625 20.17890625 19.265625 23.47890625 19.265625 26.87890625 C18.54375 26.69328125 17.821875 26.50765625 17.078125 26.31640625 C14.13735527 25.85895318 12.12459442 26.14374268 9.265625 26.87890625 C9.265625 25.88890625 9.265625 24.89890625 9.265625 23.87890625 C7.615625 23.87890625 5.965625 23.87890625 4.265625 23.87890625 C4.265625 28.49890625 4.265625 33.11890625 4.265625 37.87890625 C14.21102029 38.31888728 14.21102029 38.31888728 23.265625 34.87890625 C23.760625 33.88890625 23.760625 33.88890625 24.265625 32.87890625 C24.925625 32.87890625 25.585625 32.87890625 26.265625 32.87890625 C25.390625 40.50390625 25.390625 40.50390625 24.265625 43.87890625 C12.055625 43.87890625 -0.154375 43.87890625 -12.734375 43.87890625 C-12.734375 42.88890625 -12.734375 41.89890625 -12.734375 40.87890625 C-10.259375 40.38390625 -10.259375 40.38390625 -7.734375 39.87890625 C-7.66032763 34.93102311 -7.60582254 29.98346101 -7.56958008 25.03515625 C-7.55447497 23.35117985 -7.53398954 21.6672429 -7.50805664 19.98339844 C-7.47174779 17.56565632 -7.45466653 15.14843333 -7.44140625 12.73046875 C-7.41818047 11.59757919 -7.41818047 11.59757919 -7.39448547 10.44180298 C-7.3587519 8.09482544 -7.3587519 8.09482544 -7.734375 4.87890625 C-8.724375 4.21890625 -9.714375 3.55890625 -10.734375 2.87890625 C-10.734375 2.21890625 -10.734375 1.55890625 -10.734375 0.87890625 C-7.09754317 -0.29007541 -3.79602962 -0.14984327 0 0 Z " fill="#FAFBFA" transform="translate(669.734375,506.12109375)"/>
<path d="M0 0 C0.66 0.33 1.32 0.66 2 1 C2.34716797 3.17382813 2.34716797 3.17382813 2.4921875 6.03125 C2.55792969 7.07023438 2.62367188 8.10921875 2.69140625 9.1796875 C2.81205606 11.36165218 2.92681843 13.54395187 3.03515625 15.7265625 C3.45975637 22.24777951 3.88475855 28.66169478 8 34 C13.79332134 38.25471772 21.11324884 38.92788956 28.0625 39.75 C29.50399414 39.93755859 29.50399414 39.93755859 30.97460938 40.12890625 C33.31513027 40.4316602 35.65646063 40.7217628 38 41 C37.505 41.99 37.505 41.99 37 43 C34.97802734 43.36303711 34.97802734 43.36303711 32.3359375 43.52734375 C31.37816406 43.59759766 30.42039062 43.66785156 29.43359375 43.74023438 C27.41812114 43.87022335 25.40249683 43.99788418 23.38671875 44.12304688 C15.28092237 44.71487615 15.28092237 44.71487615 8 48 C3.88820058 53.28467854 3.26293543 59.32926639 2.8125 65.8125 C2.67592169 67.48590336 2.53671094 69.1590945 2.39453125 70.83203125 C2.31489136 71.92608276 2.31489136 71.92608276 2.23364258 73.04223633 C2 75 2 75 1 78 C0.34 78 -0.32 78 -1 78 C-1.04898438 76.94941406 -1.09796875 75.89882813 -1.1484375 74.81640625 C-1.53171928 67.35085976 -1.98338156 60.23610148 -4 53 C-4.185625 52.05125 -4.37125 51.1025 -4.5625 50.125 C-6.65310429 47.03454149 -9.23845942 46.48610821 -12.7109375 45.3828125 C-15.19550803 44.96730412 -16.61560306 45.28369968 -19 46 C-19.99 46 -20.98 46 -22 46 C-21.67 45.01 -21.34 44.02 -21 43 C-26.28 43 -31.56 43 -37 43 C-37 42.34 -37 41.68 -37 41 C-36.26885986 40.89453857 -35.53771973 40.78907715 -34.78442383 40.68041992 C-31.45867082 40.19415552 -28.13568351 39.69101265 -24.8125 39.1875 C-23.66201172 39.02185547 -22.51152344 38.85621094 -21.32617188 38.68554688 C-20.21435547 38.51474609 -19.10253906 38.34394531 -17.95703125 38.16796875 C-16.93585205 38.01610107 -15.91467285 37.8642334 -14.86254883 37.70776367 C-11.03313628 36.76094346 -7.99206265 35.39472337 -5.671875 32.1328125 C-5.21554687 31.13894531 -5.21554687 31.13894531 -4.75 30.125 C-4.27820313 29.13886719 -4.27820313 29.13886719 -3.796875 28.1328125 C-2.33407622 24.21767458 -1.87509018 20.32819519 -1.71875 16.171875 C-1.68136719 15.29015625 -1.64398438 14.4084375 -1.60546875 13.5 C-1.53455787 11.65106452 -1.46425538 9.80210561 -1.39453125 7.953125 C-1.35714844 7.0765625 -1.31976563 6.2 -1.28125 5.296875 C-1.25095703 4.49604492 -1.22066406 3.69521484 -1.18945312 2.87011719 C-1 1 -1 1 0 0 Z " fill="#FCFCFB" transform="translate(511,239)"/>
<path d="M0 0 C1.77218729 0.04235793 3.54424443 0.09038445 5.31616211 0.14282227 C6.24698105 0.16643326 7.17779999 0.19004425 8.13682556 0.21437073 C11.12253311 0.29120977 14.10799434 0.37514647 17.09350586 0.45922852 C19.11237384 0.51242896 21.131254 0.56516947 23.15014648 0.61743164 C28.1105902 0.74685216 33.07082419 0.88264032 38.03100586 1.02172852 C37.37100586 1.35172852 36.71100586 1.68172852 36.03100586 2.02172852 C36.52600586 6.97172852 36.52600586 6.97172852 37.03100586 12.02172852 C36.37100586 12.35172852 35.71100586 12.68172852 35.03100586 13.02172852 C34.74225586 12.23797852 34.45350586 11.45422852 34.15600586 10.64672852 C31.6418701 7.5410314 30.71253762 7.51277811 26.89819336 6.85766602 C25.98924316 6.69572754 25.08029297 6.53378906 24.14379883 6.36694336 C23.44657715 6.25302246 22.74935547 6.13910156 22.03100586 6.02172852 C22.07525205 10.6305796 22.14517935 15.23807276 22.23852539 19.84619141 C22.2666828 21.41248748 22.28792339 22.97892427 22.30200195 24.54541016 C22.32350553 26.80256917 22.37018775 29.0580459 22.42163086 31.31469727 C22.4228595 32.01072556 22.42408813 32.70675385 22.425354 33.4238739 C22.58470241 38.75988899 23.36964922 39.44503272 27.03100586 44.02172852 C20.43100586 44.02172852 13.83100586 44.02172852 7.03100586 44.02172852 C7.03100586 43.03172852 7.03100586 42.04172852 7.03100586 41.02172852 C8.02100586 40.52672852 8.02100586 40.52672852 9.03100586 40.02172852 C9.36100586 28.80172852 9.69100586 17.58172852 10.03100586 6.02172852 C1.34781739 6.97964556 1.34781739 6.97964556 -1.53149414 11.14672852 C-2.00586914 12.09547852 -2.48024414 13.04422852 -2.96899414 14.02172852 C-5.44399414 13.03172852 -5.44399414 13.03172852 -7.96899414 12.02172852 C-7.96899414 11.36172852 -7.96899414 10.70172852 -7.96899414 10.02172852 C-6.97899414 10.02172852 -5.98899414 10.02172852 -4.96899414 10.02172852 C-4.9805957 9.38364258 -4.99219727 8.74555664 -5.00415039 8.08813477 C-5.01768555 6.84870117 -5.01768555 6.84870117 -5.03149414 5.58422852 C-5.0430957 4.76051758 -5.05469727 3.93680664 -5.06665039 3.08813477 C-4.88798621 -0.69239936 -3.97664887 0.02177042 0 0 Z " fill="#FAFBFA" transform="translate(455.968994140625,505.978271484375)"/>
<path d="M0 0 C1.6875587 0.04235213 3.37498064 0.09037788 5.06225586 0.14282227 C5.94868271 0.16643326 6.83510956 0.19004425 7.74839783 0.21437073 C10.59145347 0.29120415 13.43425007 0.37514322 16.27709961 0.45922852 C18.19961279 0.51242953 20.12213878 0.56517004 22.04467773 0.61743164 C26.76815039 0.74684577 31.49140249 0.8826347 36.21459961 1.02172852 C37.26162147 4.74813701 37.28902018 8.15185894 37.21459961 12.02172852 C36.55459961 12.02172852 35.89459961 12.02172852 35.21459961 12.02172852 C34.7853418 11.38750977 34.35608398 10.75329102 33.91381836 10.09985352 C31.74714982 7.4500428 30.35865033 7.29093123 27.02709961 6.77172852 C26.12604492 6.62219727 25.22499023 6.47266602 24.29663086 6.31860352 C23.60956055 6.22063477 22.92249023 6.12266602 22.21459961 6.02172852 C22.25878391 10.64889112 22.32864618 15.27469313 22.42211914 19.90112305 C22.45030915 21.47425496 22.47153359 23.04752798 22.4855957 24.62084961 C22.50705403 26.88541808 22.55371309 29.14829356 22.60522461 31.41235352 C22.60645325 32.11354309 22.60768188 32.81473267 22.60894775 33.53717041 C22.713882 37.05144924 22.98565032 38.74363247 25.25268555 41.49731445 C25.90011719 42.00037109 26.54754883 42.50342773 27.21459961 43.02172852 C26.21459961 44.02172852 26.21459961 44.02172852 22.39819336 44.11938477 C20.81613279 44.1127094 19.23408802 44.10074727 17.65209961 44.08422852 C16.84579102 44.0797168 16.03948242 44.07520508 15.20874023 44.07055664 C13.21066205 44.05873369 11.21262178 44.04079766 9.21459961 44.02172852 C8.88459961 44.68172852 8.55459961 45.34172852 8.21459961 46.02172852 C7.21459961 45.02172852 7.21459961 45.02172852 7.15209961 42.45922852 C7.17272461 41.65485352 7.19334961 40.85047852 7.21459961 40.02172852 C8.53459961 39.36172852 9.85459961 38.70172852 11.21459961 38.02172852 C11.21459961 27.46172852 11.21459961 16.90172852 11.21459961 6.02172852 C2.53141114 6.97964556 2.53141114 6.97964556 -0.34790039 11.14672852 C-1.05946289 12.56985352 -1.05946289 12.56985352 -1.78540039 14.02172852 C-2.44540039 13.69172852 -3.10540039 13.36172852 -3.78540039 13.02172852 C-4.23461914 10.33422852 -4.23461914 10.33422852 -4.47290039 7.02172852 C-4.55926758 5.92860352 -4.64563477 4.83547852 -4.73461914 3.70922852 C-4.75137695 2.82235352 -4.76813477 1.93547852 -4.78540039 1.02172852 C-3.78540039 0.02172852 -3.78540039 0.02172852 0 0 Z " fill="#FBFCFB" transform="translate(564.785400390625,505.978271484375)"/>
<path d="M0 0 C0.98613281 0.00322266 1.97226562 0.00644531 2.98828125 0.00976562 C4.02082031 0.01814453 5.05335938 0.02652344 6.1171875 0.03515625 C7.67759766 0.04192383 7.67759766 0.04192383 9.26953125 0.04882812 C11.84380712 0.06063673 14.41796896 0.0771055 16.9921875 0.09765625 C16.6621875 0.75765625 16.3321875 1.41765625 15.9921875 2.09765625 C9.7221875 1.76765625 3.4521875 1.43765625 -3.0078125 1.09765625 C-2.3478125 2.41765625 -1.6878125 3.73765625 -1.0078125 5.09765625 C-1.9978125 5.59265625 -1.9978125 5.59265625 -3.0078125 6.09765625 C-4.3278125 4.44765625 -5.6478125 2.79765625 -7.0078125 1.09765625 C-4.50284246 -0.15482877 -2.79927976 -0.01608781 0 0 Z " fill="#EBECEA" transform="translate(356.0078125,571.90234375)"/>
<path d="M0 0 C0.66 0.66 1.32 1.32 2 2 C4.3245339 2.37051993 4.3245339 2.37051993 7.0078125 2.4140625 C7.99394531 2.45273437 8.98007812 2.49140625 9.99609375 2.53125 C11.02863281 2.5621875 12.06117188 2.593125 13.125 2.625 C14.16527344 2.66367187 15.20554687 2.70234375 16.27734375 2.7421875 C18.85138311 2.83664766 21.42541155 2.92221214 24 3 C23.01 4.485 23.01 4.485 22 6 C22 5.34 22 4.68 22 4 C14.41 4.33 6.82 4.66 -1 5 C-0.67 3.35 -0.34 1.7 0 0 Z " fill="#EAEBE8" transform="translate(369,546)"/>
<path d="M0 0 C0.66 0.66 1.32 1.32 2 2 C1.34 3.98 0.68 5.96 0 8 C-1.65 8 -3.3 8 -5 8 C-3.8141763 4.62496331 -2.72426311 2.35277269 0 0 Z M-2 3 C-1 5 -1 5 -1 5 Z " fill="#E1E2DF" transform="translate(574,375)"/>
<path d="M0 0 C1.98 0 3.96 0 6 0 C6 0.33 6 0.66 6 1 C4.02 1 2.04 1 0 1 C0 0.67 0 0.34 0 0 Z " fill="#DCDDD9" transform="translate(672,551)"/>
<path d="M0 0 C0.66 0.33 1.32 0.66 2 1 C1.01 1.66 0.02 2.32 -1 3 C-0.67 2.01 -0.34 1.02 0 0 Z " fill="#DADDD8" transform="translate(578,354)"/>
<path d="M0 0 C1.32 0.33 2.64 0.66 4 1 C3.01 1.495 3.01 1.495 2 2 C1.34 1.34 0.68 0.68 0 0 Z " fill="#EDEBE3" transform="translate(497,285)"/>
<path d="M0 0 C0 3 0 3 0 3 Z " fill="#DBDDD9" transform="translate(377,612)"/>
<path d="M0 0 C1 4 1 4 1 4 Z " fill="#DCDED9" transform="translate(426,520)"/>
<path d="M0 0 C1 4 1 4 1 4 Z " fill="#E0E1DE" transform="translate(192,464)"/>
<path d="M0 0 C0 3 0 3 0 3 Z " fill="#DADCD8" transform="translate(517,429)"/>
<path d="M0 0 C4 1 4 1 4 1 Z " fill="#EDEAE3" transform="translate(484,283)"/>
<path d="M0 0 C0.99 0.33 1.98 0.66 3 1 C2.01 1 1.02 1 0 1 C0 0.67 0 0.34 0 0 Z " fill="#E0E1DD" transform="translate(656,218)"/>
<path d="M0 0 C0.66 0.66 1.32 1.32 2 2 C1.34 2 0.68 2 0 2 C0 1.34 0 0.68 0 0 Z " fill="#DCDDD9" transform="translate(568,619)"/>
<path d="M0 0 C0.66 0.66 1.32 1.32 2 2 C1.34 2 0.68 2 0 2 C0 1.34 0 0.68 0 0 Z " fill="#DFE1DD" transform="translate(218,618)"/>
<path d="M0 0 C0.33 0.66 0.66 1.32 1 2 C0.34 1.67 -0.32 1.34 -1 1 C-0.67 0.67 -0.34 0.34 0 0 Z " fill="#DDDDDA" transform="translate(601,578)"/>
<path d="" fill="#DDDEDA" transform="translate(0,0)"/>
<path d="M0 0 C3 1 3 1 3 1 Z " fill="#DCDEDA" transform="translate(632,531)"/>
<path d="M0 0 C3 1 3 1 3 1 Z " fill="#DCDEDA" transform="translate(622,531)"/>
<path d="M0 0 C3 1 3 1 3 1 Z " fill="#DCDDDA" transform="translate(678,523)"/>
<path d="M0 0 C0.99 0.495 0.99 0.495 2 1 C1.01 1.495 1.01 1.495 0 2 C0 1.34 0 0.68 0 0 Z " fill="#DDDFDB" transform="translate(632,504)"/>
<path d="M0 0 C0.66 0.66 1.32 1.32 2 2 C1.34 2 0.68 2 0 2 C0 1.34 0 0.68 0 0 Z " fill="#DCDDDA" transform="translate(563,469)"/>
<path d="M0 0 C0.66 0 1.32 0 2 0 C1.67 0.66 1.34 1.32 1 2 C0.67 1.34 0.34 0.68 0 0 Z " fill="#DADCD8" transform="translate(520,409)"/>
<path d="M0 0 C3 1 3 1 3 1 Z " fill="#EDEAE3" transform="translate(480,283)"/>
<path d="M0 0 C3 1 3 1 3 1 Z " fill="#E1E1DE" transform="translate(560,187)"/>
<path d="M0 0 C2 1 2 1 2 1 Z " fill="#E0E1DD" transform="translate(768,659)"/>
<path d="" fill="#DDDFDB" transform="translate(0,0)"/>
<path d="M0 0 C2 1 2 1 2 1 Z " fill="#DDDDDA" transform="translate(712,617)"/>
<path d="" fill="#DCDDD9" transform="translate(0,0)"/>
<path d="M0 0 C2 1 2 1 2 1 Z " fill="#DBDDD9" transform="translate(712,614)"/>
<path d="" fill="#DBDDD9" transform="translate(0,0)"/>
<path d="" fill="#DCDDD9" transform="translate(0,0)"/>
<path d="" fill="#DCDDD9" transform="translate(0,0)"/>
<path d="" fill="#DCDDD9" transform="translate(0,0)"/>
<path d="" fill="#DBDDD9" transform="translate(0,0)"/>
<path d="" fill="#DFE1DD" transform="translate(0,0)"/>
<path d="M0 0 C2 1 2 1 2 1 Z " fill="#DCDDDA" transform="translate(483,570)"/>
<path d="M0 0 C2 1 2 1 2 1 Z " fill="#DDDEDA" transform="translate(438,570)"/>
<path d="M0 0 C2 1 2 1 2 1 Z " fill="#DDDEDB" transform="translate(277,570)"/>
<path d="M0 0 C2 1 2 1 2 1 Z " fill="#DCDDD9" transform="translate(666,551)"/>
<path d="M0 0 C2 1 2 1 2 1 Z " fill="#DCDDD9" transform="translate(644,551)"/>
<path d="M0 0 C2 1 2 1 2 1 Z " fill="#DDDEDA" transform="translate(634,551)"/>
<path d="M0 0 C2 1 2 1 2 1 Z " fill="#DCDDD9" transform="translate(589,551)"/>
<path d="M0 0 C2 1 2 1 2 1 Z " fill="#DDDEDA" transform="translate(404,551)"/>
<path d="" fill="#DDDEDA" transform="translate(0,0)"/>
<path d="" fill="#DCDDDA" transform="translate(0,0)"/>
<path d="" fill="#DDDEDA" transform="translate(0,0)"/>
<path d="" fill="#E0E1DD" transform="translate(0,0)"/>
<path d="M0 0 C2 1 2 1 2 1 Z " fill="#DBDDD9" transform="translate(342,528)"/>
<path d="" fill="#E0E1DE" transform="translate(0,0)"/>
<path d="" fill="#DFE1DD" transform="translate(0,0)"/>
<path d="" fill="#DCDDD9" transform="translate(0,0)"/>
<path d="M0 0 C2 1 2 1 2 1 Z " fill="#DDDEDA" transform="translate(520,520)"/>
<path d="" fill="#DDDEDA" transform="translate(0,0)"/>
<path d="M0 0 C2 1 2 1 2 1 Z " fill="#DCDDD9" transform="translate(454,505)"/>
<path d="" fill="#DEDFDD" transform="translate(0,0)"/>
<path d="" fill="#DADDD8" transform="translate(0,0)"/>
<path d="M0 0 C2 1 2 1 2 1 Z " fill="#DADDD9" transform="translate(565,367)"/>
<path d="" fill="#DCDDD9" transform="translate(0,0)"/>
<path d="" fill="#DBDDD9" transform="translate(0,0)"/>
<path d="" fill="#E1E1DD" transform="translate(0,0)"/>
<path d="" fill="#E0E1DD" transform="translate(0,0)"/>
<path d="" fill="#DCDDD9" transform="translate(0,0)"/>
<path d="" fill="#DDDEDA" transform="translate(0,0)"/>
<path d="" fill="#DDDEDA" transform="translate(0,0)"/>
<path d="M0 0 C2 1 2 1 2 1 Z " fill="#EDEAE4" transform="translate(536,285)"/>
<path d="M0 0 C2 1 2 1 2 1 Z " fill="#EDEBE3" transform="translate(530,284)"/>
<path d="M0 0 C2 1 2 1 2 1 Z " fill="#EDEBE4" transform="translate(483,277)"/>
<path d="M0 0 C2 1 2 1 2 1 Z " fill="#E0E1DE" transform="translate(657,221)"/>
<path d="M0 0 C2 1 2 1 2 1 Z " fill="#E0E1DE" transform="translate(644,212)"/>
<path d="M0 0 C2 1 2 1 2 1 Z " fill="#DFE1DD" transform="translate(625,204)"/>
<path d="M0 0 C2 1 2 1 2 1 Z " fill="#E1E1DD" transform="translate(417,197)"/>
<path d="M0 0 C2 1 2 1 2 1 Z " fill="#E1E1DE" transform="translate(601,196)"/>
<path d="M0 0 C2 1 2 1 2 1 Z " fill="#E1E1DE" transform="translate(449,189)"/>
<path d="M0 0 C2 1 2 1 2 1 Z " fill="#E1E1DE" transform="translate(463,187)"/>
<path d="" fill="#DADAD9" transform="translate(0,0)"/>
<path d="" fill="#DCDDDB" transform="translate(0,0)"/>
<path d="" fill="#DFE0DD" transform="translate(0,0)"/>
<path d="" fill="#DFE0DD" transform="translate(0,0)"/>
<path d="" fill="#DFDFDD" transform="translate(0,0)"/>
<path d="" fill="#DFE0DD" transform="translate(0,0)"/>
<path d="" fill="#DFE1DD" transform="translate(0,0)"/>
<path d="" fill="#DFE0DD" transform="translate(0,0)"/>
<path d="" fill="#DFDFDD" transform="translate(0,0)"/>
<path d="" fill="#DFE1DD" transform="translate(0,0)"/>
<path d="" fill="#DFE1DD" transform="translate(0,0)"/>
<path d="" fill="#DFE1DD" transform="translate(0,0)"/>
<path d="" fill="#DFE0DD" transform="translate(0,0)"/>
<path d="" fill="#DFDFDD" transform="translate(0,0)"/>
<path d="" fill="#DFE0DD" transform="translate(0,0)"/>
<path d="" fill="#DFE1DD" transform="translate(0,0)"/>
<path d="" fill="#DFE0DD" transform="translate(0,0)"/>
<path d="" fill="#DFE1DD" transform="translate(0,0)"/>
<path d="" fill="#E0E1DD" transform="translate(0,0)"/>
<path d="" fill="#DFE0DD" transform="translate(0,0)"/>
<path d="" fill="#DFE0DD" transform="translate(0,0)"/>
<path d="" fill="#DEDFDC" transform="translate(0,0)"/>
<path d="" fill="#E1E1DE" transform="translate(0,0)"/>
<path d="" fill="#E0E1DD" transform="translate(0,0)"/>
<path d="" fill="#E0E1DD" transform="translate(0,0)"/>
<path d="" fill="#DFE0DD" transform="translate(0,0)"/>
<path d="" fill="#DFE1DD" transform="translate(0,0)"/>
<path d="" fill="#DEDFDD" transform="translate(0,0)"/>
<path d="" fill="#E0E1DE" transform="translate(0,0)"/>
<path d="" fill="#DFE1DD" transform="translate(0,0)"/>
<path d="" fill="#DFE0DD" transform="translate(0,0)"/>
<path d="" fill="#DFE1DD" transform="translate(0,0)"/>
<path d="" fill="#DFE1DD" transform="translate(0,0)"/>
<path d="" fill="#E0E1DD" transform="translate(0,0)"/>
<path d="" fill="#DFE0DD" transform="translate(0,0)"/>
<path d="" fill="#DFE0DD" transform="translate(0,0)"/>
<path d="" fill="#DFE1DD" transform="translate(0,0)"/>
<path d="" fill="#DFE0DD" transform="translate(0,0)"/>
<path d="" fill="#DFE1DD" transform="translate(0,0)"/>
<path d="" fill="#DFE1DD" transform="translate(0,0)"/>
<path d="" fill="#DFE1DD" transform="translate(0,0)"/>
<path d="" fill="#DEDFDC" transform="translate(0,0)"/>
<path d="" fill="#E1E1DD" transform="translate(0,0)"/>
<path d="" fill="#E0E1DE" transform="translate(0,0)"/>
<path d="" fill="#DFE0DD" transform="translate(0,0)"/>
<path d="" fill="#DFE1DD" transform="translate(0,0)"/>
<path d="" fill="#DFE1DD" transform="translate(0,0)"/>
<path d="" fill="#DEDFDD" transform="translate(0,0)"/>
<path d="" fill="#DFE0DD" transform="translate(0,0)"/>
<path d="" fill="#DFE1DD" transform="translate(0,0)"/>
<path d="" fill="#DFE1DE" transform="translate(0,0)"/>
<path d="" fill="#DFE1DD" transform="translate(0,0)"/>
<path d="" fill="#E1E1DE" transform="translate(0,0)"/>
<path d="" fill="#DFE1DD" transform="translate(0,0)"/>
<path d="" fill="#E1E1DE" transform="translate(0,0)"/>
<path d="" fill="#E1E1DE" transform="translate(0,0)"/>
<path d="" fill="#DFE1DE" transform="translate(0,0)"/>
<path d="" fill="#DFE1DD" transform="translate(0,0)"/>
<path d="" fill="#DFE1DE" transform="translate(0,0)"/>
<path d="" fill="#E0E1DE" transform="translate(0,0)"/>
<path d="" fill="#DEE0DD" transform="translate(0,0)"/>
<path d="" fill="#E1E1DE" transform="translate(0,0)"/>
<path d="" fill="#DFE1DD" transform="translate(0,0)"/>
<path d="" fill="#E1E1DE" transform="translate(0,0)"/>
<path d="" fill="#DFE0DD" transform="translate(0,0)"/>
<path d="" fill="#DDDFDC" transform="translate(0,0)"/>
<path d="" fill="#DFDFDD" transform="translate(0,0)"/>
<path d="" fill="#E1E1DE" transform="translate(0,0)"/>
<path d="" fill="#DFE1DE" transform="translate(0,0)"/>
<path d="" fill="#E0E1DD" transform="translate(0,0)"/>
<path d="" fill="#DDDDD9" transform="translate(0,0)"/>
<path d="" fill="#E1E1DD" transform="translate(0,0)"/>
<path d="" fill="#DDDED9" transform="translate(0,0)"/>
<path d="" fill="#DFE1DD" transform="translate(0,0)"/>
<path d="" fill="#DDDFDB" transform="translate(0,0)"/>
<path d="" fill="#DDDEDA" transform="translate(0,0)"/>
<path d="" fill="#DDDEDA" transform="translate(0,0)"/>
<path d="" fill="#DDDFDC" transform="translate(0,0)"/>
<path d="" fill="#E1E1DE" transform="translate(0,0)"/>
<path d="" fill="#E0E1DE" transform="translate(0,0)"/>
<path d="" fill="#DDDEDB" transform="translate(0,0)"/>
<path d="" fill="#DDDEDA" transform="translate(0,0)"/>
<path d="" fill="#DFE1DD" transform="translate(0,0)"/>
<path d="" fill="#DDDDDA" transform="translate(0,0)"/>
<path d="" fill="#DDDEDA" transform="translate(0,0)"/>
<path d="" fill="#DDDDDA" transform="translate(0,0)"/>
<path d="" fill="#DDDEDB" transform="translate(0,0)"/>
<path d="" fill="#DDDEDA" transform="translate(0,0)"/>
<path d="" fill="#DBDDD8" transform="translate(0,0)"/>
<path d="" fill="#DCDDDA" transform="translate(0,0)"/>
<path d="" fill="#DDDDDA" transform="translate(0,0)"/>
<path d="" fill="#DDDDDA" transform="translate(0,0)"/>
<path d="" fill="#E0E1DE" transform="translate(0,0)"/>
<path d="" fill="#DDDFDB" transform="translate(0,0)"/>
<path d="" fill="#DDDEDA" transform="translate(0,0)"/>
<path d="" fill="#DCDDD9" transform="translate(0,0)"/>
<path d="" fill="#DCDDD9" transform="translate(0,0)"/>
<path d="" fill="#DDDFDC" transform="translate(0,0)"/>
<path d="" fill="#DFE1DE" transform="translate(0,0)"/>
<path d="" fill="#DDDEDA" transform="translate(0,0)"/>
<path d="" fill="#DDDDD9" transform="translate(0,0)"/>
<path d="" fill="#DDDDD9" transform="translate(0,0)"/>
<path d="" fill="#DEE0DD" transform="translate(0,0)"/>
<path d="" fill="#DDDDDA" transform="translate(0,0)"/>
<path d="" fill="#DDDEDA" transform="translate(0,0)"/>
<path d="" fill="#DBDDD9" transform="translate(0,0)"/>
<path d="" fill="#DCDED9" transform="translate(0,0)"/>
<path d="" fill="#DDDDDA" transform="translate(0,0)"/>
<path d="" fill="#DCDDD9" transform="translate(0,0)"/>
<path d="" fill="#DDDEDA" transform="translate(0,0)"/>
<path d="" fill="#DDDDDA" transform="translate(0,0)"/>
<path d="" fill="#DDDEDA" transform="translate(0,0)"/>
<path d="" fill="#DDDEDA" transform="translate(0,0)"/>
<path d="" fill="#DBDDD9" transform="translate(0,0)"/>
<path d="" fill="#DFE1DE" transform="translate(0,0)"/>
<path d="" fill="#DDDDDA" transform="translate(0,0)"/>
<path d="" fill="#DDDEDA" transform="translate(0,0)"/>
<path d="" fill="#DDDDDA" transform="translate(0,0)"/>
<path d="" fill="#E1E1DE" transform="translate(0,0)"/>
<path d="" fill="#DCDDDA" transform="translate(0,0)"/>
<path d="" fill="#E0E1DD" transform="translate(0,0)"/>
<path d="" fill="#DFE1DE" transform="translate(0,0)"/>
<path d="" fill="#DCDDDA" transform="translate(0,0)"/>
<path d="" fill="#DDDDDA" transform="translate(0,0)"/>
<path d="" fill="#DCDDD9" transform="translate(0,0)"/>
<path d="" fill="#DCDEDA" transform="translate(0,0)"/>
<path d="" fill="#DDDDDA" transform="translate(0,0)"/>
<path d="" fill="#DCDEDA" transform="translate(0,0)"/>
<path d="" fill="#DCDDD9" transform="translate(0,0)"/>
<path d="" fill="#DDDEDA" transform="translate(0,0)"/>
<path d="" fill="#DDDEDA" transform="translate(0,0)"/>
<path d="" fill="#DDDDDA" transform="translate(0,0)"/>
<path d="" fill="#DDDDDA" transform="translate(0,0)"/>
<path d="" fill="#DDDEDA" transform="translate(0,0)"/>
<path d="" fill="#DCDDD9" transform="translate(0,0)"/>
<path d="" fill="#DDDEDB" transform="translate(0,0)"/>
<path d="" fill="#DDDEDA" transform="translate(0,0)"/>
<path d="" fill="#DCDDD9" transform="translate(0,0)"/>
<path d="" fill="#DCDDD9" transform="translate(0,0)"/>
<path d="" fill="#E1E1DE" transform="translate(0,0)"/>
<path d="" fill="#DDDDD9" transform="translate(0,0)"/>
<path d="" fill="#DCDED9" transform="translate(0,0)"/>
<path d="" fill="#DCDDD9" transform="translate(0,0)"/>
<path d="" fill="#DDDEDA" transform="translate(0,0)"/>
<path d="" fill="#DCDDD9" transform="translate(0,0)"/>
<path d="" fill="#DDDEDA" transform="translate(0,0)"/>
<path d="" fill="#DCDED9" transform="translate(0,0)"/>
<path d="" fill="#DCDDD9" transform="translate(0,0)"/>
<path d="" fill="#DCDDD9" transform="translate(0,0)"/>
<path d="" fill="#DBDDD9" transform="translate(0,0)"/>
<path d="" fill="#DBDDD9" transform="translate(0,0)"/>
<path d="" fill="#DCDDD9" transform="translate(0,0)"/>
<path d="" fill="#DCDDD9" transform="translate(0,0)"/>
<path d="" fill="#DCDDD9" transform="translate(0,0)"/>
<path d="" fill="#DDDFDC" transform="translate(0,0)"/>
<path d="" fill="#DCDDD9" transform="translate(0,0)"/>
<path d="" fill="#DFE1DD" transform="translate(0,0)"/>
<path d="" fill="#DFE0DD" transform="translate(0,0)"/>
<path d="" fill="#DCDDD9" transform="translate(0,0)"/>
<path d="" fill="#DBDDD9" transform="translate(0,0)"/>
<path d="" fill="#DCDDDA" transform="translate(0,0)"/>
<path d="" fill="#DBDDD9" transform="translate(0,0)"/>
<path d="" fill="#DCDEDA" transform="translate(0,0)"/>
<path d="" fill="#DCDDD9" transform="translate(0,0)"/>
<path d="" fill="#DFDFDC" transform="translate(0,0)"/>
<path d="" fill="#DCDDD9" transform="translate(0,0)"/>
<path d="" fill="#DDDEDA" transform="translate(0,0)"/>
<path d="" fill="#DDDEDA" transform="translate(0,0)"/>
<path d="" fill="#DDDEDA" transform="translate(0,0)"/>
<path d="" fill="#DDDDDA" transform="translate(0,0)"/>
<path d="" fill="#DCDDD9" transform="translate(0,0)"/>
<path d="" fill="#DDDDDA" transform="translate(0,0)"/>
<path d="" fill="#DDDEDA" transform="translate(0,0)"/>
<path d="" fill="#DCDDD9" transform="translate(0,0)"/>
<path d="" fill="#DDDDDA" transform="translate(0,0)"/>
<path d="" fill="#DDDEDA" transform="translate(0,0)"/>
<path d="" fill="#DDDED9" transform="translate(0,0)"/>
<path d="" fill="#DDDEDA" transform="translate(0,0)"/>
<path d="" fill="#DCDDD9" transform="translate(0,0)"/>
<path d="" fill="#DBDDD9" transform="translate(0,0)"/>
<path d="" fill="#DCDDDA" transform="translate(0,0)"/>
<path d="" fill="#DDDED9" transform="translate(0,0)"/>
<path d="" fill="#DCDDD9" transform="translate(0,0)"/>
<path d="" fill="#E0E1DE" transform="translate(0,0)"/>
<path d="" fill="#DDDEDA" transform="translate(0,0)"/>
<path d="" fill="#DDDDDA" transform="translate(0,0)"/>
<path d="" fill="#DDDEDA" transform="translate(0,0)"/>
<path d="" fill="#DDDEDA" transform="translate(0,0)"/>
<path d="" fill="#DDDFDB" transform="translate(0,0)"/>
<path d="" fill="#DDDEDB" transform="translate(0,0)"/>
<path d="" fill="#DDDEDA" transform="translate(0,0)"/>
<path d="" fill="#DDDEDA" transform="translate(0,0)"/>
<path d="" fill="#DDDEDA" transform="translate(0,0)"/>
<path d="" fill="#DDDEDA" transform="translate(0,0)"/>
<path d="" fill="#DDDDD9" transform="translate(0,0)"/>
<path d="" fill="#DCDEDA" transform="translate(0,0)"/>
<path d="" fill="#DDDDD9" transform="translate(0,0)"/>
<path d="" fill="#DDDEDA" transform="translate(0,0)"/>
<path d="" fill="#DDDEDA" transform="translate(0,0)"/>
<path d="" fill="#DDDEDA" transform="translate(0,0)"/>
<path d="" fill="#DDDFDA" transform="translate(0,0)"/>
<path d="" fill="#DDDEDA" transform="translate(0,0)"/>
<path d="" fill="#DDDFDB" transform="translate(0,0)"/>
<path d="" fill="#DEDFDC" transform="translate(0,0)"/>
<path d="" fill="#E1E1DE" transform="translate(0,0)"/>
<path d="" fill="#DDDFDA" transform="translate(0,0)"/>
<path d="" fill="#DCDEDA" transform="translate(0,0)"/>
<path d="" fill="#DCDDDA" transform="translate(0,0)"/>
<path d="" fill="#DCDDD9" transform="translate(0,0)"/>
<path d="" fill="#DCDDD9" transform="translate(0,0)"/>
<path d="" fill="#DDDEDA" transform="translate(0,0)"/>
<path d="" fill="#DDDEDA" transform="translate(0,0)"/>
<path d="" fill="#DDDEDA" transform="translate(0,0)"/>
<path d="" fill="#DCDDD9" transform="translate(0,0)"/>
<path d="" fill="#DDDFDA" transform="translate(0,0)"/>
<path d="" fill="#DCDDD9" transform="translate(0,0)"/>
<path d="" fill="#DDDFDB" transform="translate(0,0)"/>
<path d="" fill="#DDDDDA" transform="translate(0,0)"/>
<path d="" fill="#DCDDDA" transform="translate(0,0)"/>
<path d="" fill="#DCDDD9" transform="translate(0,0)"/>
<path d="" fill="#DCDDDA" transform="translate(0,0)"/>
<path d="" fill="#DDDDDA" transform="translate(0,0)"/>
<path d="" fill="#DDDEDA" transform="translate(0,0)"/>
<path d="" fill="#DDDFDA" transform="translate(0,0)"/>
<path d="" fill="#DDDEDA" transform="translate(0,0)"/>
<path d="" fill="#DDDEDB" transform="translate(0,0)"/>
<path d="" fill="#DCDED9" transform="translate(0,0)"/>
<path d="" fill="#DDDDDA" transform="translate(0,0)"/>
<path d="" fill="#DCDDDA" transform="translate(0,0)"/>
<path d="" fill="#DDDFDB" transform="translate(0,0)"/>
<path d="" fill="#E1E1DF" transform="translate(0,0)"/>
<path d="" fill="#DFE1DE" transform="translate(0,0)"/>
<path d="" fill="#DDDDDA" transform="translate(0,0)"/>
<path d="" fill="#DDDEDA" transform="translate(0,0)"/>
<path d="" fill="#DDDEDA" transform="translate(0,0)"/>
<path d="" fill="#DDDDDA" transform="translate(0,0)"/>
<path d="" fill="#DDDEDB" transform="translate(0,0)"/>
<path d="" fill="#DDDFDA" transform="translate(0,0)"/>
<path d="" fill="#DDDDDA" transform="translate(0,0)"/>
<path d="" fill="#DCDDD9" transform="translate(0,0)"/>
<path d="" fill="#DCDEDA" transform="translate(0,0)"/>
<path d="" fill="#DDDEDA" transform="translate(0,0)"/>
<path d="" fill="#DDDEDA" transform="translate(0,0)"/>
<path d="" fill="#DCDDDA" transform="translate(0,0)"/>
<path d="" fill="#DDDDDA" transform="translate(0,0)"/>
<path d="" fill="#DDDED9" transform="translate(0,0)"/>
<path d="" fill="#DDDFDA" transform="translate(0,0)"/>
<path d="" fill="#DCDDD9" transform="translate(0,0)"/>
<path d="" fill="#DDDEDA" transform="translate(0,0)"/>
<path d="" fill="#DDDDD9" transform="translate(0,0)"/>
<path d="" fill="#DDDEDA" transform="translate(0,0)"/>
<path d="" fill="#DDDEDA" transform="translate(0,0)"/>
<path d="" fill="#DDDFDA" transform="translate(0,0)"/>
<path d="" fill="#DBDDD9" transform="translate(0,0)"/>
<path d="" fill="#DCDEDA" transform="translate(0,0)"/>
<path d="" fill="#DBDDD9" transform="translate(0,0)"/>
<path d="" fill="#DDDDDA" transform="translate(0,0)"/>
<path d="" fill="#DFE0DD" transform="translate(0,0)"/>
<path d="" fill="#DFDFDD" transform="translate(0,0)"/>
<path d="" fill="#DDDEDA" transform="translate(0,0)"/>
<path d="" fill="#DBDDD9" transform="translate(0,0)"/>
<path d="" fill="#DDDEDA" transform="translate(0,0)"/>
<path d="" fill="#DCDEDA" transform="translate(0,0)"/>
<path d="" fill="#DDDEDA" transform="translate(0,0)"/>
<path d="" fill="#DDDEDA" transform="translate(0,0)"/>
<path d="" fill="#DDDEDA" transform="translate(0,0)"/>
<path d="" fill="#DDDDDA" transform="translate(0,0)"/>
<path d="" fill="#DCDDDA" transform="translate(0,0)"/>
<path d="" fill="#DFE1DE" transform="translate(0,0)"/>
<path d="" fill="#DCDDD9" transform="translate(0,0)"/>
<path d="" fill="#DDDEDA" transform="translate(0,0)"/>
<path d="" fill="#DCDDDA" transform="translate(0,0)"/>
<path d="" fill="#DDDEDA" transform="translate(0,0)"/>
<path d="" fill="#DDDEDA" transform="translate(0,0)"/>
<path d="" fill="#DDDEDA" transform="translate(0,0)"/>
<path d="" fill="#DDDDDA" transform="translate(0,0)"/>
<path d="" fill="#DDDEDA" transform="translate(0,0)"/>
<path d="" fill="#DDDEDA" transform="translate(0,0)"/>
<path d="" fill="#DDDEDA" transform="translate(0,0)"/>
<path d="" fill="#DDDDDA" transform="translate(0,0)"/>
<path d="" fill="#DEDFDC" transform="translate(0,0)"/>
<path d="" fill="#DDDDDA" transform="translate(0,0)"/>
<path d="" fill="#DCDDD9" transform="translate(0,0)"/>
<path d="" fill="#E1E1DE" transform="translate(0,0)"/>
<path d="" fill="#DDDFDB" transform="translate(0,0)"/>
<path d="" fill="#DDDFDA" transform="translate(0,0)"/>
<path d="" fill="#E1E1DE" transform="translate(0,0)"/>
<path d="" fill="#DFE0DD" transform="translate(0,0)"/>
<path d="" fill="#DDDEDA" transform="translate(0,0)"/>
<path d="" fill="#E0E0DD" transform="translate(0,0)"/>
<path d="" fill="#DDDFDA" transform="translate(0,0)"/>
<path d="" fill="#E0E1DD" transform="translate(0,0)"/>
<path d="" fill="#DDDFDC" transform="translate(0,0)"/>
<path d="" fill="#DDDFDC" transform="translate(0,0)"/>
<path d="" fill="#DDDEDA" transform="translate(0,0)"/>
<path d="" fill="#DFE1DE" transform="translate(0,0)"/>
<path d="" fill="#DDDEDA" transform="translate(0,0)"/>
<path d="" fill="#DDDFDA" transform="translate(0,0)"/>
<path d="" fill="#DDDEDB" transform="translate(0,0)"/>
<path d="" fill="#DDDDDA" transform="translate(0,0)"/>
<path d="" fill="#DEDFDC" transform="translate(0,0)"/>
<path d="" fill="#DEDFDB" transform="translate(0,0)"/>
<path d="" fill="#DEDFDC" transform="translate(0,0)"/>
<path d="" fill="#DEDFDD" transform="translate(0,0)"/>
<path d="" fill="#E1E1DF" transform="translate(0,0)"/>
<path d="" fill="#DFE1DD" transform="translate(0,0)"/>
<path d="" fill="#DDDFDB" transform="translate(0,0)"/>
<path d="" fill="#DDDFDC" transform="translate(0,0)"/>
<path d="" fill="#DDDEDB" transform="translate(0,0)"/>
<path d="" fill="#DDDEDB" transform="translate(0,0)"/>
<path d="" fill="#DDDFDA" transform="translate(0,0)"/>
<path d="" fill="#DDDFDA" transform="translate(0,0)"/>
<path d="" fill="#DDDFDA" transform="translate(0,0)"/>
<path d="" fill="#DDDEDA" transform="translate(0,0)"/>
<path d="" fill="#DDDEDA" transform="translate(0,0)"/>
<path d="" fill="#DDDFDA" transform="translate(0,0)"/>
<path d="" fill="#DDDFDA" transform="translate(0,0)"/>
<path d="" fill="#DDDFDA" transform="translate(0,0)"/>
<path d="" fill="#DDDEDA" transform="translate(0,0)"/>
<path d="" fill="#DDDEDA" transform="translate(0,0)"/>
<path d="" fill="#DDDED9" transform="translate(0,0)"/>
<path d="" fill="#DDDDDA" transform="translate(0,0)"/>
<path d="" fill="#DEDFDC" transform="translate(0,0)"/>
<path d="" fill="#DDDFDA" transform="translate(0,0)"/>
<path d="" fill="#DDDFDA" transform="translate(0,0)"/>
<path d="" fill="#DEDFDD" transform="translate(0,0)"/>
<path d="" fill="#DDDFDC" transform="translate(0,0)"/>
<path d="" fill="#E1E1DF" transform="translate(0,0)"/>
<path d="" fill="#DEDFDC" transform="translate(0,0)"/>
<path d="" fill="#DDDEDA" transform="translate(0,0)"/>
<path d="" fill="#DCDDDA" transform="translate(0,0)"/>
<path d="" fill="#DEDFDC" transform="translate(0,0)"/>
<path d="" fill="#E0E1DE" transform="translate(0,0)"/>
<path d="" fill="#DDDDDA" transform="translate(0,0)"/>
<path d="" fill="#E1E1DF" transform="translate(0,0)"/>
<path d="" fill="#DDDEDA" transform="translate(0,0)"/>
<path d="" fill="#DFE1DE" transform="translate(0,0)"/>
<path d="" fill="#DCDDDA" transform="translate(0,0)"/>
<path d="" fill="#DEDFDC" transform="translate(0,0)"/>
<path d="" fill="#DCDDD9" transform="translate(0,0)"/>
<path d="" fill="#DCDDD9" transform="translate(0,0)"/>
<path d="" fill="#DCDDD9" transform="translate(0,0)"/>
<path d="" fill="#DCDDD9" transform="translate(0,0)"/>
<path d="" fill="#E0E1DE" transform="translate(0,0)"/>
<path d="" fill="#DCDDD9" transform="translate(0,0)"/>
<path d="" fill="#DBDDD9" transform="translate(0,0)"/>
<path d="" fill="#DFE1DE" transform="translate(0,0)"/>
<path d="" fill="#E1E1DE" transform="translate(0,0)"/>
<path d="" fill="#DADDD9" transform="translate(0,0)"/>
<path d="" fill="#DCDDDA" transform="translate(0,0)"/>
<path d="" fill="#DADDD8" transform="translate(0,0)"/>
<path d="" fill="#DADCD9" transform="translate(0,0)"/>
<path d="" fill="#DCDDD9" transform="translate(0,0)"/>
<path d="" fill="#DEDFDD" transform="translate(0,0)"/>
<path d="" fill="#DCDDD9" transform="translate(0,0)"/>
<path d="" fill="#DBDDD9" transform="translate(0,0)"/>
<path d="" fill="#DBDDD9" transform="translate(0,0)"/>
<path d="" fill="#DADCD8" transform="translate(0,0)"/>
<path d="" fill="#DADDD8" transform="translate(0,0)"/>
<path d="" fill="#DADDD9" transform="translate(0,0)"/>
<path d="" fill="#DADCD8" transform="translate(0,0)"/>
<path d="" fill="#DADDD8" transform="translate(0,0)"/>
<path d="" fill="#DFE1DE" transform="translate(0,0)"/>
<path d="" fill="#D8DAD6" transform="translate(0,0)"/>
<path d="" fill="#DBDDD9" transform="translate(0,0)"/>
<path d="" fill="#DADCD8" transform="translate(0,0)"/>
<path d="" fill="#DFE1DD" transform="translate(0,0)"/>
<path d="" fill="#DFE0DD" transform="translate(0,0)"/>
<path d="" fill="#E0E1DD" transform="translate(0,0)"/>
<path d="" fill="#D9DBD7" transform="translate(0,0)"/>
<path d="" fill="#DFE1DD" transform="translate(0,0)"/>
<path d="" fill="#DFE1DE" transform="translate(0,0)"/>
<path d="" fill="#DBDDD9" transform="translate(0,0)"/>
<path d="" fill="#DCDDD9" transform="translate(0,0)"/>
<path d="" fill="#DFE0DD" transform="translate(0,0)"/>
<path d="" fill="#E0E1DE" transform="translate(0,0)"/>
<path d="" fill="#DFE1DD" transform="translate(0,0)"/>
<path d="" fill="#DCDDD9" transform="translate(0,0)"/>
<path d="" fill="#DBDDDA" transform="translate(0,0)"/>
<path d="" fill="#DCDDD9" transform="translate(0,0)"/>
<path d="" fill="#DBDDD9" transform="translate(0,0)"/>
<path d="" fill="#DFE0DD" transform="translate(0,0)"/>
<path d="" fill="#DFE0DD" transform="translate(0,0)"/>
<path d="" fill="#DBDDDA" transform="translate(0,0)"/>
<path d="" fill="#DADDD9" transform="translate(0,0)"/>
<path d="" fill="#DBDDD8" transform="translate(0,0)"/>
<path d="" fill="#DFE1DD" transform="translate(0,0)"/>
<path d="" fill="#DBDDD9" transform="translate(0,0)"/>
<path d="" fill="#E1E1DE" transform="translate(0,0)"/>
<path d="" fill="#DBDDDA" transform="translate(0,0)"/>
<path d="" fill="#DBDDD9" transform="translate(0,0)"/>
<path d="" fill="#DBDDD9" transform="translate(0,0)"/>
<path d="" fill="#DCDCD9" transform="translate(0,0)"/>
<path d="" fill="#DDDDDA" transform="translate(0,0)"/>
<path d="" fill="#DBDDD9" transform="translate(0,0)"/>
<path d="" fill="#DDDDD9" transform="translate(0,0)"/>
<path d="" fill="#DADCD9" transform="translate(0,0)"/>
<path d="" fill="#DBDDD9" transform="translate(0,0)"/>
<path d="" fill="#DCDDD9" transform="translate(0,0)"/>
<path d="" fill="#DCDDD9" transform="translate(0,0)"/>
<path d="" fill="#DBDDD9" transform="translate(0,0)"/>
<path d="" fill="#DCDED9" transform="translate(0,0)"/>
<path d="" fill="#DCDDD9" transform="translate(0,0)"/>
<path d="" fill="#DCDDD9" transform="translate(0,0)"/>
<path d="" fill="#DCDDD9" transform="translate(0,0)"/>
<path d="" fill="#DCDDD9" transform="translate(0,0)"/>
<path d="" fill="#DBDDDA" transform="translate(0,0)"/>
<path d="" fill="#DBDDD9" transform="translate(0,0)"/>
<path d="" fill="#DCDDD9" transform="translate(0,0)"/>
<path d="" fill="#DDDDDA" transform="translate(0,0)"/>
<path d="" fill="#DCDDD9" transform="translate(0,0)"/>
<path d="" fill="#DDDDDA" transform="translate(0,0)"/>
<path d="" fill="#DBDDD9" transform="translate(0,0)"/>
<path d="" fill="#DCDDD9" transform="translate(0,0)"/>
<path d="" fill="#DCDED9" transform="translate(0,0)"/>
<path d="" fill="#DDDDDA" transform="translate(0,0)"/>
<path d="" fill="#DCDDD9" transform="translate(0,0)"/>
<path d="" fill="#DDDEDA" transform="translate(0,0)"/>
<path d="" fill="#DCDDD9" transform="translate(0,0)"/>
<path d="" fill="#DBDDD9" transform="translate(0,0)"/>
<path d="" fill="#DCDED9" transform="translate(0,0)"/>
<path d="" fill="#DBDDD9" transform="translate(0,0)"/>
<path d="" fill="#DCDDDA" transform="translate(0,0)"/>
<path d="" fill="#DCDDD9" transform="translate(0,0)"/>
<path d="" fill="#DFE1DE" transform="translate(0,0)"/>
<path d="" fill="#DDDED9" transform="translate(0,0)"/>
<path d="" fill="#DFE0DD" transform="translate(0,0)"/>
<path d="" fill="#DEE0DD" transform="translate(0,0)"/>
<path d="" fill="#DCDDD9" transform="translate(0,0)"/>
<path d="" fill="#DBDDD9" transform="translate(0,0)"/>
<path d="" fill="#DBDDD9" transform="translate(0,0)"/>
<path d="" fill="#DDDEDA" transform="translate(0,0)"/>
<path d="" fill="#DBDDDA" transform="translate(0,0)"/>
<path d="" fill="#DCDDD9" transform="translate(0,0)"/>
<path d="" fill="#DDDDDA" transform="translate(0,0)"/>
<path d="" fill="#DCDDD9" transform="translate(0,0)"/>
<path d="" fill="#DBDDD9" transform="translate(0,0)"/>
<path d="" fill="#DCDDD9" transform="translate(0,0)"/>
<path d="" fill="#DDDFDA" transform="translate(0,0)"/>
<path d="" fill="#DDDEDA" transform="translate(0,0)"/>
<path d="" fill="#DDDDDA" transform="translate(0,0)"/>
<path d="" fill="#DDDEDA" transform="translate(0,0)"/>
<path d="" fill="#DDDDDA" transform="translate(0,0)"/>
<path d="" fill="#DCDDD9" transform="translate(0,0)"/>
<path d="" fill="#DDDEDA" transform="translate(0,0)"/>
<path d="" fill="#DDDFDA" transform="translate(0,0)"/>
<path d="" fill="#DCDDD9" transform="translate(0,0)"/>
<path d="" fill="#DDDDD9" transform="translate(0,0)"/>
<path d="" fill="#E0E0DD" transform="translate(0,0)"/>
<path d="" fill="#DDDEDA" transform="translate(0,0)"/>
<path d="" fill="#DDDDDA" transform="translate(0,0)"/>
<path d="" fill="#DCDDDA" transform="translate(0,0)"/>
<path d="" fill="#DFE0DD" transform="translate(0,0)"/>
<path d="" fill="#DDDEDA" transform="translate(0,0)"/>
<path d="" fill="#DDDFDC" transform="translate(0,0)"/>
<path d="" fill="#DCDDDA" transform="translate(0,0)"/>
<path d="" fill="#DCDDD9" transform="translate(0,0)"/>
<path d="" fill="#DDDDDA" transform="translate(0,0)"/>
<path d="" fill="#DEE0DC" transform="translate(0,0)"/>
<path d="" fill="#DDDDD9" transform="translate(0,0)"/>
<path d="" fill="#DDDFDA" transform="translate(0,0)"/>
<path d="" fill="#DDDEDA" transform="translate(0,0)"/>
<path d="" fill="#DDDEDA" transform="translate(0,0)"/>
<path d="" fill="#E0E1DE" transform="translate(0,0)"/>
<path d="" fill="#E0E1DE" transform="translate(0,0)"/>
<path d="" fill="#DDDFDB" transform="translate(0,0)"/>
<path d="" fill="#DEDFDC" transform="translate(0,0)"/>
<path d="" fill="#DFE0DD" transform="translate(0,0)"/>
<path d="" fill="#DFE1DD" transform="translate(0,0)"/>
<path d="" fill="#EAE8E1" transform="translate(0,0)"/>
<path d="" fill="#DFE0DD" transform="translate(0,0)"/>
<path d="" fill="#DFDFDD" transform="translate(0,0)"/>
<path d="" fill="#DFE1DE" transform="translate(0,0)"/>
<path d="" fill="#DFE1DE" transform="translate(0,0)"/>
<path d="" fill="#E0E1DE" transform="translate(0,0)"/>
<path d="" fill="#E1E1DE" transform="translate(0,0)"/>
<path d="" fill="#E0E1DE" transform="translate(0,0)"/>
<path d="" fill="#EDEAE3" transform="translate(0,0)"/>
<path d="" fill="#E1E1DF" transform="translate(0,0)"/>
<path d="" fill="#EDEBE3" transform="translate(0,0)"/>
<path d="" fill="#EDEBE3" transform="translate(0,0)"/>
<path d="" fill="#EDEBE4" transform="translate(0,0)"/>
<path d="" fill="#ECEAE3" transform="translate(0,0)"/>
<path d="" fill="#EDEBE3" transform="translate(0,0)"/>
<path d="" fill="#E0E1DE" transform="translate(0,0)"/>
<path d="" fill="#E0E1DE" transform="translate(0,0)"/>
<path d="" fill="#E0E1DE" transform="translate(0,0)"/>
<path d="" fill="#EEEBE4" transform="translate(0,0)"/>
<path d="" fill="#E0E1DE" transform="translate(0,0)"/>
<path d="" fill="#EFEBE4" transform="translate(0,0)"/>
<path d="" fill="#DFE0DD" transform="translate(0,0)"/>
<path d="" fill="#DFE1DE" transform="translate(0,0)"/>
<path d="" fill="#E1E1DE" transform="translate(0,0)"/>
<path d="" fill="#E1E1DE" transform="translate(0,0)"/>
<path d="" fill="#E1E1DE" transform="translate(0,0)"/>
<path d="" fill="#DFE0DD" transform="translate(0,0)"/>
<path d="" fill="#DFE1DF" transform="translate(0,0)"/>
<path d="" fill="#E0E1DE" transform="translate(0,0)"/>
<path d="" fill="#E0E1DE" transform="translate(0,0)"/>
<path d="" fill="#E0E1DE" transform="translate(0,0)"/>
<path d="" fill="#DFE1DE" transform="translate(0,0)"/>
<path d="" fill="#E0E1DE" transform="translate(0,0)"/>
<path d="" fill="#E0E1DD" transform="translate(0,0)"/>
<path d="" fill="#E0E1DD" transform="translate(0,0)"/>
<path d="" fill="#DFE0DD" transform="translate(0,0)"/>
<path d="" fill="#E1E1DD" transform="translate(0,0)"/>
<path d="" fill="#DFE1DD" transform="translate(0,0)"/>
<path d="" fill="#E1E1DF" transform="translate(0,0)"/>
<path d="" fill="#E1E1DE" transform="translate(0,0)"/>
<path d="" fill="#E0E1DE" transform="translate(0,0)"/>
<path d="" fill="#DFE1DD" transform="translate(0,0)"/>
<path d="" fill="#DFE1DE" transform="translate(0,0)"/>
<path d="" fill="#DFE0DD" transform="translate(0,0)"/>
<path d="" fill="#E0E1DD" transform="translate(0,0)"/>
<path d="" fill="#E1E1DE" transform="translate(0,0)"/>
<path d="" fill="#E1E1DE" transform="translate(0,0)"/>
<path d="" fill="#E1E1DE" transform="translate(0,0)"/>
<path d="" fill="#E1E1DE" transform="translate(0,0)"/>
<path d="" fill="#E1E1DE" transform="translate(0,0)"/>
<path d="" fill="#E1E1DE" transform="translate(0,0)"/>
<path d="" fill="#DFE1DD" transform="translate(0,0)"/>
<path d="" fill="#DFE1DD" transform="translate(0,0)"/>
<path d="" fill="#E0E1DE" transform="translate(0,0)"/>
<path d="" fill="#E1E1DE" transform="translate(0,0)"/>
<path d="" fill="#E1E1DD" transform="translate(0,0)"/>
<path d="" fill="#E1E1DE" transform="translate(0,0)"/>
<path d="" fill="#E0E1DE" transform="translate(0,0)"/>
<path d="" fill="#E1E1DE" transform="translate(0,0)"/>
<path d="" fill="#E1E1DE" transform="translate(0,0)"/>
<path d="" fill="#E1E1DF" transform="translate(0,0)"/>
</svg>
