<?xml version="1.0" encoding="UTF-8"?>
<svg id="Layer_1" data-name="Layer 1" xmlns="http://www.w3.org/2000/svg" viewBox="0 0 1014.8978 852.5933">
  <path d="M262.8978,6.7224c1.1983.1872,2.3967.3745,3.6313.5674,68.5357,10.9332,133.427,39.0758,188.3687,81.4326.5433.4172,1.0867.8343,1.6465,1.2642,18.0365,13.877,34.7328,29.0596,50.8535,45.1108.7415.7369,1.4831,1.4737,2.2471,2.2329,4.622,4.6356,8.993,9.4235,13.2529,14.3921.9495,1.0829,1.9,2.165,2.8516,3.2461,7.7997,8.9425,15.0705,18.2323,22.1484,27.7539q.6688.8967,1.3511,1.8115c2.9706,4.0043,5.8416,8.0682,8.6489,12.1885.5314.7776,1.0628,1.5553,1.6104,2.3564,1.7149,2.5336,3.3996,5.085,5.0771,7.6436.5421.8016,1.0843,1.6033,1.6428,2.4292q3.6216,5.6262,3.8181,9.4849c-1.7352,4.6625-3.9583,9.0299-6.2109,13.4609-11.5182,23.4161-22.5278,52.58-14.918,78.875,4.3971,12.3328,10.4644,19.5591,21.9805,25.75,13.6528,6.0489,29.0046,8.991,43.625,4.3125,1.8109-.7244,3.6053-1.4924,5.375-2.3125.7838-.3506,1.5675-.7013,2.375-1.0625,16.057-8.0285,24.0684-22.5887,29.625-38.9375,10.6186-37.351-2.2048-74.6822-13.3296-110.3464-7.5714-24.4236-14.0105-48.6333-5.6704-73.6536h2c.3456.8571.6911,1.7143,1.0471,2.5974,8.7844,21.7238,18.0474,43.1665,27.9529,64.4026q.7758,1.6655,1.5674,3.3647c6.1145,13.075,12.5281,25.9593,19.4326,38.6353.514.9457,1.028,1.8914,1.5576,2.8657,18.8998,34.6236,40.2017,68.5545,66.4424,98.1343,1.2298,1.4162,2.459,2.8327,3.6875,4.25,1.1022,1.2517,2.2065,2.5016,3.3125,3.75.6948.7876,1.3896,1.5752,2.1055,2.3867,7.4795,8.4064,15.2473,16.4025,23.8945,23.6133.5127.4318,1.0255.8637,1.5537,1.3086,17.9329,15.0306,37.8689,25.3297,58.6807,35.8398,1.0182.5197,2.0366,1.0393,3.0857,1.5747,1.9254.9824,3.8556,1.9555,5.7915,2.917,10.3041,5.2704,19.0938,11.5144,23.8884,22.3599,1.9538,7.9831.5776,14.3747-2,22-2.9805-.6355-5.3949-1.6116-8.0781-3.0469-56.5468-29.5963-130.3695-55.1261-193.7852-35.4954-14.6513,4.8559-27.5856,12.7318-39.9902,21.8022-61.7532,45.1478-131.1877,80.7377-478.1465,135.74-3.6813-.5992-7.3437-1.2642-11-2,.33-.66.66-1.32,1-2,2.2393-.5063,4.5062-.8912,6.7773-1.2266,1.4609-.2245,2.9218-.4495,4.3826-.675.7775-.1171,1.5549-.2343,2.3559-.3549,62.7003-9.541,127.5175-28.8605,176.4842-70.7435,1.1558-.9706,2.312-1.9406,3.4688-2.9102,9.5613-8.0542,18.519-16.4657,26.5312-26.0898.4318-.518.8637-1.0361,1.3086-1.5698,7.5326-9.0865,14.4239-18.4283,20.6914-28.4302.4096-.6516.8192-1.3033,1.2412-1.9746,35.7518-57.4373,47.1762-126.7536,32.5522-192.6816-8.5254-35.9274-24.7389-68.6329-47.7935-97.3438q-1.1911-1.5005-2.4062-3.0312c-11.4107-13.9464-24.3196-26.9632-38.5938-37.9688-1.0889-.8974-2.1747-1.7987-3.2578-2.7031C276.4714,47.0977,202.7702,16.6466,132.8978,7.7224c.33-.66.66-1.32,1-2,38.6295-9.8257,90.0676-5.3161,129,1Z" fill="#fff"/>
  <path d="M453.8978,673.7224h85q5.255,27.2022,6.7656,35.1211c.1906.9921.3812,1.9841.5776,3.0062,1.3272,6.9621,2.5178,13.94,3.6567,20.9352,1.2899,7.8746,2.6821,15.7206,4.1992,23.5547.2008,1.0391.4015,2.0782.6084,3.1488.6245,3.2243,1.2521,6.4479,1.8799,9.6715.2047,1.0577.4094,2.1154.6204,3.2051.5844,3.0145,1.1744,6.0279,1.7664,9.041.179.9248.358,1.8495.5424,2.8023q.251,1.2666.5072,2.5587c.1456.7426.2912,1.4852.4412,2.2502q.2859,1.7261,1.435,2.7051c.4125-.8482.825-1.6964,1.25-2.5703q.8662-1.7596,1.75-3.5547c.5569-1.137,1.1137-2.2739,1.6875-3.4453,1.8816-3.7007,3.9373-7.2871,6.0117-10.8828,4.1727-7.2358,8.0876-14.5955,11.9685-21.9909,1.9655-3.7445,3.9392-7.4845,5.9143-11.2239.3855-.7299.771-1.4598,1.1682-2.2119,3.441-6.5033,6.9711-12.9546,10.5432-19.3868,3.4777-6.2747,6.8136-12.6181,10.1301-18.9792,3.2039-6.1173,6.5889-12.1094,10.0803-18.0667q1.5903-2.6617,2.4961-5.6875h48v2c.7219.2269,1.4438.4537,2.1875.6875,4.1272,1.926,6.9084,4.5223,8.9711,8.6065,2.7431,8.822-.8026,20.1208-2.557,28.9599q-.3534,1.8323-.714,3.7016c-.7473,3.8703-1.5042,7.7388-2.2625,11.6069q-3.8955,19.5724-7.0938,39.2656c-1.2083,8.5802-2.7799,17.0823-4.4141,25.5898q-.1958,1.0196-.3955,2.0598c-.9433,4.9043-1.8945,9.8071-2.8467,14.7097-.9606,4.9492-1.9185,9.899-2.8708,14.8499-.3765,1.9508-.7573,3.9007-1.1383,5.8506-.9893,5.1337-1.9372,10.2183-2.467,15.4218q-.3989,3.6902-1.3989,4.6902c-2.957.0887-5.8907.1152-8.8477.0977q-1.3296-.0021-2.6861-.0043c-2.8429-.0056-5.6858-.0182-8.5287-.0309-1.9225-.005-3.845-.0096-5.7676-.0137-4.7233-.011-9.4466-.0283-14.1699-.0488.5486-5.4471,1.2576-10.7973,2.3047-16.1758.2565-1.3379.513-2.6758.7695-4.0137.3958-2.0417.793-4.083,1.1909-6.1243,1.5402-7.9275,2.9303-15.8472,4.0708-23.8425,2.0826-14.4413,5.0175-28.7369,7.8084-43.0543.8904-4.568,1.7726-9.1375,2.6525-13.7075.2364-1.2008.4727-2.4016.7162-3.6387q.3159-1.6449.6382-3.323.2829-1.4517.5715-2.9328c.0915-.7219.1829-1.4438.2772-2.1876-.33-.33-.66-.66-1-1-2.9556,5.4166-5.9102,10.8338-8.8594,16.2539-5.9252,10.8849-11.8927,21.7446-17.9272,32.5693-2.0527,3.6826-4.1023,7.3669-6.1509,11.0518q-.614,1.1043-1.2405,2.231c-3.6154,6.5087-7.1984,13.035-10.78,19.5623-3.509,6.3858-7.0753,12.7371-10.6787,19.0701-3.5358,6.3761-6.9323,12.8286-10.3633,19.2617h-37c-.6291-3.3013-1.2581-6.6026-1.9062-10.0039-.8632-4.5198-1.7282-9.0392-2.5938-13.5586-.2252-1.176-.4504-2.352-.6824-3.5636-3.1108-16.2225-6.3245-32.4185-9.6931-48.5893-2.1772-10.4628-4.2319-20.9282-5.9345-31.4812-.1323-.8117-.2646-1.6234-.4009-2.4597-.1062-.6787-.2124-1.3574-.3218-2.0566-.6434-3.1493-1.5597-6.205-2.4673-9.2871-.9472,4.9022-1.8889,9.8054-2.8259,14.7095-.3176,1.6581-.6365,3.316-.957,4.9736-1.7011,8.8029-3.2968,17.5962-4.5608,26.4731-2.0185,14.0385-4.7806,27.954-7.425,41.885-.7068,3.7279-1.4092,7.4566-2.1121,11.1853-1.3689,7.2586-2.7425,14.5163-4.1191,21.7734-4.3326.2047-8.664.3281-13,.4375q-1.8311.088-3.6992.1777c-6.1267.1159-10.3064.1207-15.082-3.9941-4.5725-4.7207-5.4267-8.2215-5.3755-14.7998.3323-5.9808,1.4539-11.8632,2.4692-17.7588.1253-.7431.2507-1.4861.3798-2.2517,3.1732-18.8055,6.8081-37.5299,10.4359-56.252,2.1732-11.2598,4.2563-22.5012,5.8854-33.8537,1.0108-7.0316,2.2878-13.9869,3.674-20.9551q.3374-1.7248.6816-3.4844c.5397-2.756,1.0833-5.5112,1.6309-8.2656q-7.4307-6.1559-15.5625-11.3125-4.327-2.3559-5.4375-5.6875Z" fill="#fff"/>
  <path d="M184.8978,673.7224c16.3247-.0467,32.6494-.082,48.9742-.1036,7.5801-.0103,15.1601-.0244,22.7402-.0473,6.6077-.0199,13.2153-.0328,19.823-.0373,3.4979-.0026,6.9957-.0087,10.4936-.0233,3.9072-.0161,7.8143-.0165,11.7215-.0156,1.1566-.0072,2.3132-.0144,3.5049-.0218,5.3276.0137,9.762.129,14.7426,2.2488q1.5237.3732,3.0781.7539c10.1369,2.5842,16.9322,7.5996,22.9219,16.1836,8.9048,16.1105,3.8694,40.2575-.75,57.0625-3.6123,10.7956-10.335,21.1884-20.6875,26.4375-1.1756.5156-2.3513,1.0312-3.5625,1.5625.5311.4125,1.0622.825,1.6094,1.25.7064.5775,1.4128,1.155,2.1406,1.75.6961.5569,1.3922,1.1137,2.1094,1.6875,4.9724,5.3716,6.8923,11.1989,6.8281,18.5-.0007.8094-.0014,1.6187-.0022,2.4526-.399,13.0491-3.4805,26.0148-6.0564,38.7739-.148.7356-.296,1.4712-.4485,2.2291q-1.0575,5.111-2.1804,7.3568h-41q2.2382-15.6672,3.3242-20.9922c.2237-1.1369.4473-2.2739.6777-3.4453.462-2.3165.9309-4.6316,1.4062-6.9453,1.2202-6.2694,1.8302-11.3368.5918-17.6172-.0619-.7838-.1237-1.5675-.1875-2.375q-.7514-1.9297-3.4375-2.8125c-7.0416-1.6952-13.9169-2.0048-21.1211-2.1289-1.0111-.0208-2.0222-.0416-3.064-.063-3.2091-.065-6.4182-.1242-9.6274-.1831-2.1843-.0432-4.3685-.0868-6.5527-.1309-5.3365-.1067-10.6731-.2085-16.0098-.3066q-.0932,1.1053-.1883,2.2329c-.085.9765-.17,1.9529-.2575,2.959-.0828.9637-.1655,1.9275-.2508,2.9204-.4533,4.3138-1.3029,8.5182-2.1784,12.7627-1.678,8.4255-3.0292,16.8587-4.1733,25.3726q-.1675,1.2406-.3384,2.5063c-.095.7252-.19,1.4504-.2878,2.1975-.3267,2.0568-.79,4.0369-1.3254,6.0486-4.3326.2047-8.664.3281-13,.4375q-1.8311.088-3.6992.1777c-6.0524.1145-10.2978.1309-15.0508-3.8926-3.9827-4.0255-5.5375-7.3263-5.5508-13.0039.1318-7.5651,1.602-14.8363,3.1133-22.2188.5337-2.655,1.0602-5.3114,1.582-7.9688.1356-.6878.2711-1.3757.4108-2.0844.9847-5.0985,1.7611-10.2085,2.4876-15.3492,1.3112-9.1377,2.9934-18.1953,4.7383-27.2578.1388-.7211.2776-1.4421.4206-2.1851,1.0104-5.2402,2.0288-10.4788,3.0481-15.7173,1.1605-5.9692,2.3177-11.9391,3.4688-17.9102.1372-.7113.2744-1.4225.4158-2.1554,2.1026-10.9232,4.026-21.8612,5.6154-32.872q-.9021-.4392-1.8225-.8872c-2.8538-1.4584-5.4509-3.2072-8.115-4.9878-1.0196-.678-2.0393-1.3561-3.0898-2.0547-2.768-1.9278-5.4402-3.841-7.9727-6.0703v-2ZM242.8978,709.7224c-1.8226,7.7472-3.5702,15.4947-5.0625,23.3125q-.2407,1.2133-.4863,2.4512c-1.5391,8.0291-2.4918,16.1219-3.4512,24.2363,6.7952.0765,13.5902.1288,20.3857.1648,2.3083.015,4.6166.0354,6.9248.0615,3.3315.0367,6.6625.0535,9.9941.0667,1.0202.0155,2.0404.031,3.0915.0469,7.7046.0018,15.7128-.6977,21.9163-5.7149,6.9509-7.8592,8.8055-19.5814,8.9375-29.6875.0258-1.1872.0516-2.3745.0781-3.5977-.3565-3.6285-1.1395-5.4584-3.3281-8.3398-6.7746-3.662-14.6105-3.1355-22.0859-3.0977-1.0569.0014-2.1138.0028-3.2028.0043-3.3621.0056-6.7242.0181-10.0863.0309-2.2852.005-4.5703.0096-6.8555.0137-5.5899.011-11.1797.0277-16.7695.0488Z" fill="#fff"/>
  <path d="M2.8978,673.7224c15.5251-.0468,31.0503-.082,46.5755-.1036,7.209-.0103,14.4179-.0243,21.6269-.0473,6.285-.02,12.57-.0328,18.855-.0373,3.3264-.0026,6.6526-.0098,9.979-.0233,3.7178-.0145,7.4355-.0165,11.1533-.0156,1.0969-.0072,2.1938-.0144,3.324-.0218,5.5915.0151,10.2012.4152,15.4863,2.2488,1.204.272,2.408.544,3.6484.8242,11.3506,2.6294,18.5496,6.7097,25.0625,16.5742,3.6047,7.275,4.845,13.9502,4.7891,22.0391-.0057.9843-.0114,1.9686-.0173,2.9827-.5818,24.9615-6.527,48.3342-24.8577,65.9548-4.5093,3.8376-9.0081,5.8751-14.625,7.625q-1.2104.4119-2.4453.832c-16.6177,5.1581-34.4932,4.4294-51.6797,4.293-2.2305-.0101-4.4609-.0192-6.6914-.0273-5.3946-.0218-10.7891-.055-16.1836-.0977-.1253.7068-.2506,1.4136-.3796,2.1418-3.129,17.6344-6.3346,35.2523-9.6204,52.8582-4.5413.1456-9.0821.2342-13.625.3125q-1.9278.0628-3.8945.127-10.6646.1381-14.2539-2.7715c-6.7383-8.0742-5.1552-18.4706-4.4253-28.5703,1.2506-13.2009,4.3417-26.2935,6.9773-39.27,1.4107-6.9759,2.7749-13.9611,4.1488-20.9443.4936-2.5039.9905-5.0071,1.4876-7.5102,1.9334-9.7746,3.6483-19.543,5.0135-29.415,1.0356-7.1723,2.5465-14.2501,4.0286-21.3411.2153-1.0699.4305-2.1398.6523-3.2422.1956-.941.3912-1.882.5928-2.8516.3018-2.5572.213-4.1306-.7021-6.5234q-1.9534-1.769-4.4375-3.3125c-.8933-.5981-1.7866-1.1962-2.707-1.8125q-1.4135-.9281-2.8555-1.875c-1.8807-1.2623-3.7561-2.5328-5.625-3.8125-.8379-.5633-1.6758-1.1266-2.5391-1.707-.6059-.4886-1.2117-.9771-1.8359-1.4805v-2ZM61.8978,709.7224c-1.2855,6.7803-2.5669,13.5614-3.8452,20.343-.4355,2.3078-.8721,4.6154-1.3096,6.9229-.628,3.3132-1.2526,6.6271-1.8765,9.9412-.1969,1.0345-.3937,2.0689-.5966,3.1347-.1802.9608-.3604,1.9215-.546,2.9114-.1599.8461-.3198,1.6921-.4845,2.5638q-.419,2.3087-.3417,5.183c6.6711.0764,13.342.1288,20.0134.1648,2.2666.015,4.5333.0355,6.7998.0615,3.2694.0366,6.5383.0535,9.8079.0667,1.0035.0155,2.007.031,3.0409.0469,6.7318.0016,13.7395-.3946,19.1559-4.8278,7.7874-7.8785,10.005-20.8833,10.2525-31.5395-.2078-4.5535-.563-7.2416-3.1953-11.0352-6.5476-4.4125-13.202-4.2123-20.8398-4.1328-1.0333.0028-2.0666.0057-3.1312.0086-3.2806.0111-6.5609.0362-9.8414.0617-2.2324.01-4.4648.0192-6.6973.0273-5.4552.022-10.9102.0554-16.3652.0977Z" fill="#fff"/>
  <path d="M749.8978,673.7224c8.9885-.1394,17.9767-.2458,26.9661-.3109,4.1748-.0312,8.3488-.0736,12.5232-.1418,4.0331-.0655,8.0654-.1011,12.099-.1166,1.5342-.011,3.0683-.0326,4.6022-.0651q14.7669-.3005,20.339,4.9753c.4853.5475.9706,1.095,1.4706,1.6591.7695.8251,1.539,1.6502,2.3318,2.5002,2.6534,5.5666,3.3956,11.4466,4.3596,17.4958.2326,1.3938.4663,2.7875.7012,4.1809.4902,2.9263.9709,5.854,1.4441,8.7832.5948,3.682,1.2052,7.3612,1.8219,11.0397,2.1334,12.7338,4.2225,25.4639,5.7946,38.2814,1.2155,9.8826,2.8105,19.6873,4.4648,29.5039.1317.7821.2635,1.5642.3992,2.3701,1.0911,6.4669,2.1923,12.932,3.2949,19.397.8306,4.8716,1.6573,9.7438,2.4785,14.617.3817,2.2552.7691,4.5093,1.1567,6.7634.2332,1.3806.4661,2.7612.6987,4.1418.2041,1.1964.4083,2.3927.6186,3.6254q.4354,3.3002.4354,9.3002h-41c-1.5273-6.8729-2.8339-13.626-3.9375-20.5625-.1566-.9507-.3132-1.9014-.4746-2.8809-.9714-6.0642-1.7864-12.1286-2.5123-18.2263-1.3512-11.289-2.9863-22.5142-4.7748-33.7405-.1205-.7569-.2409-1.5138-.365-2.2936-.997-6.2562-2.0026-12.5109-3.0115-18.7652-.7606-4.7155-1.517-9.4316-2.2671-14.1487-.3481-2.1781-.7025-4.3552-1.057-6.5323-.213-1.3368-.4257-2.6736-.638-4.0105q-.2795-1.7334-.5647-3.5018c-.414-3.4769-.4659-6.8396-.3974-10.3378h-2c-.1146.7228-.2293,1.4455-.3474,2.1902-.6799,2.9275-1.6801,5.1214-3.094,7.7668q-.7459,1.4096-1.5068,2.8477c-.5327.9926-1.0654,1.9852-1.6143,3.0078-1.1014,2.0788-2.2016,4.1583-3.3008,6.2383-.5383,1.0166-1.0767,2.0332-1.6313,3.0806-1.9745,3.7626-3.8758,7.558-5.7554,11.3687-2.8059,5.6715-5.7365,11.263-8.7378,16.8333-3.8322,7.1412-7.4185,14.4035-11.0122,21.6667-.66,1.32-1.32,2.64-2,4,17.16-.33,34.32-.66,52-1-1.3595,4.0786-3.9332,4.8563-7.5625,6.6875-.6689.3474-1.3379.6948-2.0271,1.0527-5.4635,2.823-10.9822,5.5369-16.4966,8.2585-5.5834,2.7792-10.9452,5.8551-16.3357,8.9934-3.8632,2.2079-7.8369,4.169-11.8281,6.1328-1.3492.6791-2.6982,1.3588-4.0469,2.0391-2.203,1.1082-4.3887,2.1316-6.6562,3.1094-8.6658,4.1734-11.4598,12.2899-15.0469,20.7266-3.5623.0874-7.1244.1405-10.6875.1875-1.0074.0251-2.0148.0503-3.0527.0762q-9.3885.093-13.2598-3.2637c-4.5744-4.789-5.519-9.5741-5.3767-16.021.6562-5.1891,2.8615-9.4423,5.2517-14.0415.4967-.9959.9934-1.9918,1.5051-3.0178,3.8854-7.7123,8.0541-15.2613,12.3074-22.7751,3.2256-5.7279,6.1141-11.6115,9.0132-17.5093,2.9134-5.909,5.8569-11.8031,8.7993-17.6978.3303-.662.6606-1.324,1.0009-2.006,4.1331-8.2786,8.3349-16.5075,12.7452-24.6424,2.3389-4.386,4.5393-8.8359,6.7446-13.29,2.6701-5.3718,5.4598-10.6729,8.3081-15.9521.9056-1.6795,1.8036-3.3631,2.7012-5.0469.5917-1.0493,1.1834-2.0986,1.793-3.1797q1.3445-2.6388,1.2227-4.9727c-1.5168-2.7594-3.584-3.8076-6.2656-5.4102-.9539-.5788-1.9078-1.1576-2.8906-1.7539-1.8839-1.1092-3.7904-2.1809-5.7188-3.2109-.7064-.486-1.4128-.972-2.1406-1.4727v-3Z" fill="#fff"/>
  <path d="M897.8978,673.7224h49v2c.5363.0619,1.0725.1237,1.625.1875,4.2536,1.4552,7.4165,4.2441,9.75,8.0625,2.0949,9.2174-.4313,18.5403-2.1875,27.625-.5314,2.7883-1.0578,5.5775-1.582,8.3672-.1357.7188-.2714,1.4377-.4112,2.1783-.791,4.2419-1.5026,8.4873-2.1448,12.7541-2.4225,16.0888-5.6562,32.0404-8.737,48.0129-2.0831,10.8281-4.1662,21.6562-6.3125,32.8125,25.74.33,51.48.66,78,1q0,11.25-1.0938,16.4453l-.6836,3.3203c-.2385,1.1086-.477,2.2172-.7227,3.3594q-.3577,1.7209-.7227,3.4766c-.5836,2.8015-1.1762,5.6007-1.7773,8.3984-13.8127.1638-27.6252.2866-41.4387.3627-6.4145.0365-12.8283.086-19.2424.1654-6.1922.0762-12.3837.1179-18.5764.1361-2.3603.0129-4.7206.0381-7.0807.076-3.3112.0509-6.6198.0578-9.9313.0546q-1.4577.0378-2.9447.0763c-6.4419-.068-9.6624-1.6299-14.2665-6.1418-4.3795-4.9846-3.8307-10.4059-3.5192-16.7291.5061-3.9455,1.2463-7.8318,2.0117-11.7344.2083-1.1025.4166-2.2049.6312-3.3408.4441-2.3464.8922-4.692,1.3439-7.0369,1.1826-6.1402,2.3365-12.2858,3.4937-18.4309.2263-1.1979.4527-2.3957.6859-3.6299,1.5597-8.2806,3.0109-16.5676,4.3336-24.8897,2.3139-14.4242,5.0426-28.7704,7.75-43.125.227-1.2066.4539-2.4131.6877-3.6563.6483-3.4419,1.2998-6.8832,1.9529-10.3242q.2965-1.5728.5991-3.1773c.1842-.9653.3684-1.9305.5582-2.925q.2405-1.2666.4859-2.5588.4662-2.171,1.4662-5.171c-.5752-.2785-1.1505-.557-1.7432-.844-3.8179-1.9556-7.3898-4.2931-11.0068-6.5935-.7928-.4905-1.5855-.981-2.4023-1.4863-.7489-.4776-1.4979-.9552-2.2695-1.4473-.6867-.4324-1.3735-.8648-2.0811-1.3103-.494-.4351-.9881-.8703-1.4971-1.3186v-3Z" fill="#fff"/>
  <path d="M370.8978,673.7224h50v2c.7219.2269,1.4437.4537,2.1875.6875,4.6612,2.1752,7.1836,4.8261,9.1875,9.5625,1.2426,7.4553-.7043,15.0171-2.1172,22.3672-.169.8966-.3381,1.7933-.5122,2.7171-.537,2.8475-1.0783,5.6942-1.6206,8.5407q-2.9344,15.3761-5.4766,30.8203c-1.3657,8.9706-3.0137,17.8861-4.6797,26.8047q-.2083,1.1156-.4209,2.2538c-1.159,6.2008-2.3247,12.4003-3.4904,18.5997-1.0117,5.3816-2.0206,10.7637-3.0262,16.1465-.1376.7352-.2751,1.4705-.4168,2.228-1.7466,9.3517-3.4218,18.7078-4.791,28.1236q-.729,4.9596-1.8234,7.1484c-4.3326.2047-8.664.3281-13,.4375q-1.8311.088-3.6992.1777c-6.0524.1145-10.2978.1309-15.0508-3.8926-3.9137-3.9557-5.5408-7.2639-5.582-12.8477.1474-8.4613,1.9593-16.6136,3.6445-24.875.6274-3.1238,1.2479-6.2489,1.8633-9.375.1571-.796.3142-1.5921.4761-2.4122,1.0449-5.3885,1.9007-10.7825,2.6684-16.2167,1.3216-9.2445,3.0088-18.4126,4.7461-27.5859.1401-.7397.2802-1.4795.4245-2.2416.8708-4.5907,1.7469-9.1805,2.6248-13.7698,1.1819-6.1803,2.3592-12.3616,3.533-18.5435.4045-2.1255.8119-4.2504,1.2196-6.3752,1.5529-8.1362,2.9366-16.2833,4.1317-24.48-.6184-.3055-1.2369-.6109-1.8741-.9257-3.7812-1.9108-7.304-4.2401-10.8759-6.5118-.7928-.4905-1.5855-.981-2.4023-1.4863-.7489-.4776-1.4979-.9552-2.2695-1.4473-.6867-.4324-1.3735-.8648-2.0811-1.3103-.494-.4351-.9881-.8703-1.4971-1.3186v-3Z" fill="#fff"/>
  <path d="M170.8978,849.7224c.99.33,1.98.66,3,1-.99.33-1.98.66-3,1v-2Z" fill="#fff"/>
</svg>