<?xml version="1.0" encoding="UTF-8"?>
<svg data-bbox="38.985 268.077 822.136 363.82" viewBox="0 0 900 900" xmlns="http://www.w3.org/2000/svg" data-type="color">
    <g>
        <path d="M664.25 520.37a.37.36-65.5 0 1-.64.24l-45.57-52.18a2.39 2.37-65.6 0 1-.58-1.56V314.35a1.41 1.38 24.5 0 0-.36-.93l-39.44-44.37a.59.58-20.7 0 1 .44-.97q110.91-.01 133.15.02 7.34.01 15.56.14c7.3.12 13.42.92 23.69 1.77q8.98.75 21.31 2.63 18.56 2.84 32.42 13.12c20.2 14.97 34.54 37.6 37.52 62.48 2.3 19.19.27 38.1-8.34 55.67q-11.27 23-34.23 34.35a.3.3 0 0 0 .04.55q12.34 4.27 23.9 12.35 11.34 7.92 19.21 18.74c19.67 27.07 23.74 61.85 12.95 92.96-6.94 20.02-21.29 38.36-39.99 49.17q-15.53 8.98-30.6 12.9c-14.87 3.86-29.63 4.94-46.93 6.3q-8.13.63-14.24.64-116.59.04-473.28.02a.72.72 0 0 1-.64-.39l-82.35-169.02a.39.38 75.7 0 0-.34-.21H116.8a.97.97 0 0 1-.97-.97v-44.71a.43.43 0 0 1 .43-.43q12.66.08 51.99-.1 17.87-.08 32.22-2.88c18.73-3.65 33.18-17.78 36.35-36.72 1.9-11.32 1.81-24.82-3.05-34.97-5.58-11.64-15.8-21.2-28.81-23.94q-14.81-3.13-36.09-3.16-5.88-.01-89.04-.01a1.27 1.26 69.1 0 1-.95-.43l-39.86-45.66a.11.11 0 0 1 .08-.19q123.21-.04 125.65-.01c6.36.06 14.49.02 22.32.77q4.68.45 14.08 1.31 14.7 1.36 29.85 4.82 17.65 4.04 32.99 16.74 21.24 17.59 28.05 44.92c6.21 24.91 4.08 54.63-9.32 76.85-9.17 15.2-24.37 27-40.79 33.66q-11 4.46-20.91 6.91a.49.48-20.2 0 0-.32.68l63.59 130.5a.66.66 0 0 0 .6.38q82.77-.01 99.6-.03c11.22-.01 24.29-.79 35-1.66 28.02-2.26 56-8.04 78.77-25.6q5.87-4.53 12.14-12.06c17.04-20.49 26.34-49.94 28.66-76.96q1.5-17.38 1.27-24.07-.3-8.94-1.18-18.47c-2.52-26.95-11.66-52.84-28.78-74.15q-17.97-22.37-45.43-30.03-9.9-2.77-24.98-4.71-29.72-3.82-63.27-3.5a.49.49 0 0 0-.49.49v205.54a.39.39 0 0 1-.66.28l-53.79-52.04a2.24 2.22 22 0 1-.69-1.61V314.67a1.24 1.23-65.9 0 0-.31-.82l-40.44-45.58a.12.11-20.4 0 1 .09-.19q23.52-.01 109.1.01c10.62.01 21.71-.23 31.47.98 5.44.67 12.74.64 20.02 1.33q11.36 1.08 21.73 2.44c22.96 3.02 43.39 11.55 62.82 24.1q23.29 15.04 39.09 37.64 22.78 32.62 29.09 71.92 2.2 13.72 2.82 25.18 1.07 19.69-1.2 41.94c-2.16 21.26-6.36 42.57-14.62 61.58q-7.14 16.46-12.85 25.68-8.25 13.34-19.32 24.65a.32.31-73.3 0 0 .28.53q1.73-.36 2.8-.38 5.04-.1 162.84-.05 7.32 0 17.05-.54c10.92-.61 20.43-1.33 31-3.36 24.72-4.77 40.88-25.71 42.38-50.66.8-13.2-.66-24.78-6.9-36.12-7.62-13.88-21.75-23.14-37.48-26.48-10.02-2.13-20.56-3.11-31.09-3.36q-27.91-.69-64.65-.39a.54.53-.6 0 0-.53.53zm.04-153.64q-.1 38.73-.24 52.09a.32.31.4 0 0 .32.32q5.33 0 57.63.06c16.44.03 36.54-2.82 49.48-13.53 11.67-9.67 15.55-23.97 15.59-38.62.04-14.64-3.77-28.97-15.39-38.69-12.88-10.78-32.97-13.74-49.41-13.79q-52.3-.21-57.63-.24a.32.31-.1 0 0-.32.31q.07 13.37-.03 52.09" fill="#ffffff" data-color="1"/>
    </g>
</svg>
