<?xml version="1.0" encoding="UTF-8"?>
<svg data-bbox="-0.338 0 2414.338 1319" viewBox="0 0 2414 1319" height="280.352" width="513.207" xmlns="http://www.w3.org/2000/svg" shape-rendering="geometricPrecision" text-rendering="geometricPrecision" image-rendering="optimizeQuality" fill-rule="evenodd" clip-rule="evenodd" data-type="color">
    <g>
        <path d="M963 0v529c2 3 3 4 6 4v-1c107-53 214-65 324-31 116 35 213 120 262 229 11 27 35 28 49 0 17-32 28-54 36-66 69-96 159-154 271-176 98-19 208-1 291 49 123 73 194 181 212 329v74h-562c-3 0-6 2-6 6-3 78 25 145 107 163 87 20 154-5 201-74 1-2 5-4 8-2l203 41c4 0 8 4 8 8 0 3-2 4-2 5-64 108-147 176-245 207-72 22-143 27-213 14-127-22-247-106-303-225-7-14-16-40-28-77l-1-2c-2 0-2 2-3 2-49 156-151 256-307 300-26 6-59 9-89 13h-17c-138-7-248-61-332-166-16-19-30-48-43-65-1-2-5-5-9-6s-9-1-16 0c-4 0-7 4-9 8-49 173-235 213-391 229h-88c-94-7-185-33-271-79-6-3-7-7-6-12l81-187c1-3 5-4 6-3h1c69 40 144 65 224 74 38 4 88-2 114-34 2-3 4-5 4-9 18-60-57-76-102-84-128-21-281-48-295-202-20-212 199-299 371-303 114-1 227 13 338 47h1c2 0 3-2 4-3V0zM746 942V625c0-1-1-2-1-2-2 0-2 1-2 1l-48 111c-1 3-5 5-7 4-62-28-127-47-194-57-33-5-61-5-86-1-26 5-43 10-49 19-40 45 26 74 62 80 119 24 262 38 321 163h3s1 0 1-1m1141-178h237v-3c0-57-53-104-118-104h-1c-66 0-119 47-119 104v3zm-548 135c0-93-75-168-170-168-93 0-168 75-168 168 0 95 75 170 168 170 95 0 170-75 170-170" fill="#ffffff" data-color="1"/>
    </g>
</svg>
