<?xml version="1.0" encoding="UTF-8"?>
<svg data-bbox="0 0 6651 2156" viewBox="0 0 6651 2156" height="294.398" width="908.277" xmlns="http://www.w3.org/2000/svg" shape-rendering="geometricPrecision" text-rendering="geometricPrecision" image-rendering="optimizeQuality" fill-rule="evenodd" clip-rule="evenodd" data-type="color">
    <g>
        <path d="M215 1252c3-3 7-5 12-5 4 0 8 1 11 3 238 231 471 310 698 240 195-61 177-262-12-314-331-90-728-153-811-484-76-306 94-580 399-658 332-85 639-4 923 242 3 2 5 6 5 10 0 3-1 7-3 9l-218 285s-1 0-1 1c-4 4-11 5-16 1 0-1 0-1-1-1-133-136-408-259-599-191-97 35-138 99-124 191 2 14 9 27 20 37 61 55 108 86 143 93 400 82 873 183 806 710-47 370-498 504-799 453-245-42-460-152-645-332-2-2-3-4-3-7 0-2 1-4 2-5zm4713 756h1641c6 0 11 6 11 11v126c0 6-5 11-11 11H4928c-6 0-11-5-11-11v-126c0-5 5-11 11-11m-848-752c5 0 13-16 26-47 151-386 303-768 454-1145 2-6 8-11 15-11h377c4 0 7 3 7 7 0 0 0 2-1 2l-709 1735c-6 14-19 25-34 28-4 1-48 1-134 2-85 0-130-1-134-1-15-3-28-14-34-28L3198 66c-1-2-1-2-1-3 0-4 3-7 7-7l376-1c7 0 13 4 17 11 152 376 304 757 458 1143 12 31 20 47 25 47M2341 761c203 1 325 0 366-1 9 0 16-7 16-15V80c0-14 11-25 25-25h332c15 0 28 12 28 26-1 48-1 334-1 860-1 526-1 813 0 859v1c0 14-13 26-28 26h-333c-13 0-25-11-25-25l1-665c0-9-6-16-16-16-41 0-163-1-366-1-202-1-324 0-366 1-8 0-16 7-16 15v665c0 14-10 25-24 25h-333c-15 0-27-12-27-26v-1c0-47 1-333 1-859V80c0-14 12-26 27-26h333c14 0 25 11 25 25l-1 665c0 9 7 16 16 16 41 0 163 1 366 1M5719 0h12c508 0 920 423 920 943 0 521-412 943-921 943-508 0-920-422-920-943 0-520 412-943 921-943zm33 371c-297-10-547 237-558 552-11 316 221 579 518 590 296 10 546-237 557-553 12-314-221-579-517-589" fill="#ffffff" data-color="1"/>
    </g>
</svg>
