<?xml version="1.0" encoding="UTF-8"?>
<svg data-bbox="0 0 3098 3098" viewBox="0 0 3098 3098" height="588.99" width="588.99" xmlns="http://www.w3.org/2000/svg" shape-rendering="geometricPrecision" text-rendering="geometricPrecision" image-rendering="optimizeQuality" fill-rule="evenodd" clip-rule="evenodd" data-type="color">
    <g>
        <path d="M1484 139c30-25 69-25 102-7 7 3 14 5 14 13v58h-2c-7-5-15-13-22-18-18-10-34-10-51 0-13 6-21 20-26 33-12 28-12 59-2 91 4 8 7 15 12 19 25 37 72 29 95-4h2c2 19 2 36 3 52 2 9-8 17-16 22-33 20-76 18-107-5-22-17-37-46-43-73-4-25-7-49-5-74 1-36 15-84 46-107" fill="#ffffff" data-color="1"/>
        <path d="m1816 424 112-168v-2h2c6-11 10-18 11-20 12-18 20-29 23-36 5-5 10-7 19-5 8 2 16 5 26 10 16 7 15 23 13 38-5 78-10 162-16 254h-2c-8-1-18-5-28-8-15-5-18-12-17-28 0-15 2-22 2-22 0-9-7-14-15-16-8-3-20-7-31-12-7-3-13-5-22-3-6 0-11 7-14 12-4 10-9 16-10 21-5 8-12 8-20 5-22-10-48-15-79-16-12-2-15-10-20-22-10-28-22-58-35-89-2-5-3-8-3-8-2-4-5-5-8-4-5 4-4 12-4 15-3 17-6 43-13 81 0 7-5 12-13 10-10 0-18-2-25-3-15-2-11-12-11-23 18-119 31-200 36-245 1-8 6-11 13-10 10 2 18 4 28 5 15 2 30 4 48 7 10 3 18 5 25 8 26 8 41 28 44 58 2 45-10 87-61 99-1 0-3 2-3 5 0 2 0 3 2 5 16 40 31 74 44 107zm-106-181c-2 10 3 18 13 18h19c29 3 36-17 36-41 0-14-5-22-17-27-11-5-21-6-33-6-10 0-11 6-11 14v14l-4 6v5c0 5-1 10-3 17m266 18c0-2-2-2-2 0h-1l-60 99v2c15 3 30 9 43 13 7 3 8-2 10-7 3-33 8-68 12-106 0-1 0-1-2-1" fill="#ffffff" data-color="1"/>
        <path d="M1370 418c-23 14-46 18-74 10-25-9-46-32-58-57-18-33-28-69-28-109 0-49 16-105 71-118 31-9 64 5 86 29 34 42 46 98 44 152 0 33-13 73-41 93m-74-220c-17 3-25 20-28 35-5 20-4 41 0 61 3 21 10 41 21 59 8 12 23 23 38 20 15-2 25-18 28-33 4-20 4-40-1-61-4-21-9-41-20-58-10-13-23-25-38-23" fill="#ffffff" data-color="1"/>
        <path d="M1098 300h-2c5 28 12 80 22 152 1 4 1 10 4 22 2 15-11 15-19 20-10 5-18 6-23-4-25-33-53-72-88-117-5-7-8-18-18-18h-2c15 51 30 97 42 139 3 8 6 14 8 21 3 13-13 18-23 21-5 2-14 5-17 0-3-1-5-6-6-11-22-78-43-157-66-238-4-13 3-20 14-23 7-3 14-5 20-8 8 0 13 2 18 6 4 7 9 12 12 17 7 8 36 48 91 122l1 2c2 0 2-2 2-2v-5c-7-51-13-96-18-132-2-8-3-20-5-35-2-9 2-16 11-19 7-4 12-5 17-9 13-6 21 2 28 12 38 73 79 145 121 216 3 7 4 15-4 18-6 2-11 4-16 5-13 9-18 5-27-8-19-41-43-86-69-134-3-6-3-8-8-10" fill="#ffffff" data-color="1"/>
        <path d="M2253 373h-3c-12-7-22-13-31-18-4-3-7-5-12-5-12-3-18 5-21 15-4 6-9 18-14 28-10 18-34 64-72 140-4 7-10 8-18 5-5-3-12-6-20-11-10-5-10-14-5-24 25-47 54-105 89-171 3-7 3-12-3-15-9-3-17-8-25-13-12-5-23-12-17-28 7-12 12-20 14-25 5-7 9-7 16-3 43 23 91 47 142 74 3 2 5 3 5 6v2c-8 17-15 30-23 41 0 0-2 0-2 2" fill="#ffffff" data-color="1"/>
        <path d="M744 457c4 7 17 27 25 25 4-2 8-3 10-7 22-13 45-29 69-46 7-5 10-3 15 2 10 13 17 21 18 25 7 11-3 19-13 26q-31.5 22.5-66 45c-3 5-1 9 0 14 5 9 10 15 13 20 7 8 12 18 25 12 5-2 12-5 18-10 20-13 38-27 56-40 9-6 17-10 24 0 6 12 14 23 23 35v2c-4 3-7 6-10 8-48 33-88 61-119 82-7 5-12 9-18 0-53-77-103-148-149-214-3-5-3-8 2-12 51-36 94-64 127-87 5-5 10-4 13 0 7 8 13 16 18 25 5 6 7 13 0 19-1 4-6 9-13 12-1 2-18 13-46 31-5 5-17 12-23 17-5 5-2 11 1 16" fill="#ffffff" data-color="1"/>
        <path d="M2273 449c2-2 3-7 8-12 4-3 5-8 7-9 20-30 33-48 40-58 3-5 6-7 13-4 10 7 18 12 23 17 6 5 8 12 3 18-3 5-5 10-6 13-62 86-108 154-139 200-3 2-5 3-7 5h-1l-37-26-1-2c0-2 0-2 1-3 17-23 48-70 96-137z" fill="#ffffff" data-color="1"/>
        <path d="M2349 607c-7 19-8 37 3 53 12 18 28 28 51 28 4 0 10 0 15-1l2 1v2c-10 13-22 26-35 40-5 3-10 5-16 3-25-3-46-13-61-35-30-36-25-79-5-119 20-36 46-67 82-89 15-10 30-15 47-20 34-6 69 9 90 35 9 10 14 22 17 36 1 5 0 9-3 12-7 8-20 21-37 40h-1c0-5 0-10-2-14-3-28-23-51-53-51-8 0-18 2-30 7-31 16-52 39-64 72" fill="#ffffff" data-color="1"/>
        <path d="M462 629c-3-3-3-8 0-13 7-5 25-23 51-51 9-7 14-12 20-17 20-15 43-20 70-15 47 7 90 41 115 81 18 28 28 58 25 89 0 17-12 35-23 48-17 22-43 46-56 61-5 5-10 3-15-1-51-52-106-104-162-161-8-6-15-13-25-21m74-2 4 4c71 69 107 104 107 105 2 2 3 2 5 2h2c21-18 39-43 31-73-7-23-23-41-45-56-14-11-28-18-41-20-25-1-48 12-63 33z" fill="#ffffff" data-color="1"/>
        <path d="M2582 888c-9 7-23 18-46 35-2 1-4 1-5 0-24-5-43-15-57-35-31-44-19-94 15-134 35-43 88-76 142-79 50-3 94 40 96 89 0 7-3 13-10 17-13 10-26 20-36 26-2 2-4 2-5 2v-2c5-18 1-41-13-56s-32-20-52-16c-11 1-19 6-29 11-38 18-84 65-58 111 13 21 33 26 58 31" fill="#ffffff" data-color="1"/>
        <path d="M1826 1591c-14-6-25-13-35-20-15-11-25-18-28-23 0 2 2 0 2 0v-1c1-4 1-10 3-18 5-20 7-43 5-73 0-2 0-3-3-5-4-2-7 0-10 3-14 15-25 32-20 55 2 0 2 1 2 6 1 5 3 10 1 15 0 4 2 5 3 7 4 3 5 5 7 6l-7-5c-3-1-6-4-9-6-10-5-20-10-30-17-18-11-35-24-58-41-33-23-69-48-107-76-10-6-20-16-27-25-3-3-6-10-10-19-4-7-9-20-19-37-37-69-83-127-141-176v-2c2-43 0-86-3-129-2-15-2-28 3-43 2-13 2-23-10-29-3-2-8-4-11-7-3-2-8-5-10-7-10-5-15-11-13-23 0-3 1-5 5-5l6-1c2 0 4-2 4-2 28-16 59-36 84-53 86-56 135-89 152-99 5-3 8-6 10-11v-2c0-5 1-10 5-13 8-5 13 0 13 8 3 7 5 10 11 13 38 25 117 75 238 149 8 5 20 8 17 21-2 7-4 12-10 17-4 3-10 3-15 6-12 4-17 15-15 27 2 54 2 104 0 148v43c0 32 2 63-3 94-2 9-2 15 0 17 5 13 19 11 28 13 15 5 15 17 13 30 0 5-2 11-5 18-3 15-10 26-20 36-8 5-13 10-16 18-5 12-4 27 1 37 4 8 5 15 7 23 3 33 8 82 15 148z" fill="#e6e6e6" data-color="2"/>
        <path d="M269 910c0-4 0-7 2-9 38-62 62-105 76-128 1-7 6-10 13-7 5 3 13 8 28 16 5 4 8 7 10 9 1 0 3 1 1 3-1 3-4 7-4 10-19 30-35 56-48 81-5 6-4 11 1 15 5 3 12 6 22 11 13 7 18 5 25-6 16-27 29-52 42-73 5-10 14-5 22 0 10 5 16 10 20 13 5 3 6 10 3 15-2 5-5 10-8 17-20 34-32 52-38 64v3c5 13 16 18 31 23 5 4 8 5 12 9 8 5 11-7 13-12 18-28 31-53 44-76 4-7 9-13 15-8 5 1 12 5 22 10 8 6 18 13 13 24-3 5-5 12-8 17-22 35-43 73-65 111-3 6-10 8-18 3-74-43-147-86-219-127l-7-7z" fill="#ffffff" data-color="1"/>
        <path d="M2679 939c-2 0-2 2-3 2-3 2-18 10-43 23h-2c-8 3-15 8-18 10-5 3-5 8-2 15 15 29 32 58 45 86 2 3 0 5-2 6-10 7-16 10-19 13-10 7-22 12-30 0-5-5-8-9-12-16-16-33-36-68-57-111-4-5-2-11 4-15 78-39 152-79 225-118 10-5 16-4 20 5 5 9 11 19 13 29 2 5-5 10-10 13-8 5-36 19-81 43-6 4-16 9-26 15z" fill="#ffffff" data-color="1"/>
        <path d="m1012 1033-2 2v2c-3 19-10 38-23 52v5c2 2 3 4 3 5-8 4-18 7-26 10-5 2-8 4-12 5-24 8-46 7-69-5-11-6-21-13-30-24-21-29-11-63-3-93 7-18 7-36-8-49v-2c18 5 33 16 41 33h2c-2-22-7-40-20-55-8-8-13-18-15-28-6-21 7-44 22-59v2c-4 24 9 46 29 61 10 8 22 16 37 28 5 5 10 11 16 18 15 20 20 44 22 69 6-6 11-15 9-25 0-8 0-14-1-21v-2h1c17 20 25 47 25 71z" fill="#ffffff" data-color="1"/>
        <path d="M424 1261c-138-48-223-77-251-87-5-2-6-5-6-10q1.5-12 6-27c5-16 18-13 32-8 28 10 51 18 67 23 7 4 10 0 14-6 3-12 8-28 16-47 2-8 0-11-7-14-33-12-59-22-79-29-8-1-8-9-6-16 5-13 8-22 11-26 5-10 17-5 25-4 61 23 137 48 226 81 7 2 17 0 13 13-5 14-10 25-13 35-5 10-13 3-18 0-26-8-55-17-84-28-10-5-13 5-17 13-1 8-11 25-13 40-3 20 22 21 35 25 5 1 8 3 15 4 16 5 24 9 24 9 9 5 20 5 27 10 0 0 1 0 1 1 2 5-1 17-3 22-3 8-7 16-10 25 0 1-1 1-3 1z" fill="#ffffff" data-color="1"/>
        <path d="M2867 1032c5-2 10-2 14 5 4 11 8 19 9 28 2 6 0 13-5 16-4 2-9 4-16 7-64 20-112 36-144 46-8 3-18 8-26 15-13 11-18 23-8 36 13 17 41 12 57 7 53-17 104-33 152-50 15-5 17 5 20 15 2 5 3 10 5 13 2 9 3 17-5 22-5 3-8 3-15 5-28 10-59 20-92 31-30 10-58 18-86 22-10 1-17 1-21 1-35-3-60-16-71-51-20-53 13-87 57-109 7-3 17-8 33-13 70-22 116-38 142-46" fill="#ffffff" data-color="1"/>
        <path d="M1093 1037c0 3 1 5 3 5h2c1 0 3-2 5-4h6c5 5 9 5 12 0 20 2 39 7 58 12 34 11 66 28 99 48 23 13 46 28 67 43 58 49 104 107 141 176 10 17 15 30 19 37 4 9 7 16 10 19 7 9 17 19 27 25 38 28 74 53 107 76 23 17 40 30 58 41 10 7 20 12 30 17 3 2 6 5 9 6l7 5c2 4 5 5 10 5 3 5 13 12 28 23 10 7 21 14 35 20 59 40 124 70 190 101 67 31 125 54 191 66h7c0-2 1-2 1-2 2-3 2-6 0-8-20-117 37-213 108-300 0 19 1 44 0 69-4 92-7 167-10 218 0 5 0 7 1 8 2 3 4 3 7 5 13 2 11-11 15-20 23-57 58-110 102-155 7-6 12-11 17-15 6-5 18-11 28-10 1 0 1 0 1 2v7c-24 90-49 175-72 254-7 21-17 56-27 81-13 33-31 66-53 99-14 20-33 44-46 69-29 43-58 93-84 145-20 43-33 68-38 78-2 3-3 5-7 10-8 13-21 8-34 5-17-3-38-10-66-18-8-4-10-9-10-17-3-46-12-76-23-134-4-16-7-38-10-67-2-12-3-38-5-76 0-3-2-10-3-12-4-3-7-5-12-3-40 3-78 8-115 16l-33 5c-20 0-38 4-58 5-9 2-15 0-23-6-45-40-76-66-94-83-101-94-215-198-326-300-62-56-127-114-194-174-30-26-60-51-88-74-26-20-49-39-74-59-7-8-2-13 3-18 43-45 83-85 117-119 4-4 5-7 9-8 8-9 19-17 13-30-4-8-12-12-22-15-5-2-15-3-26-5-7-2-12-2-13-2h-2l-3-1h-2c-25 0-48 1-73-4 0-1-1-3-3-5v-5c13-14 20-33 23-52v-2l2-2c16 4 33 2 49 0 10 0 20 2 32 4m99 350c16 5 34 6 53 5 10 0 21 3 23 14 1 19 8 40 10 52 1 6 8 8 11 1 10-20 15-33 18-41 5-12 10-18 22-18 8 1 21 3 41 5 5 0 15 3 20-4 0-1 0-4-3-8-14-10-27-23-42-34-6-5-8-12-3-20 5-15 13-30 20-48v-2c0-1-2-3-3-3l-2 2c-17 8-30 14-41 23-10 5-17 8-25 0-15-17-30-28-48-40-2 0-2 0-2 2 4 15 5 24 5 31 2 8 7 20 7 26 0 20-17 27-33 35-10 5-20 12-28 20zm299 269c8-18 18-38 26-55 3-8 8-13 17-13 3 0 6 0 13 2 18 3 33 1 51 0-12-17-25-30-38-40-7-5-10-8-10-16 0-4 2-9 3-14 10-18 17-29 18-46h-1c-18 10-35 18-48 27-7 3-12 4-18 1-3-3-5-5-7-8-15-13-25-25-41-35v2c-3 15 2 31 7 48 3 15 0 26-14 33-3 1-10 5-24 13-10 5-20 12-28 21h1c8 0 18 0 30 2 21 2 35 3 38 3 6 2 10 4 10 9 5 23 8 43 13 66zm115 107c20 5 36 7 51 7 9 0 15 1 17 3 5 3 8 6 10 13 3 18 8 38 13 58 0 2 0 2 2 2 3-2 5-4 5-5 3-7 8-19 13-30 5-17 11-30 28-33 18-2 39 5 51 6 8 2 10-6 3-11-15-12-28-25-39-36-5-5-7-10-4-19 5-8 10-21 19-36 1-5 3-8 1-11-1-4-5-5-8-2-5 2-20 10-43 23-5 3-10 2-15-2-15-15-31-29-48-44h-1c1 20 3 38 8 56 3 13 3 20-8 26-4 2-10 7-20 12-13 6-25 13-35 23m669 210c10 3 18 6 28 6 0 0 1 0 1-1 2 0 2-2 2-4v-11c0-5-2-10-7-7-6 2-13 3-19 2-4-2-5-5-7-8-2-4-2-9 0-12v-2c2-1 5-3 7-3 5 0 10 0 13-2h1v-1c-4-9-9-17-18-25-1-2-3-3-5-3-6-2-11 10-14 14-2 5-4 10-4 14-3 13 0 26 12 36 1 2 6 5 10 7" fill="#ffffff" data-color="1"/>
        <path d="M395 1349c8 1 21 3 16 14q-3 10.5-3 15c0 7-2 12-2 17-2 11-10 8-18 6-66-9-132-19-193-31-12-2-13 7-13 17-2 8-4 16-5 26-4 12-7 15-20 15-5 0-13 0-27-2-8-1-13-6-11-15 8-51 16-102 25-156 1-10 8-10 18-7 6 2 18 3 31 5 7 2 8 5 7 11-2 14-4 27-5 42-2 10 5 13 13 15 73 11 135 21 187 28" fill="#ffffff" data-color="1"/>
        <path d="M2847 1434h-1c-23 42-68 60-112 45-27-8-40-30-45-56-3-18-7-41-10-71-2-7-2-13-3-18-3-13 6-12 15-13 81-12 148-20 203-28 10 0 26-4 44-5 13-2 17 5 17 16 1 18 6 45 8 69 3 35-12 66-48 75-13 3-26 3-41-2-10-2-18-7-27-12m67-82c-2-5-4-8-10-8-9 3-19 3-28 3-10 0-30 5-30 18 0 7 1 15 8 22 12 16 28 14 46 8 10-5 15-13 14-25zm-121 8-53 7c-5 0-10 3-10 8v2l4 24c3 17 18 30 33 29l13-2c16-2 28-18 26-35l-3-25c-2-5-5-8-10-8" fill="#ffffff" data-color="1"/>
        <path d="M1725 2019c-3 8-13 11-21 13-15 5-30 10-47 10-6-2-8 2-8 8v25c5 43 10 81 12 124 6 82 11 186 18 249 1 21 3 45 6 64 4 15 12 28 20 42 5 6 10 15 13 24-36 19-170 19-198 17h-1c0-63-4-117-7-165-8-134-15-279-18-368 0-18-8-28-27-28-11-5-23-9-36-10-21-8-41-18-61-27-18-6-35-14-49-23-14-11-30-21-45-28-3-5-7-6-10-8-73-58-124-132-148-221-7-22-12-40-15-58-2-13-5-25-7-33 0-2 0-2-2-2-6 5-26 18-56 42-18 13-44 26-67 29-37 5-78-3-103-31-23-22-54-53-91-91-4-5-8-6-11-3l-2 1c-1 50-3 106-5 166 0 6-1 13-3 18-5 18-20 26-36 33-30 8-126 43-149 44-11 2 7-74 7-79 3-8 6-25 15-54 1-12 3-24 6-33 4-15 10-20 25-20h21c12 0 14-7 14-17-2-61-4-143-5-249 0-21 5-33 26-40 28-8 55-1 79 12 38 23 71 41 98 58 8 6 20 13 28 10 8-2 15-10 20-17 18-28 31-49 49-68q7.5-4.5 15 0c117 109 205 187 259 235 8 8 38 35 94 84q37.5 34.5 93 84c104 93 204 183 298 268 5 5 9 8 12 13" fill="#ffffff" data-color="1"/>
        <path d="M2697 2044c-26-30-49-57-69-76-8-9-10-18-5-30 7-10 12-20 15-28h2c29 33 64 74 103 122 9 8 15 13 20 18 2 0 10 3 25 10 40 18 68 31 83 38 11 3 11 12 6 22-1 4-5 11-8 16-5 12-13 7-23 2-13-9-27-14-36-18-57-27-114-37-175-30-25 1-47 0-70 0-3 0-6 0-6-5 0-2 1-3 1-5 4-3 5-8 7-13 2-7 3-12 5-14 5-8 13-9 21-9z" fill="#ffffff" data-color="1"/>
        <path d="M1321 1974c-17 17-66 510-66 575-19-5-35-10-50-17 25-181 50-393 71-574v-12c15 7 31 17 45 28" fill="#e6e6e6" data-color="2"/>
        <path d="M229 2042c14-17 29-30 48-41 20-12 43-23 68-32 36-15 74-19 112-10 28 7 46 30 48 58 2 22-10 45-25 61-5 7-13 13-23 22-46 38-105 61-165 66-8 0-20 0-34-4-22-5-42-19-50-41-10-30 2-56 21-79m169-38c-46 8-88 26-121 59-10 9-18 20-13 33 5 17 20 22 36 20 47-3 88-21 123-51 11-10 24-21 23-36-2-25-28-28-48-25" fill="#ffffff" data-color="1"/>
        <path d="m1879 1987 72 537c-13 7-26 12-39 16l-66-548z" fill="#e6e6e6" data-color="2"/>
        <path d="m1776 2565-34 7-38-540c8-2 18-5 21-13 8 0 15 1 17 8 1 3 3 8 3 17z" fill="#e6e6e6" data-color="2"/>
        <path d="m1467 2034-24 548c-12 1-23 0-35-4l23-554c13 1 25 5 36 10" fill="#e6e6e6" data-color="2"/>
        <path d="M2739 2210v-1c14 10 34 21 47 33 12 8 10 21 9 33-5 43-37 67-78 67-8 0-15 0-23-1-71-13-129-51-170-111-23-33-30-74 2-106 8-8 16-13 26-16 18-7 26 3 40 13 11 7 21 13 31 20v2c-21-2-41 3-53 23-10 20-3 39 12 58 23 29 54 49 92 61 7 1 13 3 20 3 20 2 36-10 45-27 6-13 5-29 1-42-1-4-1-7-1-9" fill="#ffffff" data-color="1"/>
        <path d="M583 2268h-2v-2c-16-24-31-46-46-67-5-8-10-15-20-7-8 5-16 10-23 17-7 5-8 10-5 16 0 5 2 8 3 10 13 20 22 33 27 40q4.5 7.5 6 15c0 6-5 13-11 16-9 5-15 12-23 15-5 3-9 2-14-2-14-25-28-44-36-59-7-10-15-8-23-2-10 7-18 12-25 17-20 11-38 24-56 38-15 10-21-7-28-17-5-10-8-15 2-21 1-2 3-4 5-5 118-78 193-129 224-149 8-6 15-6 22 3 21 35 36 58 67 103 5 6 0 11-6 15-10 6-23 15-38 26" fill="#ffffff" data-color="1"/>
        <path d="M2682 2436c2 0 2 2 2 2-5 10-11 17-18 25-8 8-17 6-25 0-5-2-11-7-20-12-11-8-21-6-29 4-10 11-17 19-22 28-6 11-1 21 7 31 3 7 8 13 13 18 3 5 5 7 0 10-10 13-15 22-25 27l-1 1c-2 0-2-1-4-1-3-4-6-9-10-14-49-69-104-145-163-227-5-9 0-14 5-20 5-5 10-10 13-15 10-8 20-7 30 0 86 49 168 97 247 143m-234-85h-2s0 1 2 1l66 86c3 3 5 7 8 8 7 5 12 0 17-3 3-5 10-11 15-18 5-5 6-10 0-13-32-20-63-40-96-60-3-1-8-3-10-1" fill="#ffffff" data-color="1"/>
        <path d="M594 2408c40-38 117-90 170-44 27 25 28 56 17 89-2 7-5 10-13 10h-17c-7 3-10 3-15 3-1 0-5-1-5-5 0-3 2-10 4-16 3-13 0-25-10-35-17-15-33-12-52-2-37 20-67 50-84 88-6 11-11 25-10 38 4 20 19 31 38 30 14-2 27-7 35-15 3-2 3-4 5-7 0-2 0-3-2-3-8-8-15-15-19-20-7-10-4-15 3-23 5-7 11-13 16-18 7-7 14-4 18 3 14 13 30 28 53 48 4 2 4 5 0 8-6 8-18 20-31 33-23 22-51 38-84 43-66 10-98-44-81-102 11-38 36-75 64-103" fill="#ffffff" data-color="1"/>
        <path d="M2516 2616v2c-10 8-23 17-37 28-3 2-6 2-11 0-43-23-76-38-94-48-7-3-10-5-12-5-5-5-10-5-13 2 0 2 0 3 2 5 1 2 6 5 8 10 20 25 38 49 56 72 5 5 7 12 0 15-7 5-13 9-18 13-7 7-10 7-17 2-95-125-155-200-175-226-5-7-3-10 4-15 29-23 44-35 48-36 19-17 41-27 67-18 17 5 28 16 40 28 15 16 26 33 33 53 6 16 5 33-5 49-3 8 2 12 8 15 33 15 73 33 116 54m-240-133c-11 6-6 13 0 23 12 13 23 26 37 44 8 12 28-14 31-21 5-8 10-15 5-25-5-15-15-25-28-33-17-10-31 3-45 12" fill="#ffffff" data-color="1"/>
        <path d="M832 2798h-2c-13-8-26-17-39-25-4-1-4-5-4-8 5-38 10-73 15-106 0-6 2-11 2-15 2-4 0-8-3-9-7 0-10 6-12 11-2 3-3 5-5 8-18 25-31 47-44 68-5 7-12 13-19 7-8-7-13-10-18-12-6-5-10-8-6-15 14-20 67-100 158-241 3-5 7-5 12-1 28 18 47 31 54 36 8 5 17 11 22 18 18 20 18 45 8 71-8 21-22 40-38 56-12 10-25 18-41 18-7 2-19-3-25 5 0 2-2 7-2 12-5 38-8 79-13 122m-5-213c-2 2-2 5 2 8 8 7 16 10 23 13 15 9 28 4 38-8 28-28 18-54-13-72-4-2-7-2-10 0-17 23-28 43-40 59" fill="#ffffff" data-color="1"/>
        <path d="M2260 2796c-3 2-5 4-7 4-8 5-15 8-21 13-8 5-15 0-18-7-35-64-71-132-103-190-5-8-10-13-21-6-10 5-27 16-35 13-3 0-6-3-10-7-6-10-11-18-13-24-7-10-5-17 7-22 34-18 74-39 114-63 9-5 16-3 21 5 5 10 10 19 13 27 5 15-3 20-13 26-13 7-18 10-20 10-6 3-8 10-3 17 43 79 79 147 109 201z" fill="#ffffff" data-color="1"/>
        <path d="M1009 2742c-5-2-9-2-10 3-7 15-14 32-22 51-1 4 0 5 5 9 38 16 66 28 83 34 6 4 10 7 6 15-3 12-8 22-15 31-3 7-11 10-19 7-5-2-10-3-15-5-17-8-51-21-104-44-7-2-8-7-5-14 38-87 74-173 110-262 4-5 9-7 15-3 38 16 80 33 124 51 7 3 8 6 5 11-5 15-8 27-13 35-8 12-20 8-32 3-24-10-47-18-66-28-9-3-11 4-14 10-5 8-9 15-12 25-7 13 5 20 15 23 8 3 21 10 41 18 8 5 17 7 23 10 7 3 7 8 5 17-6 13-11 23-15 28-8 11-23 3-34-2-4-2-23-10-56-23" fill="#ffffff" data-color="1"/>
        <path d="M2022 2902c-8 8-16 12-26 13-33 7-86-71-108-96-1-1-3-1-5-1-6 3-4 6-3 11 10 35 18 65 25 93 3 8 5 15-5 18-5 2-12 3-21 5-14 3-17-8-20-20-23-86-47-168-68-244-2-10-8-25 7-30 10-2 13-2 21-5 10-2 20-5 30-8 18-5 34-5 51-3 16 3 26 11 36 24 18 27 28 65 23 96-1 17-9 30-21 38-8 7-3 12 2 17 26 28 52 59 82 92m-157-134c4 4 9 4 15 2 13-5 33-18 33-35 2-18-5-41-25-48-11-5-24-1-38 4-4 1-6 5-4 11 6 27 13 50 16 63 0 2 2 3 3 3" fill="#ffffff" data-color="1"/>
        <path d="M1309 2953c0 3 0 5-2 7v1c-1 4-5 4-8 4-6-2-11-2-18-5-5 0-13-2-15-9-3-6-2-19 0-26 2-16-2-28-20-33-11-2-21-3-31-5-10 0-17 3-22 13-6 10-9 20-13 30-3 7-8 5-15 5-11-3-21-7-31-10 0 0-2 0-2-2 2-1 2-3 2-3 15-30 56-119 124-266 3-6 8-8 15-8 10 2 18 3 26 5 13 3 13 17 13 26 0 93-3 184-3 276m-66-110c12 1 18 3 20 3 1 1 3 0 3-2 2 0 2-3 2-5 1-39 3-81 6-122h-1c0-2 0-2-2-2h-2l-1 2c-15 36-32 74-48 111-2 3-2 5-2 5 0 3 2 5 4 5 1 0 8 1 19 5z" fill="#ffffff" data-color="1"/>
        <path d="M1634 2737c-1 0-1 0-1 2l3 46c2 5 2 10 8 8 30-2 50-3 74-7 14-1 24 0 24 15 0 22 11 42-15 43-15 0-25 0-30 2-15 1-30 3-46 5-9 1-9 6-7 16 0 10 2 18 2 25 1 10 3 22 15 23 5 2 11 2 19 2 4-2 17-2 38-3 20-2 38-14 43 13v26c2 12-1 17-15 18-4 0-11 0-23 2-39 3-72 7-99 10-10 0-16-3-16-13-10-99-18-190-27-276-1-10 4-15 14-15 43-3 82-6 122-11h8c10 0 12 8 12 16q1.5 15 0 30c0 11-12 13-22 15-21 1-53 5-81 8" fill="#ffffff" data-color="1"/>
        <path d="M1479 2740c-2 2-2 7-2 10-10 122-14 195-16 221 0 5-3 10-8 10-4 0-14-1-25-3-12 0-13-7-13-18 6-84 13-157 16-213 0-8-3-13-13-15-8 0-17 0-25-2-11-1-16-6-16-16v-30c1-10 6-15 16-13 50 3 93 6 127 10 4 0 9 0 12 1 5 2 6 9 6 14 0 11-1 21-3 33 0 11-8 11-18 11-16-1-26-3-31-3 0 0-4 2-5 3z" fill="#ffffff" data-color="1"/>
        <path d="M1550 0c855 0 1548 693 1548 1550 0 855-693 1548-1548 1548C693 3098 0 2405 0 1550 0 693 693 0 1550 0m0 68c817 0 1481 663 1481 1482 0 817-664 1481-1481 1481-819 0-1482-664-1482-1481C68 731 731 68 1550 68" fill="#ffffff" data-color="1"/>
        <path d="M1550 527c565 0 1022 457 1022 1023 0 565-457 1022-1022 1022-566 0-1023-457-1023-1022 0-566 457-1023 1023-1023m0-75c606 0 1096 491 1096 1098 0 606-490 1096-1096 1096-607 0-1098-490-1098-1096 0-607 491-1098 1098-1098" fill="#ffffff" data-color="1"/>
    </g>
</svg>
